<svg xmlns="http://www.w3.org/2000/svg" viewBox="0 0 167.2 131.16"><defs><style>.cls-1{fill:#e6e6e6;}.cls-2{fill:#ed1e79;}.cls-3{fill:#ccc;}</style></defs><g id="Layer_2" data-name="Layer 2"><g id="Layer_2-2" data-name="Layer 2"><path class="cls-1" d="M81.4,54c1.3-1.66,2.42-3.66,2.13-5.73S80.81,44.4,79,45.53a36.88,36.88,0,0,0-1.42,10.74C79.1,56.39,80.4,55.21,81.4,54Z"/><path class="cls-2" d="M46.69,54.2q7-4.7,13.63-9.91c2.07-1.66,4.31-3.84,3.78-6.44s-3.6-3.78-6-2.77-3.6,3.6-3.6,6.08c.06,1.65.23,3.83-1.3,4.48-1.71.65-3.07-1.53-4.72-2.42-2.07-1.18-4.91.18-6.14,2.25s-1.36,4.6-1.48,7a4.05,4.05,0,0,0,.29,1.89C42.14,56.27,45,55.33,46.69,54.2Z"/><path class="cls-2" d="M36.65,56.74c.06-2-2.25-3.13-4.19-3.78-.53,2.25-1,4.55-1.54,6.79C33.34,60,36.59,59.16,36.65,56.74Z"/><path class="cls-2" d="M115.88,13.17c-2.3-1.65-4.55-3.3-6.79-4.9a2.62,2.62,0,0,0-1.89-.71,2.38,2.38,0,0,0-1.18.65,20.65,20.65,0,0,0-6.38,9.68c-.41,1.42-2.18,1.95-3.66,1.72s-2.71-1-4.13-1.36a7,7,0,0,0-6.44,2.18,6.7,6.7,0,0,0-1.06,6.67,3.55,3.55,0,0,0-2.6,1.42q15.77-5.76,31.35-11.87C114.7,16.06,116.59,14.65,115.88,13.17Z"/><path class="cls-2" d="M141.15,8.27a4.52,4.52,0,0,0,1.3-4c-.36-1.42-2.19-2.42-3.37-1.6a23.78,23.78,0,0,0-7.44,7.5A8.21,8.21,0,0,0,141.15,8.27Z"/><path class="cls-2" d="M126.62,10.81a2.63,2.63,0,0,0-.53-1.71c-.94-1.42-1.83-2.84-2.71-4.25A27.34,27.34,0,0,1,119,13.23a19.36,19.36,0,0,0,5.79-.83C125.56,12.11,126.51,11.7,126.62,10.81Z"/><path class="cls-2" d="M71.78,34.66C73.37,33.42,75.5,32,77.27,33a1.34,1.34,0,0,1,0,1.53,5.2,5.2,0,0,0,4.78-1.24l-3-1.77c-1.83-1.18-4-2.36-6.08-1.77-2.84.77-4.08,4.25-6.67,5.67C67.7,36.91,70.18,35.9,71.78,34.66Z"/><path class="cls-2" d="M29.86,67.43c4.84-3,9.74-6,14.58-8.92-1.89-1.18-4.31.06-6.2,1.3L30,65.24a24.3,24.3,0,0,0-3.43,2.54C27.44,68.61,28.8,68,29.86,67.43Z"/><path class="cls-1" d="M158.21,85.08a6.34,6.34,0,0,0,1.89-5.31l.12-.06A13.13,13.13,0,0,0,162,74.16,13.87,13.87,0,0,0,158.21,85.08Z"/><path class="cls-1" d="M95.39,37.61a2.31,2.31,0,0,0-.94.89c-1.24,1.89-2.48,3.72-3.72,5.61-.89,1.3-1.77,3-1.06,4.43A4.3,4.3,0,0,0,91.14,50a19.09,19.09,0,0,0,5.2,2.42,44,44,0,0,1,.47-11.86C97.05,39.27,96.63,37.26,95.39,37.61Z"/><path class="cls-1" d="M139.67,15.59c-3.13-2.71-7.91-1.71-11.81-.47a321.75,321.75,0,0,0-32.53,12.1c-6,2.6-12.22,5.61-16.23,10.87-.71,3.36,3.6,6.08,6.91,5.19s5.49-4,7.08-7.08c1-2,4.19-1.54,5.43.29s1.12,4.13,1,6.32c-.24,2.83-.42,5.67-.65,8.5a5.23,5.23,0,0,1-.95,3C95.33,57,91.61,51.9,88,51.72A59.18,59.18,0,0,0,98,69.85c-7-.47-10.1-9-11.51-15.88a36.27,36.27,0,0,1-10.92,20c2.18-5.43,4.31-10.8,6.49-16.17a10.69,10.69,0,0,1-6.91.76A40.89,40.89,0,0,1,75.91,41Q44.92,60.72,14,80.36A3.33,3.33,0,0,0,12.38,82a3.41,3.41,0,0,0,.24,1.83q5.67,18.51,11.39,37c13.41-1,19.19-21,32.59-21.73,6.44-.35,12.28,4.31,15.29,10s3.72,12.22,4.43,18.6a400.78,400.78,0,0,1,73.86-29.23c1.36-2.42.36-5.49-1.3-7.61s-3.95-3.84-5.61-6c-3.6-4.67-3.89-11-3.48-16.95s1.65-12.22,6.49-15.41c5.08-3.42,12.28-2,17.24-5.43A98.11,98.11,0,0,0,139.67,15.59Z"/><path class="cls-2" d="M15.51,72.15c-1.36-3-4.72-5.19-7.91-4.49s-5.31,4.85-3.42,7.5a5.34,5.34,0,0,0,6.25,1.6A10.37,10.37,0,0,0,15.51,72.15Z"/><path class="cls-2" d="M26.26,63.77A7.65,7.65,0,0,0,23,63.53v.06a5,5,0,0,0-2.54,4.13A6.06,6.06,0,0,0,26.26,63.77Z"/><path class="cls-3" d="M68.18,108.64a13,13,0,0,0-8.51-6.44c-6.08-1.12-11.75,3.31-15.76,8s-7.67,10.22-13.46,12.4c8.62,2.83,18,2,27,1.12a55.45,55.45,0,0,0,12.46-2.18,2.37,2.37,0,0,0,1.36-.83,2.65,2.65,0,0,0,.17-1.65A27.86,27.86,0,0,0,68.18,108.64Z"/><path class="cls-3" d="M159,51.49c-5.08.94-10.63,2.18-13.64,6.37-2.6,3.66-2.54,8.57-2.24,13.11.23,4,.53,8.09,2.59,11.51,1.66,2.72,4.31,4.79,5.79,7.62,2.24-5.43,4.49-10.8,6.73-16.24,2.95-7.2,6-14.87,4.84-22.55A9.5,9.5,0,0,0,159,51.49Z"/><path id="Pants" d="M158.39,31c-3.19-3.9-7.32-7-10.39-11S143,10.55,145,6c1.41-3.37-3.07-6.73-6.56-5.79s-5.78,4.13-7.73,7.2c-.83,1.24-2.89.36-3.66-.88s-1.36-3-2.78-3.43c-2.3-.76-4,2-5.13,4.08S114.7,11,113.64,8.84c-1.89-3.6-7.27-3.9-10.63-1.59s-5.14,6.14-6.73,9.86A11.1,11.1,0,0,0,79.87,28.32c-5.26-3.18-13.11-.47-15.3,5.26-5.13-3.49-13.4.88-13.4,7.08-5.84-2.24-13.1,3.07-12.75,9.33.06,1.36-1.83,1.95-3.13,1.59s-2.6-1.18-4-.94c-2.24.41-2.77,3.37-3,5.73s-1.41,5.25-3.72,4.9a7.28,7.28,0,0,0-8,7.2c-3.83-3.66-10.39-4.78-14.4-1.3S-.19,78.8,5.06,79.45c1.71.18,2.66,2,3.31,3.54a204.76,204.76,0,0,1,11.39,37.38c1.18,5.66,11.93,2.53,14.53,7.73a21.19,21.19,0,0,0-11.16-.89c5.37,3.72,12.46,3.25,18.89,2.72,9.51-.89,19-1.71,28.52-2.54-1-.71-1.89-1.42-2.84-2.06,1-1.66,3.78-1.36,5,.17a6.47,6.47,0,0,1,.59,5.61c3.07.36,6-1.18,8.74-2.6a320.64,320.64,0,0,1,66.42-26.27c6.38-1.71,9.8-8.44,12.16-14.52,3.54-9.27,6.44-19,6.61-28.93S164.76,38.66,158.39,31ZM139.08,2.76c1.18-.83,3,.18,3.37,1.59a4.53,4.53,0,0,1-1.3,4,8.23,8.23,0,0,1-9.51,1.89A23.78,23.78,0,0,1,139.08,2.76Zm-15.7,2.18c.88,1.42,1.77,2.84,2.71,4.25a2.67,2.67,0,0,1,.53,1.72c-.11.88-1.06,1.3-1.88,1.59a19.36,19.36,0,0,1-5.79.83A27.39,27.39,0,0,0,123.38,4.94Zm-39,22.26a6.7,6.7,0,0,1,1.06-6.67,6.93,6.93,0,0,1,6.44-2.18c1.42.35,2.72,1.12,4.13,1.35s3.25-.29,3.66-1.71A20.61,20.61,0,0,1,106,8.31a2.31,2.31,0,0,1,1.18-.65,2.58,2.58,0,0,1,1.89.71c2.24,1.59,4.49,3.25,6.79,4.9.71,1.47-1.18,2.89-2.78,3.48Q97.51,22.87,81.75,28.62A3.52,3.52,0,0,1,84.35,27.2ZM73,29.8c2.12-.59,4.25.59,6.08,1.77,1,.59,2,1.18,3,1.77a5.26,5.26,0,0,1-4.78,1.24,1.34,1.34,0,0,0,0-1.53c-1.77-1-3.9.47-5.49,1.71s-4.08,2.24-5.43.71C68.94,34.05,70.18,30.57,73,29.8Zm6,15.82c1.83-1.12,4.25.65,4.55,2.72s-.83,4.07-2.13,5.72c-1,1.24-2.3,2.43-3.84,2.31A37,37,0,0,1,79,45.62Zm-36.6-.06c1.23-2.06,4.07-3.42,6.14-2.24,1.65.88,3,3.07,4.72,2.42,1.53-.65,1.36-2.83,1.3-4.49,0-2.48,1.3-5.13,3.6-6.08s5.49.3,6,2.78-1.71,4.78-3.78,6.43q-6.63,5.23-13.63,9.92c-1.72,1.12-4.55,2.07-5.5.18a4.05,4.05,0,0,1-.29-1.89C41,50.17,41.14,47.63,42.38,45.56Zm-9.92,7.5c1.94.65,4.25,1.77,4.19,3.78-.06,2.42-3.31,3.25-5.73,3C31.45,57.61,31.93,55.3,32.46,53.06ZM30,65.34l8.26-5.43c1.89-1.24,4.31-2.48,6.2-1.3-4.84,3-9.74,6-14.58,8.92-1.06.59-2.42,1.18-3.31.35A24.3,24.3,0,0,1,30,65.34Zm-7-1.65v-.06a7.5,7.5,0,0,1,3.25.24,6.06,6.06,0,0,1-5.79,3.95A5,5,0,0,1,23,63.69ZM4.18,75.26c-1.89-2.66.23-6.85,3.42-7.5s6.55,1.54,7.91,4.49a10.3,10.3,0,0,1-5.08,4.6A5.33,5.33,0,0,1,4.18,75.26Zm67.07,45.58a2.31,2.31,0,0,1-1.36.82,55.46,55.46,0,0,1-12.46,2.19c-9,.88-18.36,1.71-27-1.12,5.79-2.19,9.5-7.68,13.46-12.4s9.68-9.15,15.76-8a13,13,0,0,1,8.51,6.44,27.74,27.74,0,0,1,3.24,10.45A2.65,2.65,0,0,1,71.25,120.84Zm89-41-.12,0a6.36,6.36,0,0,1-1.89,5.32A13.86,13.86,0,0,1,162,74.26,13.22,13.22,0,0,1,160.22,79.81ZM158.27,74c-2.24,5.43-4.49,10.81-6.73,16.24-1.48-2.84-4.13-4.9-5.79-7.62-2.06-3.42-2.36-7.56-2.59-11.51-.3-4.55-.36-9.45,2.24-13.11,3-4.19,8.56-5.43,13.64-6.38a9.49,9.49,0,0,1,4.07-.17C164.29,59.08,161.22,66.76,158.27,74Zm-12-21.37c-4.84,3.19-6.14,9.62-6.49,15.41s-.12,12.28,3.48,16.94c1.66,2.19,4,3.84,5.61,6s2.66,5.2,1.3,7.62A400,400,0,0,0,76.32,127.8c-.71-6.37-1.41-12.92-4.43-18.59S63,98.88,56.6,99.23C43.2,99.94,37.42,120,24,121q-5.75-18.51-11.39-37a3.41,3.41,0,0,1-.24-1.83A3.33,3.33,0,0,1,14,80.46q30.9-19.66,61.93-39.38a40.87,40.87,0,0,0-.77,17.53,10.69,10.69,0,0,0,6.91-.77C79.87,63.22,77.74,68.59,75.56,74a36.27,36.27,0,0,0,10.92-20C87.89,61,91,69.47,98,70A59.41,59.41,0,0,1,88,51.82c3.6.18,7.32,5.26,9.86,2.6a5.23,5.23,0,0,0,.95-3c.23-2.84.41-5.67.65-8.5.17-2.19.29-4.55-1-6.32s-4.43-2.24-5.43-.3c-1.59,3.07-3.78,6.14-7.08,7.09s-7.62-1.83-6.91-5.2c4-5.25,10.21-8.26,16.23-10.86a319.35,319.35,0,0,1,32.53-12.1c3.9-1.24,8.68-2.25,11.81.47a98,98,0,0,1,23.85,31.47C158.56,50.58,151.36,49.16,146.28,52.59Zm-49.94-.06a19.09,19.09,0,0,1-5.2-2.42,4.33,4.33,0,0,1-1.47-1.48c-.71-1.41.17-3.13,1.06-4.43,1.24-1.88,2.48-3.71,3.72-5.6a2.24,2.24,0,0,1,.94-.89c1.24-.35,1.66,1.65,1.42,2.95A44.1,44.1,0,0,0,96.34,52.53Z"/></g></g></svg>