<svg xmlns="http://www.w3.org/2000/svg" viewBox="0 0 100 286.03"><defs><style>.cls-1{fill:#ff0;}.cls-2{fill:#8c6239;}.cls-3{fill:#603813;}</style></defs><g id="Layer_2" data-name="Layer 2"><g id="Layer_2-2" data-name="Layer 2"><path class="cls-1" d="M65.34,138.33a8.17,8.17,0,0,0,1.11-3.72,3.58,3.58,0,0,0-4.18,1.83,7.48,7.48,0,0,0-.39,2.94C63,140,64.55,139.38,65.34,138.33Z"/><path class="cls-1" d="M14.28,124.1a33,33,0,0,0-.58,10.71C17.42,132.72,17.74,126.58,14.28,124.1Z"/><path class="cls-1" d="M34,166.08h-.2l1,2.35a3.51,3.51,0,0,0,3.66-2.61,8.64,8.64,0,0,0-.2-4.83A5.22,5.22,0,0,0,34,166.08Z"/><path class="cls-2" d="M90.86,115.35c-.85-3.33-1.63-6.65-2.41-10-.53-2.22-1.31-4.77-3.33-5.88-3.79-2-8,2.42-12.34,2.61-3.14.13-5.88-2.09-8.62-3.72s-6.53-2.68-8.88-.52a22.73,22.73,0,0,1-26.83,2.61,24.27,24.27,0,0,0-4.7-2.68c-2.68-.91-5.55-.32-8.16.53-3.59,1.24-7.12,3.19-9.2,6.33s-2.42,7.64.06,10.51Z"/><path class="cls-3" d="M30.47,16.06c3.27,2.22,7.45,2.28,11.36,2.22,2.16-.07,4.51-.2,6-1.7,1.44-1.3,1.76-3.39,2-5.29.33-2.48.66-5,1-7.44A48.6,48.6,0,0,0,33.28,4a8.77,8.77,0,0,0-4.76,2C25.71,8.75,27.21,13.91,30.47,16.06Z"/><path class="cls-3" d="M29.63,97.08a15.26,15.26,0,0,0,15.4,3c3.33-1.24,6.14-3.66,9.4-5.22s7.38-2.16,10.12.19c5.62,4.77,14.1,2.87,21.15.72a29.51,29.51,0,0,0-23.17-17.1c-3.2-.33-6.92-.46-8.75-3.07a9.26,9.26,0,0,1-1.17-5Q51.43,49.28,50.32,28c-5.16,1.3-10.25,2.67-15.41,4-1.69.46-3.59.91-5.09,0-3.52-2.09-1-8.49-4.18-11.16.27,12.07.53,24.15.79,36.16.19,9.21,0,19.33-6.07,26.18-5,5.61-13.84,9-14.56,16.45,3.72-2.09,7.51-4.31,11.68-5.16S26.43,94.2,29.63,97.08Z"/><path class="cls-3" d="M30.41,19.91c-.46,2-.91,4.11-.33,6.07s2.61,3.59,4.64,3.07c3.07-.85,6.2-1.76,9.27-2.61a8.36,8.36,0,0,0,3.92-1.83c1-1,1.43-2.74.52-3.85A41.08,41.08,0,0,1,30.41,19.91Z"/><path class="cls-1" d="M77.54,136.05a1.83,1.83,0,0,0-2.22-2.22,3.25,3.25,0,0,0,0,4.44C76.5,138.79,77.87,137.29,77.54,136.05Z"/><path class="cls-1" d="M95.17,203.75a514.37,514.37,0,0,0-1-76.32c-.33-3.79-1.77-8.62-5.55-8.62q-39.07-.28-78.21-.52c-1.44,0-3,.07-3.92,1a4.79,4.79,0,0,0-1,3.52Q4.39,164,3.32,205,49.24,202.83,95.17,203.75Zm-14-9A5.33,5.33,0,0,1,76,192.13a3.45,3.45,0,0,1,5.16,2.35ZM76,174.83a1.71,1.71,0,0,1,.85-1.24c1.24-.59,2.08,1.37,2.08,2.74s0,2.74-.06,4a3.34,3.34,0,0,1-.26,1.63,1.66,1.66,0,0,1-2,.65A10.53,10.53,0,0,1,76,174.83Zm8.09-10a12.78,12.78,0,0,1-1.37-5.22c-2.61,2.74-1.83,7.18-.85,10.83a2.15,2.15,0,0,1-3.07-.39,6.51,6.51,0,0,1-1-3.26,124.16,124.16,0,0,1-.13-14.69A4.52,4.52,0,0,1,81,157.92c1.83-2.61,4.7-5.49,7.64-4.31a11.29,11.29,0,0,1-5.16,5.87,11.62,11.62,0,0,1,5.23,7.45C86.94,167.51,85.05,166.4,84.07,164.84Zm4.38,8.62a3.21,3.21,0,0,1-1-2.75,2.93,2.93,0,0,1,4.64.53l.06.06A2.59,2.59,0,0,1,88.45,173.46Zm4.11-14.17a2,2,0,0,1-1.11,1.17c-1,.2-1.44-1.3-1.37-2.35a30.3,30.3,0,0,1,2.74-11A15.37,15.37,0,0,1,92.56,159.29ZM85.7,125.86c2,.07,3.4,1.77,4.31,3.4a18.17,18.17,0,0,1,2,11.68c-1,.79-2.09-.71-2.35-1.89C88.9,136,88.18,133,87.4,130c-.19-.92-1.63-.92-2.22-.13a3.76,3.76,0,0,0-.26,2.67c.46,3.53.91,7,1.37,10.58-1.17,1.44-3.72.26-4.31-1.57s.07-3.65.26-5.55a11.44,11.44,0,0,0-2.8-8.42C81.66,127.76,83.55,125.73,85.7,125.86Zm-13.84,8.82c.33-1.83,1.18-3.79,2.88-4.31s3.46.72,4.37,2.15a6.35,6.35,0,0,1,.2,7c-1.51,2-4.77,2.48-6.47.65C71.54,138.73,71.54,136.57,71.86,134.68Zm-13.38,2.48c.33-3.07,3.2-5.49,6.27-5.81,1.3-.2,1.76-1.83,1.83-3.14.19-1.82.32-3.59.52-5.35.85-.13,1.7-.19,2.54-.32,1.11,3.72.59,7.7,0,11.48s-1.82,8.17-5.48,8.82C61.16,143.36,58.22,140.23,58.48,137.16Zm4.7,18.73-.32.46A4.93,4.93,0,0,1,58.61,153a2,2,0,0,1,1.63-.85A4.91,4.91,0,0,1,63.18,155.89ZM40.72,130.37c1.7.19,2.75-1.83,3.2-3.46s1-3.72,2.68-4c1.44.59,1.44,2.68.78,4.11s-1.76,2.68-1.76,4.25c-.06,2,1.57,3.46,2.94,4.83s2.61,3.39,1.76,5.16a39,39,0,0,1-7.11-6.47,18.85,18.85,0,0,1-3.79,8.75c-2.87-6.33,1.17-15.14-3.79-20C39,123.12,42.1,127.17,40.72,130.37ZM9.85,127.63c.58-2.42,1.56-5.29,4-5.75,1.83-.39,3.66.92,4.64,2.55a8.8,8.8,0,0,1-.2,9.59c-2,2.94-5.94,4.9-6.2,8.43-.13,1.24.26,2.48.07,3.65s-1.31,2.48-2.42,2.09C6.78,141.86,8.28,134.42,9.85,127.63ZM7.76,190.89a5.79,5.79,0,0,1,5.28.45l.2.33C12.07,193.76,8.34,193.17,7.76,190.89Zm-.07-12.28c3.72.72,5.42,6.14,2.87,8.95a1.37,1.37,0,0,1-1.24.52c-.52-.2-.65-.78-.71-1.31C8.34,184,8,181.29,7.69,178.61ZM19,160.07a10.44,10.44,0,0,0-2.49.85c-1.17.92-1.17,2.61-1,4.05s.58,3-.2,4.24-3.2,1-3.2-.46c.07-2.41.13-4.83.2-7.31a11.28,11.28,0,0,1-4.77-1.3c.39-1.9,2.87-2.35,4.77-2.35-.46-2-.92-4-1.44-6.07.85-.72,2.15-.2,2.81.71a23.38,23.38,0,0,1,1.43,2.88,5.31,5.31,0,0,0,5,2.67C20.55,158.77,19.83,159.75,19,160.07Zm2.28,17c.13-1.38.78-3.2,2.15-2.94a12,12,0,0,1-.39,11c-.39.72-1.17,1.44-1.89,1.05-.52-.33-.52-1.05-.52-1.7C20.88,182,21.07,179.53,21.27,177.05ZM23.1,132.2a17.1,17.1,0,0,1,1,8.48,3.77,3.77,0,0,1-.66,1.7,1.9,1.9,0,0,1-1.24.65A9.25,9.25,0,0,1,23.1,132.2ZM22.58,194c-1.11-.26-2-1.63-1.44-2.61l.26.13a3.6,3.6,0,0,1,4.57,1.9A5.6,5.6,0,0,1,22.58,194Zm-1.77-72.26a5.81,5.81,0,0,1,5.29.45l.2.33C25.12,124.56,21.4,124,20.81,121.69Zm9,20.69a34.83,34.83,0,0,1-.91-18.47c2-.33,2.81,2.48,2.87,4.5.07,3.53.13,7.05.2,10.64C32,140.55,31.32,142.71,29.82,142.38Zm3.59,34.8A13.88,13.88,0,0,1,35,191,13.9,13.9,0,0,1,33.41,177.18Zm3.33,19.32A2,2,0,0,1,35.18,194a4.45,4.45,0,0,1,5.28,2.68A3.49,3.49,0,0,1,36.74,196.5ZM40.14,169c-.66,2.29-3.53,3.4-5.75,2.61A6.43,6.43,0,0,1,30.61,166a8.17,8.17,0,0,1,8-8.35c-.53-1.64-1-3.53-.14-5s3.79-1.24,3.79.45a69.86,69.86,0,0,0,2.81,21.68C42.29,175.28,40.72,171.76,40.14,169Zm5.68,10.25c2-.85,3.78,1.7,4.11,3.85a13.81,13.81,0,0,1-2,9.21C44.45,189.32,48.49,182.92,45.82,179.2Zm5,17.3c-1.37.07-2.48-1.18-3.39-2.22a4.79,4.79,0,0,1,4.31-.39l.06-.26C53.13,194.08,52.28,196.43,50.84,196.5ZM49.34,159a27.23,27.23,0,0,1-.52,10.51c-2.68-1.76-2.87-5.55-2.81-8.81a18.34,18.34,0,0,1,1-6.2,6,6,0,0,1,4.7-3.72c2.09-.13,4.25,1.82,3.79,3.91C52.74,153.22,49,155.89,49.34,159Zm9.79,14.5a22,22,0,0,1-3.52-15.87c.65-.39,1.24-.78,1.89-1.17.85,3.33,1.57,6.59,2.16,10C60.05,168.75,60.37,171.37,59.13,173.46Zm5.75,20.82a2.68,2.68,0,0,1-2.48-2.09,10.36,10.36,0,0,1-.13-3.52,30.8,30.8,0,0,0-1.83-12.8c1.63-1,3.66.91,4.37,2.74a14.87,14.87,0,0,1-.71,12.47C65.6,191,66.25,193.63,64.88,194.28Zm1.37-26.7a8,8,0,0,1-1-3.46c-.33-2.68-.27-6,2.08-7.25,2-1,4.51.26,5.62,2.16s1.24,4.18,1.3,6.33c.07,1.44-.58,3.53-1.95,3.07a17.22,17.22,0,0,0-3.27-9,16.38,16.38,0,0,0,.39,9.2A2.55,2.55,0,0,1,66.25,167.58Z"/><path class="cls-2" d="M95.56,212.69c.13-2.55-1.83-4.83-4.18-5.74s-5-.92-7.5-.85q-39,1.07-78,2.09c-3.52.13-4.37,4.89-4,8.42q1.47,19.48,2.93,39c.4,5.29.79,10.64,2.88,15.47s6.2,9.14,11.36,10a121.9,121.9,0,0,0,56.53-3.79c8.23-2.61,17-6.85,20-14.88,1.82-5,1.11-10.64.52-16A193.37,193.37,0,0,1,95.56,212.69Z"/><path id="Pilk" d="M79.31,139.51a6.35,6.35,0,0,0-.2-7c-.91-1.43-2.68-2.61-4.37-2.15s-2.55,2.48-2.88,4.31-.32,4,1,5.48C74.54,142,77.8,141.47,79.31,139.51Zm-4-5.68a1.83,1.83,0,0,1,2.22,2.22c.33,1.24-1,2.74-2.22,2.22A3.25,3.25,0,0,1,75.32,133.83ZM58.61,153a4.93,4.93,0,0,0,4.24,3.33l.33-.46a4.91,4.91,0,0,0-2.94-3.72A2,2,0,0,0,58.61,153Zm-19.19-9.53a18.85,18.85,0,0,0,3.79-8.75,39,39,0,0,0,7.11,6.47c.85-1.77-.39-3.79-1.76-5.16s-3-2.87-2.94-4.83c0-1.57,1.11-2.87,1.76-4.25s.66-3.52-.78-4.11c-1.7.33-2.29,2.35-2.68,4s-1.5,3.65-3.2,3.46c1.38-3.2-1.69-7.25-5.09-6.86C40.59,128.35,36.55,137.16,39.42,143.49Zm24.74-.65c3.66-.65,5-5.16,5.48-8.82s1.11-7.76,0-11.48c-.84.13-1.69.19-2.54.32-.2,1.76-.33,3.53-.52,5.35-.07,1.31-.53,2.94-1.83,3.14-3.07.32-5.94,2.74-6.27,5.81S61.16,143.36,64.16,142.84Zm-1.89-6.4a3.58,3.58,0,0,1,4.18-1.83,8.17,8.17,0,0,1-1.11,3.72c-.79,1-2.35,1.7-3.46,1A7.48,7.48,0,0,1,62.27,136.44ZM78.59,182a3.34,3.34,0,0,0,.26-1.63c.06-1.31.06-2.68.06-4s-.84-3.33-2.08-2.74a1.71,1.71,0,0,0-.85,1.24,10.53,10.53,0,0,0,.58,7.83A1.66,1.66,0,0,0,78.59,182Zm10.12-15.08a11.62,11.62,0,0,0-5.23-7.45,11.29,11.29,0,0,0,5.16-5.87c-2.94-1.18-5.81,1.7-7.64,4.31a4.52,4.52,0,0,0-3.33-5.81,124.16,124.16,0,0,0,.13,14.69,6.51,6.51,0,0,0,1,3.26,2.15,2.15,0,0,0,3.07.39c-1-3.65-1.76-8.09.85-10.83a12.78,12.78,0,0,0,1.37,5.22C85.05,166.4,86.94,167.51,88.71,166.93ZM76,192.13a5.33,5.33,0,0,0,5.16,2.61v-.26A3.45,3.45,0,0,0,76,192.13Zm-63.84-46c.19-1.17-.2-2.41-.07-3.65.26-3.53,4.18-5.49,6.2-8.43a8.8,8.8,0,0,0,.2-9.59c-1-1.63-2.81-2.94-4.64-2.55-2.48.46-3.46,3.33-4,5.75-1.57,6.79-3.07,14.23-.07,20.56C10.89,148.58,12.07,147.34,12.2,146.1Zm2.08-22c3.46,2.48,3.14,8.62-.58,10.71A33,33,0,0,1,14.28,124.1Zm77.17,36.36a2,2,0,0,0,1.11-1.17,15.37,15.37,0,0,0,.26-12.14,30.3,30.3,0,0,0-2.74,11C90,159.16,90.4,160.66,91.45,160.46Zm-4,10.25a3.21,3.21,0,0,0,1,2.75,2.59,2.59,0,0,0,3.65-2.16l-.06-.06A2.93,2.93,0,0,0,87.4,170.71ZM82.24,136c-.19,1.9-.78,3.79-.26,5.55s3.14,3,4.31,1.57c-.46-3.53-.91-7-1.37-10.58a3.76,3.76,0,0,1,.26-2.67c.59-.79,2-.79,2.22.13.78,3,1.5,6,2.29,9.07.26,1.18,1.37,2.68,2.35,1.89a18.17,18.17,0,0,0-2-11.68c-.91-1.63-2.35-3.33-4.31-3.4-2.15-.13-4,1.9-6.26,1.7A11.44,11.44,0,0,1,82.24,136ZM32,139.05c-.07-3.59-.13-7.11-.2-10.64-.06-2-.91-4.83-2.87-4.5a34.83,34.83,0,0,0,.91,18.47C31.32,142.71,32,140.55,32,139.05Zm10.31,14.1c0-1.69-2.87-2-3.79-.45s-.39,3.32.14,5a8.17,8.17,0,0,0-8,8.35,6.43,6.43,0,0,0,3.78,5.55c2.22.79,5.09-.32,5.75-2.61.58,2.81,2.15,6.33,5,5.88A69.86,69.86,0,0,1,42.29,153.15Zm-3.85,12.67a3.51,3.51,0,0,1-3.66,2.61l-1-2.35H34A5.22,5.22,0,0,1,38.24,161,8.64,8.64,0,0,1,38.44,165.82Zm13.38,27.81-.06.26a4.79,4.79,0,0,0-4.31.39c.91,1,2,2.29,3.39,2.22S53.13,194.08,51.82,193.63ZM48,192.26a13.81,13.81,0,0,0,2-9.21c-.33-2.15-2.16-4.7-4.11-3.85C48.49,182.92,44.45,189.32,48,192.26Zm9.53-35.84c-.65.39-1.24.78-1.89,1.17a22,22,0,0,0,3.52,15.87c1.24-2.09.92-4.71.53-7.06C59.07,163,58.35,159.75,57.5,156.42Zm-5.81-5.68a6,6,0,0,0-4.7,3.72,18.34,18.34,0,0,0-1,6.2c-.06,3.26.13,7.05,2.81,8.81A27.23,27.23,0,0,0,49.34,159c-.39-3.07,3.4-5.74,6.14-4.31C55.94,152.56,53.78,150.61,51.69,150.74Zm13.12,27.87c-.71-1.83-2.74-3.78-4.37-2.74a30.8,30.8,0,0,1,1.83,12.8,10.36,10.36,0,0,0,.13,3.52,2.68,2.68,0,0,0,2.48,2.09c1.37-.65.72-3.26-.78-3.2A14.87,14.87,0,0,0,64.81,178.61Zm34.73,67.18c-3.2-41.72,3.07-84-3.52-125.34-1.7-10.51-4.31-21.22-10.32-30.1s-16-15.6-26.7-15.28c-1.69,0-2.41-2.21-2.61-3.91A595.81,595.81,0,0,1,53.52,5.61c0-1.37,0-2.93-.91-4C51.56.39,49.8.13,48.17.07a85.66,85.66,0,0,0-19.65,1.5,6.43,6.43,0,0,0-2.94,1.17c-1.18,1-1.37,2.68-1.57,4.18a245.65,245.65,0,0,0-1,41.59c.79,12.14,1.77,26.11-7,34.46C12.39,86.43,7.36,88.59,5,93c-1.5,2.8-1.69,6.13-1.82,9.27-2,49.29-4,98.64-2.81,148,.33,12,2,26.18,12.53,32.12,4.12,2.35,9,3,13.78,3.27a144.17,144.17,0,0,0,46.68-4.38c10.18-2.68,21.21-7.51,25.06-17.3C100.65,258.32,100,251.92,99.54,245.79ZM28.52,6a8.77,8.77,0,0,1,4.76-2,48.6,48.6,0,0,1,17.63-.13c-.39,2.48-.72,5-1,7.44-.26,1.9-.58,4-2,5.29-1.5,1.5-3.85,1.63-6,1.7-3.91.06-8.09,0-11.36-2.22S25.71,8.75,28.52,6Zm19.39,18.6A8.36,8.36,0,0,1,44,26.44c-3.07.85-6.2,1.76-9.27,2.61-2,.52-4-1.11-4.64-3.07s-.13-4.11.33-6.07a41.08,41.08,0,0,0,18,.85C49.34,21.87,48.88,23.63,47.91,24.61ZM20.36,83.17c6.07-6.85,6.26-17,6.07-26.18-.26-12-.52-24.09-.79-36.16,3.14,2.67.66,9.07,4.18,11.16,1.5.91,3.4.46,5.09,0,5.16-1.31,10.25-2.68,15.41-4q1.08,21.24,2.29,42.63a9.26,9.26,0,0,0,1.17,5c1.83,2.61,5.55,2.74,8.75,3.07A29.51,29.51,0,0,1,85.7,95.77c-7,2.15-15.53,4-21.15-.72-2.74-2.35-6.92-1.76-10.12-.19s-6.07,4-9.4,5.22a15.26,15.26,0,0,1-15.4-3c-3.2-2.88-7.9-3.53-12.15-2.62s-8,3.07-11.68,5.16C6.52,92.18,15.39,88.78,20.36,83.17Zm-14,21.48c2.08-3.14,5.61-5.09,9.2-6.33,2.61-.85,5.48-1.44,8.16-.53a24.27,24.27,0,0,1,4.7,2.68,22.73,22.73,0,0,0,26.83-2.61c2.35-2.16,6.14-1.11,8.88.52s5.48,3.85,8.62,3.72c4.37-.19,8.55-4.63,12.34-2.61,2,1.11,2.8,3.66,3.33,5.88.78,3.33,1.56,6.65,2.41,10l-84.41-.19C4,112.29,4.3,107.78,6.39,104.65Zm-.92,18.21a4.79,4.79,0,0,1,1-3.52c.91-1,2.48-1,3.92-1q39.08.3,78.21.52c3.78,0,5.22,4.83,5.55,8.62a514.37,514.37,0,0,1,1,76.32q-45.93-1-91.85,1.24Q4.4,164,5.47,122.86Zm90,139.51c-3,8-11.75,12.27-20,14.88A121.9,121.9,0,0,1,19,281c-5.16-.85-9.27-5.16-11.36-10s-2.48-10.18-2.88-15.47q-1.47-19.49-2.93-39c-.33-3.53.52-8.29,4-8.42q39-1.08,78-2.09c2.54-.07,5.15-.13,7.5.85s4.31,3.19,4.18,5.74A193.37,193.37,0,0,0,96,246.38C96.61,251.73,97.32,257.34,95.5,262.37ZM69,159.42a17.22,17.22,0,0,1,3.27,9c1.37.46,2-1.63,1.95-3.07-.06-2.15-.19-4.44-1.3-6.33s-3.66-3.14-5.62-2.16c-2.35,1.24-2.41,4.57-2.08,7.25a8,8,0,0,0,1,3.46,2.55,2.55,0,0,0,3.13,1A16.38,16.38,0,0,1,69,159.42ZM33.41,177.18A13.9,13.9,0,0,0,35,191,13.88,13.88,0,0,0,33.41,177.18Zm-12.27,9c.72.39,1.5-.33,1.89-1.05a12,12,0,0,0,.39-11c-1.37-.26-2,1.56-2.15,2.94-.2,2.48-.39,5-.65,7.44C20.62,185.14,20.62,185.86,21.14,186.19Zm-6-30.88a23.38,23.38,0,0,0-1.43-2.88c-.66-.91-2-1.43-2.81-.71.52,2,1,4,1.44,6.07-1.9,0-4.38.45-4.77,2.35a11.28,11.28,0,0,0,4.77,1.3c-.07,2.48-.13,4.9-.2,7.31,0,1.51,2.42,1.64,3.2.46s.46-2.81.2-4.24-.2-3.13,1-4.05a10.44,10.44,0,0,1,2.49-.85c.84-.32,1.56-1.3,1.11-2.09A5.31,5.31,0,0,1,15.13,155.31ZM9.32,188.08a1.37,1.37,0,0,0,1.24-.52c2.55-2.81.85-8.23-2.87-8.95.33,2.68.65,5.42.92,8.16C8.67,187.3,8.8,187.88,9.32,188.08ZM35.18,194a2,2,0,0,0,1.56,2.48,3.49,3.49,0,0,0,3.72.2A4.45,4.45,0,0,0,35.18,194ZM23.42,142.38a3.77,3.77,0,0,0,.66-1.7,17.1,17.1,0,0,0-1-8.48A9.25,9.25,0,0,0,22.18,143,1.9,1.9,0,0,0,23.42,142.38Zm-2,49.09-.26-.13c-.59,1,.33,2.35,1.44,2.61a5.6,5.6,0,0,0,3.39-.58A3.6,3.6,0,0,0,21.4,191.47Zm-13.64-.58c.58,2.28,4.31,2.87,5.48.78l-.2-.33A5.79,5.79,0,0,0,7.76,190.89Zm13.05-69.2c.59,2.28,4.31,2.87,5.49.78l-.2-.33A5.81,5.81,0,0,0,20.81,121.69Z"/></g></g></svg>