<svg xmlns="http://www.w3.org/2000/svg" viewBox="0 0 106.33 30.9"><g id="Layer_2" data-name="Layer 2"><g id="Layer_2-2" data-name="Layer 2"><path id="Lashes" d="M15.87,15.82a6.42,6.42,0,0,0-2.66,5.63,8.29,8.29,0,0,0,6.53-6.73A6.3,6.3,0,0,0,15.87,15.82Zm90.46,5.32c-1-1.88-3-2.87-4.59-4.23S99,13,100.38,11.38c-.94-1.2-2.82-1.2-4.17-.57a25.58,25.58,0,0,0-3.61,2.71c-2.45,1.77-5.42,2.56-8.35,3.29C77.88,18.43,70.89,20,65,17.07c-1.93-.94-3.65-2.4-5.69-3.13s-4.7-.73-6.11.94c.89,2.4,4.39,2,6.69,3.13,4.49,2.14,3.6,9,6.68,12.89a7.84,7.84,0,0,0,.21-8.19c3.55-.89,5.69,4.8,9.34,5a2.83,2.83,0,0,1,4.33-3.5,4.48,4.48,0,0,0,2.72,5.64,17.57,17.57,0,0,0,.36-6.63c.52-1.52,2.87-1,4,.15s2.24,2.77,3.81,2.61c-.37-1.77-.78-3.55-1.2-5.32a15.47,15.47,0,0,0,6.42,6.52c1.41-1.2.1-3.44-1.31-4.64s-2.87-3.29-1.61-4.65c2.08,1.67,4.22,3.34,6.36,5-.57-1.77-1.2-3.6-1.77-5.37C100.43,19.68,103.31,22,106.33,21.14ZM40,14.25c-2.87,1.25-5.64,3.24-8.72,2.92-2.4-.21-4.43-1.82-6.26-3.39C22.29,11.27,19.58,8.72,17,6S12,.52,8.41,0c1,1.83-.58,4-2.35,5S2.09,6.32.53,7.57A1.29,1.29,0,0,0,0,8.25c0,.52.42.88.89,1.09,3.71,1.57,8.35-1,11.75,1.15a11.23,11.23,0,0,0-6.48,6.42c.58,1.52,2.82,1.62,4.18.73s2.24-2.35,3.39-3.44a6,6,0,0,1,4.7-1.78,3.85,3.85,0,0,1,3.45,3.24c.31,3.5-4.91,5.9-4.08,9.34a10.18,10.18,0,0,0,6.74-7.93l1.51.78a11.32,11.32,0,0,1-3.29,7.73c.26,1.56,2.66,1.77,3.87.73s1.72-2.61,2.61-4,2.66-2.35,4-1.51a25.65,25.65,0,0,1-.73,3.39,3.39,3.39,0,0,0,.73,3.29c.89.73,2.67.16,2.61-1-.2-2.51,1.73-4.65,3.87-5.9s4.64-1.83,6.78-3.08A13.22,13.22,0,0,0,51,13.15,18.2,18.2,0,0,0,40,14.25Z"/></g></g></svg>