<svg xmlns="http://www.w3.org/2000/svg" viewBox="0 0 116.88 105"><defs><style>.cls-1{fill:#f15a24;}.cls-2{fill:#fff;}</style></defs><g id="Layer_2" data-name="Layer 2"><g id="Layer_2-2" data-name="Layer 2"><path class="cls-1" d="M105.46,56.3c-.66,12.37-14.58,21.43-14,22s7-8.51,15-8c4.05.26,8.73,2.93,9,6s-3.84,5.4-22,16c-7.61,4.45-8.43,5.92-12,7-6.43,2-8.16-.07-19,0-13.05.09-19,3.08-23-1-2-2.06-.93-3.38-3-5-5.06-4-11.85,2.11-21,0-6.88-1.59-12.79-7.29-12-10,1.3-4.41,19.94.5,23-6,2.1-4.44-6.07-7.89-7-18-.8-8.77,3.92-21.71,13-28,2.56-1.77,5.69-3.17,6-6,.46-4.09-5.51-6.19-5-10,.45-3.32,5.65-6.64,10-6,5.81.85,6,8.17,12,9,4.13.57,5.56-2.74,11-2,4.07.55,4.71,2.59,7,2,4.17-1.08,3.36-8.2,8-10a7.73,7.73,0,0,1,8,2c2.63,3,0,6.69,2,13,1,3.18,2.52,4.92,4,7C96.32,31.5,106.05,45.37,105.46,56.3Z"/><ellipse class="cls-2" cx="51.19" cy="33.93" rx="7.5" ry="7" transform="translate(-3.11 5.24) rotate(-5.68)"/><ellipse class="cls-2" cx="76.2" cy="31.95" rx="7.5" ry="7" transform="matrix(1, -0.1, 0.1, 1, -2.79, 7.7)"/><ellipse class="cls-2" cx="60.7" cy="72.87" rx="11.95" ry="7.5" transform="translate(-27.86 106.81) rotate(-71.18)"/><path id="Scrug_Filbert" data-name="Scrug Filbert" d="M52.68,33a3.59,3.59,0,0,0-2.1.8c1,.4,1.8.6,2.6.9C53,34.1,52.88,33,52.68,33Zm2.7,7.9c2.7-1.8,6.2-4.7,6.3-7.3-.8-4-6.1-8.9-11.4-8.6C37.68,30.2,43.08,45.4,55.38,40.9ZM49.78,29c7.8-1.3,10.4,5,4,9C48.78,42,43.18,33.2,49.78,29Zm33.6,9.1c8.4-8.3-5.6-20.7-14.8-10.8C62,38.5,76.48,45.3,83.38,38.1ZM74,36.9c-3.7-.4-2.8-3.6-2.7-6,.3-4.3,3.5-3.9,6.5-3.9C86.08,29.7,80.48,39.1,74,36.9Zm9.6-23.6a20.68,20.68,0,0,0-2.2,4.9c-.1.4,1.5,1.2,2.3,1.8C84.68,17.7,87.08,15.4,83.58,13.3Zm-14.3,40a9.9,9.9,0,0,0-2-2.3c-.7-2.1-.7-4.3-1.1-6.4a25.42,25.42,0,0,0-1.7-4.6c-8.6,3.1.2,10.1-8.1,10.6-.7-.1-1.4,1.5-2.1,2.4C58.78,54.3,65.18,56.3,69.28,53.3ZM75.78,33c.6-.3,1.3-.6,2-.9a6.85,6.85,0,0,0-1.5-2.1A6.34,6.34,0,0,0,75.78,33ZM40.58,15.3c-.3,1.1-.6,2.1-.2,2.6a20,20,0,0,0,2.7,3.1A3.16,3.16,0,0,0,40.58,15.3Zm67.4,43c-1.6-.3-5.8-1-4.3,1.6a20.92,20.92,0,0,0,4.4-1.6Zm-2.7-28.4c-.8-.3-1.7-1-2.3-.8-2.5.8-4.8,1.9-7.7,2.9a12.36,12.36,0,0,0-2.8,2.8C96.88,35.4,102.58,33.6,105.28,29.9ZM38.58,51c-2.4,2.3-5.6,4.2-7,7-1.5,4.7,4.3,9.7,9,6.9,2.8-.2,8-11,2.7-8.9-2.2,2.8-3.7,5.5-7.3,5.2C34.08,56.4,41.88,54.5,38.58,51Zm66.7,14.5c-.6-.5-1.1-1.2-1.7-1.6a37.1,37.1,0,0,0-5.3-2.9,30.33,30.33,0,0,0-4,1.9C97.88,63.9,101.38,66.5,105.28,65.5Zm-7-23.5a48.17,48.17,0,0,0,5-2.3c-3.2-.6-6.2-1.2-8.9.9A21.67,21.67,0,0,0,98.28,42ZM110,54.8a9.54,9.54,0,0,0-1.7-2.8c-.7.3-.9.7-1.2.7-2.2.4-4.4.7-6.6,1.1,2.4.4,4.7.9,7,1.2A10.55,10.55,0,0,0,110,54.8ZM39.88,25.9c-3-4.9-7-14.6,2.2-14.8,9.5-2.2,6.9,14.3,14.6,9.9C77,8.1,70.58,32,80.58,10.5c10.3-6.7,9.3,9.7,8.2,15.3,7.8,3.6,19.1-1.7,23.4-8.4-6.2-.5-12.1,3.8-17.4,6.6,0-1.2,1.3-3.1-.5-3.5-4-.3,4-10.8-8.7-14.6-6-2.4-10.3,6.1-14.5,9.2-4.6-1.3,5.1-10.2,5.2-15.1-6.5,6.5-10.4,14.5-20,16.4a2.36,2.36,0,0,1-2-.9C44.38-1.6,19.18,13,39.88,25.9Zm77,12.3c-8.4,0-12.1,9.7-21,7.9-.4-.1-1.1,1.1-1.6,1.7.6.6,1.3,1.6,1.9,1.6,3.4-.2,6.7-.6,10.4-1.1,2.3-2,4.5-3.7,6.5-5.6A53.25,53.25,0,0,0,116.88,38.2ZM98.28,68.8a34.82,34.82,0,0,0-2.4-2.8c-.2.4-.6,1.1-.6,1.1A15.22,15.22,0,0,0,98.28,68.8ZM58.08,105a33.39,33.39,0,0,0,1.2-4A48.17,48.17,0,0,0,57,96C56.28,99.3,56,102.2,58.08,105Zm-14.7-3.1c-.2.9,1,2.1,1.6,3.1.8-.8,2.2-1.7,2.2-2.5a60.6,60.6,0,0,0-1.1-9.2A41,41,0,0,0,43.38,101.9ZM27.58,27a50.8,50.8,0,0,0,7.5,2.8c.3-3.5-3.3-6.2-7-5.7a7.57,7.57,0,0,0-1.8.9C26.68,25.7,27,26.7,27.58,27Zm27.5,67.3a14.12,14.12,0,0,0-2.7-.9C50.18,104.5,53,106.7,55.08,94.3Zm13.3.8a75.06,75.06,0,0,0,1.1,7.7,43,43,0,0,0,.8-7.4c0-.4-.6-.9-.9-1.4C69.08,94.4,68.28,94.8,68.38,95.1ZM87.28,55c-1-2-2-3.5-2.9-5-.8,3.2-1,6.8-3.6,9-3.2-2.2-.3-7.9-5.5-7.5,0,2.7-.6,5.6.3,8C79.68,64,87.48,62.5,87.28,55Zm-38,22c-.1,20.4,24,11.2,22.6-8.1C67.48,48.2,48.58,61.1,49.28,77Zm13.1,5.3c-14,6.3-9.5-15.1-1.6-19.3C71,58.9,68.18,79.4,62.38,82.3Zm35.9-13c-4.2,5.6-12.8,6.5-16.7,12.5,7.4,3.7,15.4-9.9,30.7-8.2-.6,2.6-4.5,6.4-5.8,7.3,2.6,4.1-1.5,3.6-3.1,4.4-6.2,3.6-20.1,4.8-18,14.4,8.3-6.5,18.5-9.9,27.1-15.7C124.38,74,108.48,66.3,98.28,69.3Zm-19.2,27c-.8-.1-1.4.4-1.7.3-.8-.6-1.4-1.4-2.1-2-.7,3.9.2,7.8,4.1,9.4a7.4,7.4,0,0,0,.8-2.9A25,25,0,0,0,79.08,96.3Zm-16.7-.6a37.37,37.37,0,0,0,1.7,7.6c2.4,2.4,1.2-9.2.4-10.3C63.78,93.9,62.38,94.8,62.38,95.7ZM26.28,61.6c-4.5-2.8-11,5.6-10.9,9.2,2.8,3.3,7.6-.7,9.9-3-1.2-.3-2.3-.5-4-.8a5,5,0,0,1-1.8-1.7,22.26,22.26,0,0,0,4.4-1.3A13.62,13.62,0,0,0,26.28,61.6ZM15.68,45.1c4.7-.2,9.6,2.4,13.6-.9-1.2-.7-2.4-2-3.6-2.1-5-.2-9.9-.1-15.4-.1-2.8.6-3.8,2.2-5.7,3.9C8.38,46.5,12.08,45.4,15.68,45.1ZM20.28,57a42.44,42.44,0,0,0-5,1.1c-.4.1-.6,1-.8,1.6,1.5.1,3.2.6,4.7.2C19.88,59.7,20.28,58,20.28,57Zm2-22a15.72,15.72,0,0,0-3,2.4c4,1.2,13.1-1.2,15.8-4-9.3-1-15.6-7.9-24.5-9.3-.8-.3-2.2.9-3.3,1.5C8.88,30.2,25.58,30.9,22.28,35ZM5.48,85c-.3-.3,0-1.8.2-1.9,8.4-1.5,17-1,25.4-.9,2.9.1,5.8,2.5,8.2-.9-3-2.2-13.3-3.5-9.6-8.3-8.9,2.4-18,3.8-26.9,6.1-11.9,8.8,17.9,20,24.8,17.2,2.1-.6,4.3-.7,6.4-1.1a38.37,38.37,0,0,0-3.2,5c-.4.8.1,2,.1,3,.9-.3,2.2-.3,2.4-.8A99.74,99.74,0,0,0,37.08,92C24.88,90.6,16.08,95.1,5.48,85Zm32.1,7a3.18,3.18,0,0,0,.3-.9C37.68,91.4,37.48,91.7,37.58,92Zm3.7-1c-1.6,3.2-4.5,6-2.2,9.8,1.4-3.1,2.6-5.9,3.7-8.8.1-.4-.3-.9-.4-1.4A2.82,2.82,0,0,0,41.28,91Zm-14-40.1a9.61,9.61,0,0,0-2.8-1.1c-4.2-.7-8.5-1.2-13.2-1.8C3.58,51.8,26.38,53.5,27.28,50.9Z"/></g></g></svg>