<svg xmlns="http://www.w3.org/2000/svg" viewBox="0 0 99.07 143.77"><defs><style>.cls-1{fill:gray;}</style></defs><g id="Layer_2" data-name="Layer 2"><g id="Layer_2-2" data-name="Layer 2"><path class="cls-1" d="M4.47,83v.3a4,4,0,0,0,1.7,6A4.26,4.26,0,0,0,4.47,83Z"/><path class="cls-1" d="M63.21,105.71c.5,1.2,2.7,1.1,3.2-.2l.4.5v-4.5A3.74,3.74,0,0,0,63.21,105.71Z"/><path class="cls-1" d="M11.47,88.41a34.22,34.22,0,0,0-1.9-16.5C5.57,76.61,6.57,84.71,11.47,88.41Z"/><path class="cls-1" d="M91,11.21A11,11,0,0,0,88.77,6c-1.6-1.8-4.2-2.4-6.6-2.6-12.8-1.5-25.8,2-37.7,6.9-5.8,2.4-11.6,5.2-16.1,9.7-9.4,9.3-11.2,23.6-12,36.8a628.82,628.82,0,0,0-.8,70c1-1.1,2-2.2,3.3-2.4s3,.9,2.7,2.2c-2.3.7-4.4,2.6-4.4,4.9s3,4.4,4.8,2.9c1.2-1,1.3-2.6,1.3-4.1.3-12.9.6-25.8,1-38.8,2.4,16.7,4.8,33.4,7.3,50.1a8.36,8.36,0,0,0,3.5-9.3c1.3,1.1,2.6,2.2,3.9,3.4-1-10.3-2-21.2,2.6-30.5l3,32.4a106.12,106.12,0,0,0,8.8-31.7c1-9,1.5-19.5,8.8-24.9-1.3,8.1-2.7,16.1-4,24.2a9.71,9.71,0,0,1,11.1-5.3c6.8-16.5,13.6-35.1,7.1-51.7-1.4-3.3-3.2-7.2-1.5-10.4,2-3.6,7-3.7,11.2-4.1s9.2-3,8.3-7C93.27,21.51,92.07,16.41,91,11.21Z"/><path id="Statue_Hands" data-name="Statue Hands" d="M99.07,35.11a135,135,0,0,0-4-26.1c-.6-2.4-1.4-4.9-3.2-6.6-2.3-2.1-5.8-2.3-9-2.4-13.1-.1-26.3.8-38.5,5.6s-23.2,13.5-28.2,25.5c-5.4,13.2-3.4,28.8-10.3,41.2C3.67,76.11.67,79.71.07,84s2.9,9.5,7.1,8.5c2.1-.5,3.1,2.4,3.1,4.5.3,8.8.5,17.7.7,26.5.1,4.4.4,9.1,3.2,12.6s9.1,4,11.1.1c-.3,3.9,3.5,7.1,7.4,7.5s7.6-1.2,11.2-2.7c10.8-4.7,12.2-19.2,11.8-31,4.9,2.5,11.2.2,14.9-3.9s5.3-9.6,6.8-14.9c4.9-16.7,9.4-35.8.3-50.7A56.8,56.8,0,0,1,99.07,35.11ZM6.17,89.31a4,4,0,0,1-1.7-6V83A4.26,4.26,0,0,1,6.17,89.31Zm5.3-.9c-4.9-3.7-5.9-11.8-1.9-16.5A34.22,34.22,0,0,1,11.47,88.41ZM66.81,106l-.4-.5c-.5,1.3-2.7,1.4-3.2.2a3.74,3.74,0,0,1,3.6-4.2Zm2.46-6.1a9.71,9.71,0,0,0-11.1,5.3c1.3-8.1,2.7-16.1,4-24.2-7.3,5.4-7.8,15.9-8.8,24.9a106.12,106.12,0,0,1-8.8,31.7l-3-32.4c-4.6,9.3-3.6,20.2-2.6,30.5-1.3-1.2-2.6-2.3-3.9-3.4a8.36,8.36,0,0,1-3.5,9.3c-2.5-16.7-4.9-33.4-7.3-50.1-.4,13-.7,25.9-1,38.8,0,1.5-.1,3.1-1.3,4.1-1.8,1.5-4.8-.6-4.8-2.9s2.1-4.2,4.4-4.9c.3-1.3-1.3-2.5-2.7-2.2s-2.3,1.3-3.3,2.4a628.82,628.82,0,0,1,.8-70c.8-13.2,2.6-27.5,12-36.8,4.5-4.5,10.3-7.3,16.1-9.7,11.9-4.9,24.9-8.4,37.7-6.9,2.4.2,5,.8,6.6,2.6a11,11,0,0,1,2.2,5.2c1.1,5.2,2.3,10.3,3.4,15.5.9,4-4.2,6.7-8.3,7s-9.2.5-11.2,4.1c-1.7,3.2.1,7.1,1.5,10.4C82.87,64.81,76.07,83.41,69.27,99.91Z"/></g></g></svg>