<svg xmlns="http://www.w3.org/2000/svg" viewBox="0 0 148.54 86.52"><defs><style>.cls-1{fill:#ed1e79;}</style></defs><g id="Layer_2" data-name="Layer 2"><g id="Layer_2-2" data-name="Layer 2"><path class="cls-1" d="M83.8,70.83c-1.2-1-2.9-1.1-4.4-1.3-10.8-.9-22.3-2.9-30.1-10.5-1.7-1.6-3.3-3.6-5.6-4.4s-5.4.4-5.5,2.8a61.3,61.3,0,0,0,43.5,18.1,4.23,4.23,0,0,0,2.7-.7C85.5,73.83,85,71.73,83.8,70.83Z"/><path class="cls-1" d="M5.5,68.63c1.6,2.4,5.3,1,7.7-.5,11.2-7.2,22.4-14.5,33.7-21.7,6.5-4.2,14.4-8.6,21.6-5.6,4.1,1.8,7,5.6,9.4,9.4A159.11,159.11,0,0,1,92.7,80c1.3,3.6,7.2,2.9,9.2-.4s1-7.5-.2-11.2c-2.7-8.1-6.6-15.9-7.2-24.4s3.3-18.1,11.4-20.6a113.41,113.41,0,0,0,37.9-20.1C91.2,4.13,39.5,28.63,5.5,68.63Z"/><path id="Thong" d="M137.4,0C85,2.93,34.2,27.93,0,67.73c1.4,7,11.8,7.8,18,4.2s10.9-10,17.8-12.2a59,59,0,0,0,39.3,18.7c5.8.3,12.7.3,15.9,5.2,2.6,3.9,9.1,3.7,12.4.3s3.8-8.7,2.8-13.3-3.2-8.8-5-13.1c-4.4-10.8-4-26,6.7-30.6,11.4-4.9,22.9-9.8,34.4-14.7,2.7-1.2,5.8-2.8,6.2-5.8C149.1,1.63,142.3-.27,137.4,0Zm-53,74.8a4.23,4.23,0,0,1-2.7.7,61.3,61.3,0,0,1-43.5-18.1c.1-2.4,3.2-3.6,5.5-2.8s3.9,2.8,5.6,4.4c7.8,7.6,19.3,9.6,30.1,10.5,1.5.2,3.2.3,4.4,1.3S85.5,73.83,84.4,74.83ZM45.7,51.93a44,44,0,0,1,9.9-6.1c4.6-2.1,10.3-3.3,14.4-.4,2.1,1.4,3.4,3.8,4.7,6,2.7,5,5.5,9.9,8.3,14.8A56.39,56.39,0,0,1,45.7,51.93Zm60.2-28.5c-8.1,2.5-12,12.2-11.4,20.6s4.5,16.3,7.2,24.4c1.2,3.7,2.1,7.8.2,11.2s-7.9,4-9.2.4a159.11,159.11,0,0,0-14.8-29.8c-2.4-3.8-5.3-7.6-9.4-9.4-7.2-3-15.1,1.4-21.6,5.6-11.3,7.2-22.5,14.5-33.7,21.7-2.4,1.5-6.1,2.9-7.7.5,34-40,85.7-64.5,138.3-65.3A113.41,113.41,0,0,1,105.9,23.43Z"/></g></g></svg>