<svg xmlns="http://www.w3.org/2000/svg" viewBox="0 0 202.66 200.69"><defs><style>.cls-1{fill:#666;}</style></defs><g id="Layer_2" data-name="Layer 2"><g id="Layer_2-2" data-name="Layer 2"><path class="cls-1" d="M177.46,43.05a11.25,11.25,0,0,0,8.5,5.3,41.87,41.87,0,0,0-12.1-24.1,59.42,59.42,0,0,0,1.7,13.9A17.2,17.2,0,0,0,177.46,43.05Z"/><path class="cls-1" d="M163.16,47.15a20,20,0,0,1,3.3-12.4,8.66,8.66,0,0,0,7.4,9.2c-1.5-6.6-3-13.2-4.4-19.8l-31.2,13.2c-6.4,2.7-13.9,5.4-19.9,2C107.06,33,112.26,12.45,101,6c-6.4-3.7-15.3.2-18.5,6.9s-1.3,15,2.9,21.1-1.5,14.7-8.6,16.4-14.3-.9-21.2-3.3a221.07,221.07,0,0,0-50.9-10.9,50,50,0,0,0,14.9,42.7c4.5-5.6,2.4-14-.9-20.4s-7.8-12.8-7.5-20a137.88,137.88,0,0,1,13.5,27.2c2.8-1.5,5.6-3,8.5-4.5a19.32,19.32,0,0,1-1.6-10.6,12.3,12.3,0,0,1,4.1,8.4,9.29,9.29,0,0,1,10.2,1.2c-7.4,2.5-15.4,5.5-19.3,12.2a24.07,24.07,0,0,0-2.8,9.9c-1.5,18.3,9.5,37,26.3,44.5s38.1,3.2,50.7-10.3c2.3-2.5,5.7-5.6,8.7-3.8-14.3,19.9-43.9,27.2-65.8,16.1a135.24,135.24,0,0,1-19.2,40.4c-2.5,3.5-.6,8.7,2.9,11.4s7.9,3.3,12.2,3.8a881.14,881.14,0,0,0,122.6,7.4c.8-5.2-2.4-10.2-4.8-15s-3.7-11.2.1-15a97.66,97.66,0,0,0,25.1-43.3c-6.4,2.3-13,4.5-19.8,4.5s-14-2.8-17.5-8.6c19,10.8,46.9-.9,52.5-22.1S185,47.25,163.16,47.15Zm-107.8,66.9c-2.5,2.3-6.6,2.2-9.7.6a12.88,12.88,0,0,1-6.6-8.5c1-.9,2.7-.4,3.6.6s1.5,2.3,2.5,3.3a5.35,5.35,0,0,0,6.3,1.1,5.58,5.58,0,0,0,3-5.7C57.66,106.65,58,111.75,55.36,114.05Zm47.5,59.6c-.9-.5-1.8-1-2.6-1.5a6.58,6.58,0,0,1,.9-5.8l.4.5A4.54,4.54,0,0,1,102.86,173.65Zm78.9-68.5c-4,.1-7.3-3.4-8.5-7.1.7-.9,1.5-1.8,2.2-2.7,1,2,2.2,4.2,4.3,5s5.2-1.1,4.4-3.2a2,2,0,0,1,2.2-.3C189,99.85,185.66,105.05,181.76,105.15Z"/><path id="Statue_Chest" data-name="Statue Chest" d="M181.66,105.5c3.9-.1,7.2-5.3,4.6-8.3a2,2,0,0,0-2.2.3c.8,2.1-2.2,4-4.4,3.2s-3.3-3-4.3-5c-.7.9-1.5,1.8-2.2,2.7C174.36,102.1,177.66,105.6,181.66,105.5Zm-80.2,61.7-.4-.5a6.58,6.58,0,0,0-.9,5.8c.8.5,1.7,1,2.6,1.5A4.54,4.54,0,0,0,101.46,167.2Zm93.1-57.5c4-7,8.2-14.4,8.1-22.5-.1-5.1-1.9-10.1-3.7-14.9Q190.56,50,181.26,28c-1.2-2.7-2.5-5.6-5.1-7-3.5-1.9-7.8-.4-11.5,1.1-12,5-24.1,10-36.1,15.1-7.6,3.2-14.3-6.7-15.5-14.9s-2.2-18.4-9.9-21.5c-3.1-1.2-6.5-.9-9.8-.1-6.4,1.5-12.6,5-15.9,10.7S75,25.3,80.26,29.2c5.8,4.2,2.3,14.4-4.4,17.1s-14.1.3-20.9-2.1c-16.4-5.7-33.2-11.7-50.6-11.4a4.84,4.84,0,0,0-3.5,1c-1,1.1-.9,2.8-.8,4.3,1.5,14.6,3.7,30.6,14.8,40.2,10.5,9.1,4.8,29.3,16.1,37.4,7.6,5.5,8.2,17,4.8,25.8s-9.9,15.9-14.6,24.1c-2.6,4.5-4.5,10.4-1.8,14.9,2.1,3.3,6.1,4.7,9.8,5.9a321,321,0,0,0,125.5,12.8c4-.4,8.6-1.2,10.8-4.6,5.3-8.1-8.8-19-4-27.4Q178.11,138.4,194.56,109.7Zm-8.7-61a11.25,11.25,0,0,1-8.5-5.3,17.2,17.2,0,0,1-1.9-4.9,59.42,59.42,0,0,1-1.7-13.9A41.87,41.87,0,0,1,185.86,48.7Zm-28.6,128.4c2.4,4.8,5.6,9.8,4.8,15a881.14,881.14,0,0,1-122.6-7.4c-4.3-.5-8.8-1.2-12.2-3.8s-5.4-7.9-2.9-11.4a135.24,135.24,0,0,0,19.2-40.4c21.9,11.1,51.5,3.8,65.8-16.1-3-1.8-6.4,1.3-8.7,3.8-12.6,13.5-33.9,17.8-50.7,10.3s-27.8-26.2-26.3-44.5a24.07,24.07,0,0,1,2.8-9.9c3.9-6.7,11.9-9.7,19.3-12.2a9.29,9.29,0,0,0-10.2-1.2,12.3,12.3,0,0,0-4.1-8.4,19.32,19.32,0,0,0,1.6,10.6c-2.9,1.5-5.7,3-8.5,4.5a137.88,137.88,0,0,0-13.5-27.2c-.3,7.2,4.2,13.6,7.5,20s5.4,14.8.9,20.4A50,50,0,0,1,4.56,36.5a221.07,221.07,0,0,1,50.9,10.9c6.9,2.4,14.2,5.1,21.2,3.3s12.7-10.4,8.6-16.4-6-14.3-2.9-21.1,12.1-10.6,18.5-6.9c11.3,6.5,6.1,27,17.4,33.4,6,3.4,13.5.7,19.9-2l31.2-13.2c1.4,6.6,2.9,13.2,4.4,19.8a8.66,8.66,0,0,1-7.4-9.2,20,20,0,0,0-3.3,12.4c21.8.1,40.2,24,34.6,45.1s-33.5,32.9-52.5,22.1c3.5,5.8,10.7,8.6,17.5,8.6s13.4-2.2,19.8-4.5a97.66,97.66,0,0,1-25.1,43.3C153.56,165.9,155,172.3,157.26,177.1ZM54.36,105.8a5.58,5.58,0,0,1-3,5.7,5.35,5.35,0,0,1-6.3-1.1c-1-1-1.5-2.3-2.5-3.3s-2.6-1.5-3.6-.6a12.88,12.88,0,0,0,6.6,8.5c3.1,1.6,7.2,1.7,9.7-.6S57.56,107,54.36,105.8Z"/></g></g></svg>