<svg xmlns="http://www.w3.org/2000/svg" viewBox="0 0 136.76 308.89"><defs><style>.cls-1{fill:#009245;}</style></defs><g id="Layer_2" data-name="Layer 2"><g id="Layer_2-2" data-name="Layer 2"><path class="cls-1" d="M49.72,185.9c2.34-3,4.55-6.77,3.57-10.33a14,14,0,0,0-3.33-4.8,112.37,112.37,0,0,0-11.44-10.34c.86,11.07,1.85,22,2.83,33.1.62,8.13,1.35,16.49-1,24.25-.87,3.2-.87,8.24,2.33,8,1.6-3.08,3.2-6.28,4.8-9.36-4.67-3.69-2.83-12.55,2.83-14.15-3.44,1.48-7-3-6.52-6.77S47.26,188.86,49.72,185.9Z"/><path class="cls-1" d="M45,153.78l10.34,10c2.09,2.09,4.43,4.19,7.38,4.19,2.59-.13,4.8-2,6.77-3.82,16.62-15.51,33.23-31.13,49.84-46.64,7.63-7.26,8.13-20.18,2.34-28.92S105.1,75.14,94.64,75.27c-3.7,0-6.65-3.57-7.51-7.14s.12-7.51.74-11.2A108.93,108.93,0,0,0,89,26c-.37-3.2-1.23-6.89-4.19-8.12s-6.52,1-7.75,3.94-1,6.4-.86,9.6a183.73,183.73,0,0,1-.37,30.76c-.74,7.26-2.34,15-7.88,19.57-3.69,2.95-8.61,3.94-12.67,6.4-10.1,6.15-12.68,19.32-14.28,31-.74,5.66-1.48,11.32-2.34,17-.37,3-.86,6.16.13,9.11C39.75,148.74,42.46,151.32,45,153.78Z"/><path class="cls-1" d="M124.54,120.92a33.66,33.66,0,0,1-4.8,12.19c4.19-1.23,8,3.69,7.39,8s-3.57,7.63-6.65,10.7c-9.6,9.85-19.2,19.69-28.8,29.42-3.69,3.81,1.11,9.84,5.66,12.55s10.1,7.26,7.88,12.06c-7,2.46-12.68-7.26-20.06-8.25-5.41-.61-10.09,3.57-13.91,7.39L44.8,231.44c-2.47,2.46-5,5.17-5.54,8.61-2,14.52-4.06,29-6.16,43.57-.61,5-1.1,10.7,2.34,14.39,2.59,2.59,6.4,3.33,10.09,3.82a243.72,243.72,0,0,0,68.92-.62c2.71-.36,5.42-.86,7.38-2.58,2.34-1.85,3.2-4.92,4.07-7.75A209.62,209.62,0,0,0,130,204.36C125.4,176.67,137,146.15,124.54,120.92Z"/><path id="Booze" d="M136.72,265.28q-.18-77.89-.61-155.92c-6.28-4.43-6.52-13.54-9.23-20.68-4.31-11.32-16.61-19-28.55-17.72-5.79.49-6.28-8.12-5-13.66A81.22,81.22,0,0,0,90,11C88.36,7,86.15,2.66,82.21.69S72.36.81,72,5.24l-4.8,55c-.61,7.63-2.09,16.62-9,19.94C47.63,85.24,40.49,95.82,37,107S33.23,130.15,33,142A71.8,71.8,0,0,0,9.72,119.32c10.09,19.57,26.21,37.54,27.2,59.57C38,204.49,18.34,225.78,0,243.74a25.76,25.76,0,0,0,28.67-3.07c.5-2,.87-4.06,1.36-6a3,3,0,0,1-4.56-1.48c2.1-5.66,4.07-11.45,6.16-17.11a219.15,219.15,0,0,1-5.17,70.52c-2,7.75,3.81,15.75,10.95,19.07s15.51,3.33,23.51,3.2l52.3-.73c9.11-.25,16.74-7.51,20.18-16S136.85,274.39,136.72,265.28ZM38.64,136.18c.86-5.66,1.6-11.32,2.34-17,1.6-11.69,4.18-24.86,14.28-31,4.06-2.46,9-3.45,12.67-6.4,5.54-4.55,7.14-12.31,7.88-19.57a183.73,183.73,0,0,0,.37-30.76c-.13-3.2-.5-6.53.86-9.6s4.8-5.17,7.75-3.94S88.61,22.84,89,26a108.93,108.93,0,0,1-1.11,30.89c-.62,3.69-1.48,7.51-.74,11.2s3.81,7.14,7.51,7.14c10.46-.13,21.29,4.55,27.07,13.29s5.29,21.66-2.34,28.92C102.76,133,86.15,148.61,69.53,164.12c-2,1.85-4.18,3.69-6.77,3.82-2.95,0-5.29-2.1-7.38-4.19L45,153.78c-2.58-2.46-5.29-5-6.27-8.49C37.78,142.34,38.27,139.14,38.64,136.18Zm11.69,66.09c-5.66,1.6-7.5,10.46-2.83,14.15-1.6,3.08-3.2,6.28-4.8,9.36-3.2.24-3.2-4.8-2.33-8,2.33-7.76,1.6-16.12,1-24.25-1-11.07-2-22-2.83-33.1A112.37,112.37,0,0,1,50,170.77a14,14,0,0,1,3.33,4.8c1,3.56-1.23,7.38-3.57,10.33s-5.42,5.91-5.91,9.6S46.89,203.75,50.33,202.27Zm75.57,88.61c-.87,2.83-1.73,5.9-4.07,7.75-2,1.72-4.67,2.22-7.38,2.58a243.72,243.72,0,0,1-68.92.62c-3.69-.49-7.5-1.23-10.09-3.82-3.44-3.69-2.95-9.35-2.34-14.39,2.1-14.53,4.19-29.05,6.16-43.57.49-3.44,3.07-6.15,5.54-8.61L71.25,205c3.82-3.82,8.5-8,13.91-7.39,7.38,1,13,10.71,20.06,8.25,2.22-4.8-3.45-9.35-7.88-12.06S88,185,91.68,181.23c9.6-9.73,19.2-19.57,28.8-29.42,3.08-3.07,6.15-6.52,6.65-10.7s-3.2-9.23-7.39-8a33.66,33.66,0,0,0,4.8-12.19c12.43,25.23.86,55.75,5.42,83.44A209.62,209.62,0,0,1,125.9,290.88Z"/></g></g></svg>