<svg xmlns="http://www.w3.org/2000/svg" viewBox="0 0 189.73 249.71"><defs><style>.cls-1{fill:#666;}</style></defs><g id="Layer_2" data-name="Layer 2"><g id="Layer_2-2" data-name="Layer 2"><path class="cls-1" d="M50,4.22C48.66,5.59,47.62,8,46.27,11c-.85,1.91-1.3,3.22-1.3,3.22-4.59,13.35.75,19.84-3,30-2.28,6.16-5,6-14,16a95.84,95.84,0,0,0-18,26c-4.29,9.14-8.78,18.72-8,31,.6,9.53,3.73,10.56,5,22,1,8.91-.47,12.26-2,26s-2.95,26.43-1,42c1.63,13.08,3.17,8.55,7,28,.59,3,1.2,6.39,4,9,3.31,3.09,7.31,2.86,17,3,19.64.29,19.38,1.48,24,0,3.37-1.08,11.5-3.69,16-11,3-4.82,3.35-10.06,5-10,1.22.05,1.74,3,3,6,0,0,2.85,6.87,11,13,8.49,6.39,16.09,1.37,47-2a21,21,0,0,0,11-4,20,20,0,0,0,6-8c6.83-15.4,18.88-49,24-62,5.67-14.42,6.13-12,8-19,5.36-20.17,1-38.49-1-47-1.59-6.69-2.79-11.73-6-18s-5.88-8.7-9-16a64.9,64.9,0,0,1-4-13c-2.41-12.34-1.51-28.15-1-37a10.22,10.22,0,0,0-1-6c-3.32-5.75-13.41-5.93-17-6a43.52,43.52,0,0,0-10,1c-7.55,1.56-16.7,1.37-35,1-14.81-.3-22.21-.45-26-2S68.46,3,61,2.22C52.86,1.39,50.47,3.69,50,4.22Z"/><path id="Statue_Butt" data-name="Statue Butt" d="M165.78,60.17a25.57,25.57,0,0,0,3.2,6.4,150.38,150.38,0,0,1,14.1,29.8c.3-15-14-26.9-15.6-41.8-.6-5,.4-10.1.7-15.2a65.54,65.54,0,0,0-2.6-23.7c-.2,12.5-.3,25.1-.4,37.6A20.21,20.21,0,0,0,165.78,60.17Zm19.2,40.6c6.5,46.5-14.4,91.9-34.8,134.1-2.2,4.7-8.2,5.9-13.3,6.5-11.5,1.3-23,2.7-34.5,4.1-3.3.4-6.7.8-9.8-.4-4.1-1.5-6.8-5.3-8.8-9.1-7.8-14.2-10.8-30.4-13.4-46.3-1.8-10.6-3.4-21.4-1.3-32s8.9-20.7,19.2-23.9a2.83,2.83,0,0,1,2.2-.2c.8.3,1.2,1.1,1.7,1.8a36,36,0,0,0,59.8,2.7c-6.8,1.1-12.4,6-18.8,8.4-13.2,5-29-1.3-37.2-12.8s-9.5-26.8-6-40.5,11.2-25.8,19.9-36.9c-22.6,14-33.5,44.4-25,69.6-8.5,17.9-31.2,25.4-50.7,22.2-10.4-1.7-21-6.3-26.7-15.2-7.5-11.6-4.7-27.2.9-39.9a110.94,110.94,0,0,1,26.4-36.5c2.9-2.6,6-5.2,8-8.5,3.2-5.4,3.1-12,2.7-18.2s-.9-12.7,1.5-18.4,9-10.2,14.8-8c25,9.3,52.5,7.9,79.1,5.8,8.6-.6,18.1-1,24.6,4.7-1.9-7.1-11.5-7.8-18.8-7C117.88,9.77,88,11.17,61,.67c-6.8-2.7-14.4,3.2-16.8,10.1s-1.4,14.4-1.5,21.6-1.9,15.4-7.9,19.6C8,70.47-5.62,106.27,2.18,138c2.5,10.3.6,21.1-.2,31.7a171.31,171.31,0,0,0,7.8,67.8,18.92,18.92,0,0,0,3.4,6.8c3.1,3.3,8,3.9,12.5,4.4,10.3,1,20.9,2,30.9-.7s19.4-10,21.6-20.2c-1.2,8.8,6.1,16.9,14.5,19.6s17.5,1.5,26.2.2c7.1-1.1,14.1-2.1,21.2-3.2,3.3-.5,6.8-1,9.7-2.8,4.7-2.9,7-8.5,9-13.7q10-27,20.1-53.8c4-10.5,8-21.2,9.8-32.3A84,84,0,0,0,185,100.77ZM72.18,229.17c-1.3,7.7-8.1,15.1-15.8,14a153.6,153.6,0,0,0-41.2-.4,162.94,162.94,0,0,1-4.9-99.1,85.36,85.36,0,0,0,55.6,6.8,155.36,155.36,0,0,0,3.4,55.6C71.08,213.67,73.58,221.47,72.18,229.17Z"/></g></g></svg>