<svg xmlns="http://www.w3.org/2000/svg" viewBox="0 0 238.81 287.27"><defs><style>.cls-1{fill:lime;}.cls-2{fill:#29abe2;}.cls-3{fill:#ff0;}.cls-4{fill:#0071bc;}.cls-5{fill:#fbb03b;}</style></defs><g id="Layer_2" data-name="Layer 2"><g id="Layer_2-2" data-name="Layer 2"><path class="cls-1" d="M42,254.06c-.26,3.8-.16,8.35,2.95,10.38,4.75,3.35,10.91-1.87,13.12-7.19,2.39-5.17,4.38-11.74,9.95-13.31,3.11-.81,6.47.26,9.52,1.35,3.89,2,4.65,7.13,6.14,11.14s6.14,8.31,9.62,5.91c1.81-1.37,2.31-3.75,2.65-6,1.15-7.46,1.41-16.76-5.24-20.32a65.4,65.4,0,0,1-23.23-21.19c-4.11-5.9-7.07-13.6-4.13-20.06,2.39-5.18,8-8.17,13.63-9.59,5.41-1.56,11.37-2.06,16.59-4.24A27.83,27.83,0,0,0,109,164c-8.24,4.56-16.63,9.13-24.87,13.69-3.59-7.83-1.64-17.69-6.59-24.65a20.11,20.11,0,0,0-10.78-6.95c-14.74-4.51-32.5,4.2-36.86,18.93-4.52,14.73,6.25,32.53,21.62,34.34a22.37,22.37,0,0,1-18,9.68c-5.82,0-13.3-1.45-16.33,3.44,4.13,3.38,9.92,2.74,15.13,3.08s11.36,3.29,11,8.5C43,234.18,42.41,244.13,42,254.06ZM71.39,163.8c-2.36,2.81-7,2-10.23.11a23.55,23.55,0,0,1-8-8.2C59.89,152.49,69.09,156.54,71.39,163.8Zm-35.21,9.08c-.82-3.26.73-6.5,2.14-9.41l-.51-.76a6.94,6.94,0,0,1,7.09-2.6,13.91,13.91,0,0,1-1.17,15.49C41.66,178.07,37,176.13,36.18,172.88Zm8.58,9.9a23,23,0,0,1,16.67-8.66c3.76-.21,8.84,3.28,6.48,6.09A25.39,25.39,0,0,1,44.76,182.78Z"/><path class="cls-1" d="M215,151.11c-5.9,1.44-12.58,2.92-17.95-.24s-6.24-12.87-.19-14.47c9.14-2.56,10.35-17.26,2.79-23-7.72-5.71-19.51-2.68-25.7,4.75-6,7.43-7.18,17.72-6,27.26-3.87-1.67-5.24-6.47-5.33-10.72v-.05c-2.68-5.53-7.29-14.55-8.72-20.54a230.11,230.11,0,0,0-.63,49.92c6.28-8.54,21.14-4.5,26.23,4.81,5.09,9.15,3.37,20.58.8,30.8-.87,4-1.9,8.13-.89,12,1.16,3.87,5.13,7.26,9,6.1,3.28-8.84-.59-18.69-1.12-28.11C186.45,172.56,198.57,155.82,215,151.11ZM184.21,135.7a32,32,0,0,1-10.16,1.21,6.4,6.4,0,0,1-.36-6.28l.18.31c2.32-.61,4.65-1.21,7-.56C183.16,131,185,133.45,184.21,135.7Zm-9.76-13.93c2.11-4.36,8.81-5.53,12.16-2.1l.65.44C184.83,124.49,178,125.35,174.45,121.77ZM188.7,126a9,9,0,0,1,9.72-6.21,5.63,5.63,0,0,1-2.87,7.72l-.33-.14C193.48,130,187.92,129,188.7,126Z"/><path class="cls-2" d="M61.77,110.68c-3.48,2.4-5.22,7.85-2.22,10.83,3.84,3.87,10.55,0,13.27-4.69,1.59-2.45,2.83-5.66,1.27-8.25C69.82,108.34,65.42,108.43,61.77,110.68Z"/><path class="cls-2" d="M194.56,185.16c-.4,6.79,1.56,13.6,1.79,20.51.39,6.91-1.68,14.74-7.63,18.06-6.1,3.49-15.82-1.46-14.16-8.17-12.2,18-34.24,29-55.87,27.71-4.1-.08-8.39-.78-12.07.84-3.85,1.48-6.74,6-4.8,9.72,4,7.17-4.89,16.48-13,15.06-8.11-1.59-13.47-10.1-14.41-18.23-9.06,1.14-10.18,14.74-17.77,19.57-7.75,5-18.67-1.62-21.52-10.42-2.7-8.66.07-18.11,2.72-26.91C40,226.17,30.93,222,24.06,220.14s-14.84-9.23-9.94-14.38l25.72-4.29c-13.14-7-20.38-23.71-16.48-38.26,4.06-14.39,18.72-25.13,33.71-24.41C44.69,137,38.28,121,43.62,109.66,48.81,98.51,62,92.57,74.45,92.81c5,0,10.29,1,14.24,4.07,8.07,6.31,7.7,19.24,1.71,27.45-6,8-16,12.39-25.57,15.29,14.27,1.87,25.49,16.66,23.31,30.95,4.42-5.29,9.61-10.93,16.36-11.16s12.82,9.5,7.38,13.59c9.5,3.87,21-2,26.46-10.78s6.44-19.72,6.64-30.12c.14-5.83.11-12,2.81-17,2.85-5.2,9.25-9,14.58-6.65-.66,6.23.47,14.58.52,21.57,1.33-9.88,7.23-19.24,16.38-23.15,10.45-4.53,24.36-.6,29.51,9.66,5.29,10.08-1,24.76-12.17,27,4.87,5.39,14.43,2,17.7-4.31s2.35-14,1.48-21a507.6,507.6,0,0,1-3.74-93.9C145.8,13.08,77.74,36.91,11.13,27.78c-2,24-2.17,48-2.53,72.06q-.87,89-2,178.11,94.28,1.5,188.24,3.19c8.5.15,20-2.39,20-10.88q.85-55.77,1.56-111.51A29.75,29.75,0,0,0,194.56,185.16ZM98.69,126.38c.7-1.46,1.4-3.07,2.1-4.53,4.12.4,8.69.61,11.84-2.09,3.31-2.7,2.63-9.27-1.49-9.67-6.65-.72-12.7-7.62-11-14.17s11.74-9.47,15.67-4a17.25,17.25,0,0,1-6.31,5.39l0,.51.3,5.3c8.58-1.43,15.52,10,11.55,17.75S106.17,130.67,98.69,126.38Zm27.49,10.09c-2.46,1.08-5.16.6-7.7.12-.57-4.53,5.36-8.17,9.12-5.71l.74-.83C130,132,128.47,135.24,126.18,136.47Zm17.74-39.72c-3.45,8.53-7.06,17.08-10.67,25.62-.82,2.1-3.52,4.45-4.88,2.64a117.09,117.09,0,0,1,13.46-40.1C146.44,85.75,145.73,92.55,143.92,96.75Zm17.11-48c2.85.31,6.05,1.23,7.91,3.48,1.87,2.42,1.47,6.53-1.13,7.78-7.82,3.75-15.64,7.34-23.46,10.93.84,3.72,5.77,4.7,9.53,4.33,3.91-.37,8.27-1.25,11.24,1.26A15.83,15.83,0,0,1,148.59,82,15.6,15.6,0,0,1,137.31,69C135.85,57.08,149.16,47.51,161,48.73Zm-52.36,9.1c2.25-4.69,6.61-8.25,11.2-10.71,4.42-2.45,11.79-2.87,12.39,2.13-6.93,2.6-14.78,5.72-17.86,12.5-1.56,3.08,1.17,6.86,4.53,7.77s6.92-.08,10.16-1.2c-1.9,8.13-14.33,10.88-19.58,4.41C106.29,68.66,106.26,62.53,108.67,57.83Zm-22-1.28c3.81.57,6.36,3.89,8.59,7.07l9.27,13.64c-5.08,2-11.57-1.39-13-6.67-2.91,4.26-7.21,8.91-12.17,7.46-5.76-1.72-5.63-10.54-2.3-15.61C79.32,59.17,82.76,56.14,86.72,56.55Zm-33.4-9c0-5.82,6.83-10.14,12.43-8.41s8.8,8,8.18,13.85-4.42,10.8-9.27,14.06c-2.58,1.72-2.68,5.51-2,8.62.63,3,1.76,6.19.82,9.08s-5.39,4.71-7.11,2.13a5.32,5.32,0,0,1-.79-2.79C54.24,72.08,53.55,59.84,53.32,47.58Zm-36.2,2.68A32.14,32.14,0,0,1,43,40c.24,1.56.65,3.11,1.05,4.66A40.14,40.14,0,0,0,22.22,59.73C27.81,64,36.14,61,42.31,64.26c7.45,3.82,7.5,15.78,1.38,21.64-6.13,5.69-15.7,6.23-23.86,3.86-2.88-.78-6.16-3.11-5.22-6,5.23-2.18,11.45-.64,17.21-1.76,5.61-.94,11.39-7.41,8-12.09-5.43,1.25-11,2.35-16.45,1.24-5.42-1.26-10.55-5.7-10.55-11.2C12.74,56.17,14.75,52.91,17.12,50.26ZM205.56,259.92A14.1,14.1,0,0,1,191,267c-11-2.06-22.11-4.1-33.19-2.53-5.15.76-10.11,2.14-15.15,2.12-5.2-.18-10.68-2.39-13-7s.77-11.38,5.8-11.5a147.53,147.53,0,0,0,37.94-5.3c9.92-2.76,22-6.12,29.33,1A13.78,13.78,0,0,1,205.56,259.92Z"/><path class="cls-2" d="M86.77,63a39.17,39.17,0,0,0-4.2.87l0,.31a5.94,5.94,0,0,0-.38,7.26A6.19,6.19,0,0,0,86.77,63Z"/><path class="cls-1" d="M148.34,252.77c-4.6-.68-11.39-1.09-11.76,3.5.71,1.37,1.4,2.59,2,4a283.61,283.61,0,0,1,60.12.22c.05-4.73,0-9.29,0-14C181.83,243.79,165.17,255.44,148.34,252.77Z"/><path class="cls-2" d="M62.65,59.49c4.9-2.48,6.36-10,2.82-14.17a10,10,0,0,0-4,9.83l-.62,0A3.13,3.13,0,0,0,62.65,59.49Z"/><path class="cls-3" d="M86.8,119.18c2.56-4.87,2.83-11.18-.4-15.56-3.73-4.66-10.24-5.71-16-5.23-8.91,1-17.94,5.58-21.72,13.82-3.79,8.08-.15,19.52,8.34,22.19,6.08,1.86,12.55-.71,18-4C79.73,127.61,84.25,124.05,86.8,119.18Zm-35.32-1.31c-.62-8.14,8.66-13.86,16.78-15,5.63-.63,13.12,1.14,13.91,6.76a9.85,9.85,0,0,1-1.1,5.58c-2.63,6.28-8,11.93-14.68,13.1S51.87,124.78,51.48,117.87Z"/><path class="cls-4" d="M218.65,32.4q2.06,119.81,4.28,239.76c9.72-11.73,9.87-28.58,9.64-43.83-.4-15.4-.65-31-.89-46.37-1.15-56.43-2.3-112.87-3.92-169.27C220,14.39,218.52,24.54,218.65,32.4Z"/><path class="cls-3" d="M144.67,174c-3,3.15-4.29,7.64-4.51,12.05a62.9,62.9,0,0,0,27.63-17.93C159.58,167.78,150.31,168,144.67,174Z"/><path class="cls-4" d="M75.1,20.85C63,20.44,51,20,38.84,19.76c6.69-1.48,13.44-1.71,20.2-1.93,33.16-.78,66.47-1.72,99.63-2.49,11.63-.34,23.4,2,35.06,2.11,11.8,0,24.24-2.63,32.42-11.12-49.82,1.24-99.8,2.34-149.62,3.58C55.79,10.46,34.1,11.06,16,21.37A86.83,86.83,0,0,0,75.1,20.85Z"/><path class="cls-5" d="M140.23,234.66c25.12-9.45,40.74-39.29,34.08-65.35-3.12,6.16-9.18,10.28-15.12,13.76-13.4,7.84-27.47,15.09-42.7,18.47-15.09,3.21-31.65,2.58-45.43-4.51-2.35,3-1,7.29.61,10.66C83.73,231.72,115,244,140.23,234.66Z"/><path class="cls-3" d="M117.37,194.88a20.32,20.32,0,0,0,8.3-3.46c4.52-3.56,5.9-9.78,7-15.35a245.22,245.22,0,0,0-58,17A77.5,77.5,0,0,0,117.37,194.88Z"/><path id="Space_O_s" data-name="Space O&apos;s" d="M121.35,120.84c4-7.77-3-19.18-11.55-17.75l-.3-5.3,0-.51a17.25,17.25,0,0,0,6.31-5.39c-3.93-5.44-14-2.51-15.67,4s4.38,13.45,11,14.17c4.12.4,4.8,7,1.49,9.67-3.15,2.7-7.72,2.49-11.84,2.09-.7,1.46-1.4,3.07-2.1,4.53C106.17,130.67,117.38,128.62,121.35,120.84ZM79.44,78.05c5,1.45,9.26-3.2,12.17-7.46,1.4,5.28,7.89,8.69,13,6.67L95.31,63.62c-2.23-3.18-4.78-6.5-8.59-7.07-4-.41-7.4,2.62-9.58,5.89C73.81,67.51,73.68,76.33,79.44,78.05Zm3.15-13.87,0-.31a39.17,39.17,0,0,1,4.2-.87,6.19,6.19,0,0,1-4.56,8.44A5.94,5.94,0,0,1,82.59,64.18Zm59.24,20.73A117.09,117.09,0,0,0,128.37,125c1.36,1.81,4.06-.54,4.88-2.64,3.61-8.54,7.22-17.09,10.67-25.62C145.73,92.55,146.44,85.75,141.83,84.91Zm-14.23,46c-3.76-2.46-9.69,1.18-9.12,5.71,2.54.48,5.24,1,7.7-.12,2.29-1.23,3.84-4.47,2.16-6.42Zm21-48.87a15.83,15.83,0,0,0,16.53-5.5c-3-2.51-7.33-1.63-11.24-1.26-3.76.37-8.69-.61-9.53-4.33C152.17,67.33,160,63.74,167.81,60c2.6-1.25,3-5.36,1.13-7.78C167.08,50,163.88,49,161,48.73c-11.87-1.22-25.18,8.35-23.72,20.22A15.6,15.6,0,0,0,148.59,82Zm-19.5-13.69c-3.24,1.12-6.8,2.11-10.16,1.2s-6.09-4.69-4.53-7.77c3.08-6.78,10.93-9.9,17.86-12.5-.6-5-8-4.58-12.39-2.13-4.59,2.46-9,6-11.2,10.71-2.41,4.7-2.38,10.83.84,14.9C114.76,79.2,127.19,76.45,129.09,68.32ZM56.34,86.91c1.72,2.58,6.18.75,7.11-2.13s-.19-6.13-.82-9.08c-.65-3.11-.55-6.9,2-8.62,4.85-3.26,8.65-8.35,9.27-14.06S71.2,40.9,65.75,39.17s-12.44,2.59-12.43,8.41c.23,12.26.92,24.5,2.23,36.54A5.32,5.32,0,0,0,56.34,86.91Zm4.5-31.73.62,0a10,10,0,0,1,4-9.83C69,49.53,67.55,57,62.65,59.49A3.13,3.13,0,0,1,60.84,55.18Zm.32,108.73c3.26,1.86,7.87,2.7,10.23-.11-2.3-7.26-11.5-11.31-18.24-8.09A23.55,23.55,0,0,0,61.16,163.91Zm-16.26-3.8a6.94,6.94,0,0,0-7.09,2.6l.51.76c-1.41,2.91-3,6.15-2.14,9.41s5.48,5.19,7.55,2.72A13.91,13.91,0,0,0,44.9,160.11Zm23,20.1c2.36-2.81-2.72-6.3-6.48-6.09a23,23,0,0,0-16.67,8.66A25.39,25.39,0,0,0,67.91,180.21ZM23.34,71.15c5.41,1.11,11,0,16.45-1.24,3.42,4.68-2.36,11.15-8,12.09-5.76,1.12-12-.42-17.21,1.76-.94,2.89,2.34,5.22,5.22,6C28,92.13,37.56,91.59,43.69,85.9c6.12-5.86,6.07-17.82-1.38-21.64C36.14,61,27.81,64,22.22,59.73A40.14,40.14,0,0,1,44,44.64c-.4-1.55-.81-3.1-1.05-4.66A32.14,32.14,0,0,0,17.12,50.26c-2.37,2.65-4.38,5.91-4.33,9.69C12.79,65.45,17.92,69.89,23.34,71.15ZM45.45,5.85c-12.71.56-27.11,2-35.2,11.91-6.48,7.92-6.95,19.12-7,29.35Q1.71,165.7,0,284.45q90.95,1.23,181.77,2.78c19.21.33,42.1-1.28,52-17.89,5.18-8.64,5.19-19.5,4.94-29.55Q236.9,120,235.07,0C171.87,1.06,108.71,2.9,45.45,5.85ZM76.53,9.91c49.82-1.24,99.8-2.34,149.62-3.58-8.18,8.49-20.62,11.08-32.42,11.12-11.66-.13-23.43-2.45-35.06-2.11-33.16.77-66.47,1.71-99.63,2.49-6.76.22-13.51.45-20.2,1.93C51,20,63,20.44,75.1,20.85A86.83,86.83,0,0,1,16,21.37C34.1,11.06,55.79,10.46,76.53,9.91ZM214.8,270.26c0,8.49-11.5,11-20,10.88Q100.75,279.39,6.56,278q1.1-89.05,2-178.11c.36-24.1.58-48,2.53-72.06,66.61,9.13,134.67-14.7,200.92-3.5a507.6,507.6,0,0,0,3.74,93.9c.87,7,1.94,14.68-1.48,21s-12.83,9.7-17.7,4.31c11.21-2.21,17.46-16.88,12.17-27-5.15-10.26-19.06-14.19-29.51-9.66-9.15,3.91-15.05,13.27-16.38,23.15,0-7-1.18-15.34-.52-21.57-5.33-2.37-11.73,1.45-14.58,6.65-2.7,5-2.67,11.17-2.81,17-.2,10.4-1.16,21.31-6.64,30.12s-17,14.65-26.46,10.78c5.44-4.09-.62-13.81-7.38-13.59s-11.94,5.87-16.36,11.16c2.18-14.29-9-29.08-23.31-30.95,9.59-2.9,19.57-7.24,25.57-15.29,6-8.21,6.36-21.14-1.71-27.45-4-3.08-9.2-4-14.24-4.07-12.44-.24-25.64,5.7-30.83,16.85C38.28,121,44.69,137,57.07,138.8c-15-.72-29.65,10-33.71,24.42-3.9,14.54,3.34,31.28,16.48,38.25l-25.72,4.29c-4.9,5.15,3.07,12.57,9.94,14.38s15.92,6,13.78,12.76c-2.65,8.8-5.42,18.25-2.72,26.91,2.85,8.8,13.77,15.43,21.52,10.42,7.59-4.83,8.71-18.43,17.77-19.57.94,8.13,6.3,16.64,14.41,18.23,8.11,1.42,17-7.89,13-15.06-1.94-3.67,1-8.24,4.8-9.72,3.68-1.62,8-.92,12.07-.84,21.63,1.3,43.67-9.71,55.87-27.71-1.66,6.71,8.06,11.66,14.16,8.17,5.95-3.32,8-11.15,7.63-18.06-.23-6.91-2.19-13.72-1.79-20.51a29.75,29.75,0,0,1,21.8-26.41Q215.73,214.49,214.8,270.26Zm-26.42-52.49c-3.87,1.16-7.84-2.23-9-6.1-1-3.88,0-8,.89-12,2.57-10.22,4.29-21.65-.8-30.8-5.09-9.31-19.95-13.35-26.23-4.81a230.11,230.11,0,0,1,.63-49.92c1.43,6,6,15,8.72,20.54v.05c.09,4.25,1.46,9.05,5.33,10.72-1.17-9.54,0-19.83,6-27.26,6.19-7.43,18-10.46,25.7-4.75,7.56,5.71,6.35,20.41-2.79,23-6.05,1.6-5.19,11.31.19,14.47s12.05,1.68,17.95.24c-16.41,4.71-28.53,21.45-27.72,38.55C187.79,199.08,191.66,208.93,188.38,217.77ZM32.3,215.59c-5.21-.34-11,.3-15.13-3.08,3-4.89,10.51-3.43,16.33-3.44a22.37,22.37,0,0,0,18-9.68c-15.37-1.81-26.14-19.61-21.62-34.34,4.36-14.73,22.12-23.44,36.86-18.93a20.11,20.11,0,0,1,10.78,6.95c5,7,3,16.82,6.59,24.65,8.24-4.56,16.63-9.13,24.87-13.69A27.83,27.83,0,0,1,93.6,181c-5.22,2.18-11.18,2.68-16.59,4.24-5.59,1.42-11.24,4.41-13.63,9.59-2.94,6.46,0,14.16,4.13,20.06A65.4,65.4,0,0,0,90.74,236c6.65,3.56,6.39,12.86,5.24,20.32-.34,2.23-.84,4.61-2.65,6-3.48,2.4-8.12-1.75-9.62-5.91s-2.25-9.16-6.14-11.14c-3-1.09-6.41-2.16-9.52-1.35-5.57,1.57-7.56,8.14-9.95,13.31-2.21,5.32-8.37,10.54-13.12,7.19-3.11-2-3.21-6.58-2.95-10.38.38-9.93.92-19.88,1.29-30C43.66,218.88,37.51,215.92,32.3,215.59ZM57,134.4c-8.49-2.67-12.13-14.1-8.34-22.19S61.45,99.37,70.36,98.39c5.8-.48,12.31.57,16,5.23,3.23,4.38,3,10.69.4,15.56S79.73,127.61,75,130.39C69.53,133.69,63.06,136.26,57,134.4Zm75.69,41.67c-1.1,5.57-2.48,11.79-7,15.35a20.32,20.32,0,0,1-8.3,3.46,77.5,77.5,0,0,1-42.75-1.83A245.22,245.22,0,0,1,132.67,176.07Zm-61,31.62c-1.61-3.37-3-7.7-.61-10.66,13.78,7.09,30.34,7.72,45.43,4.51,15.23-3.38,29.3-10.63,42.7-18.47,5.94-3.48,12-7.6,15.12-13.76,6.66,26.06-9,55.9-34.08,65.35C115,244,83.73,231.72,71.67,207.69ZM140.16,186c.22-4.41,1.54-8.9,4.51-12.05,5.64-6,14.91-6.2,23.12-5.88A62.9,62.9,0,0,1,140.16,186ZM231.68,182c.24,15.41.49,31,.89,46.37.23,15.25.08,32.1-9.64,43.83q-2.06-119.81-4.28-239.76c-.13-7.86,1.34-18,9.11-19.71C229.38,69.09,230.53,125.53,231.68,182ZM81.07,115.26a9.85,9.85,0,0,0,1.1-5.58c-.79-5.62-8.28-7.39-13.91-6.76-8.12,1.09-17.4,6.81-16.78,15,.39,6.91,8.21,11.66,14.91,10.49S78.44,121.54,81.07,115.26Zm-8.25,1.56c-2.72,4.72-9.43,8.56-13.27,4.69-3-3-1.26-8.43,2.22-10.83,3.65-2.25,8-2.34,12.32-2.11C75.65,111.16,74.41,114.37,72.82,116.82Zm100.61,126a147.53,147.53,0,0,1-37.94,5.3c-5,.12-8.11,6.91-5.8,11.5s7.78,6.8,13,7c5,0,10-1.36,15.15-2.12C168.9,262.94,180,265,191,267a14.1,14.1,0,0,0,14.55-7.12,13.78,13.78,0,0,0-2.8-16.05C195.43,236.73,183.35,240.09,173.43,242.85Zm25.23,17.62a283.61,283.61,0,0,0-60.12-.22c-.56-1.39-1.25-2.61-2-4,.37-4.59,7.16-4.18,11.76-3.5,16.83,2.67,33.49-9,50.32-6.31C198.61,251.18,198.71,255.74,198.66,260.47Zm-3.44-133.1.33.14a5.63,5.63,0,0,0,2.87-7.72A9,9,0,0,0,188.7,126C187.92,129,193.48,130,195.22,127.37Zm-14.3,3c-2.4-.65-4.73,0-7,.56l-.18-.31a6.4,6.4,0,0,0,.36,6.28,32,32,0,0,0,10.16-1.21C185,133.45,183.16,131,180.92,130.38Zm-6.47-8.61c3.51,3.58,10.38,2.72,12.81-1.66l-.65-.44C183.26,116.24,176.56,117.41,174.45,121.77Z"/></g></g></svg>