<svg xmlns="http://www.w3.org/2000/svg" viewBox="0 0 137.73 296.95"><defs><style>.cls-1{fill:#f7931e;}</style></defs><g id="Layer_2" data-name="Layer 2"><g id="Layer_2-2" data-name="Layer 2"><path class="cls-1" d="M38.71,27.74A368.7,368.7,0,0,1,103,34.49c4.87.95,9.74-2,13.36-5.5s6.44-7.7,10.68-10.52A388.89,388.89,0,0,0,40.91,6.05a13.47,13.47,0,0,0-6.13,1c-2.36,1.25-3.61,3.77-4.87,6.12-1.73,3.93-3.14,8.8-.47,12C31.64,27.58,35.41,27.74,38.71,27.74Z"/><path class="cls-1" d="M111.61,48.63a10,10,0,0,0-2.51-4.08,12,12,0,0,0-4.56-2,278.08,278.08,0,0,0-67.4-7.23c-2.2,0-4.72.16-6.45,1.57-1.41,1.1-2,2.83-2.82,4.4-3.3,8.33-6.76,16.65-10.22,25.14,34.57,1.73,69.29,3.61,103.86,5.5C118.21,64.19,114.91,56.33,111.61,48.63Z"/><path class="cls-1" d="M31.79,116.51c2.52-2.83,3-6.91,2.52-10.68a6.05,6.05,0,0,0-.94-2.52c-1.42-2-4.56-1.41-6.6-.16a13,13,0,0,0-5.19,14.62C24.41,120.28,29.28,119.34,31.79,116.51Z"/><path class="cls-1" d="M48.61,161.76l-.63.32c.15,1.72,2.51,3,4.24,2.2a13,13,0,0,0-.16-9.43A4.84,4.84,0,0,0,48.61,161.76Z"/><path class="cls-1" d="M13.88,9.82a4.16,4.16,0,0,1,3.14,5l.32.32c1.1,1.88,4.4,1.1,5.5-.79.94-2,.47-4.4,0-6.6A8.62,8.62,0,0,0,13.88,9.82Z"/><path class="cls-1" d="M126.22,80.84q-5.41,102.53-6.44,205.2a16.23,16.23,0,0,0,6.6,2q.7-78,1.26-156.18c.16-20.11.47-40.7,5.65-60.18C129.21,70,126.38,76.29,126.22,80.84Z"/><path class="cls-1" d="M128,68.75c3.93-9.12-2-21.06-11.78-23.26A73.88,73.88,0,0,0,128,68.75Z"/><path class="cls-1" d="M119.31,80.06c-1.41-1.57-3.77-1.89-5.81-2C84,76.44,54.58,74.72,25,73.14c-3.14-.15-6.6-.31-9,1.73-2.67,2.2-3,6.13-3.14,9.59q-2.83,96.86-5.81,193.89c0,1.88,0,4.08,1.41,5.34,1.1,1.1,2.83,1.1,4.4,1.26,30.32,1.25,60.65,2.51,91,3.61,2.67.16,5.5.16,7.23-1.73,1.41-1.57,1.57-3.77,1.73-6q3.54-97.81,7.38-195.93C120.25,83.2,120.25,81.47,119.31,80.06ZM78.77,101a14,14,0,0,0,1-10.06l3.77-1.88c5.65,1.57,1.41,11.94,5.81,15.87,1.41,1.25,3.61,1.57,5.19,2.51s3,3.3,1.57,4.71H86.32c-.79,5.66-1.73,11.32-2.52,17-.47,2.52-.94,5.19-3,6.6s-5.82,0-5.19-2.51c1.42-5.66,2.83-11.47,2-17.29-.62-5.81-3.77-11.78-9.11-14.14C71.86,101.63,75.32,101.31,78.77,101ZM58,89.33c4.4,13.51,8.8,26.87,13.36,40.38-5.34-3.46-10.69-7.07-15.87-10.53a15.24,15.24,0,0,1-10.68,12.73A146.8,146.8,0,0,1,58,89.33ZM17,103.78c4.09-6.91,13.05-13,19.33-8.32a11.67,11.67,0,0,1,4.09,5.81c3,7.7,1.25,17.6-5.5,22.47-6.6,4.87-17.92,2.35-20.59-5.5C12.78,113.37,14.51,108,17,103.78ZM12.47,155c.47-11.79,14.61-20.74,25.61-16.19,2.2,1.1.94,4.72-1.26,5.66-2.2.78-4.71.16-7.23.31a11.32,11.32,0,0,0-3,22c4.24,1.41,10.84,2.2,10,6.6C25.35,177.16,12,167,12.47,155ZM48,218.17c-4.09-.63-5.82-5.5-6.13-9.59-.47-4.08-.63-8.8-3.93-11.31a16.6,16.6,0,0,0-2.2,11.79,6.1,6.1,0,0,1-4.4.78A138,138,0,0,1,31,191.77c-2.36-2.2-5.82,1.26-6.29,4.56-.78,4.71.47,9.43.32,14.3-.16,4.71-2.67,10.05-7.39,11a166,166,0,0,1,1-28c.31-3,.94-6.29,3.3-7.86s5.49-1.1,8.17-.16C42.79,190.2,50.81,205,48,218.17Zm7.07-6.92A14,14,0,0,1,53.48,194a6.4,6.4,0,0,1,2.35,7.23l.63-.16A8.56,8.56,0,0,1,55.05,211.25ZM45,168.36c-4.24-3.14-5.18-10.06-1.88-14.3a10.67,10.67,0,0,1,14.14-1.88,10.52,10.52,0,0,1,2,14.14C56.15,170.56,49.23,171.66,45,168.36Zm24,41a7.15,7.15,0,0,1-.94,1.1c-2.51,2-4.56-2.83-4.4-6a47.77,47.77,0,0,0-3.14-20.43C69.82,188,74.06,200.73,69,209.37ZM87.89,205c-1.26,3.77-2.36,7.54-3.62,11.31-1.73-.94-3.3-1.73-4.87-2.51a121.57,121.57,0,0,0-.16-33c1.58-.31,3-.63,4.4-.94a44,44,0,0,1,1.26,5c3.61-2.36,7.23-4.87,10.84-7.23,2.05,2.51-.47,5.81-2.2,8.49a16.72,16.72,0,0,0,3,20.74A7.75,7.75,0,0,1,87.89,205Zm7.85,7.23c1.42-2,2.83-4.4,5.34-5.19,2.36-.63,5.66,1.26,5,3.77h.63C104.7,214.71,98.57,215.5,95.74,212.2Zm11.32-22.79a4.74,4.74,0,0,1-1.26,3.46c-2,2-5.82-.31-6.29-3.14s1.26-5.66,2.83-8l-.63-.95a6.42,6.42,0,0,1,3.93-2.35A23.63,23.63,0,0,1,107.06,189.41Zm1.25-33.3c-4.4,6.44-12.57,8.95-20,11.15-4.72,1.41-9.9,2.83-14.3.63-4.71-2.36-6.91-8.17-7.38-13.51a36.89,36.89,0,0,1,3.45-19.17c8.33,4.55-.94,21.84,7.86,25.77,3.61,1.72,8.17-1.1,9.9-4.87,1.57-3.78,1.25-8,.94-12.1a4.72,4.72,0,0,1,.31-3.3c1.42-2.05,5-1,6.13,1.25,1.1,2.36.63,5,.47,7.55,0,2.51.47,5.5,2.67,6.6,3.77-5.82,7.39-11.63,11.16-17.45A16.66,16.66,0,0,1,108.31,156.11Z"/><path id="Milk" d="M55.52,119.18c5.18,3.46,10.53,7.07,15.87,10.53-4.56-13.51-9-26.87-13.36-40.38a146.8,146.8,0,0,0-13.19,42.58A15.24,15.24,0,0,0,55.52,119.18Zm22.15-3.26c.79,5.82-.62,11.63-2,17.29-.63,2.51,3.14,3.93,5.19,2.51s2.51-4.08,3-6.6c.79-5.65,1.73-11.31,2.52-17h9.74c1.41-1.41.15-3.77-1.57-4.71s-3.78-1.26-5.19-2.51c-4.4-3.93-.16-14.3-5.81-15.87l-3.77,1.88a14,14,0,0,1-1,10.06c-3.45.31-6.91.63-10.21.78C73.9,104.14,77.05,110.11,77.67,115.92Zm-42.73,7.82c6.75-4.87,8.48-14.77,5.5-22.47a11.67,11.67,0,0,0-4.09-5.81c-6.28-4.72-15.24,1.41-19.33,8.32-2.51,4.25-4.24,9.59-2.67,14.46C17,126.09,28.34,128.61,34.94,123.74Zm-8.17-20.59c2-1.25,5.18-1.88,6.6.16a6.05,6.05,0,0,1,.94,2.52c.47,3.77,0,7.85-2.52,10.68s-7.38,3.77-10.21,1.26A13,13,0,0,1,26.77,103.15Zm9.89,70.24c.79-4.4-5.81-5.19-10-6.6a11.32,11.32,0,0,1,3-22c2.52-.15,5,.47,7.23-.31,2.2-.94,3.46-4.56,1.26-5.66-11-4.55-25.14,4.4-25.61,16.19C12,167,25.35,177.16,36.66,173.39Zm23.89,10.68a47.77,47.77,0,0,1,3.14,20.43c-.16,3.14,1.89,8,4.4,6a7.15,7.15,0,0,0,.94-1.1C74.06,200.73,69.82,188,60.55,184.07Zm37.86-28c-2.2-1.1-2.67-4.09-2.67-6.6.16-2.52.63-5.19-.47-7.55-1.1-2.2-4.71-3.3-6.13-1.25a4.72,4.72,0,0,0-.31,3.3c.31,4.08.63,8.32-.94,12.1-1.73,3.77-6.29,6.59-9.9,4.87-8.8-3.93.47-21.22-7.86-25.77a36.89,36.89,0,0,0-3.45,19.17c.47,5.34,2.67,11.15,7.38,13.51,4.4,2.2,9.58.78,14.3-.63,7.38-2.2,15.55-4.71,20-11.15a16.66,16.66,0,0,0,1.26-17.45C105.8,144.48,102.18,150.29,98.41,156.11ZM30.07,185.64c-2.68-.94-5.82-1.41-8.17.16s-3,4.87-3.3,7.86a166,166,0,0,0-1,28c4.72-.94,7.23-6.28,7.39-11,.15-4.87-1.1-9.59-.32-14.3.47-3.3,3.93-6.76,6.29-4.56a138,138,0,0,0,.31,18.07,6.1,6.1,0,0,0,4.4-.78,16.6,16.6,0,0,1,2.2-11.79c3.3,2.51,3.46,7.23,3.93,11.31.31,4.09,2,9,6.13,9.59C50.81,205,42.79,190.2,30.07,185.64Zm71.64-4.87.63.95c-1.57,2.35-3.3,5.18-2.83,8s4.25,5.18,6.29,3.14a4.74,4.74,0,0,0,1.26-3.46,23.63,23.63,0,0,0-1.42-11A6.42,6.42,0,0,0,101.71,180.77ZM133,54c-4.87-7.55-14.3-15.72-9.27-23.26,2.83-4.24,10.21-6.13,9.9-11.31-.16-3.77-4.4-5.81-7.86-6.91A266.2,266.2,0,0,0,7.13,2.75c-2.68,11.47,16.81,17.76,17,29.54,0,3.62-2,7.07-3.77,10.22C6.81,68.27,5.55,98.6,4.77,127.67L.06,277.56c-.16,3.93-.16,8.33,2.51,11.31,2.83,3.15,7.54,3.62,11.78,3.77L114,296.89c5.5.15,11.63.31,15.87-3.3,5-4.4,5.18-12.26,4.87-19a1591.28,1591.28,0,0,1,2.51-189.64C138,74.24,138.64,62.93,133,54ZM22.84,14.38c-1.1,1.89-4.4,2.67-5.5.79L17,14.85a4.16,4.16,0,0,0-3.14-5,8.62,8.62,0,0,1,9-2C23.31,10,23.78,12.34,22.84,14.38ZM128,68.75a73.88,73.88,0,0,1-11.78-23.26C125.91,47.69,131.88,59.63,128,68.75Zm-98-55.63c1.26-2.35,2.51-4.87,4.87-6.12a13.47,13.47,0,0,1,6.13-1A388.8,388.8,0,0,1,127,18.47c-4.24,2.82-7.07,7.07-10.68,10.52s-8.49,6.45-13.36,5.5a368.7,368.7,0,0,0-64.26-6.75c-3.3,0-7.07-.16-9.27-2.67C26.77,21.92,28.18,17.05,29.91,13.12Zm-2,28.13c.78-1.57,1.41-3.3,2.82-4.4,1.73-1.41,4.25-1.57,6.45-1.57a278.08,278.08,0,0,1,67.4,7.23,12,12,0,0,1,4.56,2,10,10,0,0,1,2.51,4.08c3.3,7.7,6.6,15.56,9.9,23.26C86.94,70,52.22,68.12,17.65,66.39,21.11,57.9,24.57,49.58,27.87,41.25Zm85,239.61c-.16,2.2-.32,4.4-1.73,6-1.73,1.89-4.56,1.89-7.23,1.73-30.32-1.1-60.65-2.36-91-3.61-1.57-.16-3.3-.16-4.4-1.26-1.41-1.26-1.41-3.46-1.41-5.34q3.06-96.87,5.81-193.89c.16-3.46.47-7.39,3.14-9.59,2.36-2,5.82-1.88,9-1.73C54.58,74.72,84,76.44,113.5,78c2,.15,4.4.47,5.81,2,.94,1.41.94,3.14.94,4.87Q116.48,183,112.87,280.86Zm14.77-149q-.48,78.24-1.26,156.18a16.23,16.23,0,0,1-6.6-2q.94-102.75,6.44-205.2c.16-4.55,3-10.84,7.07-9.11C128.11,91.21,127.8,111.8,127.64,131.91ZM101.08,207c-2.51.79-3.92,3.14-5.34,5.19,2.83,3.3,9,2.51,11-1.42h-.63C106.74,208.27,103.44,206.38,101.08,207Zm-7.54-20.89c1.73-2.68,4.25-6,2.2-8.49-3.61,2.36-7.23,4.87-10.84,7.23a44,44,0,0,0-1.26-5c-1.41.31-2.82.63-4.4.94a121.57,121.57,0,0,1,.16,33c1.57.78,3.14,1.57,4.87,2.51,1.26-3.77,2.36-7.54,3.62-11.31a7.75,7.75,0,0,0,8.64,1.89A16.72,16.72,0,0,1,93.54,186.12ZM55.83,201.2A6.4,6.4,0,0,0,53.48,194a14,14,0,0,0,1.57,17.28A8.56,8.56,0,0,0,56.46,201Zm1.42-49a10.67,10.67,0,0,0-14.14,1.88c-3.3,4.24-2.36,11.16,1.88,14.3,4.24,3.3,11.16,2.2,14.3-2A10.52,10.52,0,0,0,57.25,152.18Zm-5,12.1c-1.73.78-4.09-.48-4.24-2.2l.63-.32a4.84,4.84,0,0,1,3.45-6.91A13,13,0,0,1,52.22,164.28Z"/></g></g></svg>