<svg xmlns="http://www.w3.org/2000/svg" viewBox="0 0 96.33 233.01"><defs><style>.cls-1{fill:#9e005d;}.cls-2{fill:#ed1c24;}.cls-3{fill:#93278f;}</style></defs><g id="Layer_2" data-name="Layer 2"><g id="Layer_2-2" data-name="Layer 2"><path class="cls-1" d="M19.34,222.91c17.61-1.3,35.81-.1,52.91-5.2,9-5.9,7.5-25.5,11.5-35.5-9,2.9-17.3,6.5-27.21,9.7-14.79,3.8-30,3.5-45.2,4.1a3.43,3.43,0,0,0-2.19,1.9c-2.4,5.6-2.11,11.4-.5,17C10.84,223,11.15,223.21,19.34,222.91Z"/><path class="cls-2" d="M23.34,133.91a29.91,29.91,0,0,0-1.8,7c1.5-2,3-3.9,4.5-5.9C25.15,134.61,24.25,134.31,23.34,133.91Z"/><path class="cls-1" d="M3.15,215.2c.3.1.6.3.89,1,.21.5.41,1,.61,1.4.39-.4.89-.8,1.3-1.3A3.79,3.79,0,0,1,4,215.2Z"/><path class="cls-3" d="M87.15,182.91c-2.5,11.1-4.81,22.3-7.61,34-12,11.1-51.09,7.4-68.5,10.2a5.55,5.55,0,0,0,5.5,2.8c19-.3,37.91-.2,56.41-4.8,14.8-1.3,11.09-21.3,15.09-31.7.41-4.2,3.21-8.5,1-12.5C88.34,181.61,87.25,182.11,87.15,182.91Z"/><path class="cls-2" d="M15,120.11a24,24,0,0,1,2.5-.2C36.15,111.61,13.54,87.81,15,120.11Z"/><path class="cls-3" d="M63.45,39.91c22-4.7,24.8,17.6,24.59,34.5,7-1.1-.79-21.6-1.09-26.9-5.3-20.9-25.3-5.3-26.8-18.8-1.9-6.2,6.8-20.4-5.11-17.4-6.79,1.6-17.29-2.1-14.89,8.5,3,31.3-28.81,27.8-30.61,52.1C21.15,54.11,43,45.41,63.45,39.91Z"/><path class="cls-1" d="M4,200.41l.91-6c0-.1-.41-.1-.61-.2-.5,1.8-.89,3.6-1.3,5.5A.8.8,0,0,0,4,200.41Z"/><path class="cls-3" d="M58.54,7.91,63,7c-6-4.5-15.2-1.9-22.39-2.9-.9,0-1.7,2-2.61,3.1C44,10.91,51,7.51,58.54,7.91Z"/><path class="cls-1" d="M54.65,46.81c-11.9,3.6-32.31,13.6-39.2,23.6C11.15,89.91,9.54,92,31,91.41c17.8-1.1,35.5-3.7,51.21-12.6,5.4-4.7,1.79-14.2,1.7-20.6C82.15,40.51,68,43.11,54.65,46.81Z"/><path class="cls-2" d="M54.34,92.91c-5,.6-10.3-.2-14.89,1.4-8.8,3.1-17.41.9-25.8.2-7.9-2.2-4.2,17.1-5.61,22.9-2.29,12.2-1.2,24.8-2,37.2-.29,10.6-.5,21.3-1.09,32-.2,4.4,1.8,5.5,5.59,5.4A165.06,165.06,0,0,0,82,178.81c3.11-1.2,7.61-1.7,8-6.6,2.91-31.1,4-62.9-.2-93.9C80.34,86.41,66.84,90.61,54.34,92.91ZM46,98.31a5.21,5.21,0,0,1,1.3,8.8c-2-1.1-4.41-2.9-6.41-4.2-6.59,6.3-.89,14-4.39,21-2.41-2.5-4.2-4-3.41-8C31.65,107.11,34.84,95.11,46,98.31Zm-33,26.6c-3-5.7-.11-13.9-.91-21,2.21-8.4,15.5-5.2,17.11,2.1C31.65,117.91,22.34,125.61,13,124.91Zm3.3,38c-2.71-8.4-.21-18.3,0-27.1,5.2-15,21.4-2.2,9,7.4h.09C15.45,146.71,24.25,159.31,16.25,162.91Zm18.29-5.2c-4.89,1.3-8.09-1.5-9.5-6.8,2.3-5.1,5.91-8.3,11-9.4,1.5-.3,3.21.4,4.71.7-2.21,5.3-8.8,4.2-10.71,9.9,1.5.2,3,.7,4.5.8,2.21.1,4.3-.1,6.5-.1C38.84,154.51,37,157.11,34.54,157.71ZM52,147.21c-.11,2.2-1.7,4.4-2.5,6.6-4.11-7.9-1.91-17-1.2-25.4.79-3.7,7.2-9,10.59-4.9.61,3.9,1.61,8.4-1.5,11.7C51.54,137.71,52,142.41,52,147.21Zm23.5-7.4c-3.8,1.8-8.8,1.1-11.41,5.2,2.5,5.4,14.11.7,10,5.9-6.89,5.6-21.29-2.3-14-11C68.65,127,87.84,130.51,75.45,139.81Zm7.11,6.9c.8-2.7.6-6.3,4.9-6.2v1.4C88.66,145.61,83.36,152,82.56,146.71Zm5.28-13c-1,1.2-1.69,2.2-2.39,3.1-1.91-5.6-2.2-12.9,1.8-17.6.5,1,1.29,1.9,1.29,2.8A117,117,0,0,1,87.84,133.71Z"/><path class="cls-2" d="M52.46,131.41v1c1.3-.9,2.9-1.6,3.7-2.9.5-.8-.1-2.3-.2-3.5C54.06,127.91,51.86,127.91,52.46,131.41Z"/><path id="Dr_Pepe" data-name="Dr Pepe" d="M34.54,152.91c-1.5-.1-3-.6-4.5-.8,1.91-5.7,8.5-4.6,10.71-9.9-1.5-.3-3.21-1-4.71-.7-5.09,1.1-8.69,4.3-11,9.4,1.41,5.3,4.61,8.1,9.5,6.8,2.41-.6,4.31-3.2,6.5-4.9C38.85,152.81,36.75,153,34.54,152.91Zm52.92-11v-1.4c-4.3-.1-4.1,3.5-4.9,6.2C83.36,152,88.66,145.61,87.46,141.91Zm.39-8.2c.4-4.1.69-7.9.69-11.7,0-.9-.79-1.8-1.29-2.8-4,4.7-3.71,12-1.8,17.6C86.15,135.91,86.85,134.91,87.85,133.71Zm-38.4,20.1c.8-2.2,2.4-4.4,2.5-6.6,0-4.8-.41-9.5,5.4-12,3.1-3.3,2.1-7.8,1.5-11.7-3.4-4.1-9.81,1.2-10.6,4.9C47.54,136.81,45.35,145.91,49.45,153.81ZM56,126c.1,1.2.7,2.7.2,3.5-.8,1.3-2.4,2-3.7,2.9v-1C51.86,127.91,54.06,127.91,56,126Zm38-50.4c-3.2-78.7-40.6-18.4-26.6-68.9-6.81-8-17.7-5.2-27-6.7a6.39,6.39,0,0,0-6.1,9.5c3.4,6.5,1.6,13,1.2,19.5-.6,10.1-8.8,14.4-15.3,19.9C3,60,6.35,77.91,5,95.71c-1.69,39.8-5.5,79.5-5,119.3,0,4.7,9.31,16.9,13.81,17.9,12.5-.1,25.3.4,37.9-.2,15.29-2.4,37.4-2.6,36.5-23.4C97.45,165.21,98,120.31,94,75.61ZM40.65,4.11C47.85,5.11,57,2.51,63,7l-4.5.9C51,7.51,44,10.91,38,7.21,39,6.11,39.75,4.11,40.65,4.11Zm-.5,15.7c-2.4-10.6,8.1-6.9,14.89-8.5,11.91-3,3.21,11.2,5.11,17.4,1.5,13.5,21.5-2.1,26.8,18.8.3,5.3,8.09,25.8,1.09,26.9.21-16.9-2.59-39.2-24.59-34.5-20.41,5.5-42.3,14.2-53.91,32C11.35,47.61,43.15,51.11,40.15,19.81Zm42.1,59c-15.71,8.9-33.4,11.5-51.21,12.6-21.5.6-19.89-1.5-15.59-21,6.9-10,27.3-20,39.2-23.6,13.39-3.7,27.5-6.3,29.3,11.4C84,64.61,87.65,74.11,82.25,78.81ZM5,186.61c.59-10.7.8-21.4,1.09-32,.81-12.4-.29-25,2-37.2,1.41-5.8-2.29-25.1,5.61-22.9,8.39.7,17,2.9,25.8-.2,4.59-1.6,9.9-.8,14.9-1.4,12.5-2.3,26-6.5,35.5-14.6,4.19,31,3.1,62.8.19,93.9-.39,4.9-4.89,5.4-8,6.6A165.06,165.06,0,0,1,10.54,192C6.75,192.11,4.75,191,5,186.61Zm-.6,7.6c.19.1.6.1.6.2l-.91,6a.8.8,0,0,1-1-.7C3.45,197.81,3.85,196,4.35,194.21Zm.3,23.39c-.2-.4-.4-.9-.61-1.4-.29-.7-.59-.9-.89-1H4A3.83,3.83,0,0,0,6,216.3C5.54,216.8,5,217.2,4.65,217.6Zm4-2.69c-1.61-5.6-1.9-11.4.5-17a3.42,3.42,0,0,1,2.2-1.9c15.19-.6,30.4-.3,45.19-4.1,9.91-3.2,18.21-6.8,27.21-9.7-4,10-2.5,29.6-11.5,35.5-17.1,5.1-35.3,3.9-52.9,5.2C11.15,223.21,10.85,223,8.65,214.91ZM73,225.11c-18.5,4.6-37.41,4.5-56.41,4.8a5.55,5.55,0,0,1-5.5-2.8c17.41-2.8,56.5.9,68.5-10.2,2.81-11.7,5.11-22.9,7.61-34,.1-.8,1.2-1.3,1.89-2,2.21,4-.59,8.3-1,12.5C84,203.81,87.75,223.81,73,225.11ZM74,150.91c4.11-5.2-7.5-.5-10-5.9,2.61-4.1,7.61-3.4,11.41-5.2,12.4-9.3-6.8-12.8-15.41.1C52.75,148.61,67.15,156.51,74,150.91ZM13,124.91c9.4.7,18.7-7,16.2-18.9-1.61-7.3-14.9-10.5-17.11-2.1C12.85,111,10,119.21,13,124.91Zm4.59-5a24,24,0,0,0-2.5.2C13.54,87.81,36.15,111.61,17.54,119.91Zm-1.29,15.9c-.21,8.8-2.71,18.7,0,27.1,8-3.6-.8-16.2,9.1-19.7h-.1C37.65,133.61,21.45,120.81,16.25,135.81Zm5.29,5.1a29.91,29.91,0,0,1,1.81-7c.9.4,1.8.7,2.69,1.1C24.54,137,23,138.91,21.54,140.91Zm14.91-17c3.5-7-2.2-14.7,4.4-21,2,1.3,4.4,3.1,6.4,4.2a5.21,5.21,0,0,0-1.3-8.8c-11.1-3.2-14.3,8.8-12.91,17.6C32.25,119.91,34,121.41,36.45,123.91Z"/></g></g></svg>