<svg xmlns="http://www.w3.org/2000/svg" viewBox="0 0 208.05 168.38"><defs><style>.cls-1{fill:#ff7bac;}.cls-2{fill:#fff;}</style></defs><g id="Layer_2" data-name="Layer 2"><g id="Layer_2-2" data-name="Layer 2"><path class="cls-1" d="M74.4,58.3C86,65.2,98.3,75.6,108.9,82.7c2.6-.4,4.6-5,6.9-7.7,1.6-1.8,2.3-3.4-.5-5.2-6.6-4.7-12.8-10-19.7-15.6-3.6-1.6-7.3-3.2-10.9-5-7.3-3.5-7.1-3.5-11.7,3.2C71.1,55.3,71.5,56.5,74.4,58.3Z"/><path class="cls-2" d="M125.2,63.5c9.6-14.4,14-11.4,4.8-28.9-4.5-4.6-13.9-29.7-21-22.7-8.7,8.2-18.7,15.3-25.8,25,9.5,4.5,17.2,10.4,26.4,16.3C112.5,54.5,124,68.2,125.2,63.5Z"/><path class="cls-1" d="M81.6,73.2C91,77.8,98.3,85,105.9,92c3.9-12.9-30.3-22.4-35.3-34.8a2.77,2.77,0,0,1,.1-.9,2.1,2.1,0,0,1-1.1.9C61.8,66.1,76.4,68.6,81.6,73.2Z"/><path class="cls-1" d="M95.6,51.1c.6.3,1.5-.1,2.3-.2-2.2-4.9-9.8-7-14.2-10.4-1-.5-2.9.6-4.4,1,2.4,2.2,4.3,2.9,7.3,4.7S92.5,49.6,95.6,51.1Z"/><path class="cls-1" d="M77.4,123.5c13.8-14.1,6.6-13.2-8.8-15.3-4.7,0-19.1,11.1-13.9,14.9C60.9,123.4,72.9,128.6,77.4,123.5Z"/><path class="cls-1" d="M25.7,84.2c-7.4.5-16.8-1.9-20.6,6.5-5.1,10.6,7,17.6,13.7,23.6,8.8,8.7,7.2-6.4,8.3-12.6C26.5,97.4,33.1,83.3,25.7,84.2Z"/><path class="cls-1" d="M193.6,48.2c-3.2-4.1-7.1,1.2-10.4,2.7C181.6,58.6,191.6,50.3,193.6,48.2Z"/><path class="cls-2" d="M87.3,109.9c.5.4,2.1.5,2.4.1,2.4-4.5,14.9-12.6,9.4-17.4C93.6,88.3,67.7,62.2,62.6,72,52.2,87.1,56.2,85.2,40.5,85.2c-7.4.1-7.4,0-7.9,8-1.2,7.7-1.7,15.5-3.8,23-1,3.8.9,3.5,2.8,4,5.7,1.3,12.4,3.6,17.4-.7C56.8,106.1,73.2,95.9,87.3,109.9Z"/><path class="cls-1" d="M135.1,36.5c2.7-.9,4.9-3.2,7.5-4.2,3.9-1.3,2.5-2.8,0-5.1-2.5,1.6-5.3,2.8-7.5,4.8C134.4,32.6,135.1,34.9,135.1,36.5Z"/><path class="cls-1" d="M138.1,43.7c1.3.2,2.7.7,3.9.5a43.47,43.47,0,0,0,8.1-2.5c-.9-2.2-1.8-4.5-2.8-6.7C142.1,38.4,139.4,36.8,138.1,43.7Z"/><path class="cls-1" d="M124.5,3.2c-2.4.9-4.9,1.6-7.3,2.6-.9.3-1.4,1.3-2.1,2.9C117.2,10.3,124.3,5.4,124.5,3.2Z"/><path class="cls-1" d="M131.5,29.1c3.3-2.1,6.6-4.3,10.4-5.6-1.4-.8-3-2.4-4.2-2.2-2.4.5-4.7,1.9-7.6,3.4C130.6,26.2,131,27.6,131.5,29.1Z"/><path class="cls-1" d="M121.1,11.7c-.6.7-1.3,1.4-1.9,2.1,3.9,1.8,7.2-1.4,10.6-2.9C130.5,5.4,123.4,8.6,121.1,11.7Z"/><path class="cls-1" d="M126.1,21c3-.1,10.1-2.4,9-6.3a64.51,64.51,0,0,0-8.7,2C125.8,16.9,126.2,19.5,126.1,21Z"/><path class="cls-1" d="M99.1,52.2a19.94,19.94,0,0,0,1.5,2c5.3,4.4,10.6,8.7,16,12.9.7.5,2,.1,3.1.1C120.2,64,102.3,52.8,99.1,52.2Z"/><path class="cls-2" d="M146.1,62.7c-2.8,4.2-5.3,8.7-8.6,12.4-2.5,2.7-.6,3.7,1,4.9,9.2,7.7,18.9,14.9,27.7,23.2,6.5,6.5,9.7-3.9,13.8-7.4,16.2-15.1,2.1-36.7-6.7-51.7C169.6,34.7,149,57.3,146.1,62.7Z"/><path class="cls-1" d="M164,105.6c-10.4-8.2-19.6-18-30.7-25,4.7,12.5,21.6,21,31.3,31.6C168.8,109.6,166.3,107.6,164,105.6Z"/><path class="cls-1" d="M186.6,61.2c2.1,3.5,6.2-1.9,8.9-3C199,48.3,186.4,56.1,186.6,61.2Z"/><path class="cls-1" d="M193.5,70.3c3.1-2.3,10.6-3.2,5.1-8.1-3.6,1.9-12.6,2.7-8.6,8.6C191.9,74,192.5,70.8,193.5,70.3Z"/><path class="cls-1" d="M202.4,69.4c-6.2,5.4-14.8,5.6-10.4,15.8,1-.8,2.9-1.6,2.8-2.4-.7-7.5,12.6-4.4,8.3-12.1C202.9,70.3,202.6,69.9,202.4,69.4Z"/><path class="cls-1" d="M132.9,88.7c-.8-.7-2.5-.5-3.8-.6,0,2.8-5.4,5.2-1.1,8.4,3.3,2.5,7,4.5,11.1,7.2,5.3,2.7,19.6,24.8,22.3,12.6a4.84,4.84,0,0,0-.9-4C151.4,104.4,142.1,96.5,132.9,88.7Z"/><path class="cls-1" d="M175.5,40.2c2-1.2,3.8-2.6,6.1-4a2.77,2.77,0,0,1,.1-.9,2.1,2.1,0,0,1-1.1.9c-1.9.7-3.8,1.3-5.6,2.1-.7.3-1,1.2-1.5,1.8C174.2,40.1,175.1,40.5,175.5,40.2Z"/><path class="cls-1" d="M74.8,141.1c-6.6,7.3-1.8,22.8,9.3,21.6C84.9,159,80.5,133.3,74.8,141.1Z"/><path class="cls-1" d="M125.8,98.6c-.5-.4-1.7,0-2.6,0-.1,3.8,3.2,4.5,5.9,7.1,5.3,5.4,18.4,23.7,25.8,19.2C146.4,115,135.7,107.1,125.8,98.6Z"/><path class="cls-1" d="M178.8,43.4c-.7.9.5,3.3.9,5,2.4-.8,3.4-1.6,5.4-3.7,1.5-1.1,3-2.3,4.5-3.5C185.5,38.3,181.5,39.6,178.8,43.4Z"/><path class="cls-2" d="M119.7,105.3c-6.7,28.2-43,24.1-35.5,37.5,10.3,22.9-5.9,24.3,25.8,17.9a6.4,6.4,0,0,0,4-3.7c2.4-14.2,17.9-12.9,27.6-21.8,1.8-1.5,7.2-1.9,6-4.9C138.6,121.7,130.6,111.8,119.7,105.3Z"/><path class="cls-1" d="M119.6,152.3a19.93,19.93,0,0,0-.5,3.4c4.5-.4,5.4-4.6,6.8-8.2-1.9,1.4-3.6,2-5.3,3.7C120.3,151.6,119.7,151.9,119.6,152.3Z"/><path id="Socks" d="M78.4,128.4c10.5-11.6,19.7-23.8,30-35.9h-.1c12.6-16.5,21.1-37.6,41.3-46.3,15.3-4.7-16.9-39.3-23.1-45.1C115.2-7.1,79.1,32.8,73.8,43.9c-3.4,6-7.7,11.5-11.2,17.4-5,7-5.5,20.4-16.6,20.1-10.5-.8-21-1-31.6-1.1C6.4,80.2.4,86.8,0,94.8c1.9,22.6,28.7,30.2,47.8,31.5C55.5,125.7,73.4,133,78.4,128.4Zm38.2-61.3c-5.4-4.2-10.7-8.5-16-12.9a19.94,19.94,0,0,1-1.5-2c3.2.6,21.1,11.8,20.6,15C118.6,67.2,117.3,67.6,116.6,67.1Zm33.5-25.4a43.47,43.47,0,0,1-8.1,2.5c-1.2.2-2.6-.3-3.9-.5,1.3-6.9,4-5.3,9.2-8.7C148.3,37.2,149.2,39.5,150.1,41.7Zm-7.5-9.4c-2.6,1-4.8,3.3-7.5,4.2,0-1.6-.7-3.9,0-4.5,2.2-2,5-3.2,7.5-4.8C145.1,29.5,146.5,31,142.6,32.3Zm-.7-8.8c-3.8,1.3-7.1,3.5-10.4,5.6-.5-1.5-.9-2.9-1.4-4.4,2.9-1.5,5.2-2.9,7.6-3.4C138.9,21.1,140.5,22.7,141.9,23.5ZM126.1,21c.1-1.5-.3-4.1.3-4.3a64.51,64.51,0,0,1,8.7-2C136.2,18.6,129.1,20.9,126.1,21Zm3.7-10.1c-3.4,1.5-6.7,4.7-10.6,2.9.6-.7,1.3-1.4,1.9-2.1C123.4,8.6,130.5,5.4,129.8,10.9ZM117.2,5.8c2.4-1,4.9-1.7,7.3-2.6-.2,2.2-7.3,7.1-9.4,5.5C115.8,7.1,116.3,6.1,117.2,5.8ZM109,11.9c7.1-7,16.5,18.1,21,22.7,9.2,17.5,4.8,14.5-4.8,28.9-1.2,4.7-12.7-9-15.6-10.3-9.2-5.9-16.9-11.8-26.4-16.3C90.3,27.2,100.3,20.1,109,11.9ZM83.7,40.5c4.4,3.4,12,5.5,14.2,10.4-.8.1-1.7.5-2.3.2-3.1-1.5-6-3.2-9-4.9s-4.9-2.5-7.3-4.7C80.8,41.1,82.7,40,83.7,40.5ZM73,52.4c4.6-6.7,4.4-6.7,11.7-3.2,3.6,1.8,7.3,3.4,10.9,5,6.9,5.6,13.1,10.9,19.7,15.6,2.8,1.8,2.1,3.4.5,5.2-2.3,2.7-4.3,7.3-6.9,7.7C98.3,75.6,86,65.2,74.4,58.3,71.5,56.5,71.1,55.3,73,52.4Zm-3.4,4.8a2.1,2.1,0,0,0,1.1-.9,2.77,2.77,0,0,0-.1.9c5,12.4,39.2,21.9,35.3,34.8C98.3,85,91,77.8,81.6,73.2,76.4,68.6,61.8,66.1,69.6,57.2ZM18.8,114.3c-6.7-6-18.8-13-13.7-23.6,3.8-8.4,13.2-6,20.6-6.5,7.4-.9.8,13.2,1.4,17.5C26,107.9,27.6,123,18.8,114.3Zm12.8,5.9c-1.9-.5-3.8-.2-2.8-4,2.1-7.5,2.6-15.3,3.8-23,.5-8,.5-7.9,7.9-8,15.7,0,11.7,1.9,22.1-13.2,5.1-9.8,31,16.3,36.5,20.6,5.5,4.8-7,12.9-9.4,17.4-.3.4-1.9.3-2.4-.1-14.1-14-30.5-3.8-38.3,9.6C44,123.8,37.3,121.5,31.6,120.2Zm23.1,2.9c-5.2-3.8,9.2-14.9,13.9-14.9,15.4,2.1,22.6,1.2,8.8,15.3C72.9,128.6,60.9,123.4,54.7,123.1ZM208,75.1c-4.9-13.1-9.1-26.7-17-38.4-5.6-10.5-13.1-2.8-20.3.4-17.1,4.9-26,20.7-35.7,34.2-9.6,12.5-14.1,28.9-23.6,42.1-9.5,16.9-48.1,15.7-43.3,40,.6,5.2,7.2,12.7,12.3,13.6,13.7,3.9,26.1-1.2,38.4-6.6,8-1.9,9.4-10.1,14.6-14.8,24.3-13.6,38.8-37.5,58.7-56.4C197.6,84.9,208.9,83.3,208,75.1ZM193.6,48.2c-2,2.1-12,10.4-10.4,2.7C186.5,49.4,190.4,44.1,193.6,48.2Zm-4-7c-1.5,1.2-3,2.4-4.5,3.5-2,2.1-3,2.9-5.4,3.7-.4-1.7-1.6-4.1-.9-5C181.5,39.6,185.5,38.3,189.6,41.2ZM175,38.3c1.8-.8,3.7-1.4,5.6-2.1a2.1,2.1,0,0,0,1.1-.9,2.77,2.77,0,0,0-.1.9c-2.3,1.4-4.1,2.8-6.1,4-.4.3-1.3-.1-2-.1C174,39.5,174.3,38.6,175,38.3ZM84.1,162.7c-11.1,1.2-15.9-14.3-9.3-21.6C80.5,133.3,84.9,159,84.1,162.7Zm35-7a19.93,19.93,0,0,1,.5-3.4c.1-.4.7-.7,1-1.1,1.7-1.7,3.4-2.3,5.3-3.7C124.5,151.1,123.6,155.3,119.1,155.7Zm22.5-20.5c-9.7,8.9-25.2,7.6-27.6,21.8a6.4,6.4,0,0,1-4,3.7c-31.7,6.4-15.5,5-25.8-17.9-7.5-13.4,28.8-9.3,35.5-37.5,10.9,6.5,18.9,16.4,27.9,25C148.8,133.3,143.4,133.7,141.6,135.2Zm-12.5-29.5c-2.7-2.6-6-3.3-5.9-7.1.9,0,2.1-.4,2.6,0,9.9,8.5,20.6,16.4,29.1,26.3C147.5,129.4,134.4,111.1,129.1,105.7Zm32.3,10.6c-2.7,12.2-17-9.9-22.3-12.6C135,101,131.3,99,128,96.5c-4.3-3.2,1.1-5.6,1.1-8.4,1.3.1,3-.1,3.8.6,9.2,7.8,18.5,15.7,27.6,23.6A4.84,4.84,0,0,1,161.4,116.3Zm3.2-4.1c-9.7-10.6-26.6-19.1-31.3-31.6,11.1,7,20.3,16.8,30.7,25C166.3,107.6,168.8,109.6,164.6,112.2ZM180,95.8c-4.1,3.5-7.3,13.9-13.8,7.4-8.8-8.3-18.5-15.5-27.7-23.2-1.6-1.2-3.5-2.2-1-4.9,3.3-3.7,5.8-8.2,8.6-12.4,2.9-5.4,23.5-28,27.2-18.6C182.1,59.1,196.2,80.7,180,95.8Zm6.6-34.6c-.2-5.1,12.4-12.9,8.9-3C192.8,59.3,188.7,64.7,186.6,61.2Zm3.4,9.6c-4-5.9,5-6.7,8.6-8.6,5.5,4.9-2,5.8-5.1,8.1C192.5,70.8,191.9,74,190,70.8Zm4.8,12c.1.8-1.8,1.6-2.8,2.4-4.4-10.2,4.2-10.4,10.4-15.8.2.5.5.9.7,1.3C207.4,78.4,194.1,75.3,194.8,82.8Z"/></g></g></svg>