<svg xmlns="http://www.w3.org/2000/svg" viewBox="0 0 120.17 120.72"><defs><style>.cls-1{fill:#666;}</style></defs><g id="Layer_2" data-name="Layer 2"><g id="Layer_2-2" data-name="Layer 2"><path class="cls-1" d="M101.9,3.59A47.47,47.47,0,0,1,91.6,18a6.26,6.26,0,0,0-5.1-5.3c.3,3.3.6,6.7,1,10.1a205.18,205.18,0,0,0-26-15.2c2.6,11,5.1,22,7.7,33,1.1,4.4,2.1,8.9,1.4,13.3s-3.8,8.8-8.2,9.7c-14.1,2.8-21.2,19.2-34.3,25.2-4.6,2.1-9.7,2.8-14.4,4.7s-9.3,5.4-10,10.4c1.18.3,2.37.6,3.59.89q2.68.63,5.27,1.17c.11-.19.22-.38.34-.56a9.13,9.13,0,0,1,12.3-2.1c-2.1.5-4.3,1.1-5.7,2.7s-1.2,4.6.8,5.3a6.26,6.26,0,0,1,5.7-3.1c1.9.8-1.8,2.3-3,3.9-1.4,2,1.7,4,4.1,4.2,19.3,1,33.2-20.7,52.4-22.7,7.7-.8,15.7,1.7,23.1-.5,12.3-3.6,17.2-21.7,8.4-31.1C97.2,47.29,112.5,20.89,101.9,3.59ZM88.7,78.09a9.27,9.27,0,0,1-3.8-11.7,10,10,0,0,1,11.4-5.1,2.58,2.58,0,0,1,2,1.5c.5,1.3-1.1,2.6-2.6,2.6s-2.9-.4-4.3,0c-3.2.8-3.5,5.9-.9,8s6.4,1.8,9.5.6C98.3,78.19,92.7,80.09,88.7,78.09Z"/><path id="Statue_Foot" data-name="Statue Foot" d="M118.6,66.2c-2.2-5.1-6.1-9.2-8.1-14.4-6.3-15.5,5.9-35.7-4.2-49.1A7.08,7.08,0,0,0,103.5.3c-3-1.2-6.2,1.4-7.8,4.2s-2.5,6.2-4.8,8.4c-.7-4.5-8.9-3.7-8.8.7-3.6-.1-6.7-2.5-9.5-4.7s-5.9-4.6-9.5-4.8-7.6,3.1-6.7,6.5c3,11.3,5.9,22.5,8.9,33.8,1.3,5.2,1.6,12.5-3.5,14.2C45.4,63.8,35.5,81.4,19.3,87.5c-4.3,1.6-9,2.3-13,4.6-.69.4-7.84,6.31-6,11.4.84,2.3,3.28,3.77,5.45,4.22a8.31,8.31,0,0,0,7-2c-1.82-.38-3.67-.78-5.56-1.23-1.22-.29-2.41-.59-3.59-.89.7-5,5.3-8.6,10-10.4s9.8-2.6,14.4-4.7c13.1-6,20.2-22.4,34.3-25.2,4.4-.9,7.4-5.2,8.2-9.7s-.3-8.9-1.4-13.3c-2.6-11-5.1-22-7.7-33a205.18,205.18,0,0,1,26,15.2c-.4-3.4-.7-6.8-1-10.1a6.26,6.26,0,0,1,5.1,5.3A47.47,47.47,0,0,0,101.8,3.3c10.6,17.3-4.7,43.7,9.1,58.4,8.8,9.4,3.9,27.5-8.4,31.1-7.4,2.2-15.4-.3-23.1.5C60.2,95.3,46.3,117,27,116c-2.4-.2-5.5-2.2-4.1-4.2,1.2-1.6,4.9-3.1,3-3.9a6.26,6.26,0,0,0-5.7,3.1c-2-.7-2.1-3.7-.8-5.3s3.6-2.2,5.7-2.7a9.13,9.13,0,0,0-12.3,2.1,9.11,9.11,0,0,0,2.3,12.2c10.2,6.8,24,2.4,34.4-4S69.9,98.5,82,97.4c6.6-.5,13.3,1.1,19.8,0C115.1,94.9,123.9,78.7,118.6,66.2ZM91.3,65.1c1.4-.4,2.9.1,4.3,0s3.1-1.3,2.6-2.6a2.58,2.58,0,0,0-2-1.5,10,10,0,0,0-11.4,5.1,9.27,9.27,0,0,0,3.8,11.7c4,2,9.6.1,11.3-4.1-3.1,1.2-6.9,1.5-9.5-.6S88.1,65.9,91.3,65.1Z"/></g></g></svg>