<svg xmlns="http://www.w3.org/2000/svg" viewBox="0 0 99.13 169.81"><defs><style>.cls-1{fill:#93278f;}.cls-2{fill:#ed1e79;}.cls-3{fill:#662d91;}.cls-4{fill:#fbb03b;}.cls-5{fill:#9e005d;}.cls-6{fill:#ccc;}.cls-7{fill:#fff;}.cls-8{fill:#d4145a;}</style></defs><g id="Layer_2" data-name="Layer 2"><g id="Layer_2-2" data-name="Layer 2"><path class="cls-1" d="M9.4,152.8C8.12,151.93,6.91,151,5.63,150c-.34,2.76-.68,5.66.06,8.28s3.1,5.12,5.86,5.25C12.16,159.74,12.49,155.09,9.4,152.8Z"/><path class="cls-2" d="M22,151.45a10.14,10.14,0,0,0,4.84-11.51l-14.67-1.61L5,137.52c-1,4.17,1.89,8.21,4.65,11.51A10.18,10.18,0,0,0,22,151.45Z"/><path class="cls-3" d="M43.8,153.81a9.53,9.53,0,0,0,4.78-6.46c.4-2.76-1.08-5.86-3.7-6.8s-5.73.54-7.68,2.69a9.2,9.2,0,0,0-2.56,6.4A5.68,5.68,0,0,0,38.55,155,7.11,7.11,0,0,0,43.8,153.81Z"/><path class="cls-2" d="M30.33,142.43A2.26,2.26,0,0,0,32,143.65,10.85,10.85,0,0,0,35.11,140a18,18,0,0,0-3.77.74l.07.2C30.67,140.82,30.13,141.76,30.33,142.43Z"/><path class="cls-2" d="M43.93,61c-4.17.13-7.74,3.1-10.84,5.92-2.35,2.09-4.91,5.32-3.29,8,1.14,1.89,3.7,2.16,5.92,2.16a61.84,61.84,0,0,0,20-3.37c1.07-.33,2.28-.94,2.42-2.08a3.09,3.09,0,0,0-1-2.16C53.63,65.35,49.39,60.9,43.93,61Z"/><path class="cls-1" d="M30.06,153.68a4.74,4.74,0,0,0-5.38,0c-1.89,1.61-4.51,2.08-6.53,3.5s-3.43,4.51-1.68,6.33c.87.94,2.28,1.07,3.63,1.14A54.85,54.85,0,0,0,32.56,164,3.89,3.89,0,0,0,35,163c1.35-1.41.2-3.77-1-5.31A13.12,13.12,0,0,0,30.06,153.68Z"/><path class="cls-3" d="M18.82,67.1c-2.49-1.62-5.52-2.69-8.41-2.16S4.89,68.31,5.22,71.2A4,4,0,0,0,6.5,73.7c2.16,1.68,5.05,1.88,7.81,2,4.11.2,8.21.33,12.39.54A21,21,0,0,0,18.82,67.1Z"/><path class="cls-4" d="M34.91,16.2c.54-3.3,1.69-6.66.68-9.83-.41-1.34,1.88-2.22,3-1.21s1.14,2.63,1.07,4c-.13,5.39-.33,10.7-.47,16,1.82,2.29,5.73,1.15,7.14-1.41s1.08-5.52.67-8.42-.8-5.92-1.21-8.88a4.53,4.53,0,0,0-.6-2.09A4.59,4.59,0,0,0,41.58,3a42.56,42.56,0,0,0-8.82.53,5.07,5.07,0,0,0-2.7,1.22A5.17,5.17,0,0,0,29.32,7,147.42,147.42,0,0,0,28,26.57l7.2-.81A25.39,25.39,0,0,1,34.91,16.2Z"/><path class="cls-4" d="M35,29.53a5,5,0,0,0,5.92-.2l-.13-.07A4.33,4.33,0,0,0,35,29.53Z"/><path class="cls-5" d="M65.68,69.66c2.83.4,6.19-.61,7.14-3.3,1.41-4.11,2.69-9,.2-12.52-2.22-3-6.33-3.77-10.1-4.25a5.49,5.49,0,0,0-3,.14,4.54,4.54,0,0,0-2.09,1.82,11.59,11.59,0,0,0,7.81,18.11Z"/><path class="cls-4" d="M51.14,25.42a11.68,11.68,0,0,0,4.24.75,3.41,3.41,0,0,0,3-2.56A5.28,5.28,0,0,0,58,21.12a30.3,30.3,0,0,1-.26-18c1.21-.27,2.35.74,2.82,1.95a9.68,9.68,0,0,1,.2,3.71,34.22,34.22,0,0,0,3.57,17.1c.54-2.83,4.45-3.57,5.86-6.06a7.34,7.34,0,0,0,.67-4.18c0-2.29-.06-4.51-.13-6.73,0-1.62-.14-3.37-1.28-4.44a5.73,5.73,0,0,0-2.56-1.08,40.65,40.65,0,0,0-11.78-.94c-2,.06-4.17.47-5.25,2.08s-.47,4.11.13,6.13A37.65,37.65,0,0,1,51.14,25.42Z"/><path class="cls-4" d="M26.77,4.89C24.88,3.54,22.12,4.35,20.51,6a14.62,14.62,0,0,0-2.9,6.19Q16.2,17,14.78,21.72c-.4,1.42-.67,3.17.47,4a3.56,3.56,0,0,0,1.89.67c2.42.27,4.78.54,7.14.88A48.68,48.68,0,0,1,26.77,4.89Z"/><path class="cls-6" d="M18.15,63.4C20,64.54,21.51,66,23.47,66.9s4.64.6,5.79-1.15c4.71-7.4,15.68-10,23.22-5.38-.27-5.26-.06-11.58,4.45-14.34,2.76-1.62,6.33-1.28,9.22,0s5.45,3.36,8,5.25c4.11,3,9.76,5.52,14.07,2.89-3.7-5.18-.47-14-5.59-17.84-4.51-3.37-11.78.2-16.15-3.3a14.65,14.65,0,0,0-2.16-1.82,7.59,7.59,0,0,0-4.58-.6L31.21,33a21.82,21.82,0,0,0-6.93,1.35,32.14,32.14,0,0,1-3.44,1.68c-3.5,1.21-7.54-.13-10.9,1.28-4.78,1.95-6.06,8-6.27,13.2q-.3,6.66,0,13.33A13.68,13.68,0,0,1,18.15,63.4Z"/><path class="cls-5" d="M70.8,141.89c-2.7-1.21-6.13-1.27-8.42.61s-2.36,6.13.27,7.54c1.68,1,4,.4,5.52-.81A7.66,7.66,0,0,0,70.8,141.89Z"/><path class="cls-5" d="M90.12,133.41c.54.61,1.07,1.15,1.61,1.75h.21c1.34.34,2.69.68,4,1.08,1.08-1.15.07-3.16-1.41-3.64S91.53,132.81,90.12,133.41Z"/><path class="cls-2" d="M62.18,154.15a10.94,10.94,0,0,0-4.38-1.82c-3-.74-7.13-.94-8.35,1.95-1.48,3.44-7.33,2.7-9.15,6-.81,1.62-.94,4.18-2.76,4.25a33.83,33.83,0,0,0,10.37,1.88c-1.42-1.41-2.76-2.83-4.11-4.24a2.76,2.76,0,0,1,3.23-.74,13,13,0,0,1,3,2c3.23,2.29,7.74,3,11,.81S65.21,156.57,62.18,154.15Z"/><path class="cls-7" d="M5.76,78.41q-1.11,26.06-.6,52.11a4.84,4.84,0,0,0,.6,2.82c.81,1.08,2.29,1.28,3.64,1.35,28.81,2.22,58.84,4.31,85.7-6.53A395.88,395.88,0,0,0,92.54,66.9,176.05,176.05,0,0,1,5.76,78.41Zm37,37.77c-4.58.33-9.09.67-13.66.94a40.89,40.89,0,0,1-11.11-.2c-1.28-.27-2.83-1.21-2.36-2.36l8.48-.81A114,114,0,0,1,41.31,113c1.68.07,3.5.41,4.58,1.69C45.41,115.84,43.93,116.11,42.72,116.18Zm4.11-24.74c2.09.14,4.31.21,6.19,1.15,2.36,1.21,4.92,3.63,7.07,2.15,4.11-3,9.83-2.08,14.81-1,1.75.41,4,1.69,3.23,3.3-3.77,1.62-8.07-1.68-12-.74-2.08.54-3.83,2.22-6.06,2.56-2.89.4-5.52-1.75-8.21-2.89-3.23-1.42-6.8-1.42-10.3-1.42-7.41,0-14.81-.07-22.22-.07-2.15,0-4.84-.27-5.79-2.22,4.72-1.82,9.9-1.61,14.88-1.48C34.51,91,40.7,91.24,46.83,91.44Z"/><path class="cls-3" d="M87,58.48c-3.37-.81-7.67-.13-9.16,3.1-1,2.22-.47,5.25-2.42,6.8A52.83,52.83,0,0,0,89,64.14a3.19,3.19,0,0,0,1.55-1.08C91.8,61.17,89.24,59,87,58.48Z"/><path class="cls-2" d="M79.75,153.27c-.61,1.42.81,3,2.29,3.1A6.64,6.64,0,0,0,86.28,155c1.41-.87,2.83-1.81,4.17-2.82s2.63-2.16,2.5-3.71C88.17,148.16,84.46,153.81,79.75,153.27Z"/><path class="cls-3" d="M75,139.74a8.89,8.89,0,0,0,3.7-2.63c.4-.4.74-.87.54-1.34s-1.08-.47-1.62-.27a56.44,56.44,0,0,0-6.53,2.83A3.18,3.18,0,0,0,75,139.74Z"/><path class="cls-8" d="M69.52,158.59c-1.48,2.16-2,4.85-2.56,7.47,3-1.48,6-3,9-4.51.14-2.08.27-4.17.34-6.26C73.69,154.75,71,156.37,69.52,158.59Z"/><path class="cls-8" d="M51.47,139.87c-.4.21-.4.81-.33,1.28a12.94,12.94,0,0,0,1.55,5.73c1.07,1.61,3.23,2.82,5.05,2.08a11.33,11.33,0,0,1-1.69-8.34C54.5,140.41,53,140.14,51.47,139.87Z"/><path class="cls-1" d="M86.62,146.81c1.81-1.68,3.7-3.64,4.1-6.06s-1.68-5.39-4.1-4.85a2.89,2.89,0,0,0-1.82,4c-2.49.34-5,.81-7.07,2.36s-2.89,4.65-1.35,6.67c1.22,1.54,3.5,1.81,5.39,1.21A13.86,13.86,0,0,0,86.62,146.81Z"/><path id="Vitamins" d="M13.28,92.51c.94,1.95,3.63,2.22,5.79,2.22,7.4,0,14.81.07,22.21.07,3.51,0,7.07,0,10.3,1.41,2.7,1.15,5.32,3.3,8.22,2.9,2.22-.34,4-2,6.06-2.56,4-.94,8.28,2.36,12,.74.74-1.62-1.48-2.89-3.23-3.3-5-1.08-10.71-2-14.81,1-2.16,1.48-4.72-.94-7.07-2.15-1.89-.95-4.11-1-6.2-1.15-6.12-.2-12.32-.4-18.44-.67C23.17,90.89,18,90.69,13.28,92.51ZM23.85,114l-8.49.81c-.47,1.14,1.08,2.09,2.36,2.36a40.9,40.9,0,0,0,11.11.2c4.58-.27,9.09-.61,13.67-.94,1.21-.07,2.69-.34,3.16-1.49-1.08-1.28-2.89-1.61-4.58-1.68A112.54,112.54,0,0,0,23.85,114ZM90.43,47.23c-1.68-7-5.25-15.35-12.39-15.69-2.76-.13-5.58,1-8.28.27s-3.9-5.32-1.21-6c5.52-1.35,6.13-8.82,5.52-14.48-.27-2.76-.67-5.72-2.42-7.87C68.89,0,63.77-.1,59.39,0q-18,.51-35.95,1.08a9.3,9.3,0,0,0-5.25,1.14,8.83,8.83,0,0,0-3,4.38,86.73,86.73,0,0,0-4.24,12.79c-.74,3.1-1,7.14,1.68,9s8.22,1.75,7.41,5c-6.46-.27-14.07.06-17.71,5.38C0,42,0,46.22,0,50.19Q.42,104.12.76,158c.06,3.57,2.82,6.6,6.05,8.08s6.87,1.68,10.44,1.88c10.5.54,21,1,31.51,1.55,7.54.34,15.35.74,22.55-1.61,6.26-1.95,11.71-5.86,17.1-9.7,3-2.15,6.13-4.37,7.88-7.67,1.55-2.9,1.88-6.33,2.08-9.63A304.53,304.53,0,0,0,90.43,47.23Zm4.44,81.19C68,139.26,38,137.17,9.17,135c-1.35-.07-2.83-.27-3.63-1.35a4.86,4.86,0,0,1-.61-2.82q-.51-26.06.61-52.11A176.09,176.09,0,0,0,92.32,67.15,397.3,397.3,0,0,1,94.87,128.42Zm-16.36,9a8.91,8.91,0,0,1-3.7,2.63,3.15,3.15,0,0,1-3.9-1.42,55.65,55.65,0,0,1,6.53-2.82c.54-.21,1.34-.27,1.61.27S78.92,137,78.51,137.37Zm-21,11.85c-1.82.74-4-.47-5-2.09a12.9,12.9,0,0,1-1.55-5.72c-.07-.47-.07-1.08.34-1.28,1.55.27,3,.54,4.58.74A11.35,11.35,0,0,0,57.51,149.22ZM31.12,141a17.12,17.12,0,0,1,3.77-.74,10.74,10.74,0,0,1-3.1,3.63,2.25,2.25,0,0,1-1.68-1.21c-.2-.67.34-1.61,1.08-1.48ZM10.18,65.2c2.9-.54,5.93.54,8.42,2.16a21,21,0,0,1,7.87,9.08c-4.17-.2-8.28-.33-12.38-.53-2.76-.07-5.66-.27-7.81-2A3.85,3.85,0,0,1,5,71.46C4.66,68.57,7.29,65.81,10.18,65.2ZM56.9,69.78a3.09,3.09,0,0,1,1,2.15c-.13,1.15-1.34,1.75-2.42,2.09a61.75,61.75,0,0,1-20,3.37c-2.22,0-4.78-.27-5.92-2.16-1.62-2.69.94-5.92,3.3-8,3.1-2.83,6.66-5.79,10.84-5.92C49.16,61.16,53.4,65.61,56.9,69.78Zm.74-18A4.57,4.57,0,0,1,59.73,50a5.49,5.49,0,0,1,3-.14c3.77.47,7.88,1.21,10.1,4.24,2.49,3.5,1.21,8.42-.2,12.53-.94,2.69-4.31,3.7-7.14,3.29A11.59,11.59,0,0,1,57.64,51.8ZM90.3,63.32a3.26,3.26,0,0,1-1.55,1.07,52.85,52.85,0,0,1-13.53,4.25c2-1.55,1.41-4.58,2.42-6.8,1.48-3.24,5.79-3.91,9.16-3.1C89,59.21,91.57,61.43,90.3,63.32ZM49.63,4.81c1.08-1.61,3.3-2,5.25-2.08a40.7,40.7,0,0,1,11.79.94,5.7,5.7,0,0,1,2.55,1.08c1.15,1.07,1.28,2.82,1.28,4.44.07,2.22.14,4.44.14,6.73A7.39,7.39,0,0,1,70,20.09c-1.41,2.5-5.31,3.24-5.85,6.06a34,34,0,0,1-3.57-17.1,9.84,9.84,0,0,0-.2-3.7c-.47-1.21-1.62-2.22-2.83-1.95a30.26,30.26,0,0,0,.27,18,5.22,5.22,0,0,1,.4,2.5,3.37,3.37,0,0,1-3,2.55,11.53,11.53,0,0,1-4.24-.74,37.65,37.65,0,0,0-1.14-14.74C49.16,8.92,48.49,6.56,49.63,4.81ZM29.1,7.24A5.13,5.13,0,0,1,29.84,5,4.92,4.92,0,0,1,32.53,3.8a43.31,43.31,0,0,1,8.82-.54,4.63,4.63,0,0,1,3.57,1.42,4.46,4.46,0,0,1,.61,2.08q.6,4.46,1.21,8.89c.4,2.9.74,5.93-.68,8.42s-5.31,3.7-7.13,1.41c.13-5.32.33-10.64.47-16,.07-1.42,0-3.1-1.08-4s-3.36-.14-3,1.21c1,3.16-.13,6.53-.67,9.83A25.2,25.2,0,0,0,35,26l-7.21.81A145.77,145.77,0,0,1,29.1,7.24ZM40.68,29.59a5.08,5.08,0,0,1-5.93.2,4.34,4.34,0,0,1,5.79-.27Zm-23.77-2.9A3.5,3.5,0,0,1,15,26c-1.15-.88-.88-2.63-.47-4l2.82-9.49a14.71,14.71,0,0,1,2.9-6.2c1.62-1.68,4.38-2.49,6.26-1.14a48.81,48.81,0,0,0-2.49,22.42C21.69,27.23,19.34,27,16.91,26.69ZM3.45,64.12q-.3-6.66,0-13.33c.2-5.18,1.48-11.24,6.26-13.19,3.37-1.41,7.4-.07,10.91-1.28a32,32,0,0,0,3.43-1.68A21.6,21.6,0,0,1,31,33.29l28.55-2.42a7.53,7.53,0,0,1,4.58.6,13.89,13.89,0,0,1,2.15,1.82c4.38,3.5,11.65-.07,16.16,3.3C87.54,40.43,84.3,49.25,88,54.43c-4.31,2.63-10,.13-14.07-2.89-2.56-1.89-5-4-8-5.26s-6.46-1.61-9.22,0C52.19,49,52,55.37,52.26,60.62,44.72,56.05,33.74,58.6,29,66c-1.14,1.75-3.84,1.95-5.79,1.14s-3.5-2.35-5.32-3.5A13.71,13.71,0,0,0,3.45,64.12Zm1.34,73.66c2.36.27,4.72.54,7.14.8l14.68,1.62a10.15,10.15,0,0,1-4.85,11.51,10.18,10.18,0,0,1-12.32-2.42C6.68,146,3.78,142,4.79,137.78Zm6.54,26.05c-2.77-.13-5-2.56-5.86-5.25s-.41-5.52-.07-8.28c1.28.94,2.49,1.88,3.77,2.76C12.27,155.35,11.93,160,11.33,163.83Zm23.42-.54a3.84,3.84,0,0,1-2.42,1,54.79,54.79,0,0,1-12.45.61c-1.35-.07-2.77-.2-3.64-1.15-1.75-1.81-.4-4.91,1.68-6.32s4.65-1.89,6.53-3.51a4.78,4.78,0,0,1,5.39,0,13.32,13.32,0,0,1,3.9,4C35,159.52,36.1,161.88,34.75,163.29Zm-.33-13.4A9.15,9.15,0,0,1,37,143.5c2-2.16,5-3.64,7.67-2.69s4.11,4,3.7,6.8a9.5,9.5,0,0,1-4.78,6.46,7.1,7.1,0,0,1-5.25,1.14A5.64,5.64,0,0,1,34.42,149.89Zm26.46,14.55c-3.3,2.15-7.81,1.48-11.05-.81a12.77,12.77,0,0,0-3-1.95,2.76,2.76,0,0,0-3.23.74c1.35,1.41,2.7,2.82,4.11,4.24a33.55,33.55,0,0,1-10.37-1.89c1.82-.06,1.95-2.62,2.76-4.24,1.82-3.3,7.68-2.56,9.16-6,1.21-2.89,5.32-2.69,8.35-1.95A11,11,0,0,1,62,154.41C65,156.83,64.11,162.28,60.88,164.44Zm1.54-14.14c-2.62-1.41-2.49-5.59-.27-7.54s5.73-1.82,8.42-.61a7.62,7.62,0,0,1-2.63,7.34C66.4,150.7,64.11,151.31,62.42,150.3Zm13.27,11.51c-3,1.48-5.93,3-9,4.51.54-2.62,1.08-5.32,2.56-7.47s4.17-3.84,6.73-3.3C76,157.64,75.82,159.72,75.69,161.81Zm.47-12.66c-1.55-2-.61-5.11,1.34-6.66s4.58-2,7.07-2.36a2.9,2.9,0,0,1,1.82-4c2.42-.54,4.51,2.36,4.11,4.85s-2.29,4.37-4.11,6.06a13.91,13.91,0,0,1-4.85,3.3C79.66,151,77.37,150.7,76.16,149.15Zm14.07,3.3c-1.35,1-2.76,2-4.18,2.83a6.62,6.62,0,0,1-4.24,1.35c-1.48-.14-2.89-1.69-2.29-3.1,4.72.54,8.42-5.12,13.2-4.78C92.85,150.3,91.51,151.51,90.23,152.45Zm5.52-15.95c-1.35-.41-2.69-.74-4-1.08h-.2c-.54-.61-1.08-1.14-1.62-1.75,1.42-.61,3-1.21,4.45-.81S96.83,135.35,95.75,136.5Z"/></g></g></svg>