<svg xmlns="http://www.w3.org/2000/svg" viewBox="0 0 187.68 200.61"><defs><style>.cls-1{fill:#4d4d4d;}</style></defs><g id="Layer_2" data-name="Layer 2"><g id="Layer_2-2" data-name="Layer 2"><path class="cls-1" d="M34,66.19a21.12,21.12,0,0,0,.1-10c-3-.7-6.1,1.1-8,3.5s-2.6,5.5-3.4,8.5c-.4,1.6-.3,4.1,1.4,4.1.7-2.4,1.4-4.9,3.3-6.6S32.81,64,34,66.19Z"/><path class="cls-1" d="M50.71,159.79a42.4,42.4,0,0,1-32.9-25.9,37.49,37.49,0,0,1-11.3,14c-2.6,1.9-2.1,6.2-.2,8.8s5,4.3,7.4,6.6,4.3,5.7,3.1,8.7c-1.1,2.6-4,3.9-6.4,5.5s-4.4,4.6-2.9,7.1c1,1.4,3.1-.1,4.5-1.2a9.38,9.38,0,0,1,12,.7c1.7,1.8,2.6,4.2,3.8,6.4s2.8,4.4,5.3,5.1,5.5-1.1,5.3-3.6a7.71,7.71,0,0,1,6.7-7.9,7.65,7.65,0,0,1,8,6.5c5.9-10.5,11.8-20.9,17.7-31.4C64.11,160.09,57.41,160.79,50.71,159.79Z"/><path class="cls-1" d="M62.81,91.19c.1-.7.3-1.4.4-2.2-5.9-3-11.8-6.1-17.7-9.1a1.74,1.74,0,0,0-1.4-.3c-.7.4-.5,1.5-.1,2.3A18.61,18.61,0,0,0,62.81,91.19Z"/><path class="cls-1" d="M104.61,132.39c7.8-11,15.5-22.1,23.2-33.1,2.9-4.2,5.9-8.5,6.4-13.6.8-7.1-3.9-14-10-17.6s-13.5-4.7-20.7-4.9c-18.3-.5-35.5-14-40.3-31.7a36.12,36.12,0,0,0-21.1,17.8c-8.3,16.6-3.1,38.4-14.5,53.1-4.3,5.6-4.7,13.4-2.9,20.2s5.7,12.8,9.5,18.8c3.2,5,6.6,10.2,12,12.8,4.4,2.2,9.5,2.3,14.4,2.1,11.2-.5,22.8-2.5,31.6-9.3C97.21,143,101,137.69,104.61,132.39Zm2.5-36.5c2.9,3.2,5,7.7,3.4,11.7-3.3-6.2-7.1-13-13.8-15.4-6.1-2.1-13.2.2-19.2-2.3A26,26,0,0,1,107.11,95.89ZM43,74.89a6.76,6.76,0,0,1,4.6-1.1c9,.6,16.1,7.7,22.2,14.3,1-4.9-1.8-10-5.8-13s-9-4.3-13.9-5.2c-2.7-.5-5.7-1-7.3-3.2,7.4-2.5,15.6.3,22,4.6,3.1,2,6,4.5,7.6,7.9s1.3,7.8-1.3,10.3a18.08,18.08,0,0,1-17,4.5,17.86,17.86,0,0,1-12.3-12.4C41.21,79.29,41.21,76.39,43,74.89Zm16.8,62.4a7.27,7.27,0,0,1-4.8-.6c-6.8-2.5-14.7-6.4-15.1-13.6a31.84,31.84,0,0,1,21.4,10.3C62.51,134.69,61.41,136.79,59.81,137.29Zm7-31.3c-2.1,2.1-4.2,4.2-6.4,6.3-1,1-2.1,2.2-1.9,3.6.3,2.8,5.1,4.8,3.4,7-3.1-.7-6.7-1.8-7.8-4.7-1.3-3.4,1.4-7,4-9.6,4.4-4.4,9.2-8.8,15-11.2,10.9-4.6,24.7-1,31.9,8.4,2.2,2.7.4,7-2.7,8.6s-6.8,1.1-10.1.1a43.23,43.23,0,0,1-18.4-10.4C71.81,102.29,68.81,104.19,66.81,106Z"/><path class="cls-1" d="M99.71,112.09c1.1-.5,1.7-1.9,1-2.7l-13.8-6.6c-3.6-1.6-7.7-3.4-11.3-1.9A48.88,48.88,0,0,0,96.41,112,5.34,5.34,0,0,0,99.71,112.09Z"/><path class="cls-1" d="M94,7.39c6.3.6,12.9,3,16.5,8.3a66.64,66.64,0,0,0,27.7,23c-1.5-4.1-2.9-8.2-4.4-12.2a29.46,29.46,0,0,0-4.3-8.7c-2.5-3-6-4.8-9.5-6.5-9.1-4.2-18.7-7.6-28.7-8.1s-20.4,2-28,8.5a10.78,10.78,0,0,1,1.7,4.1A41.92,41.92,0,0,1,94,7.39Z"/><path class="cls-1" d="M74.71,44.79c5.2,6.4,11.6,13.1,19.8,13.5a101.11,101.11,0,0,1,31.7,6.9c-1.6-4.6-6.4-7.3-11.1-8.6s-9.6-1.4-14.3-2.9c-13-4-21-16.8-28-28.5-.9-1.4-2-3-3.7-2.9-2.6,3.3-2.6,8-1.2,12S72,41.59,74.71,44.79Z"/><path class="cls-1" d="M30,51.69c-1.4-9.4-2.3-20.6,4.9-27a20.41,20.41,0,0,1,7.3-3.8,30.33,30.33,0,0,1,17.4-.2c2.5-1.6,2.3-5.5.3-7.5s-5-2.7-7.9-2.7a28.69,28.69,0,0,0-24.7,13.9,28.57,28.57,0,0,0,0,28.3C28.21,52.39,29.11,52,30,51.69Z"/><path class="cls-1" d="M58.31,30.29c2.6.1,3.4-4,1.5-5.8s-4.8-1.7-7.3-1.5c-4.4.3-9,.8-12.8,2.9s-7,6.2-6.5,10.6A45.11,45.11,0,0,1,58.31,30.29Z"/><path class="cls-1" d="M35.11,42.29a21.27,21.27,0,0,0-1.6,6.6c-.3,2.3-.2,5.3,1.9,6.5a52.38,52.38,0,0,1,13.9-19.9A12.64,12.64,0,0,0,35.11,42.29Z"/><path class="cls-1" d="M153.41,127.19c7.5-16.1,7.7-35,2.6-52-3-10.1-9.3-20.8-19.7-22.2-12.8-1.7-22.3-12.1-31.8-20.9S82,15.49,69.91,19.89c9.8,5.9,12.9,19.3,22.6,25.3,4.2,2.6,9,3.5,13.6,4.9,18.3,5.5,34.2,19.7,39.9,37.9s0,40-15.1,51.7c-10.5,8.1-24,10.8-37,13.3-2.3.5-4.5.9-6.8,1.3a47.38,47.38,0,0,0,25.9,4.1C130.61,156.09,146,143.29,153.41,127.19Z"/><path class="cls-1" d="M96,147.59l.1.3a8.32,8.32,0,0,0,6.7,1.2,4.93,4.93,0,0,0,.4-3.4A5.79,5.79,0,0,0,96,147.59Z"/><path class="cls-1" d="M129,130.79a23.88,23.88,0,0,0-8.7,10.2c9.9-2.6,17.7-11,21.3-20.7s3.6-20.3,2-30.4c-.5-2.9-1.2-6-3.3-8.1-2.1,8.4-.8,17.3-1.1,26.1S136.41,126.09,129,130.79Z"/><path class="cls-1" d="M171.31,73.09c-.4-4.1-3.2-7.5-6.2-10.3-16.6-15.8-40.4-23.5-54.3-41.8-9.1-12-28.2-14.7-40.3-5.7a47.56,47.56,0,0,1,33.6,11.5c6.2,5.3,11,12.3,18.1,16.5,6.3,3.7,13.8,4.8,20.2,8.4,14,7.7,19.7,25,20.4,41,.8,16.7-2.8,34.1-12.5,47.7s-26.1,23.1-42.8,22a32.68,32.68,0,0,0,50.6-16.5c3.6-11.5,1-25,7.8-34.9,4.4-6.6,0-15.6,1.5-23.4C168.31,82.59,171.81,78.09,171.31,73.09Z"/><path class="cls-1" d="M32.48,12.89l-18,84a52.24,52.24,0,0,0,6,15c24,40.13,95.63,32.74,102,32q14-46,28-92ZM183.11,103c-5.5,6.1-15.5,8.3-18.2,16-1.3,3.7-.6,7.7-.3,11.6.7,12.5-4.2,25.3-13.6,33.5s-23.3,11.2-35,7.1c-7.7-2.7-14.1-8.1-21.8-11s-17.7-2-21.7,5.1c-5.8,10.4-11.7,20.7-17.5,31.1-3.1-2.8-6.3-5.6-9.4-8.4-1.9,5.2-5.3,10.4-10.5,11.9s-12.1-2.8-11.1-8.1c.8-4.1-5.3-5.7-9.3-4.5s-8.9,3.1-11.7,0c-2.3-2.5-1-6.7,1.1-9.4s5.2-4.8,6.6-7.9,0-7.9-3.5-8.1c-5.7-.2-8.3-7.8-6.2-13.1s7.2-8.6,11.5-12.3,8.4-8.9,7.5-14.5a40.69,40.69,0,0,1,11.4-34.3c-4.5-1.5-9.8,2.9-9.2,7.6-2.8-1.2-2.3-5.7-.1-7.8s5.4-2.9,7.7-4.9c4.2-3.7,4.2-11.1.1-14.7a21,21,0,0,0-5.6,13.9c-2-3.1-5.9,1.8-6.1,5.5-.3,6.2-.6,12.4-.9,18.5-10.1-18.4,10-41.2,4.5-61.5-4.5-16.6,9-35.6,26.1-36.8,4.4-.2,8.7.4,13-.1,5.9-.7,11.3-3.5,16.9-5.3,24.3-7.7,53.4,6.6,62.2,30.5,3.6,9.5,11.8,16.4,20.1,22.3s17.1,11.4,22.8,19.9S189.91,95.49,183.11,103Z"/><path class="cls-1" d="M175.31,72.69c-1.3,5.8-2.5,11.6-3.8,17.5a35.09,35.09,0,0,0-.9,6.5,15.66,15.66,0,0,0,2.2,8.5,18.14,18.14,0,0,0,2.5-32.5Z"/><path class="cls-1" d="M134.81,112.29l1.5-19.5a59.24,59.24,0,0,0-8.6,14A18.21,18.21,0,0,1,134.81,112.29Z"/><path class="cls-1" d="M121.41,122.29c-4.9-.8-10,3.6-9.9,8.6A12,12,0,0,0,121.41,122.29Z"/><path class="cls-1" d="M108.81,135.39c-2.1,1.6-4.5,3.4-4.9,6.1s2.7,5.5,4.9,3.9a93.44,93.44,0,0,0,20.7-21.4c2.4-3.5,4.4-8.8,1.3-11.6-2-1.8-5.3-1.5-7.6-.2s-4.1,3.6-5.9,5.5l6.9,3c1,4-2.2,7.8-5.4,10.3s-7.2,4.6-8.9,8.3C109.51,138,109.21,136.69,108.81,135.39Z"/><path id="Statue_Head" data-name="Statue Head" d="M39.62,123.51c.4,7.2,8.3,11.1,15.1,13.6a7.27,7.27,0,0,0,4.8.6c1.6-.5,2.7-2.6,1.5-3.9A31.84,31.84,0,0,0,39.62,123.51Zm143-48.3c-5.7-8.5-14.5-14.1-22.8-19.9s-16.5-12.8-20.1-22.3c-8.8-23.9-37.9-38.2-62.2-30.5-5.6,1.8-11,4.6-16.9,5.3-4.3.5-8.6-.1-13,.1-17.1,1.2-30.6,20.2-26.1,36.8C27,65,6.92,87.81,17,106.21c.3-6.1.6-12.3.9-18.5.2-3.7,4.1-8.6,6.1-5.5a21,21,0,0,1,5.6-13.9c4.1,3.6,4.1,11-.1,14.7-2.3,2-5.4,2.8-7.7,4.9s-2.7,6.6.1,7.8c-.6-4.7,4.7-9.1,9.2-7.6a40.69,40.69,0,0,0-11.4,34.3c.9,5.6-3.2,10.7-7.5,14.5s-9.3,7.1-11.5,12.3.5,12.9,6.2,13.1c3.5.2,4.9,4.9,3.5,8.1s-4.4,5.2-6.6,7.9-3.4,6.9-1.1,9.4c2.8,3.1,7.7,1.2,11.7,0s10.1.4,9.3,4.5c-1,5.3,5.8,9.6,11.1,8.1s8.6-6.7,10.5-11.9c3.1,2.8,6.3,5.6,9.4,8.4,5.8-10.4,11.7-20.7,17.5-31.1,4-7.1,14.1-7.9,21.7-5.1s14.1,8.3,21.8,11c11.7,4.1,25.5,1.1,35-7.1s14.3-21,13.6-33.5c-.3-3.9-1-7.9.3-11.6,2.7-7.7,12.7-9.9,18.2-16C189.62,95.91,188.22,83.61,182.62,75.21ZM91,3.61c10,.5,19.6,3.9,28.7,8.1,3.5,1.7,7,3.5,9.5,6.5a29.46,29.46,0,0,1,4.3,8.7c1.5,4,2.9,8.1,4.4,12.2a66.64,66.64,0,0,1-27.7-23c-3.6-5.3-10.2-7.7-16.5-8.3a41.92,41.92,0,0,0-29,8.4,10.78,10.78,0,0,0-1.7-4.1C70.62,5.61,81,3,91,3.61Zm-22.2,19.1c1.7-.1,2.8,1.5,3.7,2.9,7,11.7,15,24.5,28,28.5,4.7,1.5,9.6,1.6,14.3,2.9s9.5,4,11.1,8.6a101.11,101.11,0,0,0-31.7-6.9c-8.2-.4-14.6-7.1-19.8-13.5-2.7-3.2-5.4-6.6-6.8-10.5S66.22,26,68.82,22.71ZM27,24.81a28.69,28.69,0,0,1,24.7-13.9c2.9,0,5.9.6,7.9,2.7s2.2,5.9-.3,7.5a30.33,30.33,0,0,0-17.4.2,20.41,20.41,0,0,0-7.3,3.8c-7.2,6.4-6.3,17.6-4.9,27-.9.3-1.8.7-2.7,1A28.57,28.57,0,0,1,27,24.81Zm5.9,12.1c-.5-4.4,2.6-8.5,6.5-10.6s8.4-2.6,12.8-2.9c2.5-.2,5.4-.3,7.3,1.5s1.1,5.9-1.5,5.8A45.11,45.11,0,0,0,32.92,36.91Zm16.1-1a52.38,52.38,0,0,0-13.9,19.9c-2.1-1.2-2.2-4.2-1.9-6.5a21.27,21.27,0,0,1,1.6-6.6A12.64,12.64,0,0,1,49,35.91Zm-21.9,30.2c-1.9,1.7-2.6,4.2-3.3,6.6-1.7,0-1.8-2.5-1.4-4.1.8-3,1.6-6,3.4-8.5s5-4.2,8-3.5a21.12,21.12,0,0,1-.1,10C32.52,64.41,29,64.51,27.12,66.11ZM52.82,191a7.65,7.65,0,0,0-8-6.5,7.71,7.71,0,0,0-6.7,7.9c.2,2.5-2.9,4.3-5.3,3.6s-4.1-2.9-5.3-5.1-2.1-4.6-3.8-6.4a9.38,9.38,0,0,0-12-.7c-1.4,1.1-3.5,2.6-4.5,1.2-1.5-2.5.6-5.5,2.9-7.1s5.3-2.9,6.4-5.5c1.2-3-.7-6.5-3.1-8.7s-5.4-3.9-7.4-6.6-2.4-6.9.2-8.8a37.49,37.49,0,0,0,11.3-14,42.4,42.4,0,0,0,32.9,25.9c6.7,1,13.4.3,20.1-.6C64.62,170.11,58.72,180.51,52.82,191Zm7.5-34.3c-4.9.2-10,.1-14.4-2.1-5.4-2.6-8.8-7.8-12-12.8-3.8-6-7.7-12-9.5-18.8s-1.4-14.6,2.9-20.2c11.4-14.7,6.2-36.5,14.5-53.1a36.12,36.12,0,0,1,21.1-17.8c4.8,17.7,22,31.2,40.3,31.7,7.2.2,14.5,1.2,20.7,4.9s10.8,10.5,10,17.6c-.5,5.1-3.5,9.4-6.4,13.6-7.7,11-15.4,22.1-23.2,33.1-3.6,5.3-7.4,10.6-12.4,14.6C83.12,154.21,71.52,156.21,60.32,156.71ZM140,82.21c2.1,2.1,2.8,5.2,3.3,8.1,1.6,10.1,1.7,20.8-2,30.4s-11.4,18.1-21.3,20.7a23.88,23.88,0,0,1,8.7-10.2c7.4-4.7,9.9-14.2,10.2-22.9S137.92,90.61,140,82.21Zm-21.5,49.2c3.2-2.5,6.4-6.3,5.4-10.3l-6.9-3c1.8-1.9,3.6-4.1,5.9-5.5s5.6-1.6,7.6.2c3.1,2.8,1.1,8.1-1.3,11.6a93.44,93.44,0,0,1-20.7,21.4c-2.2,1.6-5.3-1.3-4.9-3.9s2.8-4.5,4.9-6.1c.4,1.3.7,2.6,1.1,3.9C111.32,136,115.22,133.81,118.52,131.41Zm-7.3-.1c-.1-5,5-9.4,9.9-8.6A12,12,0,0,1,111.22,131.31Zm23.3-18.6a18.21,18.21,0,0,0-7.1-5.5,59.24,59.24,0,0,1,8.6-14Zm-32,36.8a8.32,8.32,0,0,1-6.7-1.2l-.1-.3a5.79,5.79,0,0,1,7.2-1.9A4.93,4.93,0,0,1,102.52,149.51Zm-15.7,5.2c2.3-.4,4.5-.8,6.8-1.3,13-2.5,26.5-5.2,37-13.3,15.1-11.7,20.8-33.4,15.1-51.7s-21.6-32.4-39.9-37.9c-4.6-1.4-9.4-2.3-13.6-4.9-9.7-6-12.8-19.4-22.6-25.3,12.1-4.4,25.1,3.5,34.6,12.2s19,19.2,31.8,20.9c10.4,1.4,16.7,12.1,19.7,22.2,5.1,17,4.9,35.9-2.6,52s-22.8,28.9-40.4,31.2A47.38,47.38,0,0,1,86.82,154.71Zm78.8-43.3c-6.8,9.9-4.2,23.4-7.8,34.9a32.68,32.68,0,0,1-50.6,16.5c16.7,1.1,33.1-8.3,42.8-22s13.3-31,12.5-47.7c-.7-16-6.4-33.3-20.4-41-6.4-3.6-13.9-4.7-20.2-8.4-7.1-4.2-11.9-11.2-18.1-16.5a47.56,47.56,0,0,0-33.6-11.5c12.1-9,31.2-6.3,40.3,5.7,13.9,18.3,37.7,26,54.3,41.8,3,2.8,5.8,6.2,6.2,10.3.5,5-3,9.5-3.9,14.5C165.62,95.81,170,104.81,165.62,111.41Zm6.9-5.8a15.66,15.66,0,0,1-2.2-8.5,35.09,35.09,0,0,1,.9-6.5c1.3-5.9,2.5-11.7,3.8-17.5a18.14,18.14,0,0,1-2.5,32.5Zm-70.5,9.2c3.1-1.6,4.9-5.9,2.7-8.6-7.2-9.4-21-13-31.9-8.4-5.8,2.4-10.6,6.8-15,11.2-2.6,2.6-5.3,6.2-4,9.6,1.1,2.9,4.7,4,7.8,4.7,1.7-2.2-3.1-4.2-3.4-7-.2-1.4.9-2.6,1.9-3.6,2.2-2.1,4.3-4.2,6.4-6.3,2-1.8,5-3.7,7-1.9a43.23,43.23,0,0,0,18.4,10.4C95.22,115.91,98.92,116.41,102,114.81Zm-15.4-11.6,13.8,6.6c.7.8.1,2.2-1,2.7a5.34,5.34,0,0,1-3.3-.1,48.88,48.88,0,0,1-20.8-11.1C78.92,99.81,83,101.61,86.62,103.21Zm-32.8-8.8a18.08,18.08,0,0,0,17-4.5c2.6-2.5,2.8-6.9,1.3-10.3s-4.5-5.9-7.6-7.9c-6.4-4.3-14.6-7.1-22-4.6,1.6,2.2,4.6,2.7,7.3,3.2,4.9.9,10,2.2,13.9,5.2s6.8,8.1,5.8,13c-6.1-6.6-13.2-13.7-22.2-14.3a6.76,6.76,0,0,0-4.6,1.1c-1.8,1.5-1.8,4.4-1.2,6.7A17.86,17.86,0,0,0,53.82,94.41ZM43.82,80a1.74,1.74,0,0,1,1.4.3c5.9,3,11.8,6.1,17.7,9.1-.1.8-.3,1.5-.4,2.2a18.61,18.61,0,0,1-18.8-9.3C43.32,81.51,43.12,80.41,43.82,80Zm52.6,12.6c6.7,2.4,10.5,9.2,13.8,15.4,1.6-4-.5-8.5-3.4-11.7a26,26,0,0,0-29.6-6C83.22,92.81,90.32,90.51,96.42,92.61Z"/></g></g></svg>