<svg xmlns="http://www.w3.org/2000/svg" viewBox="0 0 100.41 356.08"><defs><style>.cls-1{fill:#ff0;}.cls-2{fill:#29abe2;}.cls-3{fill:#2e3192;}</style></defs><g id="Layer_2" data-name="Layer 2"><g id="Layer_2-2" data-name="Layer 2"><path class="cls-1" d="M46.26,55.24A120.22,120.22,0,0,0,14.06,41c-1.5-.4-3.7-.3-3.7,1.2A37.23,37.23,0,0,0,46.26,55.24Z"/><path class="cls-2" d="M45.16,315.84q-5.7-62.85-8.5-126.1c-8.2-.6-15.6,5.8-18.8,13.2s-3.3,16-3.3,24.1c0,14.7.1,29.5,2,44,2.7,20.5,9.1,41.2,4.8,61.5-.6,3,1.6,6,4.4,7.3s5.9,1.3,9,1.3c9.8,0,19.7-.1,29.5-.1,2.1,0,4.4,0,6.1-1.3,2.3-1.8,2.5-5.2,2.6-8.1q.75-56.25-1.6-112.5c-.4-8.3-.9-17-5-24.2s-13.2-12.3-21-9.3a7.14,7.14,0,0,0-3.7,2.9,9.29,9.29,0,0,0-.6,4.7q2.85,64.35,9.2,128.6C47.46,323.14,45.46,318.94,45.16,315.84Z"/><path class="cls-1" d="M47,46.34c2-.7,3-3.2,2.6-5.3s-1.8-3.9-3.1-5.6c-6.4-7.9-12.7-15.9-19-23.8-1.9,5.7-.6,12,2.2,17.4s6.8,9.8,10.9,14.2C42.26,45,44.56,47,47,46.34Z"/><path class="cls-1" d="M61.76,49.54a61.35,61.35,0,0,0,28.7-11.6c2.3-1.8,4.8-4.3,4.2-7.1-2.9-1-6.1.2-9,1.5-3.7,1.5-7.3,3.1-11,4.7C68.86,39.54,62.16,43.24,61.76,49.54Z"/><path class="cls-1" d="M48.26,52.54c1.9,1.8,4.5,3.1,7.1,2.6s4.5-3.6,3.2-5.9-4.8-2.1-7.4-1.3C49.06,48.64,46.66,51,48.26,52.54Z"/><path class="cls-1" d="M59.26,45.44l6-18.3c2.2-6.6,4.4-13.7,2.1-20.2-.5-1.4-1.6-2.9-3-2.5a2.7,2.7,0,0,0-1.5,1.1c-6.4,8.1-7,19.2-7.4,29.6C55.26,39,55.66,43.84,59.26,45.44Z"/><path class="cls-1" d="M20.66,71.94c-3.1,2.6-6.3,5.9-6.2,10,2.3,1.3,5.2.1,7.5-1.2a161.1,161.1,0,0,0,26.3-18c1.3-1.1,2.8-3,1.8-4.5C39.26,59.74,29.06,64.94,20.66,71.94Z"/><path class="cls-1" d="M57.66,56.74c8.1,9.2,22.1,9.1,34.3,8.3,2.2-.1,4.9-.6,5.7-2.7-6.8-1.9-13.5-3.8-20.3-5.8C70.86,54.74,63.26,52.94,57.66,56.74Z"/><path class="cls-3" d="M40.16,117.74c.5,21.7,1.1,43.3,1.6,65,9.8-5.2,22.4,1.2,28,10.8s5.9,21.2,6.1,32.3c.5,33.9,1.1,67.8,1.6,101.7.2,7.7-2.1,18-9.8,18.1l-28.1.3c-8.9.1-20.6-2.2-21.3-11.1q-4.2-54.15-8.4-108.5c-.9-11.5-1-25,8.1-32,3.8-3,8.5-4.3,12.7-6.6s8-6.4,7.5-11.1a395.51,395.51,0,0,1-.2-73.8c-3.1-1.6-7.2.4-8.9,3.5s-1.6,6.8-1.5,10.3l.6,30.9c.2,8.8.3,17.9-3.5,25.7-2,4.2-5.1,7.8-7.7,11.6-14.3,21.2-13.9,48.9-10.5,74.3s9.2,51.2,4.2,76.2c-1.7,8.6,9.2,13.6,17.8,14.7a165.87,165.87,0,0,0,36.6.8c3.3-.2,6.8-.7,9.5-2.5,5.3-3.6,6-11,6.2-17.3a1106.2,1106.2,0,0,0-3.7-131.3c-.8-8.6-3.5-19.4-12.1-20.9-7-1.2-9.3-10.1-9.7-17.3a233.27,233.27,0,0,1,1.5-42.6c.9-7.1,0-17.1-7.1-17.7S40,110.54,40.16,117.74Z"/><path class="cls-1" d="M56.66,60.14a1.27,1.27,0,0,0-2.2-.2,50,50,0,0,0,1.7,21.4c1.6,4.9,5,10.3,10.1,10.1A28.93,28.93,0,0,0,56.66,60.14Z"/><path id="Flower_in_a_Bottle" data-name="Flower in a Bottle" d="M93.24,57.54l-21.3-6.3a60.2,60.2,0,0,0,20.5-10c4.2-3.3,8.2-9.7,4.3-13.4-2.8-2.6-7.3-1.3-10.8.2l-19.5,8.1a85,85,0,0,0,5-23.4c.4-5.8-2.5-13.9-8.2-12.6-2.4.6-4,2.9-5.2,5.1a58.11,58.11,0,0,0-7.1,31.4c-5.5-7.3-11-14.5-16.5-21.7-2.5-3.4-6.6-7.1-10.3-5.1-3.3,1.8-3,6.7-1.8,10.4a68.44,68.44,0,0,0,16.5,27.3,64.71,64.71,0,0,0-31.6-10.3c-.9,6.1,3,12.1,8.1,15.5s11.3,4.7,17.4,6a60.78,60.78,0,0,0-19.8,15c-2.5,2.9-4.8,7.1-2.7,10.3,2.4,3.7,8,2.6,12,.8a91.05,91.05,0,0,0,20.7-13.2c-1.2,8.5-2.5,16.9-3.8,25.4-5.5,1.2-11,2.5-16.4,3.8-.1,18.6-.3,37.2-.4,55.9,0,5.2-.1,10.5-1.9,15.4-3.3,9.2-11.9,15.3-16.4,23.9-4.9,9.4-4.3,20.6-3.5,31.2q4.05,56.55,8,113.1c.2,2.5.4,5.2,1.8,7.4,2.2,3.6,6.7,4.9,10.9,5.7a144.56,144.56,0,0,0,41,2c6.6-.7,13.8-2.1,18-7.2,3.9-4.6,4.3-11.2,4.5-17.2A1050.21,1050.21,0,0,0,80,197.14c-.8-8.5-3.3-18.9-11.6-21-8.6-2.2-9.8-13.7-9.3-22.5.7-12.2,1.4-24.4,2.2-36.6.2-4.6.5-9.5-1.7-13.6s-7.4-7-11.5-4.7c-3.1,1.7-5.1-3.8-4.5-7.4,1.3-8.2,3-16.4,5.1-24.5a56.18,56.18,0,0,0,7.9,24.5c3.4,5.7,13.2,2.3,15.1-4.1s-1.2-13-4.3-18.8a83.09,83.09,0,0,0,26.8-.1c2.4-.4,5.2-1.3,6-3.6C101.34,61.14,96.84,58.54,93.24,57.54ZM74.34,37c3.7-1.6,7.3-3.2,11-4.7,2.9-1.3,6.1-2.5,9-1.5.6,2.8-1.9,5.3-4.2,7.1a61.35,61.35,0,0,1-28.7,11.6C61.84,43.24,68.54,39.54,74.34,37Zm-19.2-1.9c.4-10.4,1-21.5,7.4-29.6A2.7,2.7,0,0,1,64,4.44c1.4-.4,2.5,1.1,3,2.5,2.3,6.5.1,13.6-2.1,20.2l-6,18.3C55.34,43.84,54.94,39,55.14,35.14Zm3.1,14.1c1.3,2.3-.7,5.4-3.2,5.9s-5.2-.8-7.1-2.6c-1.6-1.5.8-3.9,2.9-4.6C53.44,47.14,56.84,46.94,58.24,49.24ZM29.34,29c-2.8-5.4-4.1-11.7-2.2-17.4,6.3,7.9,12.6,15.9,19,23.8,1.3,1.7,2.7,3.5,3.1,5.6s-.6,4.6-2.6,5.3c-2.4.7-4.7-1.3-6.4-3.1C36.14,38.84,32,34.34,29.34,29ZM10,42.24c0-1.5,2.2-1.6,3.7-1.2a120.22,120.22,0,0,1,32.2,14.2A37.23,37.23,0,0,1,10,42.24Zm30.7,151.1a9.29,9.29,0,0,1,.6-4.7,7.14,7.14,0,0,1,3.7-2.9c7.8-3,16.8,2.1,21,9.3s4.6,15.9,5,24.2q2.4,56.25,1.6,112.5c-.1,2.9-.3,6.3-2.6,8.1-1.7,1.3-4,1.3-6.1,1.3-9.8,0-19.7.1-29.5.1-3.1,0-6.2,0-9-1.3s-5-4.3-4.4-7.3c4.3-20.3-2.1-41-4.8-61.5-1.9-14.5-2-29.3-2-44,0-8.1,0-16.6,3.3-24.1s10.6-13.8,18.8-13.2q2.85,63.15,8.5,126.1c.3,3.1,2.3,7.3,5.1,6Q43.49,257.74,40.74,193.34Zm8.6-92.1c7.1.6,8,10.6,7.1,17.7a233.27,233.27,0,0,0-1.5,42.6c.4,7.2,2.7,16.1,9.7,17.3,8.6,1.5,11.3,12.3,12.1,20.9A1106.2,1106.2,0,0,1,80.44,331c-.2,6.3-.9,13.7-6.2,17.3-2.7,1.8-6.2,2.3-9.5,2.5a165.87,165.87,0,0,1-36.6-.8c-8.6-1.1-19.5-6.1-17.8-14.7,5-25-.8-50.8-4.2-76.2s-3.8-53.1,10.5-74.3c2.6-3.8,5.7-7.4,7.7-11.6,3.8-7.8,3.7-16.9,3.5-25.7l-.6-30.9c-.1-3.5-.2-7.2,1.5-10.3s5.8-5.1,8.9-3.5a395.51,395.51,0,0,0,.2,73.8c.5,4.7-3.4,8.8-7.5,11.1s-8.9,3.6-12.7,6.6c-9.1,7-9,20.5-8.1,32q4.2,54.3,8.4,108.5c.7,8.9,12.4,11.2,21.3,11.1l28.1-.3c7.7-.1,10-10.4,9.8-18.1-.5-33.9-1.1-67.8-1.6-101.7-.2-11.1-.5-22.7-6.1-32.3s-18.2-16-28-10.8c-.5-21.7-1.1-43.3-1.6-65C39.64,110.54,42.14,100.74,49.34,101.24Zm-1.4-38.5a161.1,161.1,0,0,1-26.3,18c-2.3,1.3-5.2,2.5-7.5,1.2-.1-4.1,3.1-7.4,6.2-10,8.4-7,18.6-12.2,29.4-13.7C50.74,59.74,49.24,61.64,47.94,62.74Zm18,28.7c-5.1.2-8.5-5.2-10.1-10.1a50,50,0,0,1-1.7-21.4,1.27,1.27,0,0,1,2.2.2A28.93,28.93,0,0,1,65.94,91.44ZM91.64,65c-12.2.8-26.2.9-34.3-8.3,5.6-3.8,13.2-2,19.7-.2,6.8,2,13.5,3.9,20.3,5.8C96.54,64.44,93.84,64.94,91.64,65Z"/></g></g></svg>