<svg xmlns="http://www.w3.org/2000/svg" viewBox="0 0 104.83 180.15"><defs><style>.cls-1{fill:#d9e021;}.cls-2{fill:#8cc63f;}</style></defs><g id="Layer_2" data-name="Layer 2"><g id="Layer_2-2" data-name="Layer 2"><path class="cls-1" d="M34.83,126.41a52.85,52.85,0,0,0,5.4-2.5c.2-.1-.4-1.6-.6-2.5C37.63,123,33,121.71,34.83,126.41Z"/><path class="cls-1" d="M90.43,134.91c.7-26.3-.1-53.8-9.1-78.8-7.1-18.1-26-7.7-40.1-8.7-28.2-.7-30,9.7-30.3,35,4.4-5.8,9.1-9.8,16.6-8.9,1,.1,1.9,1.6,2.8,2.5-6.3,3.1-13.7,2.8-16.2,11.1-1.4,3.8-1.6,7.7,1.7,9.9,3.4,1.6,9.4,1.3,11.5-3-3.5-.7-7.4-.1-9.5-3.5,6-3.3,15.3-2,21.5.6-3.1,3.4-7.8,1.3-9.4,6.1-3.5,7-12.5,6.5-18.1,2.2-.5,22,1.8,43.6,3,66,11.3,11.1,51-2.2,67.4-3.1C95.63,159.11,90.23,144.91,90.43,134.91Zm-68.4.3c-6.5-5-2.8-14.3-3.7-21.8C24.43,102,23.63,132.21,22,135.21Zm37-62.8c2.2,1.3,1.4,4.7,4.9,3.3,9.1-3.9,12.4,10.1,13.7,16.7-5.1-.4-5.4-4.1-7-8.2-1.3-1.8-2.3-3.3-3.3-4.8-4.2,4-2.3,10.2-6.4,14-.8-.7-2.2-1.5-2.3-2.3C58.83,85,55.43,77.61,59,72.41Zm-9.4-5.7c.7-.3,1.4-.5,1.6-.2a45.07,45.07,0,0,1,3.9,3.7c-1.7.4-3.6,1.6-5.1,1.3C47,70.81,47.93,68.71,49.63,66.71Zm-18.5,55.6c3.3-4.8,11.6-8.4,13.2.1C42,135.51,25,130.21,31.13,122.31Zm14-30.8c1.8-3.9,0-9.2,2.3-13.1,5.5,2.4,1.4,8.9,1.9,14a33.17,33.17,0,0,1-2.3,4C45.73,95.11,43.83,94.51,45.13,91.51ZM61,123.71c-3.2,3.7-13,6.2-11.7-2.3,1.9-4.3,6.9-4.3,10.5-3.5C60.93,118.21,61.93,122.81,61,123.71Zm4.3-8.3c.1-.9.1-1.6.4-1.8,1.6-1.1,3.3-2.1,5-3.2.2.4.7,1,.6,1.2-1.5,1.9-3.1,3.8-4.6,5.7A5.16,5.16,0,0,1,65.33,115.41Zm6.8,10.6c-.5.8-2.2.9-3.3,1.4-.8-6.9,5.3-12.7,7.9-18.8,1.5-2.5,2.5-1,3.4,1.1C77.63,115.31,75,120.71,72.13,126Zm13.1-3.1a11.37,11.37,0,0,1-2.8,2.5c-.3-.8-1.1-1.8-1-2.6.3-1.8-1.9-6.6,3.7-3.1C85.33,120.91,85.73,122.11,85.23,122.91Z"/><path class="cls-1" d="M53.43,123a15.7,15.7,0,0,0,3.9-1.1,15.67,15.67,0,0,0-3.1-.8C54,121.11,53.73,122.31,53.43,123Z"/><path class="cls-2" d="M87.13,46.51c-1.9-7.9-1.6-10.4-12.5-10.1-27.1-.2-21.3-.6-21.1-23.3-12.2-1-8.3,12.1-8.1,20,.6,7.6-17.9,3.9-23.3,6.5-13.6-.1-16.8,11.6-17.6,23.2-1.1,33.7.4,67.4,1.8,101,1.8,23.7,35.2,9.6,50.1,9.7,11.8-1.5,23.6-2.9,35.4-4,8-.7,9.5-1.6,8.5-7.6C99.83,123,96,84.51,87.13,46.51Zm-6,119.9c-20.9,2.8-41.6,7.1-62.7,6.1-15.3.5-6.7-43.5-10.3-54.7-1.8-16.9,2.8-32.4.2-49.4-.3-33.3,35.9-23.4,58.1-27,32.2-2.5,26.3,86.5,29.4,109.1C96.53,160.11,87.93,165.41,81.13,166.41Z"/><path class="cls-2" d="M49.23,9.31a2.41,2.41,0,0,0-.3-4.7,26.1,26.1,0,0,0-6.6,2.3C42.43,13.71,46.93,8.61,49.23,9.31Z"/><path id="Gin" d="M31.13,122.31c-6.1,7.9,10.9,13.2,13.2.1C42.73,113.91,34.43,117.51,31.13,122.31Zm9.1,1.6a52.85,52.85,0,0,1-5.4,2.5c-1.8-4.7,2.8-3.4,4.8-5C39.83,122.31,40.43,123.81,40.23,123.91Zm20.7-30.5c4.1-3.8,2.2-10,6.4-14,1,1.5,2,3,3.3,4.8,1.6,4.1,1.9,7.8,7,8.2-1.3-6.6-4.6-20.6-13.7-16.7-3.5,1.4-2.7-2-4.9-3.3-3.6,5.2-.2,12.6-.4,18.7C58.73,91.91,60.13,92.71,60.93,93.41Zm-42.6,20c.9,7.5-2.8,16.8,3.7,21.8C23.63,132.21,24.43,102,18.33,113.41ZM50,71.51c1.5.3,3.4-.9,5.1-1.3a45.07,45.07,0,0,0-3.9-3.7c-.2-.3-.9-.1-1.6.2C47.93,68.71,47,70.81,50,71.51Zm-2.6,6.9c-2.3,3.9-.5,9.2-2.3,13.1-1.3,3,.6,3.6,1.9,4.9a33.17,33.17,0,0,0,2.3-4C48.83,87.31,52.93,80.81,47.43,78.41Zm19-37c-22.2,3.6-58.4-6.3-58.1,27,2.6,17-2,32.5-.2,49.4,3.6,11.2-5,55.2,10.3,54.7,21.1,1,41.8-3.3,62.7-6.1,6.8-1,15.4-6.3,14.7-15.9C92.73,127.91,98.63,38.91,66.43,41.41Zm15.8,120.9c-16.4.9-56.1,14.2-67.4,3.1-1.2-22.4-3.5-44-3-66,5.6,4.3,14.6,4.8,18.1-2.2,1.6-4.8,6.3-2.7,9.4-6.1-6.2-2.6-15.5-3.9-21.5-.6,2.1,3.4,6,2.8,9.5,3.5-2.1,4.3-8.1,4.6-11.5,3-3.3-2.2-3.1-6.1-1.7-9.9,2.5-8.3,9.9-8,16.2-11.1-.9-.9-1.8-2.4-2.8-2.5-7.5-.9-12.2,3.1-16.6,8.9.3-25.3,2.1-35.7,30.3-35,14.1,1,33-9.4,40.1,8.7,9,25,9.8,52.5,9.1,78.8C90.23,144.91,95.63,159.11,82.23,162.31Zm20-41a541.51,541.51,0,0,0-11.9-78.1c-1.6-14.5-19.4-10-30.1-11.8-6.2,1.1-.1-18.1-3.8-25.1-1.4-7.5-4-6.5-10.8-5.9-5.9.7-9.4,5-7.1,10.2,2.8,6.7,2.7,13.4,2.8,20.8-5.6,5.1-17.1,2.6-24.5,5.1-23.2,3.4-15.2,42.9-16.5,60,.6,22.7,1.8,45.5,2.1,68.1-.2,23,33.2,13.5,48,14.1C117.93,165.21,104.53,190.81,102.23,121.31ZM48.93,4.61a2.41,2.41,0,0,1,.3,4.7c-2.3-.7-6.8,4.4-6.9-2.4A26.1,26.1,0,0,1,48.93,4.61Zm42.9,164.9c-11.8,1.1-23.6,2.5-35.4,4-14.9-.1-48.3,14-50.1-9.7-1.4-33.6-2.9-67.3-1.8-101,.8-11.6,4-23.3,17.6-23.2,5.4-2.6,23.9,1.1,23.3-6.5-.2-7.9-4.1-21,8.1-20-.2,22.7-6,23.1,21.1,23.3,10.9-.3,10.6,2.2,12.5,10.1,8.9,38,12.7,76.5,13.2,115.4C101.33,167.91,99.83,168.81,91.83,169.51Zm-10.4-46.7c-.1.8.7,1.8,1,2.6a11.37,11.37,0,0,0,2.8-2.5c.5-.8.1-2-.1-3.2C79.53,116.21,81.73,121,81.43,122.81Zm-10.7-12.4c-1.7,1.1-3.4,2.1-5,3.2-.3.2-.3.9-.4,1.8a5.16,5.16,0,0,0,1.4,1.9c1.5-1.9,3.1-3.8,4.6-5.7C71.43,111.41,70.93,110.81,70.73,110.41Zm6-1.8c-2.6,6.1-8.7,11.9-7.9,18.8,1.1-.5,2.8-.6,3.3-1.4,2.9-5.3,5.5-10.7,8-16.3C79.23,107.61,78.23,106.11,76.73,108.61Zm-16.9,9.3c-3.6-.8-8.6-.8-10.5,3.5-1.3,8.5,8.5,6,11.7,2.3C61.93,122.81,60.93,118.21,59.83,117.91Zm-6.4,5.1c.3-.7.6-1.9.8-1.9a15.67,15.67,0,0,1,3.1.8A15.7,15.7,0,0,1,53.43,123Z"/></g></g></svg>