<svg xmlns="http://www.w3.org/2000/svg" viewBox="0 0 156.18 204.06"><defs><style>.cls-1{fill:#d4145a;}.cls-2{fill:#ff0;}.cls-3{fill:#f7931e;}.cls-4{fill:#0071bc;}.cls-5{fill:#f15a24;}</style></defs><g id="Layer_2" data-name="Layer 2"><g id="Layer_2-2" data-name="Layer 2"><path class="cls-1" d="M68.11,171.24c.3-5-5.2-8.5-6-13.4-1.5-8.5,11.4-15.6,8-23.6a28.77,28.77,0,0,1,.5-23,34.91,34.91,0,0,0-10.7,1.3c2,6.7,4.1,13.5,3.3,20.5s-5.2,13.9-12,15.5c-1.8.5-4,.6-5.4,1.9-2,1.8-1.6,5.3.1,7.5s4.3,3.5,6.5,5.1c4.2,3,7.5,9.3,4,13.1-3,3.2-8.4,1.9-12.1,4.1-3.9,2.1-5.1,7.5-3.2,11.5s6,6.5,10.3,7.3c4,.8,8.5.1,11.5-2.6s4-7.9,1.5-11.1c-1.5-2-.7-5,.5-7.2S67.91,173.74,68.11,171.24Z"/><path class="cls-2" d="M73,105.74c1.6-.9,3.6-.8,5.4-1.1s3.9-1.8,3.6-3.7l-2.7-20.1c-.4-2.9-.1-6.9,2.8-7.5,3.6-.8,5.5-5.3,4.3-8.7s-4.7-5.7-8.3-6.2-7.3.6-10.7,2.1c-4.8,2.1-9.8,6.3-9.2,11.6.6,6.4,9,9.8,10.1,16.3.5,3.6-1.5,7.2-1.8,10.9S69.71,107.54,73,105.74Z"/><path class="cls-3" d="M86.11,16.24a112.15,112.15,0,0,0,34.7-.3c1.6-.2,3.7-1.3,3.2-2.8-13.4-2.6-26.9-5.1-40.3-7.7-5.3-1-10.7-2-16.2-1.7s-10.9,2.2-14.6,6.2c7.5,1.5,15,3,22.6,4.4C79,15,82.51,15.74,86.11,16.24Z"/><path class="cls-4" d="M38.31,193.54c-3.5-3.9-3-10.3.4-14.3s9-5.5,14.2-4.8c1.6-4.8-3-9.3-6.9-12.5s-8-8.6-5.2-12.8c2.3-3.4,7.2-3.2,10.9-4.9,4.4-2,7-6.9,7.6-11.8s-.5-9.7-1.6-14.5c-.5-2.3-1.2-4.8-3.1-6.1s-4.1-1.2-6.3-1l-10.1.6c3.8,6,7.6,13.7,4,19.8-2.4,4.1-7.3,5.8-11.6,8s-8.6,6-7.9,10.7c.6,4.3,4.9,6.8,8.5,9.2s7.3,6.3,5.9,10.4c-1.6,4.6-8,4.9-11.7,8-4.7,4-3.8,12,.5,16.4s10.9,5.6,17,5.7C42.71,197,40,195.54,38.31,193.54Z"/><path class="cls-5" d="M138.41,34.14c-2.2-7.5-7.1-16.8-14.8-15.3a125.13,125.13,0,0,1-68.8-5.7c-3.3-1.3-6.5,1.8-8.6,4.5a492.82,492.82,0,0,0-34.9,51.3C7.71,75,4.11,81.44,4,88.44s4.6,14.7,11.6,15.3c12.7,1.1,25.3,2.2,38,3.4,6.4.5,11.4-6.5,11-12.9s-4.4-12-8.5-16.9c-2.9-3.4-2.6-8.6-.3-12.4S62,58.74,66,57c6-2.5,13.3-3.3,18.8.1s7.9,12,3.2,16.5c-6.5,6.3-4.5,16.9-2,25.5.4,1.6,1,3.3,2.3,4.2a7,7,0,0,0,3.8.7c10.5,0,21-.1,31.6-.2,9.6,0,21.1-1,26-9.3,3.9-6.7,1.9-15.1-.3-22.5C145.81,59.44,142.11,46.84,138.41,34.14Z"/><path class="cls-4" d="M80.91,171a9.46,9.46,0,0,1-.2-11c1.9-2.5,4.8-3.9,7.2-5.8s4.4-5.2,3.2-8.1c-.9-2.2-3.2-3.2-5.1-4.6-5-3.8-6.9-10.9-5.4-17.1s6-11.2,11.4-14.4c-5-3.1-12-1.8-16.1,2.4s-5.3,10.7-3.5,16.3c.9,2.7,2.4,5.3,2.6,8.2.4,8-9.8,14-8.3,21.8.6,3.2,3.1,5.7,4.8,8.6s2.3,7.1-.4,9c-3.1,2.2-2.9,6.8-2.1,10.5s1.7,7.9-.5,10.9h13.3c4.8-.1,9.8-.1,14-2.4s7.3-7.4,5.6-11.8C98.51,175.84,86,177.54,80.91,171Z"/><path class="cls-1" d="M96.71,109.94c-3.2,1.7-5.6,4.6-7.7,7.6-4,5.6-7.1,13.7-2.8,19,1.8,2.2,4.4,3.4,6.3,5.5,3.7,3.9,3.4,10.9-.6,14.6-3.3,3-9.2,4.9-8.8,9.4.4,3.6,4.6,5.2,8.1,6.3,4.9,1.6,9.9,4.1,12.7,8.5s2.7,11-1.4,14.1a15.56,15.56,0,0,0,3-29.7c-3.2-1.3-3.2-6.1-1.2-8.9s5.3-4.3,8-6.5,4.9-5.8,3.5-8.9c-2.7-6.1-13.8-2.5-17.4-8.1-2.3-3.7.4-8.5,3.4-11.7s6.3-7.2,5.3-11.4C104,107.74,99.91,108.14,96.71,109.94Z"/><path id="Lamp" d="M153.81,73.94c-3.5-11.9-7-23.7-10.6-35.6-2.1-7-4.3-14.4-9.2-19.9-7.2-8-18.4-10.7-28.9-12.7-9.4-1.8-18.9-3.5-28.4-4.9-5.9-.8-12.2-1.6-17.9.5-6.5,2.5-11.1,8.3-15.2,13.9-12.5,16.6-25,33.3-35.6,51.2-4.2,7.1-8.2,14.9-8,23.1s6.4,17,14.6,17.2,17.2,2.1,22.1,8.7,2.1,18.5-6,19.3c-10.5,1.1-15.2,17.2-6.9,23.7,2.5,2.1,5.9,3.2,7.9,5.8s1,7.6-2.3,7.6c-7-.1-12.3,7.6-11.4,14.5s6.7,12.4,13.1,15,13.6,2.8,20.6,2.7a332.27,332.27,0,0,0,38.6-2.7c9-1.1,18.7-3,24.5-10,8.1-9.7,2.7-27.2-9.6-30.6,5.8-3.7,12-8.1,13.8-14.7s-4.7-15.1-11-12.5c-3.4,1.5-6.5-3.5-5.3-7s4.6-5.7,7.1-8.5,4.1-7.2,1.6-10c8.8-.2,17.8.5,26.4-1.9s16.7-8.6,18.1-17.4C156.81,83.74,155.31,78.74,153.81,73.94ZM67.51,3.74c5.5-.3,10.9.7,16.2,1.7,13.4,2.6,26.9,5.1,40.3,7.7.5,1.5-1.6,2.6-3.2,2.8a112.15,112.15,0,0,1-34.7.3c-3.6-.5-7.1-1.2-10.6-1.9-7.6-1.4-15.1-2.9-22.6-4.4C56.61,5.94,62.11,4.14,67.51,3.74Zm-41.6,190.2c-4.3-4.4-5.2-12.4-.5-16.4,3.7-3.1,10.1-3.4,11.7-8,1.4-4.1-2.3-8.1-5.9-10.4s-7.9-4.9-8.5-9.2c-.7-4.7,3.7-8.6,7.9-10.7s9.2-3.9,11.6-8c3.6-6.1-.2-13.8-4-19.8l10.1-.6c2.2-.2,4.5-.3,6.3,1s2.6,3.8,3.1,6.1c1.1,4.8,2.2,9.7,1.6,14.5s-3.2,9.8-7.6,11.8c-3.7,1.7-8.6,1.5-10.9,4.9-2.8,4.2,1.3,9.6,5.2,12.8s8.5,7.7,6.9,12.5c-5.2-.7-10.8.9-14.2,4.8s-3.9,10.4-.4,14.3c1.7,2,4.4,3.5,4.6,6.1C36.81,199.54,30.21,198.24,25.91,193.94Zm38.5-8.6c2.5,3.2,1.5,8.3-1.5,11.1s-7.5,3.4-11.5,2.6c-4.3-.8-8.5-3.3-10.3-7.3s-.7-9.4,3.2-11.5c3.7-2.2,9.1-.9,12.1-4.1,3.5-3.8.2-10.1-4-13.1-2.2-1.6-4.8-2.9-6.5-5.1s-2.1-5.7-.1-7.5c1.4-1.3,3.6-1.4,5.4-1.9,6.8-1.6,11.2-8.6,12-15.5s-1.3-13.8-3.3-20.5a34.91,34.91,0,0,1,10.7-1.3,28.77,28.77,0,0,0-.5,23c3.4,8-9.5,15.1-8,23.6.8,4.9,6.3,8.4,6,13.4-.2,2.5-1.9,4.7-3.2,6.9S62.91,183.34,64.41,185.34Zm3.9-96.9c-1.1-6.5-9.5-9.9-10.1-16.3-.6-5.3,4.4-9.5,9.2-11.6,3.4-1.5,7-2.6,10.7-2.1s7.2,2.7,8.3,6.2-.7,7.9-4.3,8.7c-2.9.6-3.2,4.6-2.8,7.5l2.7,20.1c.3,1.9-1.7,3.3-3.6,3.7s-3.8.2-5.4,1.1c-3.3,1.8-6.7-2.7-6.5-6.4S68.81,92,68.31,88.44Zm27.5,106.9c-4.2,2.3-9.2,2.3-14,2.4H68.51c2.2-3,1.3-7.2.5-10.9s-1-8.3,2.1-10.5c2.7-1.9,2.1-6.2.4-9s-4.2-5.4-4.8-8.6c-1.5-7.8,8.7-13.8,8.3-21.8-.2-2.9-1.7-5.5-2.6-8.2-1.8-5.6-.6-12.2,3.5-16.3S87,106.94,92,110c-5.4,3.2-9.9,8.3-11.4,14.4s.4,13.3,5.4,17.1c1.9,1.4,4.2,2.4,5.1,4.6,1.2,2.9-.7,6.1-3.2,8.1s-5.3,3.3-7.2,5.8a9.46,9.46,0,0,0,.2,11c5.1,6.5,17.6,4.8,20.5,12.5C103.11,187.94,100,193.14,95.81,195.34Zm6-74.2c-3,3.2-5.7,8-3.4,11.7,3.6,5.6,14.7,2,17.4,8.1,1.4,3.1-.8,6.8-3.5,8.9s-6,3.7-8,6.5-2,7.6,1.2,8.9a15.56,15.56,0,0,1-3,29.7c4.1-3.1,4.2-9.7,1.4-14.1s-7.8-6.9-12.7-8.5c-3.5-1.1-7.7-2.7-8.1-6.3-.4-4.5,5.5-6.4,8.8-9.4,4-3.7,4.3-10.7.6-14.6-1.9-2.1-4.5-3.3-6.3-5.5-4.3-5.3-1.2-13.4,2.8-19,2.1-3,4.5-5.9,7.7-7.6s7.3-2.2,10.4-.2C108.11,113.94,104.71,117.84,101.81,121.14Zm47.9-26.6c-4.9,8.3-16.4,9.3-26,9.3-10.6.1-21.1.2-31.6.2a7,7,0,0,1-3.8-.7c-1.3-.9-1.9-2.6-2.3-4.2-2.5-8.6-4.5-19.2,2-25.5,4.7-4.5,2.4-13.2-3.2-16.5S72,54.54,66,57c-4,1.7-8,4.2-10.2,7.9s-2.6,9,.3,12.4c4.1,4.9,8.1,10.4,8.5,16.9s-4.6,13.4-11,12.9c-12.7-1.2-25.3-2.3-38-3.4-7-.6-11.7-8.2-11.6-15.3s3.7-13.4,7.3-19.5a492.82,492.82,0,0,1,34.9-51.3c2.1-2.7,5.3-5.8,8.6-4.5a125.13,125.13,0,0,0,68.8,5.7c7.7-1.5,12.6,7.8,14.8,15.3,3.7,12.7,7.4,25.3,11,37.9C151.61,79.44,153.61,87.84,149.71,94.54Z"/></g></g></svg>