<svg xmlns="http://www.w3.org/2000/svg" viewBox="0 0 117.91 121.62"><defs><style>.cls-1{fill:#9e005d;}.cls-2{fill:#ed1e79;}.cls-3{fill:#f15a24;}</style></defs><g id="Layer_2" data-name="Layer 2"><g id="Layer_2-2" data-name="Layer 2"><path class="cls-1" d="M54.85,73.31c4,.5,3.3-2.5,3.4-4.9.1-4-2.8-1.5-4.3-2a4.52,4.52,0,0,0-3,1c-7.2,4.6-1.6-12.2-2.8-15.4-.8-9.4,11.9-4.1,11.9-13.2.7-4.5.9-9.5-3.8-12.4-12.7-9.1-34,9.4-19.9,20.1,9.4,3.5,4.9,12,5.9,19,0,9.2-.1,9.4-8.6,6.7-4.2-1.5-2.6,4.2-1.4,5,2.7-.2,5.3-.7,8-1.1,2.6,2.4.2,14.1,1,19.7,2.1,5.1,8.1,2.6,7.9-2.2C51.05,87.61,44.75,72.21,54.85,73.31ZM38.35,32c1.4-1.8,4.7-3.9,6.2-3.4,3,1.1,8.7,0,7.7,6.7C48.75,46.11,32,44.11,38.35,32Z"/><path class="cls-2" d="M47.15,32.41c-3.3.8-6.3,1.3-5.9,5.4a9.76,9.76,0,0,0,3.5-.5C45.55,35.81,49.75,33.61,47.15,32.41Z"/><path class="cls-3" d="M91.85,17.51c-3.3,2.5-.1,9.6-.6,13.5.3,14.2-13.1,34.3-28.5,32.3,1.6,3.9.6,12.4-3.7,12.5-8.8-.3-6.3,9.5-5.3,14.5,5.3-15.1,3.2-9.1,16.6-11.8,13.7-6,26.5-14.5,31.9-29.7C107.15,37.21,103.55,23.11,91.85,17.51Z"/><path class="cls-3" d="M58.15,61.71a33.35,33.35,0,0,0-4.4-1.4c-.4-.9-.7-1.9-1.1-2.9C51.05,61.81,54.25,64.71,58.15,61.71Z"/><path class="cls-3" d="M37.75,102.31c-3.4,11.1,14.4,2.7,10.3-.9A79.83,79.83,0,0,0,37.75,102.31Z"/><path class="cls-2" d="M112.15,6.51c-2.8-5.2-26.5,1.6-33.7-.2-9.9,0-19.8-.5-29.7.2-12.2.5-24.3,5.4-36.6,3.1-2.8-.5-4-.5-4,2.9-.8,33.7-1.5,67.4-3.5,101,0,1.6-.1,4.4,3.6,3.9,7.6-.9,15.4-1.4,23.1-2,19.3.3,38.3-2,57.3-4.9a64.67,64.67,0,0,1,22.66-.14c-2.16-14.65,2.08-31,1.84-45.66C111.55,45.31,114.25,25.91,112.15,6.51Zm-21.9,65.3A143,143,0,0,1,74,81.91c-4.7,1.9-11.9-.2-14.6,5.6-3.6,7-4,15.5-10.1,21.3-8.5,5.5-20.6,3.6-15.4-8.1,5.9-6.2,2.3-13.5,3.3-20.2.1-.1-.9-.5-1.1-.4-9.9,6-9.8-5-8.2-11.8,6.9-1,11.4,5.1,10.4-.7-1-5.2.6-11.7-2.4-16.1-20.4-14.5,4.3-42.3,23-28.3,6.3,3.8,6.7,9.6,6.2,15.4-.5,5.1-4.1,8.6-8.9,10.8-3.9,1.8-6.2,7.7.1,7.9,7.9,3.5,15.3,2.4,20.5-4.2,12.2-10.9,14.9-28.7,3.5-41.1C116.05,10.11,115.05,56.31,90.25,71.81Z"/><path id="Emblem" d="M116.85,8.11c.1-9-6.4-8.6-13.2-7.6C94.65,1,85.55,3,76.85,2c-14.6-1.6-28.7.3-43,2.1-11.7,2.8-31.9-4.6-30.6,14-.6,22.6-1,45.1-2,67.7,1.4,7.3-5.8,36.1,4,35.5,19.5,1.5,38.8-2.9,58.5-2,8-1.3,16-2.8,24-3.9,7.3-1.9,16.4.5,22.5-4.1-5.4-4.2-14.9-.5-21.6-.8-19,2.9-38,5.2-57.3,4.9-7.7.6-15.5,1.1-23.1,2-3.7.5-3.6-2.3-3.6-3.9,2-33.6,2.7-67.3,3.5-101,0-3.4,1.2-3.4,4-2.9,12.3,2.3,24.4-2.6,36.6-3.1,9.9-.7,19.8-.2,29.7-.2,7.2,1.8,30.9-5,33.7.2,2.1,19.4-.6,38.8,1,58.2.3,18.4-6.5,39.6,1.3,56.6,1.8-1.3,2.1-3,1.8-5,0-12.4-.2-24.8.1-37.2C119.55,55.61,116.85,31.71,116.85,8.11Zm-67.6,100.7c6.1-5.8,6.5-14.3,10.1-21.3,2.7-5.8,9.9-3.7,14.6-5.6a143,143,0,0,0,16.3-10.1c24.8-15.5,25.8-61.7-10-59.8,11.4,12.4,8.7,30.2-3.5,41.1-5.2,6.6-12.6,7.7-20.5,4.2-6.3-.2-4-6.1-.1-7.9,4.8-2.2,8.4-5.7,8.9-10.8.5-5.8.1-11.6-6.2-15.4-18.7-14-43.4,13.8-23,28.3,3,4.4,1.4,10.9,2.4,16.1,1,5.8-3.5-.3-10.4.7-1.6,6.8-1.7,17.8,8.2,11.8.2-.1,1.2.3,1.1.4-1,6.7,2.6,14-3.3,20.2C28.65,112.41,40.75,114.31,49.25,108.81Zm13.5-45.5c15.4,2,28.8-18.1,28.5-32.3.5-3.9-2.7-11,.6-13.5,11.7,5.6,15.3,19.7,10.4,31.3-5.4,15.2-18.2,23.7-31.9,29.7-13.4,2.7-11.3-3.3-16.6,11.8-1-5-3.5-14.8,5.3-14.5C63.35,75.71,64.35,67.21,62.75,63.31Zm-10.1-5.9c.4,1,.7,2,1.1,2.9a33.35,33.35,0,0,1,4.4,1.4C54.25,64.71,51.05,61.81,52.65,57.41Zm-20.4,19.8c-1.2-.8-2.8-6.5,1.4-5,8.5,2.7,8.6,2.5,8.6-6.7-1-7,3.5-15.5-5.9-19-14.1-10.7,7.2-29.2,19.9-20.1,4.7,2.9,4.5,7.9,3.8,12.4,0,9.1-12.7,3.8-11.9,13.2,1.2,3.2-4.4,20,2.8,15.4a4.52,4.52,0,0,1,3-1c1.5.5,4.4-2,4.3,2-.1,2.4.6,5.4-3.4,4.9-10.1-1.1-3.8,14.3-5.7,20.3.2,4.8-5.8,7.3-7.9,2.2-.8-5.6,1.6-17.3-1-19.7C37.55,76.51,35,77,32.25,77.21Zm5.5,25.1a79.83,79.83,0,0,1,10.3-.9C52.15,105,34.35,113.41,37.75,102.31Zm14.5-67c1-6.7-4.7-5.6-7.7-6.7-1.5-.5-4.8,1.6-6.2,3.4C32,44.11,48.75,46.11,52.25,35.31Zm-5.1-2.9c2.6,1.2-1.6,3.4-2.4,4.9a9.76,9.76,0,0,1-3.5.5C40.85,33.71,43.85,33.21,47.15,32.41Z"/></g></g></svg>