<svg xmlns="http://www.w3.org/2000/svg" viewBox="0 0 103.59 238.93"><defs><style>.cls-1{fill:#ed1c24;}.cls-2{fill:red;}.cls-3{fill:#fcee21;}.cls-4{fill:#c1272d;}.cls-5{fill:#0071bc;}.cls-6{fill:#ff0;}</style></defs><g id="Layer_2" data-name="Layer 2"><g id="Layer_2-2" data-name="Layer 2"><path class="cls-1" d="M91,171.4c-11.2-.9-22.2-3.4-33.4-3.6-14.5-.3-29.1.8-43.6,1.8-12.8-.9-7.4,11.3-8.5,20.4-2.5,8.5-.6,18.6-.9,27.6.3,19,18.9,16.9,32.1,17.8,16.7-2.5,47.4,5,53.6-15.3a253.42,253.42,0,0,0,4-44.3C94.31,174.6,94.61,171.7,91,171.4Z"/><path class="cls-1" d="M91.91,38.6C67.81,42.2,43.31,52,19,45.3c-3-.8-4.3,0-4.7,2.1-.3,6.2-8.1,23-2,26.1,6.6,4.1,13.9,1.2,20.8,1.7,8.8.7,17.8-.8,26.7-1.7,12.2-1.4,25.8-5.9,37.7-2.9-.8,2.1-2.9,2.6-4.9,2.9-20.5,2.9-39.4,4-60.6,5-3,.8-10.3-2.2-8.5,3.1.5,3.4-.3,6.5-3.2,8.6-6.8,4.2-1.2,12.2-6.4,17.3-4.5-6.5-1.5-15.2-1.2-22.6.5-2.9,4.2-5,4.5-8.2a34.51,34.51,0,0,0-7.1-.9c-3.4,5.6-1.7,14.5-2.6,21-.6,21.5.9,43.3-.5,64.6-7.3,9.7,47.3-1.5,53.8,1.3,5.8-1.3,36.6,8.5,33.8.4.6-18.2-.4-36.7,1.6-54.8,1.8-22,5.9-44.6,1.3-66.4C96.71,38.9,94.61,38.1,91.91,38.6ZM76.51,77.5c.8,4.7-3.6,9.2-.9,13.6,8-2.5,5.1-9.7,11-13.6.6,1.2,1.8,2.3,1.8,3.5,0,2.6-.6,5.3-.9,8.3-3.8,2-9.5,6.2-13.3,6C69.21,91.4,68.21,78,76.51,77.5Zm-12.1,3.4c-2.6,1.5-5.2,2.7-7.8,4.2,12,.3,14.5,14,.9,13.4a11.79,11.79,0,0,1-2.7-2.8c2.3-1.4,9.4-1,7-5.1-3.1-1.8-9.1.6-9.4-4.6C51.71,79.4,59.81,78.9,64.41,80.9Zm-28.1,3.6c2.9-1.7,7.4-5.8,10.2-2-3.3,2.5-5.7,2.1-8,6.3,17.5-3.1,12.1,15.6-3,9.3,3.3-1.8,7.2-2.4,10-4.8-.8-.2-1.7-.5-3-.8C36.31,93.8,31.91,89.8,36.31,84.5Zm-1.8-1.8a11.14,11.14,0,0,1-3,.8,7.74,7.74,0,0,1-2.7-1.2h-.1C29.71,79.2,34.51,79,34.51,82.7Zm-3.9,1.8c.6,2.2,1.1,3.5.9,6a46.66,46.66,0,0,1-1.1,8.1c-.4,1.7-1.6,3.3-2.4,4.9C23.81,97.4,26.11,89.8,30.61,84.5Zm31.6,58.8c-12.4,22.3-47.9,13.1-40.6-13.4,4.4-9.3,14.1-20,25.5-16.5C64.71,115.9,72.41,127.8,62.21,143.3Zm21.2-33.5c-1.9,3.1-5.4,5.6-9.7,4.3-12.3-9.4,11.4-16.9,13.8-24.3a23.92,23.92,0,0,1,4.3-2c.8-.4,1.6-.7,2.4-1.1C93.71,94.8,87,102.5,83.41,109.8Z"/><path class="cls-2" d="M74.51,110c2.7-.4,4.1-.4,6-3a24.67,24.67,0,0,0,2.8-2.8,10.71,10.71,0,0,0,.6-2.7A13,13,0,0,0,74.51,110Z"/><path class="cls-3" d="M94.6,168.3l-89-1q.5-46,1-92a310,310,0,0,0,84-2q5.59-.9,11-2Q98.09,119.81,94.6,168.3Z"/><path class="cls-2" d="M58,127.5c-8.5,7.8-22.6,5.2-29,16.3-1.1,1.4-1.5,3.9,1.5,5.3,16.2,10.1,37.9-9.2,30.8-26.3C59.41,124.1,59.31,125.2,58,127.5Z"/><path class="cls-4" d="M46.71,9.4c7.4-1.1,18.3,1.8,23.6-4.2-5.8-1.5-11.4-.3-18.3-.7a50.48,50.48,0,0,0-5.5.1,20.28,20.28,0,0,0-4,1.2C43.91,7,45.31,9.3,46.71,9.4Z"/><path class="cls-4" d="M94.41,34.1c-3.7-4.3-10.9-5.7-16.1-6.3-9,.9-7.8-6.1-7.8-12.9-.1-2.9-.9-3.9-4.2-2.8-10.7,5.3-21.1-1.1-22.6,4.6,1.1,15.4-18.3,14.1-25.2,24.2,6.3,1.6,12.2,1.7,19.5,2.6C56.81,40.9,76.51,40.5,94.41,34.1Z"/><path class="cls-5" d="M55.41,123.9c.8-.5.8-4,.7-4.1-5.5-1.1-11.5-3.8-16.4-2.5-9.4,2.6-17.1,14.7-14.6,24.2.8-.8,1.6-1.6,2.9-3C35.11,129.7,46.91,131,55.41,123.9Z"/><path class="cls-6" d="M18.11,83.5a5.9,5.9,0,0,0-.1,3c.5-.8.9-1.7,1.4-2.6A6.47,6.47,0,0,1,18.11,83.5Z"/><path id="Pissy" d="M74.21,95.3c3.8.2,9.5-4,13.3-6,.3-3,.9-5.7.9-8.3,0-1.2-1.2-2.3-1.8-3.5-5.9,3.9-3,11.1-11,13.6-2.7-4.4,1.7-8.9.9-13.6C68.21,78,69.21,91.4,74.21,95.3Zm-12.4-4.7c2.4,4.1-4.7,3.7-7,5.1a11.79,11.79,0,0,0,2.7,2.8c13.6.6,11.1-13.1-.9-13.4,2.6-1.5,5.2-2.7,7.8-4.2-4.6-2-12.7-1.5-12,5.1C52.71,91.2,58.71,88.8,61.81,90.6Zm38.7-52.4c-8-20.5-26.8-10.1-26-18.6C73.41,14,77.91,2,70.11.6c-7.2,1.5-36.5-5.7-31.2,7.8,6.6,23.4-24,16.4-30.5,42.6-9.3,42.6-1.2,86.7-7.8,129.9.4,15.9-3.2,33.7,3.5,48.6,9.5,14.2,31.7,7.8,46.3,9,14.1-1.1,30.9,2.7,40.9-10.2,15.5-42,2.5-88.2,10-132C102,77.3,106.51,56.7,100.51,38.2Zm-54-33.6A50.48,50.48,0,0,1,52,4.5c6.9.4,12.5-.8,18.3.7-5.3,6-16.2,3.1-23.6,4.2-1.4-.1-2.8-2.4-4.2-3.6A20.28,20.28,0,0,1,46.51,4.6Zm-2.8,12.1c1.5-5.7,11.9.7,22.6-4.6,3.3-1.1,4.1-.1,4.2,2.8,0,6.8-1.2,13.8,7.8,12.9,5.2.6,12.4,2,16.1,6.3-17.9,6.4-37.6,6.8-56.4,9.4-7.3-.9-13.2-1-19.5-2.6C25.41,30.8,44.81,32.1,43.71,16.7Zm50.6,159.1a253.42,253.42,0,0,1-4,44.3c-6.2,20.3-36.9,12.8-53.6,15.3-13.2-.9-31.8,1.2-32.1-17.8.3-9-1.6-19.1.9-27.6,1.1-9.1-4.3-21.3,8.5-20.4,14.5-1,29.1-2.1,43.6-1.8,11.2.2,22.2,2.7,33.4,3.6C94.61,171.7,94.31,174.6,94.31,175.8Zm1.9-67.5c-2,18.1-1,36.6-1.6,54.8,2.8,8.1-28-1.7-33.8-.4-6.5-2.8-61.1,8.4-53.8-1.3,1.4-21.3-.1-43.1.5-64.6.9-6.5-.8-15.4,2.6-21a34.51,34.51,0,0,1,7.1.9c-.3,3.2-4,5.3-4.5,8.2-.3,7.4-3.3,16.1,1.2,22.6,5.2-5.1-.4-13.1,6.4-17.3,2.9-2.1,3.7-5.2,3.2-8.6-1.8-5.3,5.5-2.3,8.5-3.1,21.2-1,40.1-2.1,60.6-5,2-.3,4.1-.8,4.9-2.9-11.9-3-25.5,1.5-37.7,2.9-8.9.9-17.9,2.4-26.7,1.7-6.9-.5-14.2,2.4-20.8-1.7-6.1-3.1,1.7-19.9,2-26.1.4-2.1,1.7-2.9,4.7-2.1,24.3,6.7,48.8-3.1,72.9-6.7,2.7-.5,4.8.3,5.6,3.3C102.11,63.7,98,86.3,96.21,108.3ZM18.11,83.5a6.47,6.47,0,0,0,1.3.4c-.5.9-.9,1.8-1.4,2.6A5.9,5.9,0,0,1,18.11,83.5Zm12.3,15.1a46.66,46.66,0,0,0,1.1-8.1c.2-2.5-.3-3.8-.9-6-4.5,5.3-6.8,12.9-2.6,19C28.81,101.9,30,100.3,30.41,98.6Zm16.7,14.8c-11.4-3.5-21.1,7.2-25.5,16.5-7.3,26.5,28.2,35.7,40.6,13.4C72.41,127.8,64.71,115.9,47.11,113.4Zm-22,28.1c-2.5-9.5,5.2-21.6,14.6-24.2,4.9-1.3,10.9,1.4,16.4,2.5.1.1.1,3.6-.7,4.1-8.5,7.1-20.3,5.8-27.4,14.6C26.71,139.9,25.91,140.7,25.11,141.5Zm5.4,7.6c-3-1.4-2.6-3.9-1.5-5.3,6.4-11.1,20.5-8.5,29-16.3,1.3-2.3,1.4-3.4,3.3-4.7C68.41,139.9,46.71,159.2,30.51,149.1Zm12-56.6c1.3.3,2.2.6,3,.8-2.8,2.4-6.7,3-10,4.8,15.1,6.3,20.5-12.4,3-9.3,2.3-4.2,4.7-3.8,8-6.3-2.8-3.8-7.3.3-10.2,2C31.91,89.8,36.31,93.8,42.51,92.5Zm45-2.7c-2.4,7.4-26.1,14.9-13.8,24.3,4.3,1.3,7.8-1.2,9.7-4.3,3.6-7.3,10.3-15,10.8-23.1-.8.4-1.6.7-2.4,1.1A23.92,23.92,0,0,0,87.51,89.8Zm-4.2,14.4a24.67,24.67,0,0,1-2.8,2.8c-1.9,2.6-3.3,2.6-6,3a13,13,0,0,1,9.4-8.5A10.71,10.71,0,0,1,83.31,104.2ZM31.51,83.5a11.14,11.14,0,0,0,3-.8c0-3.7-4.8-3.5-5.8-.4h.1A7.74,7.74,0,0,0,31.51,83.5Z"/></g></g></svg>