<svg xmlns="http://www.w3.org/2000/svg" viewBox="0 0 453.77 868.64"><defs><style>.cls-1{fill:#c1272d;}.cls-2{fill:#9e005d;}.cls-3{fill:red;}.cls-4{fill:#f15a24;}.cls-5{fill:#ed1c24;}.cls-6{fill:#c69c6d;}</style></defs><g id="Layer_2" data-name="Layer 2"><g id="Layer_2-2" data-name="Layer 2"><g id="Heresiarch_Mother" data-name="Heresiarch Mother"><polygon class="cls-1" points="271.76 750.11 221.76 750.11 221.76 727.11 271.76 724.11 271.76 750.11"/><path class="cls-2" d="M211.51,206.14a3.82,3.82,0,0,0-1.2,1.9,5.34,5.34,0,0,0,2.5,1.8c4.1,1,8.3,1.7,12.9,3.1.1-.9.6-2,.3-2.7C224.21,206.94,214.71,204.24,211.51,206.14Z"/><path d="M352.11,268c-7.9-.4-15.9-.5-24.4-.1a27.18,27.18,0,0,0-2.4,2.4c-5.1,6.4-8.2,13.4-7.2,22,.7,6.1.2,12.4.1,18.5a31.26,31.26,0,0,1-1.32,6.07,20.51,20.51,0,0,1,2.32,1.83,64.44,64.44,0,0,1,17.8,30,229.5,229.5,0,0,1,7.9,41.1c1.4,15.3.5,30.8.7,46.3,0,.9,1,1.8,1.6,2.8.7-.7,1.8-1.2,2-1.9,1.1-5.9,2.8-11.8,2.9-17.7,0-8.2-1.8-16.5-1.7-24.7,0-16.7-.7-33.4,1.6-50.2,2.1-15.3,2.6-30.8,3.1-46.2.3-9-.5-18.1-1-27.1C354.11,270,352.91,268,352.11,268Z"/><path class="cls-3" d="M121.61,220.94c4.6-.1,9.2-.2,13.8,0,11.1.4,21.5,3.7,31.7,7.9a8.52,8.52,0,0,0,2.3.4c-.1-.9.2-2.1-.2-2.7-7.3-10.5-9.7-22-6.9-34.3,2-8.6,4.7-17,11.4-23.3a7.5,7.5,0,0,1,2-1c.2.7.7,1.6.5,2.2a11.81,11.81,0,0,1-1.6,2.9c-5.9,9.5-10.4,19.5-9.3,31.1.2,1.6,2.1,4.6,2.5,4.5,10.8-3.3,21.9-2.9,33-2.8a21,21,0,0,0,8.1-2,16.73,16.73,0,0,1,20.7,5.9c1.3,1.8,2.6,3.9,4.4,5.1,6.6,4.4,13.9,8.1,17.3,16.1a2,2,0,0,0,1.8.9c.4-.1.9-1,1.1-1.6.9-2.5,1.6-5,2.7-7.4a36.93,36.93,0,0,0,3.3-19.6c-.2-2.2-.8-4.4-.9-6.6,0-.9,1-1.8,1.6-2.7.6.7,1.7,1.3,1.9,2.1a41.32,41.32,0,0,1,1.4,7c1.3,10.7-2.4,20.6-5.2,30.8-.9,3.1-.4,6.9.3,10.2,1.7,7,4.2,13.7,5.8,20.6.9,3.6.7,7.4,1.2,11,.2,1.2,1.4,2.2,2.1,3.3.6-.7,1.7-1.4,1.8-2.1.3-7.3.4-14.6.6-21.9a57.67,57.67,0,0,1,.1-7.2c1-7.4,6.7-12,10.7-17.5,1.4-2,2.3-3.1.3-5.3-8.1-9.1-8.4-20.1-7.5-31.3.1-2.3,2-4.5,3.1-6.7.5,2.5,2,5.2,1.5,7.5-2.3,10.4.1,19.4,6.1,27.8,1.7,2.4,3.4,2.9,6.3,1.2,6.7-3.9,14-6.7,20.5-10.9,8.4-5.4,17-.7,25.5-1.3,2.5-.2,2-.9,1.8-1.9-.9-4.4-2.1-8.8-2.9-13.2a15.09,15.09,0,0,1,.5-4.2c.8,1.2,2.2,2.2,2.4,3.5,1.4,7.7,4,15.6,3.4,23.2-1.1,14.3-4.5,28.3-11.4,41.2-1.2,2.2-1.4,3.2,1.8,3.1,5.7,0,11.4.5,17.1,1,3.4.3,4.3-1.2,4.2-4.3-.5-10.2-.8-20.4-1-30.6-.3-11.9-1.1-23.7-4-35.4-2.6-10.5-7.7-18.4-19.1-20.7-6.4-1.4-12.8-3.3-19.3-3.9-5.4-.5-11,.7-16.5.8-8.3.2-16.8.6-25.1-.2-3.9-.3-7.2-3-7.2-8.3-.1-4.9,2.1-8.2,4.8-11.6,9.6-12.2,17.3-25.1,14.4-41.8-1.7-9.6-6.3-17.7-12.6-24.7-4.5-5-10.3-9.6-18.4-8.4a41.78,41.78,0,0,1-10.6,0c-8.7-1-14.3,3.8-18.4,10.3-6.1,9.7-9.6,20.4-7.6,32.8.9,11,6.2,19.7,14.1,27.2,2.4,2.4,4,5.9,5.3,9.2,2.1,5.2.1,8.7-5,10.6-7.1,2.6-13.9.3-20.6-1.4-15-3.8-29.8-6.2-45.3-2.8-9.1,2-17.4,6-22.5,12.8-10.1,13.3-15.3,29.2-19.6,45.3C119.61,220.94,119.71,220.94,121.61,220.94Z"/><path class="cls-3" d="M256.31,427.44c2.2-10.3,4.7-20.4,6.9-30.6,2.1-9.7,4.7-19.3,5.8-29.1.8-7.2,6.2-14.6.3-22-.3-.3-.1-1-.1-1.5,0-15.2.1-30.4-.1-45.6,0-1.6-1.3-3.2-2-4.7a35.18,35.18,0,0,0-1.8,4.5c-1,3.8-1.7,7.6-3.1,12-3.3,9.1-6.6,18.2-10,27.3-4,11-7.6,22.2-12.4,32.9-5.9,13.3-8.1,27.5-10.4,41.6-1.5,8.9-1.8,18.1-2.1,27.1-.3,12.4-1.2,24.9.2,37.2,1.6,13.9,4.9,27.7,4.9,41.9,0,1.2,2.1,3.2,3.3,3.3,5.6.4,11.3.2,17,.1,1.6,0,2.6.9,1.9-2.4a142.43,142.43,0,0,1-3.2-27.6c0-15.6,1-31.1,1.9-46.7A119,119,0,0,1,256.31,427.44Z"/><path d="M291.56,403.94a17.39,17.39,0,0,1,5,1.2,29.17,29.17,0,0,1,3.1,1.4c-.3-1.4-.3-2.9-.9-4-5.3-9.5-10.9-18.9-15.9-28.5-2.6-5-4.1-10.6-6.1-16a21.16,21.16,0,0,0-1.1-2.1c-.6.8-1.6,1.5-1.8,2.5-1.8,9.6-3.1,19.3-5.1,28.9-2.4,10.8-5.6,21.4-7.9,32.2a87.32,87.32,0,0,0-1.32,9.45c.1-.31.18-.58.22-.75C262.86,413.24,279.16,404,291.56,403.94Z"/><path class="cls-1" d="M341.31,449.64c-.1-4.4.9-8.8.9-13.2-.2-14.9-.5-29.7-1-44.6a98.39,98.39,0,0,0-2.1-18.1c-3.1-12.9-4.8-26.4-11.9-38-6.6-10.7-13.6-21.1-27.6-23-3-.4-4.7-2.5-4.4-6,.5-5,.5-10.1,1.2-15,.2-1.4,2.1-2.8,3.5-3.8,5.7-4.3,12.6-7.5,17-12.8,5.2-6.1,8.3-14.1,12.3-21.2,6-10.6,7.8-22.3,9.9-33.9.3-1.6-1.2-4.8-2.1-4.9-5.7-.5-12.1-1.9-17,.1-14.1,5.5-29.2,9.2-39.3,22.4-5,6.6-7,13-6.3,21.2.6,5.9-.4,12.1-1.2,18.1-.6,4.3-2.9,8.5-2.8,12.7.5,13.1,1.9,26.2,2.8,39.3.3,4.4,0,9,.1,13.5a9.71,9.71,0,0,0,.7,3.7c4.2,8.9,8.3,17.9,12.7,26.7,5,9.8,10.5,19.3,15.5,29.1,6.4,12.6,12.6,25.4,18.7,38.2,6.7,13.9,13.5,27.7,19.7,41.8,3.8,8.5,6.5,17.3,9.6,26,.8,2.4,2.1,3,4.5,3,8.4.2,16.7.7,25.1.9,3.1.1,5,1.5,5.4,4.6.5,3.5.8,7,1,10.5.4,5.1.5,10.1,1.1,15.1,1.2,9.8,2.6,19.6,3.9,30.4.4,5.3.7,10.7,1.1,16,.2,2.9.6,5.8.9,8.6,1.4,11.3,3,22.6,4,33.9.7,8.8.4,17.7,1.1,26.5,1.1,13.2,2.5,26.3,4,39.4.5,5.1-1.8,7.7-6.5,9.1-6.5,1.9-7.8,4.2-6.5,10.9.1.7.8,1.3.9,2.1.4,2.8.7,5.6,1.1,8.4a90,90,0,0,1,8.8-2.8c5.8-1.3,8.7-4.8,9.1-10.5.5-6.7.8-13.4,1-20.1.7-17.4,1.3-34.8,2.1-52.2.1-3.8,1.2-7.7.8-11.5-1-12.8-2.5-25.6-3.9-38.4-.7-6.7-1.2-13.4-2-20.1-1.2-9.7-3-19.2-3.8-28.9-.9-10.1-.6-20.4-1.3-30.5-.2-2.3-2.2-5.6-4.1-6.2a65.23,65.23,0,0,0-14.6-2.2c-8.8-.5-17.7-.7-26.6-1.1-2.8-.1-5-.6-5.7-4.3-.7-4.2-2.9-8.2-3.8-12.4-1.6-7.5-2.8-15.2-4-22.8A105.18,105.18,0,0,1,341.31,449.64Z"/><path d="M223.86,414.74c.3-4.3,1.9-8.5,2.9-12.7.6-2.4,1.6-4.8,2-7.2a14.27,14.27,0,0,0-.8-3.9,11.31,11.31,0,0,0-2.3,2.6c-2,4.3-3.5,9-5.9,13-10.5,17.7-21.3,35.3-32,52.8-1.3,2.3-3.1,4.4-4.5,6.7-.4.6-.1,1.7-.2,2.6.57-.23,1.41-.57,2.4-1,10.25-4.43,13-7.76,16.5-8.5s9.92,2.18,18.22,12.39a1.61,1.61,0,0,1-.12-.39c4-1,2.7-3.7,2.5-6-.2-1.3-.8-2.5-.7-3.7C222.46,445.84,223,430.34,223.86,414.74Z"/><path class="cls-4" d="M182.11,72.54c1.9-8.8,6.9-16.2,12.1-24.1.6-.6,1.3-1.2,1.8-1.8,14.8-20.6,33.7-33.6,60-35.2,13.8-.9,25,3.2,34,12.9,12.7,13.7,24.8,28.1,34.2,44.3a65.12,65.12,0,0,1,9.1,31.7,92.23,92.23,0,0,1-5,30.9c-.3.9-.6,2.2-.2,2.6,2.6,2.5,8.9,1.2,9.7-2.1,1.4-5.8,3-11.7,3.3-17.6.8-14.6-3-28.6-7.5-42.3-4.3-13.1-9.6-25.8-19.7-35.9-4.2-4.2-7.3-9.5-11.8-13.4-6.4-5.7-12.8-12.7-20.5-15.1-10.4-3.3-21.7-5.1-33.2-2.7a112.46,112.46,0,0,0-34.6,13.1c-10.1,6-18.1,14.2-25.1,23.4-5.1,6.5-9.9,13.5-13,21-3.3,8.4-5.1,17.5-6.3,26.4-1,7.6-.5,15.4,0,23.1.2,3.8,1.7,7.5,2.9,11.2,1.1,3.9,2.1,7.9,4.1,11.3.9,1.5,4,1.9,6.2,2.6a5.93,5.93,0,0,0,1.1-1.9c-5.7-7-6.1-15.7-7.3-23.9C174.61,97.84,179.41,85.24,182.11,72.54Z"/><path class="cls-1" d="M334.91,723.94c-1,.1-2.1,1-3,.9-5.5-.8-3.5,3.2-3.5,5.6a143.8,143.8,0,0,0,.2,14.7c.1,1.3,1.6,3.4,2.7,3.6a33.35,33.35,0,0,0,9.9-.3c.4-6,.8-12,1-18C342.41,724.14,341.21,723.14,334.91,723.94Z"/><path class="cls-5" d="M441.56,793.64c-11.8,1.5-23.5,2.9-35.3,4.2-12,1.3-19.6-9.5-21.5-17.8-2.7-11.8-1-23.5-.1-35.4.7-9.6.1-19.4.1-29.1v-18c.1-17.9-1.4-35.6-5.9-53-4-15.3-7.1-30.7-11.1-45.9s-8.9-30.4-12.8-45.7c-1.5-5.9-1.4-12.1-2.2-18.2-1.5-12.7-6.1-24.6-10.2-36.7-9.2-27-23.5-51.6-35.8-77.2-1.9-3.9-4.2-8.2-7.6-10.7-6.6-5.1-12.6-4.2-21.4,1.8-5.4,3.7-9.1,9.9-13.6,15.1-.33.42-3.52,3.48-4.85,4.72-.15,1.85-.29,3.72-.45,5.58-.8,7.7-1.3,15.5-2.1,23.2s-2.4,15.1-2.8,22.7c-.3,5.8.5,11.7,1.2,17.5,1,7.7,2.4,15.3,3.6,23,2.1,11.9,4.2,23.9,6.2,35.9,1.4,7.9,3.1,15.9,3.7,23.9,1.1,15.4,1.5,30.8,2.1,46.2.4,8.2,1.9,16.5.8,24.5-2.8,22.1-1.8,44.2-1.5,66.2.1,12.2,2.5,24.3,3.7,36.4.6,6.2.5,12.4,1.1,18.6,1.2,13.9,2.6,27.9,4,41.8.9,8.9,1.9,17.9,3,26.8.1,1.2.5,3.2,1.1,3.4,3.8.9,2.2,3.2,1.9,5.4a9.2,9.2,0,0,0,.7,3.1c1.1-.6,2.4-.9,3.2-1.7,3.1-3.6.7-7.8,1.1-11.7a34,34,0,0,1,.8-4.6c1,1.2,2.7,2.4,3,3.8a17.55,17.55,0,0,1-.13,8.91c2.3,1.17,3.53,1,4.23.59,2.07-1.28.66-5.68,2.1-14.6.18-1.12.37-2,.5-2.7.8.6,2.1,1.1,2.4,1.9,1.7,5.1,6.3,6.2,10.4,7.7,1.1.4,3.7-1.5,4.5-2.9,3.9-6.7,2-14.1,2-21.2-.1-5-1.5-10.2-3-15.2-.7-2.1-3.2-4.9-5.1-5.1-4.9-.5-9.4-1.3-11.3-6.4s.8-9.3,3.9-12.4c8.1-8.1,13.4-18.1,18.2-28.1,2.8-5.7,2-13.4,1.8-20.3,0-3.5-2.1-7-3.3-10.5-1.6-4.7-5.7-5.1-9.5-4.4-6.5,1.1-10.1-.7-10.5-6.8-.6-8.6-1.3-17.1-.9-25.6.3-9.1,2-18.2,2.7-27.3.3-3.6-1.1-7.4-.8-11.1,1.1-10.3.9-21.2,4.4-30.7,4.8-13.2,5.7-26.5,5.5-40.1-.2-13.9,0-27.8-1.2-41.6-1-11.9-3.7-23.7-5.8-35.5-1.3-7.6-1.9-15.5-4.1-22.8-3.5-11.7-8.1-23-12.1-34.5-.5-1.2-.3-2.7-.4-4,1.1.6,2.6,1,3.1,1.9,3.6,7.1,7.9,14.1,10.3,21.7a366.43,366.43,0,0,1,10.1,37.3c1.5,7.2,1.5,14.7,2.1,22.1s1.7,14.8,2,22.2c.3,8.1-.1,16.1.1,24.2.2,7.5.9,14.9,1.4,22.4a3.35,3.35,0,0,1,0,1,19.47,19.47,0,0,0,5.8,19.7c7.2,6.6,9.4,15.2,10.6,24.1,1.3,9.3,1.3,18.8,2.2,28.2.7,6.9,2,13.8,3.1,20.7.9,5.9,1.8,11.8,2.8,17.8,1.3,7.6,3.1,15.2,3.9,22.8.9,8.3,1,16.7,1.1,25.1a193.23,193.23,0,0,1-1,20.1c-1.2,10.4-2.3,20.9-4.4,31.2-1,5.2.7,9.2,2.2,13.6,1.2,3.5,2.2,7.3,4.4,10.1a16.82,16.82,0,0,0,8.1,5.5c11.3,3.4,22.8,2.3,34.3.3,5.3-1,11,.1,16.3-.8,9.6-1.7,19-4.1,28.5-6.2a18.15,18.15,0,0,1,3-1.1c4.4-.3,6.9-1.4,2.6-5.5-2.4-2.3.1-2.5,1.2-3.1a42.28,42.28,0,0,1,4.8-2.3,27,27,0,0,1-3.9-2.7,7,7,0,0,1-1.9-3.7c-.1-.4,1.5-1.2,2.4-1.7,2.2-1.4,6.3-3.1,6.1-4C448.66,793.94,445.26,793.24,441.56,793.64Z"/><path class="cls-6" d="M121.31,409.44c.3,1,.6,2,.9,2l-.3-2.4C121.71,409.14,121.31,409.34,121.31,409.44Z"/><path class="cls-5" d="M219.76,717.84c-.2-7.9-.9-15.7-.9-23.6,0-6,.9-12,.9-18.1,0-5.7-.9-11.4-.9-17.1,0-7.3,1-14.7.8-22-.2-8.3-1.9-16.6-1.7-24.9.3-11.8,1.5-23.7,2.7-35.5.7-7.3,2-14.5,3.1-21.7,1.6-10.1,3.8-20.2,4.8-30.5a83,83,0,0,0-.9-20.5c-1.8-10.5-4.5-20.8-6.9-31.3a2.58,2.58,0,0,0-.35-.64c-1-.73-2.85-2.42-4.15-3.26-5-3.27-6.47-5-7.94-5.43-5-1.33-10.3.55-16.06,3.53-12.1,6.4-18.1,17.2-22.5,29.5-2.7,7.5-6.9,14.6-8.9,22.3-3.6,13.2-6.6,26.7-8.9,40.3-1.5,9.1-1.7,18.4-2.1,27.6-.5,11.1.2,22.3-1.2,33.3-3.2,24.3-3,48.8-2.8,73.2,0,7.2.8,14.5,1.3,21.7.5,8.9,1.4,17.9,1.8,26.9.6,12.6-1,24.2-10.5,34.4-13.4,14.4-25.5,30-38.4,44.9-2.6,3.1-6.2,5.4-9,8.3-3.3,3.4-9.1,4.9-8.7,11.4.1,1.1-2.9,2.2-4.3,3.5a34,34,0,0,0-2.3,3c1.4.6,3,2,4.1,1.6,3-1,6.3-1.7,7.1-6,.4-2.2,2.7-3.9,4.1-5.8-.1,2.2-.3,4.4-.2,6.6,0,1.6.6,3.1.7,4.7a25.92,25.92,0,0,1-.4,4.8,5.42,5.42,0,0,1-1,1.8c1,.1,2.4.7,2.7.3a66.31,66.31,0,0,0,4.9-6.9c1.6-2.4,3.1-5,4.7-7.5a1.4,1.4,0,0,1,1.4-.2c.3.2.4.9.4,1.3-.1,2-.4,3.9-.4,5.8-.06,1.18.12,2.4-.61,3a4.24,4.24,0,0,0,3.36,1.18c1.6-.34,2.33-2.16,3-1.87s.71,1.84.71,3.77c0,1.1,1.1,2.1,1.7,3.2a21.83,21.83,0,0,1,2.2-2.1c6.8-5.1,7-13.9,11.7-20.2,4.8-6.5,9-12.4,18.6-13.2,5.8-.5,11.3-5.2,16.9-8.3,7.5-4.1,15.4-7.8,20.8-14.8,2.1-2.7,4.6-5.5,5.5-8.7a12.6,12.6,0,0,0-1.4-8.9,57.7,57.7,0,0,1-8.9-29.3c-.2-12.3-2-24.3-3.9-36.4-1.7-11.7-2.5-23.8.6-35.7,1.5-6,1.2-12.5,2.2-18.6,1-6.7,2.6-13.3,3.9-19.9,2.7-12.7,5.8-25.4,7.9-38.2,1.4-8.4,1.4-17.1,2.2-25.6a274.32,274.32,0,0,1,9-51.7c1-3.5,1.9-6.9,3-10.3.4-1.2,1.5-2.1,2.2-3.1.6,1.3,1.9,2.9,1.6,4.1-1.5,7-3.7,13.8-5.2,20.8-1.8,8.8-3.6,17.6-4.6,26.6-1.4,13.7-2,27.5-3.1,41.2-.4,4.2-1.7,8.4-1.9,12.7-.1,4.5.8,9,.9,13.5.1,11.8.3,23.5,0,35.2-.3,7.9-1.5,15.8-1.9,23.7-.5,9.3-.9,18.7-1,28.1-.2,10.7,0,21.4-.1,32.1,0,8.7,1.9,16.6,10,21.3,6.2,3.6,7.8,9.5,9,15.7.67,3.48,4.95,14.9,3,29.2-.73,5.37-1.94,8.64-1.9,15.7a62.17,62.17,0,0,0,1.2,11.8c1,3.21,3.51,10.83,7.7,14.6.59.53,2.6,2.18,4.09,1.8.71-.18,1.4-.81,2-2.2.3-.6,2.3-1.2,2.8-.8,1,.7,1.5,2.1,2.1,3.2.6.9,1.1,1.8,1.6,2.7.8-1,2.4-2.1,2.3-3a29.65,29.65,0,0,0-2-6.6c-.5-1.3-1.4-2.5-1.8-3.8a5,5,0,0,1,.6-2.6,7.81,7.81,0,0,1,2,1.1,78,78,0,0,1,5.9,7c.79,1.17.6,3-.17,4.8.78.69,2,1.68,3.12,1.4,1-.23,1.61-1.3,2-2.3a7.57,7.57,0,0,1,2,2.3c.5.8.6,1.8,1.1,2.6a9.58,9.58,0,0,0,1.7,1.8c.4-.8,1.2-1.6,1.2-2.4-.2-3.2-.7-6.4-.9-9.6a8.57,8.57,0,0,1,.5-2.7,22.26,22.26,0,0,1,2.4,1.9c1.8,1.7,3.4,3.4,5.1,5a15.72,15.72,0,0,0,2.6,1.9c.2-1.4.8-2.9.5-4.1-2.4-8.9-5.1-17.6-7.3-26.5-5.1-19.9-17.1-36.6-25-55.1a74,74,0,0,1-5.6-21.6C219.86,740.94,220.16,729.34,219.76,717.84Z"/><path d="M164.66,231.84c-12.4-4.3-24.8-8.2-38.2-8-7.6.2-8.5.4-10.5,7.5-5.9,20.4-11.2,41-17.2,61.4-4.6,15.4-9.3,30.7-15.6,45.5-5.2,12.2-8.7,25.1-13.7,37.3a268.66,268.66,0,0,1-24.6,46.9Q32.11,441.79,21,462c-5.6,10.1-13.7,19-16.5,30.6-.36,1.49-.58,2.19-.37,2.72a2.9,2.9,0,0,0,2.07,1.58,3.55,3.55,0,0,0,3.37-1.39,5.13,5.13,0,0,1,.13-2.91c2-4.6,4.3-9.2,6.7-13.7.5-.9,2-1.3,3-1.9.1,1.2.5,2.6.1,3.6-1.3,3.2-2.8,6.2-4.2,9.3-.5,1-1.4,2-1.4,2.9.2,2.3.9,4.6,1.3,6.9a32.91,32.91,0,0,0,3.6-5.3c2-4.4,3.6-9.1,5.7-13.6,1-2.2,1.8-4.9,5.5-4.3,4.6.7,5,3.8,4.8,7.4-.2,3.8-.7,7.7-.9,11.5,0,.8.9,1.6,1.3,2.5.7-.7,1.8-1.2,2-2,1.7-6,3.1-12.1,4.7-18.1,3.2-12.3,6.8-24.4,18.3-31.8,3.6-2.4,6.8-1.3,7.6,2.8.7,3.8.7,7.7,1.1,11.5a12.55,12.55,0,0,0,.7,2.6c.7-.5,1.6-.7,1.9-1.3,5.5-10.4,11.2-20.7,16.2-31.3,1.5-3.2,1.1-7.4.9-11,0-.9-2.7-2.1-4.3-2.3-2.1-.4-4.4-.1-6.6-.2-4.5-.1-5.2-1.3-2.8-5.4a79.62,79.62,0,0,1,7.1-10.1c8.2-10.1,17.4-19.6,24.8-30.3,6.1-8.7,10.6-18.6,14.9-28.3,3.4-7.7,5.7-16,8.1-24.1,2.6-9,4.2-18.2,7.2-27a75.8,75.8,0,0,1,8.3-16.6c7-11.1,14.5-22,21.8-33a7.22,7.22,0,0,0,1.4-2.4C170.76,234.14,170.56,233.94,164.66,231.84Z"/><path class="cls-1" d="M145.21,743.14c-.2-6.1-.8-12.1-.9-18.1,0-3.3-1.1-4.5-4.3-4.2-8,1-15.9,2-23.9,2.6-3.1.2-6.3-.3-6.9-4.6a134.41,134.41,0,0,0-3-15.4,7.52,7.52,0,0,0,0-1.5c-2-15-4.3-30-5.8-45.1-1-9.3-1-18.7-1.1-28-.2-11.1-.3-22.1,0-33.2q.75-37.35,2-74.7c.3-7.8,2-9.4,9.9-8.9,8.3.5,16.5,2.1,24.8,2.8,5.6.4,11.5-.8,16.8.5,4.3,1.1,5.9,0,6.9-3.4,4.8-16.1,12.6-30.9,20.6-45.5,8.4-15,17.5-29.8,26.5-44.5,8.7-14.3,17.1-28.8,24.6-43.8,10.2-20.5,17.2-42.2,25.5-63.4,4.5-11.7,8.7-23.6,6.3-36.6-1.6-8.6-3.1-17.3-5-25.9-2.3-9.8-6.1-19.1-14-25.6-6.4-5.3-13-10.4-22-12-8.7-1.6-17.1-5.7-26-5.6s-17.9,1.8-26.8,3c-.8.1-2.3,2.3-2,3,2.1,5.3,3.9,11,7.2,15.4,6.3,8.3,13.9,15.6,20.2,23.8,5.4,6.9,12.3,13.5,10.3,23.6-.6,3.6.4,8.2-4.4,10a52,52,0,0,1-9.2,3,91.13,91.13,0,0,0-33.7,12.9c-7.1,4.5-10.7,11.6-15.1,18.2-12.2,18.1-17.2,38.5-18.2,59.9-.6,11.1,1.2,22.4,1.7,33.6.1,2.5-1.1,5.1-.9,7.6,1.2,13.1,2.8,26.2,3.9,39.3.7,8.5.5,17.1,1.1,25.6.5,6.8-.3,8.7-6.9,9.9a116.75,116.75,0,0,1-15.6,2c-6.2.3-12.3,0-18.5.1-3.5,0-7.2.8-7.9,4.5-2.1,10.9-4.1,22-4.9,33.1-.6,6.6,1.2,13.4,1.7,20.1.8,9.7,1.5,19.5,2,29.2.8,14,1.4,28.1,2,42.1.4,7.1.7,14.1,1,21.1.7,15.9,1.5,31.8,2,47.7.2,7.8,0,15.7,0,23.5.1,8.9,5.5,18,12.5,19.5,7.7,1.6,15.5,2.2,23.3,3.1,6.8.8,14,.4,20.5,2.4C146.31,747.64,145.31,745.54,145.21,743.14Z"/><path id="Heresiarch_Mother-2" data-name="Heresiarch Mother" d="M449.66,803.84c2.7-.4,4.2-2.4,4.1-5.3s.5-5.7-3.2-7.9c-4.5-2.6-8.5-1.3-12.9-.8-8.7,1.1-17.5,1.7-26.2,3.1-13.7,2.3-19.4-3.1-22.4-14.2-1.7-6.1-1.2-12.8-1.2-19.2s.6-12.7.9-19.1c.5-8.2,1.9-9.9,10.1-11.5.2-.1.3,0,.5,0,6.8-1.7,12.3-4.9,13.4-12.6a104,104,0,0,0,1-11.1l2.1-65.1c.1-3,.9-6.1.6-9-1.1-11.7-2.5-23.3-3.6-35-.8-7.4-1.4-14.8-2.1-22.1-1.3-13.3-2.8-26.6-3.9-39.9-.6-7-.6-14-1.1-21.1-.5-7.6-2.4-10.7-7.4-11.1-13.1-1.1-26.2-2.3-39.3-2.9-4-.2-5.7-1.3-6.3-5.3-1.8-10.4-3.2-20.9-6.2-31-2.4-8.1-1.7-15,2.8-21.8,5.1-7.9,6.7-16.7,6.4-25.9-.3-6-1.8-12.1-1.9-18.1,0-13.9.4-27.8,1-41.6.7-15.3,2.4-30.5,2.8-45.8.5-17.7.4-35.4.1-53.1-.3-13.6-1-27.2-2.1-40.7a180,180,0,0,0-4-25.3c-2.1-9.9-8-17.2-18-20-7.2-2-14.7-4-22.1-4.3-12.5-.5-25.1.7-37.6.6a12.71,12.71,0,0,1-8.2-3.7c-2.6-2.8-.3-5.9,1.8-8.4.9-1.1,1.5-2.4,2.5-3.5a61.21,61.21,0,0,0,13.9-26.7c.4-2.1,2.2-4.8,4-5.4,11.7-4,23.5-7.5,35.4-11.1,1.3-.4,2.7-.7,4-1a18.59,18.59,0,0,1,.1,4.7c-1.5,6.7-3.4,13.3-4.8,20-.4,2-.7,4.8,3,5.4,3,.5,5.8,2.2,8.8,2.8,3.6.7,6.7,0,7.4-4.5.9-6.1,2.2-12.2,2.9-18.3,1.2-10.2-1.8-19.9-3.7-29.9-3-15-8-29.3-16-41.9-7-11.2-16.9-20.8-26.1-30.6-10.9-11.5-25.6-13.5-40.4-14.6-4.1-.3-8.4,1.2-12.6,1.8-12.7,1.8-24.2,6.9-35,13.5-14.5,8.7-24.7,21.8-34.2,35.5s-11.1,29.7-12.9,45.6c-1.2,10.4,1,20.6,3,30.7,2.2,11,6.3,13.1,17.4,11.9,5.6-.6,5.1-2.7,3.6-6.6-2.3-6.1-4.3-12.2-6.3-18.4a24.22,24.22,0,0,1-.7-4.7c1.7-.1,3.6-.7,5.2-.4,5.4,1.2,10.6,2.6,15.9,4,6.6,1.6,8.4,3.9,8.9,10.8a12.76,12.76,0,0,0,.6,3.3c2.1,8.1,7.4,14.1,13,20.1a28.2,28.2,0,0,1,4.9,7.9c1.5,3.4-.3,6.2-3.6,6.7-4.1.6-8.7,1.1-12.5-.1-14.7-4.6-29.6-6.8-44.8-5.6-10.5.8-20.1,3.8-28.2,11.6-10.2,9.9-14.4,22.7-19.3,35.1-3.7,9.5-5.8,19.6-8.9,29.3-3.6,11.7-7.9,23.1-11.2,34.9-4.2,15.1-7,30.7-11.6,45.7-3.8,12.7-9.1,24.9-13.9,37.2-5.3,13.5-10.5,27-16.4,40.2-3.8,8.5-8.6,16.5-13.4,24.5-6,9.9-12.7,19.3-18.7,29.2-5.1,8.5-9.4,17.5-14.5,26-4.7,7.7-9.8,15.1-12,24.1-.65,2.51-.41,4.36.65,5.37,1.47,1.38,4,.72,4.35.63a6.85,6.85,0,0,0,4.21-4.08c.6,2.88,2.57,6.29,4.39,6.78,3.9,1,5.5-1.9,6.8-4.8,2.4-5.5,4.7-11,7.1-16.5a8.73,8.73,0,0,1,2-2.3,10.14,10.14,0,0,1,.9,2.8c-.2,4.1-1.3,8.2-.7,12.1.3,2.8,2.7,5.4,4.2,8.1,1.9-1.4,4.7-2.4,5.4-4.2a131.86,131.86,0,0,0,6-19.4c2.1-9.9,5.7-18.9,12.6-26.3,1.5-1.6,3.5-2.7,5.2-4,.5,2.3,1,4.6,1.3,7,.2,1.3-.3,2.8.1,3.9,1,2.4,2.4,4.7,3.6,7,2.1-1.3,4.9-2,6.2-3.9,3.8-5.4,6.9-11.4,10.6-17,5-7.8,8.2-16,7.5-25.4-.2-3.6-1.2-6.3-5.7-5.8a35.28,35.28,0,0,1-6.5,0,12.82,12.82,0,0,1-2.7-.5,11.57,11.57,0,0,1,1.4-2.4c5.8-6.9,12.1-13.5,17.6-20.7,6.6-8.6,13.3-17.4,18.7-26.7,4.5-7.7,7.5-16.3,10.6-24.6,3.8-10.1,7.4-20.3,10.6-30.6,1.8-5.5,1.7-11.8,4.2-16.8,4.9-9.7,11-18.8,16.8-28,4.5-7.4,9.4-14.5,14-21.8a33.22,33.22,0,0,0,2.2-5.5c1.3,1.4,2.7,2.7,3.9,4.2,6.7,8.4,13.5,16.8,20.2,25.2,4.3,5.4,3.5,11.7,1.4,17.3-.8,2.1-5.7,2.9-8.9,3.9-3,.9-6.1,1.2-9.1,2.1-13,3.9-26.4,8.3-34.9,19.2a118.33,118.33,0,0,0-19.6,36.8,188.51,188.51,0,0,0-8.2,51.6c-.1,5.4-1.2,10.8-.8,16.2s2.1,10.8,2.8,16.3c1.5,11.6,2.8,23.2,4,34.8.8,8.1,1.4,16.1,2,24.2.3,3.7-1.7,6.1-5.2,6.8a61.23,61.23,0,0,1-10.5,1c-8.9.4-17.8.8-26.6,1-3.6.1-5.7,1.8-6.6,5a74.75,74.75,0,0,0-2.8,10.3c-1.2,8.4-3.1,16.9-3,25.4,0,11.1,1.9,22.2,2.7,33.4.8,10.7,1.5,21.4,2,32.2.5,11.5.7,23,1.1,34.5.2,5.7.6,11.4.9,17.1.7,12.9,1.6,25.8,2,38.7.3,10.7,0,21.3,0,32,0,7.7,9.3,18.4,16.9,19.5,14.5,2,29,3.9,43.5,6.1,1.3.2,3.2,2,3.3,3.2.2,2.2-.8,4.5-1.3,6.7-1.3,6.3-6.3,9.9-10.2,14.3-8.1,9.6-16,19.4-24.1,29-2,2.4-4.9,4.2-6.6,6.8-5.6,8.7-13.4,15-21.7,20.9-3.2,2.3-6.5,5-8.6,8.2-2.3,3.6-.3,7.7,2.3,10.5s6.4,2.6,9.4.8c3.2-2,3.5-.8,3.1,2-.5,4.2,2.1,5.6,5.5,5.3,3-.2,5.7-1.4,6.6-4.9.3-1.1,1.6-2.9,2.3-2.8a3,3,0,0,0,2-.3,6.77,6.77,0,0,1,1,1.94,6.43,6.43,0,0,1,.17.66c1.1,2.2,2,6,3.5,6.2a13,13,0,0,0,9-2c4.9-3.4,7.6-8.5,9.6-14.3,2.6-7.5,6.7-14.3,15-17.1,4.1-1.3,8.3-2.6,12.3-4.3a76.33,76.33,0,0,0,8.9-4.8c8.3-4.9,17.2-9,23.7-16.6,5.1-6,9.4-15.4,2.9-23.8-8.2-10.5-7.5-23.2-8.9-35.3-.6-5,.1-10.2-.4-15.2-.9-8.5-3.1-16.9-3.5-25.5-.3-8.1.8-16.4,1.9-24.6,1.7-12,3.9-24,6-36,.7-4.1,1.9-8.2,3-12.2.3-1.1,1.3-2,1.9-2.9a10.69,10.69,0,0,1,1,3.2c-.2,6.1-.8,12.1-.9,18.1-.2,6.2.3,12.4-.1,18.5-1.1,13.6-2.9,27.2-3.8,40.9-.5,6.1.8,12.3.8,18.5-.1,9.7-1.3,19.5-.8,29.1.5,8.3,2.7,16.3,10.9,21.5,4,2.5,7.4,6.2,7,12-.1,2,1.3,4.1,1.5,6.3.9,8,3.5,16.3,2,23.9a71.49,71.49,0,0,0,.6,31.9c3.1,12.2,11.5,17.4,23.6,17,2.3-.06,4.81-2.46,6.21-5.12a17.2,17.2,0,0,0,3.74,4.62,22.32,22.32,0,0,0,8,3.3c.6.1,2-3.1,2.8-4.9a35.94,35.94,0,0,0,1.2-3.5c.7.8,1.2,1.9,2.1,2.4,1.8.9,3.7,1.9,5.6,2,.6.1,1.8-2.5,2-4a18.84,18.84,0,0,0,.1-7.1,236.21,236.21,0,0,0-15.9-47.9c-4.5-9.8-10.2-19.1-14.6-29-2.9-6.4-4.4-13.5-6.4-20.3-.8-2.7.3-3.6,3.3-3.5,11.7.5,23.4.9,35.1,1,4.2,0,5.3,2.1,5.5,5.4.4,5.4.6,10.8,1.1,16.1,1.2,14.8,2.8,29.6,3.9,44.4.8,12,2.1,24,6.1,35.5.7,1.7,2.3,4.1,3.8,4.4,1.8.3,4.9-.7,5.8-2.2a24.62,24.62,0,0,0,3-6.38,12.82,12.82,0,0,0,2.94,2.58c1.2.75,2.22,1.34,3.3,1.1.9-.2,1.7-1.6,2.1-2.7.7-2.4.9-4.9,1.7-7.3.7-2.2.9-2.1,2.4-.3,3.4,4.3,9.8,5.5,12.6,2.1,1.8-2.1,3.7-4.6,4.2-7.2,2.5-12,1.3-24-1.9-35.8-1.8-6.4-5.5-10.8-13.1-9.8-.9.2-2.8-1.3-2.7-1.9.4-2.9.4-6.7,2.2-8.4,5.9-5.8,9.7-12.9,13.6-19.9,1.9-3.4,3.8-7.7,6.9-9.3,3.5-1.8,8.2-1.1,12.4-1.3.6,0,1.7,1,1.7,1.5-.4,9.5-.6,19-1.5,28.4-.7,6.6-3.2,13.1-3.2,19.6.1,5.2,3,10.3,4.3,15.6,3.1,12.1,11.6,16.9,23.1,16.7,16.3-.2,32.5-1.2,48.7-1.9a8.45,8.45,0,0,0,1.7-.5c8.7-2.5,17.2-5.9,26-7.2,9-1.4,4.3-9.8,8.4-13.5.8-.7.2-3,.2-4.6,0-.2-.4-.4-.7-.7C447.16,804.84,447.06,804.14,449.66,803.84ZM386,655.34c-2.2-13.9-6.4-27.6-10.1-41.2-5.3-19.6-11.2-39-16.4-58.7-1.5-5.6-1.4-11.7-2.3-17.5-1-6.1-2.1-12.1-3.6-18.1-.9-3.6-.7-5.4,3.8-5,6.8.6,13.7,1,20.5,1,5,0,3.8,4.4,4.1,6.3,1.8,13.3,2.9,26.8,4.2,40.3.7,6.3,1.4,11.7,2,17.1,1.4,10.5,2.9,20.9,4,31.4.7,6.6.7,13.3,1,20,.7,13.8,1.2,27.5,2.1,41.2.6,8.4,2,16.8,2.9,25.2.5,5.3-4.3,4.7-7,5.4-3.8.8-1.7-2.8-1.9-4.2C388.21,684.14,388.21,669.64,386,655.34Zm-38.7-169.2c.9,4.2,3.1,8.2,3.8,12.4.7,3.7,2.9,4.2,5.7,4.3,8.9.4,17.8.6,26.6,1.1a65.23,65.23,0,0,1,14.6,2.2c1.9.6,3.9,3.9,4.1,6.2.7,10.1.4,20.4,1.3,30.5.8,9.7,2.6,19.2,3.8,28.9.8,6.7,1.3,13.4,2,20.1,1.4,12.8,2.9,25.6,3.9,38.4.4,3.8-.7,7.7-.8,11.5-.8,17.4-1.4,34.8-2.1,52.2-.2,6.7-.5,13.4-1,20.1-.4,5.7-3.3,9.2-9.1,10.5a90,90,0,0,0-8.8,2.8c-.4-2.8-.7-5.6-1.1-8.4-.1-.8-.8-1.4-.9-2.1-1.3-6.7,0-9,6.5-10.9,4.7-1.4,7-4,6.5-9.1-1.5-13.1-2.9-26.2-4-39.4-.7-8.8-.4-17.7-1.1-26.5-1-11.3-2.6-22.6-4-33.9-.3-2.8-.7-5.7-.9-8.6-.4-5.3-.7-10.7-1.1-16-1.3-10.8-2.7-20.6-3.9-30.4-.6-5-.7-10-1.1-15.1-.2-3.5-.5-7-1-10.5-.4-3.1-2.3-4.5-5.4-4.6-8.4-.2-16.7-.7-25.1-.9-2.4,0-3.7-.6-4.5-3-3.1-8.7-5.8-17.5-9.6-26-6.2-14.1-13-27.9-19.7-41.8-6.1-12.8-12.3-25.6-18.7-38.2-5-9.8-10.5-19.3-15.5-29.1-4.4-8.8-8.5-17.8-12.7-26.7a9.71,9.71,0,0,1-.7-3.7c-.1-4.5.2-9.1-.1-13.5-.9-13.1-2.3-26.2-2.8-39.3-.1-4.2,2.2-8.4,2.8-12.7.8-6,1.8-12.2,1.2-18.1-.7-8.2,1.3-14.6,6.3-21.2,10.1-13.2,25.2-16.9,39.3-22.4,4.9-2,11.3-.6,17-.1.9.1,2.4,3.3,2.1,4.9-2.1,11.6-3.9,23.3-9.9,33.9-4,7.1-7.1,15.1-12.3,21.2-4.4,5.3-11.3,8.5-17,12.8-1.4,1-3.3,2.4-3.5,3.8-.7,4.9-.7,10-1.2,15-.3,3.5,1.4,5.6,4.4,6,14,1.9,21,12.3,27.6,23,7.1,11.6,8.8,25.1,11.9,38a98.39,98.39,0,0,1,2.1,18.1c.5,14.9.8,29.7,1,44.6,0,4.4-1,8.8-.9,13.2a105.18,105.18,0,0,0,2,13.7C344.51,470.94,345.71,478.64,347.31,486.14Zm-92.7,33.3c.7,3.3-.3,2.4-1.9,2.4-5.7.1-11.4.3-17-.1-1.2-.1-3.3-2.1-3.3-3.3,0-14.2-3.3-28-4.9-41.9-1.4-12.3-.5-24.8-.2-37.2.3-9,.6-18.2,2.1-27.1,2.3-14.1,4.5-28.3,10.4-41.6,4.8-10.7,8.4-21.9,12.4-32.9,3.4-9.1,6.7-18.2,10-27.3,1.4-4.4,2.1-8.2,3.1-12a35.18,35.18,0,0,1,1.8-4.5c.7,1.5,2,3.1,2,4.7.2,15.2.1,30.4.1,45.6,0,.5-.2,1.2.1,1.5,5.9,7.4.5,14.8-.3,22-1.1,9.8-3.7,19.4-5.8,29.1-2.2,10.2-4.7,20.3-6.9,30.6a119,119,0,0,0-3,17.7c-.9,15.6-1.9,31.1-1.9,46.7A142.43,142.43,0,0,0,254.61,519.44Zm-32.05-54.3c.2,2.3,1.5,5-2.5,6a1.61,1.61,0,0,0,.12.39c-8.3-10.21-14.66-13.14-18.22-12.39s-6.25,4.07-16.5,8.5c-1,.43-1.83.77-2.4,1,.1-.9-.2-2,.2-2.6,1.4-2.3,3.2-4.4,4.5-6.7,10.7-17.5,21.5-35.1,32-52.8,2.4-4,3.9-8.7,5.9-13a11.31,11.31,0,0,1,2.3-2.6,14.27,14.27,0,0,1,.8,3.9c-.4,2.4-1.4,4.8-2,7.2-1,4.2-2.6,8.4-2.9,12.7-.9,15.6-1.4,31.1-2,46.7C221.76,462.64,222.36,463.84,222.56,465.14Zm38.3-45.6c2.3-10.8,5.5-21.4,7.9-32.2,2-9.6,3.3-19.3,5.1-28.9.2-1,1.2-1.7,1.8-2.5a21.16,21.16,0,0,1,1.1,2.1c2,5.4,3.5,11,6.1,16,5,9.6,10.6,19,15.9,28.5.6,1.1.6,2.6.9,4a29.17,29.17,0,0,0-3.1-1.4,17.39,17.39,0,0,0-5-1.2c-12.4.1-28.7,9.3-31.8,24.3,0,.17-.12.44-.22.75A87.32,87.32,0,0,1,260.86,419.54Zm38.85-119.7c-1.7-10,8.1-10.5,12.6-15.4.1-.1,1.9.7,1.8,1.1-.2,5.7-.7,11.3-.8,17a46.11,46.11,0,0,0,1,9.1,23.9,23.9,0,0,0,2.06,4.92c-4.07-2.69-9.05-4.37-13.46-6.62-2.1-1.2-4.5-2-3.7-5.3A11.28,11.28,0,0,0,299.71,299.84Zm55.4-1.6c-.5,15.4-1,30.9-3.1,46.2-2.3,16.8-1.6,33.5-1.6,50.2-.1,8.2,1.7,16.5,1.7,24.7-.1,5.9-1.8,11.8-2.9,17.7-.2.7-1.3,1.2-2,1.9-.6-1-1.6-1.9-1.6-2.8-.2-15.5.7-31-.7-46.3a229.5,229.5,0,0,0-7.9-41.1,64.44,64.44,0,0,0-17.8-30,20.51,20.51,0,0,0-2.32-1.83,31.26,31.26,0,0,0,1.32-6.07c.1-6.1.6-12.4-.1-18.5-1-8.6,2.1-15.6,7.2-22a27.18,27.18,0,0,1,2.4-2.4c8.5-.4,16.5-.3,24.4.1.8,0,2,2,2,3.1C354.61,280.14,355.41,289.24,355.11,298.24Zm-171.4-163.3a5.93,5.93,0,0,1-1.1,1.9c-2.2-.7-5.3-1.1-6.2-2.6-2-3.4-3-7.4-4.1-11.3-1.2-3.7-2.7-7.4-2.9-11.2-.5-7.7-1-15.5,0-23.1,1.2-8.9,3-18,6.3-26.4,3.1-7.5,7.9-14.5,13-21,7-9.2,15-17.4,25.1-23.4a112.46,112.46,0,0,1,34.6-13.1c11.5-2.4,22.8-.6,33.2,2.7,7.7,2.4,14.1,9.4,20.5,15.1,4.5,3.9,7.6,9.2,11.8,13.4,10.1,10.1,15.4,22.8,19.7,35.9,4.5,13.7,8.3,27.7,7.5,42.3-.3,5.9-1.9,11.8-3.3,17.6-.8,3.3-7.1,4.6-9.7,2.1-.4-.4-.1-1.7.2-2.6a92.23,92.23,0,0,0,5-30.9,65.12,65.12,0,0,0-9.1-31.7c-9.4-16.2-21.5-30.6-34.2-44.3-9-9.7-20.2-13.8-34-12.9-26.3,1.6-45.2,14.6-60,35.2-.5.6-1.2,1.2-1.8,1.8-5.2,7.9-10.2,15.3-12.1,24.1-2.7,12.7-7.5,25.3-5.7,38.5C177.61,119.24,178,127.94,183.71,134.94Zm26.5-28.4c-.4,1.7-.5,3.4-3.6,2.5-7.3-2.2-14.8-3.7-22.2-5.5-5.4-1.3-3.4-5.7-3-8.5,1.2-8.3,2.2-17,5.3-24.7,3.6-8.7,8.9-16.8,14.3-24.5a78,78,0,0,1,23.4-21.6,6.11,6.11,0,0,1,1.3-.3c15.2-7.8,30.2-12.1,46.6-7.1,8.2,2.5,13.8,8.5,18.9,14.7,9.6,11.8,18.7,24.1,27.5,36.5,6.1,8.4,8.6,18.3,9.5,28.5.3,3-.9,4.5-4,5.5-11.1,3.5-21.9,7.5-32.8,11.2-4.8,1.6-5.4.8-6.2-3.8-2.8-15.5-10-28.3-24-36.5a10.66,10.66,0,0,0-4.9-1.4c-8.7-.2-17.7-3.5-25.9.5-8.6,4.2-14.4,11.4-17.1,20.8C212,97.34,211.31,101.94,210.21,106.54Zm-90.1,112.3c4.3-16.1,9.5-32,19.6-45.3,5.1-6.8,13.4-10.8,22.5-12.8,15.5-3.4,30.3-1,45.3,2.8,6.7,1.7,13.5,4,20.6,1.4,5.1-1.9,7.1-5.4,5-10.6-1.3-3.3-2.9-6.8-5.3-9.2-7.9-7.5-13.2-16.2-14.1-27.2-2-12.4,1.5-23.1,7.6-32.8,4.1-6.5,9.7-11.3,18.4-10.3a41.78,41.78,0,0,0,10.6,0c8.1-1.2,13.9,3.4,18.4,8.4,6.3,7,10.9,15.1,12.6,24.7,2.9,16.7-4.8,29.6-14.4,41.8-2.7,3.4-4.9,6.7-4.8,11.6,0,5.3,3.3,8,7.2,8.3,8.3.8,16.8.4,25.1.2,5.5-.1,11.1-1.3,16.5-.8,6.5.6,12.9,2.5,19.3,3.9,11.4,2.3,16.5,10.2,19.1,20.7,2.9,11.7,3.7,23.5,4,35.4.2,10.2.5,20.4,1,30.6.1,3.1-.8,4.6-4.2,4.3-5.7-.5-11.4-1-17.1-1-3.2.1-3-.9-1.8-3.1,6.9-12.9,10.3-26.9,11.4-41.2.6-7.6-2-15.5-3.4-23.2-.2-1.3-1.6-2.3-2.4-3.5a15.09,15.09,0,0,0-.5,4.2c.8,4.4,2,8.8,2.9,13.2.2,1,.7,1.7-1.8,1.9-8.5.6-17.1-4.1-25.5,1.3-6.5,4.2-13.8,7-20.5,10.9-2.9,1.7-4.6,1.2-6.3-1.2-6-8.4-8.4-17.4-6.1-27.8.5-2.3-1-5-1.5-7.5-1.1,2.2-3,4.4-3.1,6.7-.9,11.2-.6,22.2,7.5,31.3,2,2.2,1.1,3.3-.3,5.3-4,5.5-9.7,10.1-10.7,17.5a57.67,57.67,0,0,0-.1,7.2c-.2,7.3-.3,14.6-.6,21.9-.1.7-1.2,1.4-1.8,2.1-.7-1.1-1.9-2.1-2.1-3.3-.5-3.6-.3-7.4-1.2-11-1.6-6.9-4.1-13.6-5.8-20.6-.7-3.3-1.2-7.1-.3-10.2,2.8-10.2,6.5-20.1,5.2-30.8a41.32,41.32,0,0,0-1.4-7c-.2-.8-1.3-1.4-1.9-2.1-.6.9-1.6,1.8-1.6,2.7.1,2.2.7,4.4.9,6.6a36.93,36.93,0,0,1-3.3,19.6c-1.1,2.4-1.8,4.9-2.7,7.4-.2.6-.7,1.5-1.1,1.6a2,2,0,0,1-1.8-.9c-3.4-8-10.7-11.7-17.3-16.1-1.8-1.2-3.1-3.3-4.4-5.1a16.73,16.73,0,0,0-20.7-5.9,21,21,0,0,1-8.1,2c-11.1-.1-22.2-.5-33,2.8-.4.1-2.3-2.9-2.5-4.5-1.1-11.6,3.4-21.6,9.3-31.1a11.81,11.81,0,0,0,1.6-2.9c.2-.6-.3-1.5-.5-2.2a7.5,7.5,0,0,0-2,1c-6.7,6.3-9.4,14.7-11.4,23.3-2.8,12.3-.4,23.8,6.9,34.3.4.6.1,1.8.2,2.7a8.52,8.52,0,0,1-2.3-.4c-10.2-4.2-20.6-7.5-31.7-7.9-4.6-.2-9.2-.1-13.8,0C119.71,220.94,119.61,220.94,120.11,218.84Zm105.6-5.9c-4.6-1.4-8.8-2.1-12.9-3.1a5.34,5.34,0,0,1-2.5-1.8,3.82,3.82,0,0,1,1.2-1.9c3.2-1.9,12.7.8,14.5,4.1C226.31,210.94,225.81,212,225.71,212.94Zm-57.25,26.7a7.22,7.22,0,0,1-1.4,2.4c-7.3,11-14.8,21.9-21.8,33a75.8,75.8,0,0,0-8.3,16.6c-3,8.8-4.6,18-7.2,27-2.4,8.1-4.7,16.4-8.1,24.1-4.3,9.7-8.8,19.6-14.9,28.3-7.4,10.7-16.6,20.2-24.8,30.3a79.62,79.62,0,0,0-7.1,10.1c-2.4,4.1-1.7,5.3,2.8,5.4,2.2.1,4.5-.2,6.6.2,1.6.2,4.3,1.4,4.3,2.3.2,3.6.6,7.8-.9,11-5,10.6-10.7,20.9-16.2,31.3-.3.6-1.2.8-1.9,1.3a12.55,12.55,0,0,1-.7-2.6c-.4-3.8-.4-7.7-1.1-11.5-.8-4.1-4-5.2-7.6-2.8-11.5,7.4-15.1,19.5-18.3,31.8-1.6,6-3,12.1-4.7,18.1-.2.8-1.3,1.3-2,2-.4-.9-1.3-1.7-1.3-2.5.2-3.8.7-7.7.9-11.5.2-3.6-.2-6.7-4.8-7.4-3.7-.6-4.5,2.1-5.5,4.3-2.1,4.5-3.7,9.2-5.7,13.6a32.91,32.91,0,0,1-3.6,5.3c-.4-2.3-1.1-4.6-1.3-6.9,0-.9.9-1.9,1.4-2.9,1.4-3.1,2.9-6.1,4.2-9.3.4-1,0-2.4-.1-3.6-1,.6-2.5,1-3,1.9-2.4,4.5-4.7,9.1-6.7,13.7a5.13,5.13,0,0,0-.13,2.91,3.55,3.55,0,0,1-3.37,1.39,2.9,2.9,0,0,1-2.07-1.58c-.21-.53,0-1.23.37-2.72C7.26,481,15.36,472.14,21,462q11.1-20.25,23.9-39.6a268.66,268.66,0,0,0,24.6-46.9c5-12.2,8.5-25.1,13.7-37.3,6.3-14.8,11-30.1,15.6-45.5,6-20.4,11.3-41,17.2-61.4,2-7.1,2.9-7.3,10.5-7.5,13.4-.2,25.8,3.7,38.2,8C170.56,233.94,170.76,234.14,168.46,239.64Zm-47.15,169.8c0-.1.4-.3.6-.4l.3,2.4C121.91,411.44,121.61,410.44,121.31,409.44Zm20.2,336.8c-6.5-2-13.7-1.6-20.5-2.4-7.8-.9-15.6-1.5-23.3-3.1-7-1.5-12.4-10.6-12.5-19.5,0-7.8.2-15.7,0-23.5-.5-15.9-1.3-31.8-2-47.7-.3-7-.6-14-1-21.1-.6-14-1.2-28.1-2-42.1-.5-9.7-1.2-19.5-2-29.2-.5-6.7-2.3-13.5-1.7-20.1.8-11.1,2.8-22.2,4.9-33.1.7-3.7,4.4-4.5,7.9-4.5,6.2-.1,12.3.2,18.5-.1a116.75,116.75,0,0,0,15.6-2c6.6-1.2,7.4-3.1,6.9-9.9-.6-8.5-.4-17.1-1.1-25.6-1.1-13.1-2.7-26.2-3.9-39.3-.2-2.5,1-5.1.9-7.6-.5-11.2-2.3-22.5-1.7-33.6,1-21.4,6-41.8,18.2-59.9,4.4-6.6,8-13.7,15.1-18.2a91.13,91.13,0,0,1,33.7-12.9,52,52,0,0,0,9.2-3c4.8-1.8,3.8-6.4,4.4-10,2-10.1-4.9-16.7-10.3-23.6-6.3-8.2-13.9-15.5-20.2-23.8-3.3-4.4-5.1-10.1-7.2-15.4-.3-.7,1.2-2.9,2-3,8.9-1.2,17.8-2.8,26.8-3s17.3,4,26,5.6c9,1.6,15.6,6.7,22,12,7.9,6.5,11.7,15.8,14,25.6,1.9,8.6,3.4,17.3,5,25.9,2.4,13-1.8,24.9-6.3,36.6-8.3,21.2-15.3,42.9-25.5,63.4-7.5,15-15.9,29.5-24.6,43.8-9,14.7-18.1,29.5-26.5,44.5-8,14.6-15.8,29.4-20.6,45.5-1,3.4-2.6,4.5-6.9,3.4-5.3-1.3-11.2-.1-16.8-.5-8.3-.7-16.5-2.3-24.8-2.8-7.9-.5-9.6,1.1-9.9,8.9q-1.2,37.35-2,74.7c-.3,11.1-.2,22.1,0,33.2.1,9.3.1,18.7,1.1,28,1.5,15.1,3.8,30.1,5.8,45.1a7.52,7.52,0,0,1,0,1.5,134.41,134.41,0,0,1,3,15.4c.6,4.3,3.8,4.8,6.9,4.6,8-.6,15.9-1.6,23.9-2.6,3.2-.3,4.3.9,4.3,4.2.1,6,.7,12,.9,18.1C145.31,745.54,146.31,747.64,141.51,746.24Zm1.8-34.3c.2,4-1.1,5-5,5.1a162.16,162.16,0,0,0-19.7,1.9c-4.5.7-5.8-1.9-6.3-5.2-2.1-14.4-4-29-6.1-43.5-5-35.4-2.4-71.1-2.9-106.7-.1-11.8.5-23.5,1-35.3a35,35,0,0,1,2.1-10.1c.4-1.1,3.2-2.5,4.5-2.1,10.6,3.1,21.4,2.9,32.3,2.9a57.79,57.79,0,0,1,11,1.1c.9.2,2.2,2.6,1.9,3.6-1.8,8.4-4.2,16.6-6,25a113.37,113.37,0,0,0-2.8,17.3c-.6,10.7-.6,21.4-1.1,32.1-.5,12.6-1.3,25.1-2,37.7-.6,12.9-1.3,25.8-2,38.7C142.61,687.54,142.81,699.84,143.31,711.94ZM226.66,774c7.9,18.5,19.9,35.2,25,55.1,2.2,8.9,4.9,17.6,7.3,26.5.3,1.2-.3,2.7-.5,4.1a15.72,15.72,0,0,1-2.6-1.9c-1.7-1.6-3.3-3.3-5.1-5a22.26,22.26,0,0,0-2.4-1.9,8.57,8.57,0,0,0-.5,2.7c.2,3.2.7,6.4.9,9.6,0,.8-.8,1.6-1.2,2.4a9.58,9.58,0,0,1-1.7-1.8c-.5-.8-.6-1.8-1.1-2.6a7.57,7.57,0,0,0-2-2.3c-.39,1-1,2.07-2,2.3-1.16.28-2.34-.71-3.12-1.4.77-1.81,1-3.63.17-4.8a78,78,0,0,0-5.9-7,7.81,7.81,0,0,0-2-1.1,5,5,0,0,0-.6,2.6c.4,1.3,1.3,2.5,1.8,3.8a29.65,29.65,0,0,1,2,6.6c.1.9-1.5,2-2.3,3-.5-.9-1-1.8-1.6-2.7-.6-1.1-1.1-2.5-2.1-3.2-.5-.4-2.5.2-2.8.8-.61,1.39-1.3,2-2,2.2-1.49.38-3.5-1.27-4.09-1.8-4.19-3.77-6.73-11.39-7.7-14.6a62.17,62.17,0,0,1-1.2-11.8c0-7.06,1.17-10.33,1.9-15.7,1.95-14.3-2.33-25.72-3-29.2-1.2-6.2-2.8-12.1-9-15.7-8.1-4.7-10-12.6-10-21.3.1-10.7-.1-21.4.1-32.1.1-9.4.5-18.8,1-28.1.4-7.9,1.6-15.8,1.9-23.7.3-11.7.1-23.4,0-35.2-.1-4.5-1-9-.9-13.5.2-4.3,1.5-8.5,1.9-12.7,1.1-13.7,1.7-27.5,3.1-41.2,1-9,2.8-17.8,4.6-26.6,1.5-7,3.7-13.8,5.2-20.8.3-1.2-1-2.8-1.6-4.1-.7,1-1.8,1.9-2.2,3.1-1.1,3.4-2,6.8-3,10.3a274.32,274.32,0,0,0-9,51.7c-.8,8.5-.8,17.2-2.2,25.6-2.1,12.8-5.2,25.5-7.9,38.2-1.3,6.6-2.9,13.2-3.9,19.9-1,6.1-.7,12.6-2.2,18.6-3.1,11.9-2.3,24-.6,35.7,1.9,12.1,3.7,24.1,3.9,36.4a57.7,57.7,0,0,0,8.9,29.3,12.6,12.6,0,0,1,1.4,8.9c-.9,3.2-3.4,6-5.5,8.7-5.4,7-13.3,10.7-20.8,14.8-5.6,3.1-11.1,7.8-16.9,8.3-9.6.8-13.8,6.7-18.6,13.2-4.7,6.3-4.9,15.1-11.7,20.2a21.83,21.83,0,0,0-2.2,2.1c-.6-1.1-1.7-2.1-1.7-3.2,0-1.93,0-3.47-.71-3.77s-1.39,1.53-3,1.87a4.24,4.24,0,0,1-3.36-1.18c.73-.62.55-1.84.61-3,0-1.9.3-3.8.4-5.8,0-.4-.1-1.1-.4-1.3a1.4,1.4,0,0,0-1.4.2c-1.6,2.5-3.1,5.1-4.7,7.5a66.31,66.31,0,0,1-4.9,6.9c-.3.4-1.7-.2-2.7-.3a5.42,5.42,0,0,0,1-1.8,25.92,25.92,0,0,0,.4-4.8c-.1-1.6-.7-3.1-.7-4.7-.1-2.2.1-4.4.2-6.6-1.4,1.9-3.7,3.6-4.1,5.8-.8,4.3-4.1,5-7.1,6-1.1.4-2.7-1-4.1-1.6a34,34,0,0,1,2.3-3c1.4-1.3,4.4-2.4,4.3-3.5-.4-6.5,5.4-8,8.7-11.4,2.8-2.9,6.4-5.2,9-8.3,12.9-14.9,25-30.5,38.4-44.9,9.5-10.2,11.1-21.8,10.5-34.4-.4-9-1.3-18-1.8-26.9-.5-7.2-1.3-14.5-1.3-21.7-.2-24.4-.4-48.9,2.8-73.2,1.4-11,.7-22.2,1.2-33.3.4-9.2.6-18.5,2.1-27.6,2.3-13.6,5.3-27.1,8.9-40.3,2-7.7,6.2-14.8,8.9-22.3,4.4-12.3,10.4-23.1,22.5-29.5,5.76-3,11.06-4.86,16.06-3.53,1.47.4,2.89,2.16,7.94,5.43,1.3.84,3.17,2.53,4.15,3.26a2.58,2.58,0,0,1,.35.64c2.4,10.5,5.1,20.8,6.9,31.3a83,83,0,0,1,.9,20.5c-1,10.3-3.2,20.4-4.8,30.5-1.1,7.2-2.4,14.4-3.1,21.7-1.2,11.8-2.4,23.7-2.7,35.5-.2,8.3,1.5,16.6,1.7,24.9.2,7.3-.8,14.7-.8,22,0,5.7.9,11.4.9,17.1,0,6.1-.9,12.1-.9,18.1,0,7.9.7,15.7.9,23.6.4,11.5.1,23.1,1.3,34.6A74,74,0,0,0,226.66,774Zm38.6-24a150.59,150.59,0,0,0-21.2-2,70.13,70.13,0,0,0-13.7.9c-4.7.7-6.5-.6-6.6-5.4v-1c0-4-1.5-9.2.5-11.6,1.6-2,7.3-.8,11.2-1.1,8.7-.6,17.4-1.2,26.1-2.1,1.2-.1,2.2-1.6,3.2-2.5a19.89,19.89,0,0,0-3.4-1.3c-11.3-2.7-22.1,2.8-33.4,2.1-3.3-.2-4.3-.6-4.3-4.2.1-8.6-.7-17.1-.8-25.6,0-4.7.9-9.4.9-14.1-.1-8-.8-16.1-.9-24.1,0-5.3.9-10.7.9-16.1-.1-6.8-.6-13.7-1-20.5-.3-5.1-1-9.1-.9-13.1.3-5.1,1.4-10.1,1.9-15.2.5-5.9.4-11.9,1.1-17.7,1.4-11.2,3.3-22.3,4.9-33.5.7-4.5,1.7-9.1,1.9-13.6.2-2.6,1.2-2.5,3-2.5a142.19,142.19,0,0,0,16-.1c3.4-.3,4.6,1.5,5.1,3.9,2.4,13.2,5.2,26.3,6.9,39.6,1.6,12.9,2.4,25.8,3.1,38.8.9,16.3,1.9,32.7,1.9,49.1-.1,19.4-1.6,38.8-1.7,58.2,0,10.2,1.9,20.5,2.8,30.7C269,748.34,269.86,750.94,265.26,750Zm58.35-32.1c-2.9-4.2-7.1-6.3-13-4.2-3.6,1.3-5.1-2.4-5.3-5.3-.8-12.3-1.7-24.5.7-36.8,1.3-6.8.1-14.1.3-21.2.1-3.3.6-6.7.9-10,1.1-9.1,1.7-17.3,3.4-25.2,1.1-5,5.9-4.2,9.1-2.4,5.9,3.2,8,8.8,9.5,14.5,2.7,10.7,3.2,21.7,3.2,32.8,0,6.7,1.8,13.5,2.8,20.2l3,19.8c.7,4.5,1.4,9.1,2,13.6.5,3.2,0,5.6-3.7,6.2-1.4.2-2.7.9-4.1.9C329.21,720.84,326.11,721.64,323.61,717.94Zm17.6,30.5a33.35,33.35,0,0,1-9.9.3c-1.1-.2-2.6-2.3-2.7-3.6a143.8,143.8,0,0,1-.2-14.7c0-2.4-2-6.4,3.5-5.6.9.1,2-.8,3-.9,6.3-.8,7.5.2,7.3,6.5C342,736.44,341.61,742.44,341.21,748.44Zm101.65,58.9a27,27,0,0,0,3.9,2.7,42.28,42.28,0,0,0-4.8,2.3c-1.1.6-3.6.8-1.2,3.1,4.3,4.1,1.8,5.2-2.6,5.5a18.15,18.15,0,0,0-3,1.1c-9.5,2.1-18.9,4.5-28.5,6.2-5.3.9-11-.2-16.3.8-11.5,2-23,3.1-34.3-.3a16.82,16.82,0,0,1-8.1-5.5c-2.2-2.8-3.2-6.6-4.4-10.1-1.5-4.4-3.2-8.4-2.2-13.6,2.1-10.3,3.2-20.8,4.4-31.2a193.23,193.23,0,0,0,1-20.1c-.1-8.4-.2-16.8-1.1-25.1-.8-7.6-2.6-15.2-3.9-22.8-1-6-1.9-11.9-2.8-17.8-1.1-6.9-2.4-13.8-3.1-20.7-.9-9.4-.9-18.9-2.2-28.2-1.2-8.9-3.4-17.5-10.6-24.1a19.47,19.47,0,0,1-5.8-19.7,3.35,3.35,0,0,0,0-1c-.5-7.5-1.2-14.9-1.4-22.4-.2-8.1.2-16.1-.1-24.2-.3-7.4-1.3-14.8-2-22.2s-.6-14.9-2.1-22.1a366.43,366.43,0,0,0-10.1-37.3c-2.4-7.6-6.7-14.6-10.3-21.7-.5-.9-2-1.3-3.1-1.9.1,1.3-.1,2.8.4,4,4,11.5,8.6,22.8,12.1,34.5,2.2,7.3,2.8,15.2,4.1,22.8,2.1,11.8,4.8,23.6,5.8,35.5,1.2,13.8,1,27.7,1.2,41.6.2,13.6-.7,26.9-5.5,40.1-3.5,9.5-3.3,20.4-4.4,30.7-.3,3.7,1.1,7.5.8,11.1-.7,9.1-2.4,18.2-2.7,27.3-.4,8.5.3,17,.9,25.6.4,6.1,4,7.9,10.5,6.8,3.8-.7,7.9-.3,9.5,4.4,1.2,3.5,3.3,7,3.3,10.5.2,6.9,1,14.6-1.8,20.3-4.8,10-10.1,20-18.2,28.1-3.1,3.1-5.8,7.4-3.9,12.4s6.4,5.9,11.3,6.4c1.9.2,4.4,3,5.1,5.1,1.5,5,2.9,10.2,3,15.2,0,7.1,1.9,14.5-2,21.2-.8,1.4-3.4,3.3-4.5,2.9-4.1-1.5-8.7-2.6-10.4-7.7-.3-.8-1.6-1.3-2.4-1.9-.13.65-.32,1.58-.5,2.7-1.44,8.92,0,13.32-2.1,14.6-.7.44-1.93.58-4.23-.59a17.55,17.55,0,0,0,.13-8.91c-.3-1.4-2-2.6-3-3.8a34,34,0,0,0-.8,4.6c-.4,3.9,2,8.1-1.1,11.7-.8.8-2.1,1.1-3.2,1.7a9.2,9.2,0,0,1-.7-3.1c.3-2.2,1.9-4.5-1.9-5.4-.6-.2-1-2.2-1.1-3.4-1.1-8.9-2.1-17.9-3-26.8-1.4-13.9-2.8-27.9-4-41.8-.6-6.2-.5-12.4-1.1-18.6-1.2-12.1-3.6-24.2-3.7-36.4-.3-22-1.3-44.1,1.5-66.2,1.1-8-.4-16.3-.8-24.5-.6-15.4-1-30.8-2.1-46.2-.6-8-2.3-16-3.7-23.9-2-12-4.1-24-6.2-35.9-1.2-7.7-2.6-15.3-3.6-23-.7-5.8-1.5-11.7-1.2-17.5.4-7.6,2-15.1,2.8-22.7s1.3-15.5,2.1-23.2c.16-1.86.3-3.73.45-5.58,1.33-1.24,4.52-4.3,4.85-4.72,4.5-5.2,8.2-11.4,13.6-15.1,8.8-6,14.8-6.9,21.4-1.8,3.4,2.5,5.7,6.8,7.6,10.7,12.3,25.6,26.6,50.2,35.8,77.2,4.1,12.1,8.7,24,10.2,36.7.8,6.1.7,12.3,2.2,18.2,3.9,15.3,8.8,30.4,12.8,45.7s7.1,30.6,11.1,45.9c4.5,17.4,6,35.1,5.9,53v18c0,9.7.6,19.5-.1,29.1-.9,11.9-2.6,23.6.1,35.4,1.9,8.3,9.5,19.1,21.5,17.8,11.8-1.3,23.5-2.7,35.3-4.2,3.7-.4,7.1.3,7.9,4.3.2.9-3.9,2.6-6.1,4-.9.5-2.5,1.3-2.4,1.7A7,7,0,0,0,442.86,807.34ZM399,413.64a.57.57,0,0,0-.4-.6C398.71,413.34,398.71,413.64,399,413.64Z"/></g></g></g></svg>