<svg xmlns="http://www.w3.org/2000/svg" viewBox="0 0 319.39 855.38"><defs><style>.cls-1{fill:#754c24;}.cls-2{fill:#b3b3b3;}.cls-3{fill:#006837;}.cls-4{fill:#ff1d25;}.cls-5{fill:#ed1c24;}.cls-6{fill:#39b54a;}.cls-7{fill:#8cc63f;}.cls-8{fill:#009245;}</style></defs><g id="Layer_2" data-name="Layer 2"><g id="Layer_2-2" data-name="Layer 2"><g id="Lady_Von_Gyna" data-name="Lady Von Gyna"><path class="cls-1" d="M110.48,229c11-5.1,12.8,6.7,15.1,2.4,3.9-8.6,9.4.1,15.7-2.3,6.3-4.7,8,4.3,13.5,2.4,3.4-1.1,5.7.5,7.8,2.8,3.6.5,4.8-5.9,9.5-2.8,5.4,3.93,11.33-8.73,15.62-1.51,6.52-5,13.47,2.11,19.38-4.19,4.2,1.8,11.7,3.5,11.5-3.7-2.1-5.1,2.6-19.1-5.8-17.6-22.4,3.6-51,14.6-37.4-21.3,12.7-14,19-31,16-49.8-.1-2.3-2.7-6.4-4.4-6.6-19.6-1.6-23.3,8.7-28.7,24.5-1.3-14.4-20.9-26-34.3-20.6a4.55,4.55,0,0,0-2.3,3.4c-1.1,14.3-3,33.1,10.6,42.6,7,4.3,13.9,15.1,11.2,23.3-5.3,10.8-18.2,15.7-29.9,12.6-1.4-.5-4.8.7-4.8,1.1C109.38,218.48,108.08,225.08,110.48,229Zm40.4-57.1c5.7,0,12.8-3.4,17.7.2-1,.8-1.9,2.2-3,2.3-4.8.5-9.7.8-15,1.1C150.28,174.18,150.48,171.88,150.88,171.88Z"/><path class="cls-2" d="M122.58,121.88c3.2-5.5,6.3-11,12.6-13.6.7-.3.9-1.6,1.4-2.4-2.8-1.5-4.9-.7-7.6.5.3-.6.5-1.4,1-1.7,2.9-2.2,0-3.9-1-4-3.2.1-6.5,2.1-9.6,3.1.4-4,5.5-6.3,1.4-9.7-3.7-4.3-4.2,2.7-10.1,3,.8-2.5,3.8-7.6,3.2-9.4-2.4-3.6-4.8-6.6-10.1-4.6a11.76,11.76,0,0,0,.7-2c.2-1.6.3-3.2.4-4.8-1.6.1-3.1,0-4.7.1a11.28,11.28,0,0,0-2.4.8,5.35,5.35,0,0,1,1.1-2.4c6.1-4.5-1.4-10.4-2.8-16.3-4.9-9.1-2.9-21.2-7-31-2.6,2.1-6.1,3.6-5.5,7.6-1.9,33.5,10.6,66.4,37.1,87.8C120.78,123.08,122.28,122.48,122.58,121.88Zm-33.1-74.5c-.1.1-.4-.4-.7-.7a5.87,5.87,0,0,1,2-.5A2,2,0,0,1,89.48,47.38Z"/><path d="M140.38,196c.3-14-15.6-16.1-19.2-28.3-2.6-9.1-6.6-18-2.6-28.7,0-1.1-.1-2.1-.1-3.1-11.5,7.6-21.3,19.1-36.5,21-3.3.4-8.8.7-9.8,5.7-3.2,12,7.6,17.5,17.4,11.5-1.6,15.2,3.1,20.7,15.5,9.2,8.8-7.9,3.8,24.7,19.7,5.2,3.9,7.2,2.5,13.2,12.4,10.8C138.48,199.18,140.58,196.88,140.38,196Z"/><path class="cls-3" d="M152.38,115.28c5.2.9,9.6-6.9,18.2-3-1.8,3-16.4,3.1-12.5,7.3,5.1,5.2-5.7,11.9-8,3.9.1-3.3,2.4-7.7-3.9-8-9.7-2.8-18.8.1-20.9,10.8,0,.4.4,1.1.6,1.1,12.7-2.9,26.2,1.6,31.6,14.1,7-15.2,12.3-19.2,29-17.4-6.7-8.8-14.9-20-27.3-18.5-7.2,1.7-20.1-.5-23.6,7C141.38,114.28,147,110.58,152.38,115.28Z"/><path class="cls-4" d="M156.48,122.88c.4-.4.1-1.3-.4-2.4l-3.5.9c.4,1.4.8,2.7,1.2,4.1A22.26,22.26,0,0,0,156.48,122.88Z"/><path class="cls-1" d="M190.58,232.88c7.8,4.1,16.1-1,3.5-3.4C192.88,230.58,191.78,231.78,190.58,232.88Z"/><path class="cls-1" d="M212.08,231.48c-3.1-3.1-5.9-2.3-8.5.6-1,4.1,10.7,1.5,13.6,2.1.6-.1.9-2.8,1.4-4.3-1.1.4-2.1.9-3.2,1.2A15,15,0,0,1,212.08,231.48Z"/><path class="cls-1" d="M166.88,236.88c-.3.4.8,1.7,1.2,2.6a20.19,20.19,0,0,0,5.5-4.5C170.78,233.58,168.48,234.38,166.88,236.88Z"/><path class="cls-1" d="M161.58,242c1-.7,1.9-1.4,2.9-2.1-2.8-1.8-5.6-3.7-8.6-5.3C148.68,237.38,157.38,241.68,161.58,242Z"/><path class="cls-2" d="M177.28,108.48c4.3,2.8,8.9,13.9,14,6.8,6.1-8.5,12.3-17,13.8-27.8,4-24.6,3-50.38,1.84-75.11a24.32,24.32,0,0,1-5.3-1.25c1.41,6.71-5,25.36-4.94,31.66-1.5,5.4,2.3,2.2,4.9,5.6-3.4,3.7-5.5-1.3-7,4.5-1.8,5.4-3.4,10.9-4.8,16.4.4,1.1,4.2,2.7,5.8,3.2-5.3,4.4-6.1-1.4-9,7.4,1.2.5,2.4,1.1,3.7,1.6s2.6.8,4,1.2c-.4,1.8-3.5,1.9-4.9,2-3.6-.6-8.3,3.6-7.6,7.1,1.8,1.3,5.4.7,7.7,2.1-.2,2.9-4.5,2.7-5.8,1.9-1.47-1.78-2.52-1.73-2.82-1.7-1.77.24-3.3,3.53-3.28,8.4a3.19,3.19,0,0,0-.3,6ZM203,25.58c.5.1,1.1.2,1.3.6a2.55,2.55,0,0,1-1.5,0A3.93,3.93,0,0,0,203,25.58Zm-2.2,13.5c.2-.3.5-1,.7-1a3.67,3.67,0,0,1,1.8,1.1A5.11,5.11,0,0,1,200.78,39.08Zm-5.9,24.2a7.16,7.16,0,0,1,.1-1.7,12.39,12.39,0,0,1,3.3.1A15.28,15.28,0,0,1,194.88,63.28Zm-15.3,39.2a6,6,0,0,1,1.9,0,22.59,22.59,0,0,1,3.1,2.3,15.87,15.87,0,0,1-3.7.6c-.8-.1-1.5-.9-2.1-1.7A4.88,4.88,0,0,0,179.58,102.48Z"/><path class="cls-1" d="M179,235.28c4.08-.3,7,.1,8.09-4.74C184.33,231.22,177.75,233.61,179,235.28Z"/><path class="cls-1" d="M140.58,235a31.42,31.42,0,0,0,3.9,2.4,16.89,16.89,0,0,0,3.9.8C148.48,231.38,145.68,229.68,140.58,235Z"/><path class="cls-1" d="M10.58,482c0,1-.3,2.1.1,2.9a13.63,13.63,0,0,0,2.4,3.5c2.3-3.9,1.8-8.6.9-12.9C11.08,477.28,9.88,477.78,10.58,482Z"/><path class="cls-5" d="M275.38,184.78c-.2-2-1.5-6-3.7-3.4-3.3,11-12.7,16.9-20.6,23.8a16.15,16.15,0,0,0-1.59,1.64C279.56,231.23,282.34,212.31,275.38,184.78Z"/><path class="cls-5" d="M299,286.38c3.6-5.9,6.4-12.3,9.6-19.4.9-7.6,1.9-15.2,2.7-22.8.1-.8-.8-1.8-1.2-2.7-5,2.4-4.9,9.6-8.6,13.2-4.6,5.6-9.5,11.4-15.4,15.2C276,275.48,291.18,298.38,299,286.38Z"/><path class="cls-4" d="M88.48,17.48a7.57,7.57,0,0,0-1.2-3,14.13,14.13,0,0,0-1.7,3.5c.6.8,1.2,1.7,1.7,2.5A7.57,7.57,0,0,0,88.48,17.48Z"/><path class="cls-4" d="M206.58,6.38a4.29,4.29,0,0,0,1.5-2.9c-1.2.6-2.3,1.2-3.5,1.8C205.28,5.68,206.28,6.58,206.58,6.38Z"/><path d="M188.28,171c-4.5,8.3-13.1,15.2-13.4,25.3,8.9-6.1,14.3,3,14.7-8.7a10.76,10.76,0,0,1,1.3-2.9c3,5.3,11.1,7,14.1.9,2.6-5.8,3.6-6.2,9.8-4.4,9.2,2.9,11.8-3.9,9.2-11.7a18.75,18.75,0,0,0,4.1,1c7.4,2.4,18.5-.3,10.2-8.5-14.7-7.8-32.6-11.5-42.3-26.4-3,5.4,0,11.9-1.6,17.6C193.08,159.28,191.28,165.58,188.28,171Z"/><path class="cls-1" d="M240.78,334.48c-14.9-3.5-14.9,18.4-21.3,27-24.3,39.5-36.1,2.5-34.7,62.7a80,80,0,0,1,9.3-4.7c20.7-5.2,41.5-15.7,63.1-12.9,3,.8,2.6-.5,2.4-2.2-2.8-11.5-2.3-23.9-5.2-35.3A270,270,0,0,0,240.78,334.48Z"/><path class="cls-5" d="M299.58,397.38a42.91,42.91,0,0,0-3.6-4.8c-.5-.5-1.9-.1-3.4.4C292.18,400.38,292.58,401,299.58,397.38Z"/><path class="cls-3" d="M239,270.91a331.37,331.37,0,0,0,5.3,37.49c2.13,10.62,4.64,20.43,7.3,29.38,14.2,23.7,24.4,50.4,26.7,77.9.4,1.5-.3,3.4,2.6,1.2,15.2-9.7,18.9,11.1,25.7,19.6,5.6-11.2,3.1-25.7,3.9-38-.2-34.2-9.7-67.1-10.5-101.1-.5-4.6-1.6-7.5-7-4.1-9.1.2-13.5-12.3-14.3-20a6.29,6.29,0,0,1,2.2-4.5c7.3-5.4,8-6.6,5.5-15-2.7-9-5.8-17.9-8.9-26.8-.8-2.2-2.4-3.3-5.3-3.7-8.24-1.74-20.28-7.26-23-16.06a7.49,7.49,0,0,0-1.58,6.06c2,12,1.1,23.9-1,35.7C246.93,257.76,243.65,264.68,239,270.91Zm63.3,129.27c-8.3,8.3-17.6-.4-12.6-8.9C293.88,382.58,307.68,393.08,302.28,400.18Zm-14.2-55.7c16-1.6,11.6,18.9-.5,20C277.18,361.78,275.38,344.58,288.08,344.48Z"/><path class="cls-5" d="M293.58,349.38c-2.6-6.6-10-.2-11,5.6C287.28,367,297,358.28,293.58,349.38Z"/><path class="cls-6" d="M107.78,305.88c-.3.7,1.8,3.2,3.1,3.5,12.1,2.7,24.5,4,36.5,7.2,2.6.8,3.6-.4,4.1-2,3.9-11.7,7.5-23.5,9.3-35.8-1.9-9.6,10-10.2,10.8-.6,3,7,4,43.7,13.8,39.3,11.8-2.2,23.7-4.9,35.5-6.9,3.9.1,4.3-2.3,3.6-4.8-20.3-37.9,30.3-11.4,19-95.8-.7-4.4-5.3-4.9-8.6-5.4-13.3-1.9-13.3-1.7-13.3,11.4-1.5,5.6,4.1,22.2-4.9,21.5a144.07,144.07,0,0,0-40.4,1.2c-7.5,0-14.6,10.8-21.7,5.4-12.6-8.7-28.6-5-42.9-4.6-11.5,2-.5-27.3-11.4-27.9-5.9,1.4-18.8-.9-21.6,4.8-3.6,17.2-8,36.8,3.9,52,3.15,2.23,4.75,4.42,5.52,6.72,4,2.52,11.27,7.64,15.61,16.41A41.34,41.34,0,0,1,107.78,305.88Z"/><path class="cls-7" d="M129.18,759.58c12.2,6.7-2.9-57.1-15.6-38.6C107.28,734.78,115.68,753.18,129.18,759.58Z"/><path class="cls-8" d="M165.88,415.58c-24.4-15.5-53.5-19.7-81.9-18.1-14.3-4.1-7,60.9-9.4,72.5.8,23-5.8,45.5-3.1,68.6-5,44.1,2.2,89.1-2.6,133-13.9,47-.5,96.9-12.2,144.4-.7,7.6,11.4,11,13.3,25.5,1.2,5.7,4.2,6.9,9.3,6,19.8,1.8,10-39,5.3-49.4-14.9-25.5,7.6-63.4,18.8-24.4,2.5,19.1,3.2,38.5,4.3,57.8,4.6,2.6,12.3-4,17.6-2.6,4.9.3,4.4-1.4,4.3-4.5-.1-8.5-.4-16.9.1-25.4-.9-7.7,5.7-31.3.8-35.4-17.3-3.7-26.6-26.5-21.7-42.4,1.2-3.7.6-3.6-2.5-3.8-9.3.6-8.7-5.9-5.1-13,15-32.3,27.7-66.2,30.1-101.9,5.6-21.2,12.2-42.2,16.3-63.7,4.1-25.5,6.1-51.3,13-76.3,2.3-11.4,4.6-22.8,6.6-34.2C168,424,170.88,418.68,165.88,415.58Z"/><path class="cls-1" d="M172,389.38c-25.5-2.8-44.2-26.2-46.4-51.4-6.8-6.9-18.1-5.4-26.9-8.6-2.3-.5-3.5-.4-4.8,2.1-5.8,11.2-11.1,22.5-13.2,35,.1,6-6.8,25.3.6,26.8,28.9.1,61.3.5,86,17.6,2.7,2.2,3,0,3.2-.9,1.2-5.7,1.8-11.5,3.4-17.1C174.68,390.28,175.18,389.48,172,389.38Z"/><path class="cls-7" d="M51.88,822.78c-19.6,27.5-22.4,34.7,15.2,25.7C66.88,841.58,59,822.58,51.88,822.78Z"/><path class="cls-7" d="M154.18,336.48c13.7,3.2,4.3-21.1,11.4-27,3.5,2.9,1.9,15.8,4,22.5,2.6,3.1-1.5,7,6,4.7,20.9-6.7,43.2-4.3,64.9-5.6-6-6.8-8.5-20-20-17.6-9.1,1.9-18.1,3.7-27.1,5.7-17.1,3.7-14.3,4.4-18.4-6.8-3.7-12.6-2.9-27-8.8-38.8-4.7,14.2-5.4,29.4-12.2,43.2-2.1,9.4-31.7-3.4-40-3.2-3.4-.6-7.5-2.5-10.3,2.1-.7,2.7-7.8,7.9-5.6,9.8C116.68,330.28,135.88,330.28,154.18,336.48Z"/><path class="cls-3" d="M218.58,354c.8-4.5,8.5-16.5,6-19.4-16.2,1.1-32.3.8-48,5.8-11,4.2-7.5-4.6-10.4-11.8-.8,1.7-2.5,3.3-2.6,5.3-1.1,7.3-2.2,7.7-9.5,5.7s-14.5-3.4-21.8-5.1c-5.9-1.5-.5,14.1,0,17C147.68,396.28,199.78,396.28,218.58,354Z"/><path class="cls-3" d="M70.58,228c.3-1.9.6-3.8,1-5.6.6-2.8,1.4-5.6,2.1-8.4-10.4,5-18.9,4.8-16.1,18.3-3.8,15.8-8,21.4-19.5,32.3-7.4,24.5-10.5,16.3-1,40.1.8,7.8,4.3,16.5-5.2,22.1a6.38,6.38,0,0,0-2.2,4c-7.1,34.8-9,70.1-12.1,105.2,1.2-.6,2.8-.9,3.7-1.9,12-13.4,20.3,4.9,22.3-3.3,10.5-27,20.3-54.9,24.2-83.5.4-10.8,6.2-20.5,11.2-29.8C97.18,280.28,65.78,266.88,70.58,228Zm-40,193.5c-9-3-5.9-14.6,1-17.1C44.48,402.78,45,427.18,30.58,421.48Zm14-51c-17.8,8-17.3-21.9-3.9-23.1C53,347.08,57.58,367,44.58,370.48Z"/><path class="cls-1" d="M297,425.68c-1.65-3.21-3.73-5.06-6-5.88-4.54-1.64-10.75.61-14.28,4.48-2.91,3.19-2.45,5.79-5.75,8.09a12.1,12.1,0,0,1-6.69,2c0,.14,0,.28,0,.42-.7,6.2-9.1,10.4-8,16.9,6.6-.2,13.3-7.3,20-5.5,8.75,8.95-3.17,39.83,3.65,52.46.92.35,2.31.94,3.5,1.34-.16-.18-.33-.38-.5-.61,1.4-3.4-.05-17.19,4.85-16.19-.45,2.46.13,14.32-1.83,17.15a16.26,16.26,0,0,0,2.54-.63.78.78,0,0,1,.09-.62c5.4-5,2.4-11.9,5.4-17.6,3.6,2.7,2.5,6.2,1.8,10.2-2.6,2.1-2.39,6.17-4,8.23.73-.37,1.88-.94,3.18-1.54a20.18,20.18,0,0,0,3.89-2.9c5.2-6.5,3.73-16.09,8.16-22.89,3.14,3.63,1.28,9.76,1.4,14.33.17.28.38.66.58,1,5.46-2.19,4.33-7.84,4.92-11.68.3-7.9,2.9-18.1-1.2-25.1C304.88,444.18,302.28,434.08,297,425.68Z"/><path class="cls-7" d="M169.68,852c7.6,1,14.8-1.2,23.4-1.5,13.5,2.4-8.9-19.3-10.6-23.5C177.48,834.38,174.38,844.08,169.68,852Z"/><path class="cls-7" d="M240.18,726.18c3,2.1,7.3,2.2,11.1,3.1-.8-10.1,4.1-36.8-9.2-38.5-13.4,2.1-17.7,12.8-11.5,25.2C233.78,719.48,236.38,723.68,240.18,726.18Z"/><path class="cls-8" d="M264.28,453.18c-20.4,8.9-8.4-11-4.9-19.6.8-6.5.4-13.1,0-19.7-9.5-11.8-52.2,8-66.2,10.7-7.4,2.2-10.5,7.4-9.7,13.1,2.6,17.7,4,35.6,5.1,53.4,2.2,57,3.2,143.7,8.8,200.4,4.3,22.6-18.3,18.7-17.6,55.1-.1,12.5,2.2,25.1,2.7,37.7,1.5,13-2.1,27.6,1.5,39.9,8.6,5.7,13.3,14.2,17.7,23.1a5.27,5.27,0,0,0,4.1,2c23.8-.9,8.4-26.8,5.2-40.1-10.1-19.6,5.6-54.7,17.4-28.5,2.4,10.3,4.5,20.6,6.1,31,2.1,6.9-.3,19.7,3.7,24.6,11.2-7.5,17.8-4.9,14.4-20.6q-.6-39.3-1-78.6c-2.3-2.7-4.2-5.4-8.1-5.2-15.4-5.2-21.3-20.2-18.6-34.3-.8-7.6-6.75-20.31-2.95-32.21,5-19,12.45-53.79,19.65-72.09,14.84-44.73,24.87-93.14,23.36-140.37A5.75,5.75,0,0,1,264.28,453.18Z"/><path class="cls-1" d="M112.08,236.48c1.5-.3,3.1-.6,4.5-1,1.7-.6,3.3-1.3,5-1.9-2-.8-4.3-2.6-6.3-2.9C112.48,231.88,108.28,232.88,112.08,236.48Z"/><path class="cls-1" d="M38.68,436.08c-9.6-10.6-22.5,5.5-21.2,16-.8,20.1-1.1,40.3-.8,60.4,0,.9-.41,3.95,1.39,6.48a8,8,0,0,0,2.86,2.41,3.92,3.92,0,0,1,1.83-.14c-.62-9.62-2.65-19.63,1-28.75,3.5,7,1.8,15.4,2.8,23,.2,4.32.1,4.41-3.6,5.92a25.11,25.11,0,0,0,6,.58,43.86,43.86,0,0,0,2.62-4.5c.5-8.7-3.3-17.5,1-25,.45,3.4,2.45,13.74,2.11,21.58a32.73,32.73,0,0,0,7,0c.12-1.27.69-2.77.74-3.79,3.5-13.2-3.7-27.8,5.1-39.8,4.3,5.3,8.2,10.4,9.2,17.4.2.7,1.4,1.1,2.2,1.6,4.6-14.6,7.1-36.9-8.4-45.8A26,26,0,0,1,38.68,436.08Zm1.8,75c-5.2-4,.2-18.2-5.6-18.8a11.71,11.71,0,0,1,1.7-3.8C40.68,493.88,42.28,505,40.48,511.08Z"/><path class="cls-5" d="M31.08,322.88a18.42,18.42,0,0,0,3.5-10.9c-1-5.3-1.7-14.8-6.8-17.2-11.6-2.8-13.2-17.6-19.2-26.3-8.5,18.4-5.1,43.1,15.3,51.9C26.18,321.58,30.38,323.68,31.08,322.88Z"/><path class="cls-5" d="M31.08,408.48c-1.2,3.1-4.9,7.5-.4,9.3,1.6.8,5.1.9,5.6,0C38.38,413.18,37,409.58,31.08,408.48Z"/><path class="cls-5" d="M53.48,233.08c.5-3.3,1.2-7.8-2.7-9.5-13.44-5.67-17.26-19.27-25.09-30-3.52,12-8.32,27-5.11,37.85C28.18,261.38,46.88,268,53.48,233.08Z"/><path class="cls-1" d="M133.08,235.48c1.2-.4,2.3-.9,3.5-1.3C132.78,226.48,123.18,232.58,133.08,235.48Z"/><path class="cls-5" d="M39.38,352.08c-11.1,3.5-4.7,20.1,5.7,14.4C52.18,362.48,47.58,348.28,39.38,352.08Z"/><path id="Lady_Von_Gyna-2" data-name="Lady Von Gyna" d="M289.68,391.28c-5,8.5,4.3,17.2,12.6,8.9C307.68,393.08,293.88,382.58,289.68,391.28Zm6.3,1.3a42.91,42.91,0,0,1,3.6,4.8c-7,3.6-7.4,3-7-4.4C294.08,392.48,295.48,392.08,296,392.58ZM89.88,22.28c6.2-2,2.2-14-4.6-10.1C77.28,15.18,83.18,25.88,89.88,22.28Zm-2.6-7.8a7.57,7.57,0,0,1,1.2,3,7.57,7.57,0,0,1-1.2,3c-.5-.8-1.1-1.7-1.7-2.5A14.13,14.13,0,0,1,87.28,14.48Zm123-6.3c1-.9,2.3-1.7,2.2-2.2.1-6.2-4.6-6.7-9.3-5.4C196.88,5.28,204.68,10.18,210.28,8.18Zm-2.2-4.7a4.29,4.29,0,0,1-1.5,2.9c-.3.2-1.3-.7-2-1.1C205.78,4.68,206.88,4.08,208.08,3.48ZM312,445.28c-5.9-5.2,1.9-12.1,1.5-18.3,2-37.7-3.1-75.1-8.8-112.3-.4-9.2-3.4-19.5-1.2-28.4,11.9-15.7,12.8-37.2,10-55.8-7.7,9.8-13.9,20.9-21.6,30.8-3.8-9.7-3.8-20.4-8.7-29.9-1.8-3.9-5.1-7.9-2.7-13.1,6.3-15.2-.8-32.8-6.9-46.8-2.3,1.9-2.6,4.6-3.7,7.2-5.2,8.9-18.4,28.2-30.3,23.5-7.1-3.4-15.5-.2-22.9-.9-11.9-3.8-31.4,9.7-39.6,1.4,1.9-11.8,13.4,2.4,15.6-9.7,1.6-5.3,11.1,4.5,15.2-4.6,4.3-9.3,16.1,2.2,19.7-8.2,1.8-14.9,9.7,1.3,17.7-10.7-1.4-15.1-23.7-16.3-33.9-24.2-8.3-5-15.8-11.4-19.3-21-.6-1.9-.3-5.3,1-6.5,6.5-6.2,10.3-13.9,13.4-22,8.3-26,4.1-53.8,4.1-80.6.2-1.9-2.5-2.5-3.7-3.7v.12a14.91,14.91,0,0,0-5-2.23,2,2,0,0,0-1,.13,2.92,2.92,0,0,0-.28-.32c-2.5,1.7-3.3,6.1-4,8.9-1.7,17.3-6.2,33.9-11.1,50.5-3.1,7.6-8.6,35.3-18.4,34.4-8.6-2.5-20.2,1.5-28.3-.1-12.7-7.9-24-17.7-31.2-31.1-6.9-13-14.2-26.3-13.3-42,.1-1.4-2.9-4.3-3.9-4.1-3.5.8-9.1-1.1-9.8,4.5-4.4,34.3,7.3,72,36.1,92.7,12.7,5.9-27,30.6-33.2,29.8a28.22,28.22,0,0,0-13.3,6c-7.9,7.1-.4,21.9,10.1,20.7,3.7-.3,5.6.1,5.4,4.7,0,12.2,15.3,10,20.6,2.6,6.8,22.6,17.4,2.7,18.2,10.5.9,8.5,6.8,4.5,12.8,5.6-5,7.5-16.2,7.1-24.3,6.5-13.9-2.6-27.5.1-41.1,3.1-8.5-1.2-14.2,10.3-21.1,6.1-10.4-7-18.3-18.4-20.4-31.1-.1-1-1.6-1.9-2.4-2.9-.4.81-.92,1.55-1.27,2.32-13.57,18.29-11.46,57.36,5.87,71.58,4.7,9.2-8,19.4-5.1,30.1,0,.6-.6,1.3-.8,2-7-3.6-13.6-23.2-18.6-30.9-13.9,21.7-10.8,53.1,14.8,64.6,3.5,1.7,4,4,3.6,7-5.9,33.6-8.9,67.5-11,101.5-.2,8.5-2.6,17.4-1.7,25.8.8,5.5,0,9.7-2.9,14.1-9,14.9-.2,11.6,3.3,21.1,1,9.5-3.7,20.1,3.1,28.1.43.5,1.47,1.74,2.85,1.69s2.73-1.42,2.71-2a7.29,7.29,0,0,0,7,2.89c.48,0,1-.62,1.53-1.25,1.71-1,2.61-3.41,3-6.46.83.3,1.83-.07,4.83,0,2.35,0,3.29.29,3.63-.27h0c8.8-11.8-.7-29.2,5.5-41.9,3.1,4,2.9,9.6,5.3,13.9,2.2,3,7.2,6,9,.3,5.9-17.2,5.8-43.1-14.7-50.1-3.9-1.2-2.6-3.5-1.5-6,7.2-16.7,13.8-33.5,17-51.5,3.3-11.4,8.4-22.4,7.9-34.6,1.8-19.6,19.5-34,17.1-55-.7-6.4.92-11.32-.3-15.8,7.48,7.41,16.08,17.84,15.08,29.59-.71,8.38-5.47,13-11.43,23.1,0,0-5.8,9.81-15.05,39.71C68,396.77,74.08,439,70.68,473c-6.3,63-4.6,126-4.2,189.2,0,3.3-.1,6.9-1.2,10-7.6,21-6.6,43.3-6.7,65.3-1.1,27.7,4.1,58.3-9.7,83.6-14.5,20.3-31.2,37.6,7.8,33.6,11.8-2.7,35.5-.2,37.9-15a91.64,91.64,0,0,0-7-44.5c-4.1-9.5-6.1-19.2-2-29.1,3-7,6.9-6,10.9-.5,8.1,20.1,5.2,43.2,7.1,64.5-.5,9.3,6.7,6,12.7,4.2,11.3-5.6,17.8,2.2,17.3-6.8-1.2-31.9,13.4-87.1-10-110.9-6.5-6.3-26.1,4.2-18.6-12,14.9-32.8,28.8-66.9,29.7-103.2,6.5-22.4,13.2-44.9,16.8-68,3.4-29.2,8.9-58,15.1-86.8,3.7-10.3,7.7-54.8,15.2-57.1-3.3,35.1,1,70.4,3.8,105.6,3.7,34.7,2.61,71.46,4.35,106.29,1,20,2,66.71,3.55,86.11,1.1,9,.9,17.6-6.4,23.9-27.4,37.6,10.2,97-19.2,136.3-3.6,4.2-1.6,7.6,3.4,7.7,60.5-3,57.6-2.3,41.1-58.5a22.13,22.13,0,0,1,2.9-18.6c10.1-15,13.1,26.1,15.2,31.4,2.3,4.6-.7,35.4,7.1,30.9,5.2-5.2,19.7-7,20.1-14.8-.5-18.2-1-36.5-1.1-54.7-.6-10.2-1.6-20.5-1.9-30.7-.3-16.3,7.3-65.9-22.7-49.8-19,5.9,0-53.4,1.2-62.1,13.3-42.6,30.3-84.4,32.3-129.6,1.3-14.3,1.4-28.7,2.2-43.1.08-2.25-.72-3.14-1.86-3.35,3.56-2.12,8.88-6.88,9.66-1.45,3.26,11.45-8.47,43.92,4.3,48.13a15.54,15.54,0,0,0,4.15,2.26,8.18,8.18,0,0,0,4.66-1.08c.07.31.15.63.19.89a3.68,3.68,0,0,0,2.28-.6c.75.48,4.72-.94,6.87-2.21a15.18,15.18,0,0,0,2.71-2,7.13,7.13,0,0,0,1.94.15c3.72-2.15-1.93-10,5.29-9.35a2.1,2.1,0,0,0,.06.24,10.21,10.21,0,0,0,.89,1.57c1.13,5.29,5.8-1.1,6.66-4C318.28,471.58,324.18,455.88,312,445.28Zm-298.9,43.1a13.63,13.63,0,0,1-2.4-3.5c-.4-.8-.1-1.9-.1-2.9-.7-4.2.5-4.7,3.4-6.5C14.88,479.78,15.38,484.48,13.08,488.38Zm288.4-233.7c3.7-3.6,3.6-10.8,8.6-13.2.4.9,1.3,1.9,1.2,2.7-.8,7.6-1.8,15.2-2.7,22.8-3.2,7.1-6,13.5-9.6,19.4-7.8,12-23-10.9-12.9-16.5C292,266.08,296.88,260.28,301.48,254.68Zm-50.4-49.5c7.9-6.9,17.3-12.8,20.6-23.8,2.2-2.6,3.5,1.4,3.7,3.4,7,27.53,4.18,46.45-25.89,22A16.15,16.15,0,0,1,251.08,205.18Zm-3.5,8.1a7.49,7.49,0,0,1,1.58-6.06c2.74,8.8,14.78,14.32,23,16.06,2.9.4,4.5,1.5,5.3,3.7,3.1,8.9,6.2,17.8,8.9,26.8,2.5,8.4,1.8,9.6-5.5,15a6.29,6.29,0,0,0-2.2,4.5c.8,7.7,5.2,20.2,14.3,20,5.4-3.4,6.5-.5,7,4.1.8,34,10.3,66.9,10.5,101.1-.8,12.3,1.7,26.8-3.9,38-6.8-8.5-10.5-29.3-25.7-19.6-2.9,2.2-2.2.3-2.6-1.2-2.3-27.5-12.5-54.2-26.7-77.9-2.66-8.95-5.17-18.76-7.3-29.38a331.37,331.37,0,0,1-5.3-37.49c4.67-6.23,8-13.15,7.6-21.93C248.68,237.18,249.58,225.28,247.58,213.28Zm11.2,160.2c-5.4-20.3-14.8-39.3-24.3-57.9-4.9-8-12.1-17.5-11.1-27.2,5.06-5.84,10.91-11.25,15.48-17.31a127.3,127.3,0,0,0,.88,33.36c2.28,14.21,6.35,23.95,10.59,34.43,7.95,19.62,17.7,39,22,59,1,3.23,5.32,17.86-2.7,30.1a28.21,28.21,0,0,1-5.46,6.13m-7-27.53c-21.6-2.8-42.4,7.7-63.1,12.9a80,80,0,0,0-9.3,4.7c-1.4-60.2,10.4-23.2,34.7-62.7,6.4-8.6,6.4-30.5,21.3-27a270,270,0,0,1,13.6,34.6c2.9,11.4,2.4,23.8,5.2,35.3C259.78,406.08,260.18,407.38,257.18,406.58Zm-61.2-271c9.7,14.9,27.6,18.6,42.3,26.4,8.3,8.2-2.8,10.9-10.2,8.5a18.75,18.75,0,0,1-4.1-1c2.6,7.8,0,14.6-9.2,11.7-6.2-1.8-7.2-1.4-9.8,4.4-3,6.1-11.1,4.4-14.1-.9a10.76,10.76,0,0,0-1.3,2.9c-.4,11.7-5.8,2.6-14.7,8.7.3-10.1,8.9-17,13.4-25.3,3-5.4,4.8-11.7,6.1-17.8C196,147.48,193,141,196,135.58Zm-20.64-30.41a3.24,3.24,0,0,1,2.24-2.69c0-4.87,1.51-8.16,3.28-8.4.3,0,1.35-.08,2.82,1.7,1.3.8,5.6,1,5.8-1.9-2.3-1.4-5.9-.8-7.7-2.1-.7-3.5,4-7.7,7.6-7.1,1.4-.1,4.5-.2,4.9-2-1.4-.4-2.7-.8-4-1.2s-2.5-1.1-3.7-1.6c2.9-8.8,3.7-3,9-7.4-1.6-.5-5.4-2.1-5.8-3.2,1.4-5.5,3-11,4.8-16.4,1.5-5.8,3.6-.8,7-4.5-2.6-3.4-6.4-.2-4.9-5.6-.09-6.3,6.35-25,4.94-31.66a24.32,24.32,0,0,0,5.3,1.25c1.19,24.73,2.21,50.51-1.84,75.11-1.5,10.8-7.7,19.3-13.8,27.8-5.1,7.1-9.7-4-14-6.8A3.25,3.25,0,0,1,175.34,105.17Zm-16.16.41c12.4-1.5,20.6,9.7,27.3,18.5-16.7-1.8-22,2.2-29,17.4-5.4-12.5-18.9-17-31.6-14.1-.2,0-.6-.7-.6-1.1,2.1-10.7,11.2-13.6,20.9-10.8,6.3.3,4,4.7,3.9,8,2.3,8,13.1,1.3,8-3.9-3.9-4.2,10.7-4.3,12.5-7.3-8.6-3.9-13,3.9-18.2,3-5.4-4.7-11-1-16.8-2.7C139.08,105.08,152,107.28,159.18,105.58Zm-6.6,15.8,3.5-.9c.5,1.1.8,2,.4,2.4a22.26,22.26,0,0,1-2.7,2.6C153.38,124.08,153,122.78,152.58,121.38Zm-69-86.3c-.6-4,2.9-5.5,5.5-7.6,4.1,9.8,2.1,21.9,7,31,1.4,5.9,8.9,11.8,2.8,16.3a5.35,5.35,0,0,0-1.1,2.4,11.28,11.28,0,0,1,2.4-.8c1.6-.1,3.1,0,4.7-.1-.1,1.6-.2,3.2-.4,4.8a11.76,11.76,0,0,1-.7,2c5.3-2,7.7,1,10.1,4.6.6,1.8-2.4,6.9-3.2,9.4,5.9-.3,6.4-7.3,10.1-3,4.1,3.4-1,5.7-1.4,9.7,3.1-1,6.4-3,9.6-3.1,1,.1,3.9,1.8,1,4-.5.3-.7,1.1-1,1.7,2.7-1.2,4.8-2,7.6-.5-.5.8-.7,2.1-1.4,2.4-6.3,2.6-9.4,8.1-12.6,13.6-.3.6-1.8,1.2-1.9,1C94.18,101.48,81.68,68.58,83.58,35.08Zm53.6,164.2c-9.9,2.4-8.5-3.6-12.4-10.8-15.9,19.5-10.9-13.1-19.7-5.2-12.4,11.5-17.1,6-15.5-9.2-9.8,6-20.6.5-17.4-11.5,1-5,6.5-5.3,9.8-5.7,15.2-1.9,25-13.4,36.5-21,0,1,.1,2,.1,3.1-4,10.7,0,19.6,2.6,28.7,3.6,12.2,19.5,14.3,19.2,28.3C140.58,196.88,138.48,199.18,137.18,199.28Zm-23.6,13.3c11.7,3.1,24.6-1.8,29.9-12.6,2.7-8.2-4.2-19-11.2-23.3-13.6-9.5-11.7-28.3-10.6-42.6a4.55,4.55,0,0,1,2.3-3.4c13.4-5.4,33,6.2,34.3,20.6,5.4-15.8,9.1-26.1,28.7-24.5,1.7.2,4.3,4.3,4.4,6.6,3,18.8-3.3,35.8-16,49.8-13.6,35.9,15,24.9,37.4,21.3,8.4-1.5,3.7,12.5,5.8,17.6.2,7.2-7.3,5.5-11.5,3.7-5.91,6.3-12.86-.83-19.38,4.19-4.29-7.22-10.22,5.44-15.62,1.51-4.7-3.1-5.9,3.3-9.5,2.8-2.1-2.3-4.4-3.9-7.8-2.8-5.5,1.9-7.2-7.1-13.5-2.4-6.3,2.4-11.8-6.3-15.7,2.3-2.3,4.3-4.1-7.5-15.1-2.4-2.4-3.9-1.1-10.5-1.7-15.3C108.78,213.28,112.18,212.08,113.58,212.58Zm105,17.3c-.5,1.5-.8,4.2-1.4,4.3-2.9-.6-14.6,2-13.6-2.1,2.6-2.9,5.4-3.7,8.5-.6a15,15,0,0,0,3.3-.4C216.48,230.78,217.48,230.28,218.58,229.88Zm-28,3c1.2-1.1,2.3-2.3,3.5-3.4C206.68,231.88,198.38,237,190.58,232.88Zm-3.51-2.34c-1.12,4.84-4,4.44-8.09,4.74C177.75,233.61,184.33,231.22,187.07,230.54ZM173.58,235a20.19,20.19,0,0,1-5.5,4.5c-.4-.9-1.5-2.2-1.2-2.6C168.48,234.38,170.78,233.58,173.58,235Zm-9.1,4.9c-1,.7-1.9,1.4-2.9,2.1-4.2-.3-12.9-4.6-5.7-7.4C158.88,236.18,161.68,238.08,164.48,239.88Zm-16.1-1.7a16.89,16.89,0,0,1-3.9-.8,31.42,31.42,0,0,1-3.9-2.4C145.68,229.68,148.48,231.38,148.38,238.18Zm-11.8-4c-1.2.4-2.3.9-3.5,1.3C123.18,232.58,132.78,226.48,136.58,234.18Zm-15-.6c-1.7.6-3.3,1.3-5,1.9-1.4.4-3,.7-4.5,1-3.8-3.6.4-4.6,3.2-5.8C117.28,231,119.58,232.78,121.58,233.58Zm-101-2.1c-3.21-10.82,1.59-25.83,5.11-37.85,7.83,10.68,11.65,24.28,25.09,30,3.9,1.7,3.2,6.2,2.7,9.5C46.88,268,28.18,261.38,20.58,231.48Zm3.3,88.9c-20.4-8.8-23.8-33.5-15.3-51.9,6,8.7,7.6,23.5,19.2,26.3,5.1,2.4,5.8,11.9,6.8,17.2a18.42,18.42,0,0,1-3.5,10.9C30.38,323.68,26.18,321.58,23.88,320.38Zm26.6,123.3c15.5,8.9,13,31.2,8.4,45.8-.8-.5-2-.9-2.2-1.6-1-7-4.9-12.1-9.2-17.4-8.8,12-1.6,26.6-5.1,39.8-.05,1-.62,2.52-.74,3.79a32.73,32.73,0,0,1-7,0c.34-7.84-1.66-18.18-2.11-21.58-4.3,7.5-.5,16.3-1,25A43.86,43.86,0,0,1,29,522a25.11,25.11,0,0,1-6-.58c3.7-1.51,3.8-1.6,3.6-5.92-1-7.6.7-16-2.8-23-3.67,9.12-1.64,19.13-1,28.75a3.92,3.92,0,0,0-1.83.14A8,8,0,0,1,18.07,519c-1.8-2.53-1.38-5.58-1.39-6.48-.3-20.1,0-40.3.8-60.4-1.3-10.5,11.6-26.6,21.2-16A26,26,0,0,0,50.48,443.68ZM79,317.48c-5,9.3-10.8,19-11.2,29.8-3.9,28.6-13.7,56.5-24.2,83.5-2,8.2-10.3-10.1-22.3,3.3-.9,1-2.5,1.3-3.7,1.9,3.1-35.1,5-70.4,12.1-105.2a6.38,6.38,0,0,1,2.2-4c9.5-5.6,6-14.3,5.2-22.1-9.5-23.8-6.4-15.6,1-40.1,11.5-10.9,15.7-16.5,19.5-32.3-2.8-13.5,5.7-13.3,16.1-18.3-.7,2.8-1.5,5.6-2.1,8.4-.4,1.8-.7,3.7-1,5.6C65.78,266.88,97.18,280.28,79,317.48ZM88.1,275.1c-.77-2.3-2.37-4.49-5.52-6.72-11.9-15.2-7.5-34.8-3.9-52,2.8-5.7,15.7-3.4,21.6-4.8,10.9.6-.1,29.9,11.4,27.9,14.3-.4,30.3-4.1,42.9,4.6,7.1,5.4,14.2-5.4,21.7-5.4a144.07,144.07,0,0,1,40.4-1.2c9,.7,3.4-15.9,4.9-21.5,0-13.1,0-13.3,13.3-11.4,3.3.5,7.9,1,8.6,5.4,11.3,84.4-39.3,57.9-19,95.8.7,2.5.3,4.9-3.6,4.8-11.8,2-23.7,4.7-35.5,6.9-9.8,4.4-10.8-32.3-13.8-39.3-.8-9.6-12.7-9-10.8.6-1.8,12.3-5.4,24.1-9.3,35.8-.5,1.6-1.5,2.8-4.1,2-12-3.2-24.4-4.5-36.5-7.2-1.3-.3-3.4-2.8-3.1-3.5a41.34,41.34,0,0,0-4.07-14.37C99.37,282.74,92.1,277.62,88.1,275.1Zm15.58,40.58c2.8-4.6,6.9-2.7,10.3-2.1,8.3-.2,37.9,12.6,40,3.2,6.8-13.8,7.5-29,12.2-43.2,5.9,11.8,5.1,26.2,8.8,38.8,4.1,11.2,1.3,10.5,18.4,6.8,9-2,18-3.8,27.1-5.7,11.5-2.4,14,10.8,20,17.6-21.7,1.3-44-1.1-64.9,5.6-7.5,2.3-3.4-1.6-6-4.7-2.1-6.7-.5-19.6-4-22.5-7.1,5.9,2.3,30.2-11.4,27-18.3-6.2-37.5-6.2-56.1-11C95.88,323.58,103,318.38,103.68,315.68Zm-51.8,507.1c7.1-.2,15,18.8,15.2,25.7C29.48,857.48,32.28,850.28,51.88,822.78ZM113.58,721c12.7-18.5,27.8,45.3,15.6,38.6C115.68,753.18,107.28,734.78,113.58,721Zm53.6-292.7c-2,11.4-4.3,22.8-6.6,34.2-6.9,25-8.9,50.8-13,76.3-4.1,21.5-10.7,42.5-16.3,63.7-2.4,35.7-15.1,69.6-30.1,101.9-3.6,7.1-4.2,13.6,5.1,13,3.1.2,3.7.1,2.5,3.8-4.9,15.9,4.4,38.7,21.7,42.4,4.9,4.1-1.7,27.7-.8,35.4-.5,8.5-.2,16.9-.1,25.4.1,3.1.6,4.8-4.3,4.5-5.3-1.4-13,5.2-17.6,2.6-1.1-19.3-1.8-38.7-4.3-57.8-11.2-39-33.7-1.1-18.8,24.4,4.7,10.4,14.5,51.2-5.3,49.4-5.1.9-8.1-.3-9.3-6-1.9-14.5-14-17.9-13.3-25.5,11.7-47.5-1.7-97.4,12.2-144.4,4.8-43.9-2.4-88.9,2.6-133-2.7-23.1,3.9-45.6,3.1-68.6,2.4-11.6-4.9-76.6,9.4-72.5,28.4-1.6,57.5,2.6,81.9,18.1C170.88,418.68,168,424,167.18,428.28Zm6.7-35.4c-1.6,5.6-2.2,11.4-3.4,17.1-.2.9-.5,3.1-3.2.9-24.7-17.1-57.1-17.5-86-17.6-7.4-1.5-.5-20.8-.6-26.8,2.1-12.5,7.4-23.8,13.2-35,1.3-2.5,2.5-2.6,4.8-2.1,8.8,3.2,20.1,1.7,26.9,8.6,2.2,25.2,20.9,48.6,46.4,51.4C175.18,389.48,174.68,390.28,173.88,392.88Zm-41.6-41.4c-.5-2.9-5.9-18.5,0-17,7.3,1.7,14.6,3.1,21.8,5.1s8.4,1.6,9.5-5.7c.1-2,1.8-3.6,2.6-5.3,2.9,7.2-.6,16,10.4,11.8,15.7-5,31.8-4.7,48-5.8,2.5,2.9-5.2,14.9-6,19.4C199.78,396.28,147.68,396.28,132.28,351.48Zm60.8,499c-8.6.3-15.8,2.5-23.4,1.5,4.7-7.9,7.8-17.6,12.8-25C184.18,831.18,206.58,852.88,193.08,850.48Zm49-159.7c13.3,1.7,8.4,28.4,9.2,38.5-3.8-.9-8.1-1-11.1-3.1-3.8-2.5-6.4-6.7-9.6-10.2C224.38,703.58,228.68,692.88,242.08,690.78Zm-.5-97.5c-7.2,18.3-14.65,53.09-19.65,72.09-3.8,11.9,2.15,24.61,2.95,32.21-2.7,14.1,3.2,29.1,18.6,34.3,3.9-.2,5.8,2.5,8.1,5.2q.45,39.3,1,78.6c3.4,15.7-3.2,13.1-14.4,20.6-4-4.9-1.6-17.7-3.7-24.6-1.6-10.4-3.7-20.7-6.1-31-11.8-26.2-27.5,8.9-17.4,28.5,3.2,13.3,18.6,39.2-5.2,40.1a5.27,5.27,0,0,1-4.1-2c-4.4-8.9-9.1-17.4-17.7-23.1-3.6-12.3,0-26.9-1.5-39.9-.5-12.6-2.8-25.2-2.7-37.7-.7-36.4,21.9-32.5,17.6-55.1-5.6-56.7-6.6-143.4-8.8-200.4-1.1-17.8-2.5-35.7-5.1-53.4-.8-5.7,2.3-10.9,9.7-13.1,14-2.7,56.7-22.5,66.2-10.7.4,6.6.8,13.2,0,19.7-3.5,8.6-15.5,28.5,4.9,19.6a5.75,5.75,0,0,0,.66-.27C266.45,500.14,256.42,548.55,241.58,593.28Zm72.3-117c-.59,3.83.54,9.49-4.92,11.68-.2-.39-.41-.77-.58-1-.12-4.57,1.74-10.7-1.4-14.33-4.43,6.8-3,16.39-8.16,22.89a20.18,20.18,0,0,1-3.89,2.9c-1.3.6-2.45,1.17-3.18,1.54,1.64-2.06,1.43-6.13,4-8.23.7-4,1.8-7.5-1.8-10.2-3,5.7,0,12.6-5.4,17.6a.78.78,0,0,0-.09.62,16.26,16.26,0,0,1-2.54.63c2-2.83,1.38-14.69,1.83-17.15-4.9-1-3.45,12.79-4.85,16.19.17.23.34.43.5.61-1.19-.4-2.58-1-3.5-1.34-6.82-12.63,5.1-43.51-3.65-52.46-6.7-1.8-13.4,5.3-20,5.5-1.1-6.5,7.3-10.7,8-16.9,0-.14,0-.28,0-.42a12.1,12.1,0,0,0,6.69-2c3.3-2.3,2.84-4.9,5.75-8.09,3.53-3.87,9.74-6.12,14.28-4.48,2.29.82,4.37,2.67,6,5.88,5.3,8.4,7.9,18.5,15.7,25.5C316.78,458.18,314.18,468.38,313.88,476.28Zm-133-370.9a15.87,15.87,0,0,0,3.7-.6,22.59,22.59,0,0,0-3.1-2.3,6,6,0,0,0-1.9,0,4.88,4.88,0,0,1-.8,1.2C179.38,104.48,180.08,105.28,180.88,105.38Zm-140.2,242c-13.4,1.2-13.9,31.1,3.9,23.1C57.58,367,53,347.08,40.68,347.38Zm4.4,19.1c-10.4,5.7-16.8-10.9-5.7-14.4C47.58,348.28,52.18,362.48,45.08,366.48Zm120.5-192.1c1.1-.1,2-1.5,3-2.3-4.9-3.6-12-.2-17.7-.2-.4,0-.6,2.3-.3,3.6C155.88,175.18,160.78,174.88,165.58,174.38Zm-134,230c-6.9,2.5-10,14.1-1,17.1C45,427.18,44.48,402.78,31.58,404.38Zm4.7,13.4c-.5.9-4,.8-5.6,0-4.5-1.8-.8-6.2.4-9.3C37,409.58,38.38,413.18,36.28,417.78Zm-1.4,74.5c5.8.6.4,14.8,5.6,18.8,1.8-6.1.2-17.2-3.9-22.6A11.71,11.71,0,0,0,34.88,492.28Zm54.6-444.9a2,2,0,0,0,1.3-1.2,5.87,5.87,0,0,0-2,.5C89.08,47,89.38,47.48,89.48,47.38Zm198.1,317.1c12.1-1.1,16.5-21.6.5-20C275.38,344.58,277.18,361.78,287.58,364.48Zm6-15.1c3.4,8.9-6.3,17.6-11,5.6C283.58,349.18,291,342.78,293.58,349.38Zm-89.3-323.2c-.2-.4-.8-.5-1.3-.6a3.93,3.93,0,0,1-.2.6A2.55,2.55,0,0,0,204.28,26.18Zm-1,13a3.67,3.67,0,0,0-1.8-1.1c-.2,0-.5.7-.7,1A5.11,5.11,0,0,0,203.28,39.18ZM195,61.58a7.16,7.16,0,0,0-.1,1.7,15.28,15.28,0,0,0,3.4-1.6A12.39,12.39,0,0,0,195,61.58Z"/></g></g></g></svg>