<svg xmlns="http://www.w3.org/2000/svg" viewBox="0 0 437.09 787.3"><defs><style>.cls-1{fill:#f7931e;}.cls-2{fill:#f15a24;}.cls-3{fill:#c1272d;}.cls-4{fill:#ff7bac;}.cls-5{fill:#d9e021;}</style></defs><g id="Layer_2" data-name="Layer 2"><g id="Layer_2-2" data-name="Layer 2"><g id="Main_character" data-name="Main character"><path class="cls-1" d="M127.2,757.9l3.64,1.29c.18-1.51.43-3,.61-4.6-1.09.52-2.3.85-3.39,1.37C127.73,756.13,127.55,756.72,127.2,757.9Z"/><path class="cls-2" d="M234,145.71c-2.74-12.93-9.74-29.73-26-27,13.08,10,19.92,30.73,9.88,45-4.56,8.22-10.64,14.07-19.77,17.19C217.68,190.51,237.38,164.27,234,145.71Z"/><path class="cls-2" d="M75,747c-8.68.25-17.85-2.57-23.42,6.83-13.55,18.5,13.72,41,28.11,25.32C89.83,770.36,94.31,745.2,75,747Zm-3.25,15.42c-1.65,8.51-13.39,4.49-10-3.28v.07C66,754.23,72.13,753.4,71.72,762.43Z"/><path class="cls-1" d="M206.77,754.58c-1.65-.26-3.23-.59-5.65-.9C189.57,759.92,206.26,768.12,206.77,754.58Z"/><path class="cls-3" d="M200.19,339.28c-26.92-21.07-55.67-44.19-89.44-52.18-15.59-5-22.06,50.12-26,61.38-.84,3.42-.38,4,2.13,3,8.82-3.19,18-3.73,27.15-4.11,21.45,0,42.28,6.85,62.21,14.23,6.77,2.43,13.31,5.17,20,7.75,1,.38.92.46,1.07-1.21C198.59,363.46,203.84,341.86,200.19,339.28Z"/><path class="cls-4" d="M142.92,354.11c-15.06-4.11-30.27-4.41-45.71-2.21-3.12,1.07-15.67,1.9-14.83,5.86-2.44,30.57-6.31,61.3-.61,91.8,3.19,24,6.39,48.14,8.21,72.25.38,19.93-.68,39.93,3.12,59.55,2.36,22.21,11.93,49,15.73,67.3-.76,8.36-.56,16-2.88,24.38-4.78,19.56-6.51,42.1-26.3,52.69-5.63,3.7-11.3,7.23-12.93,14.74-1.36,4.95,7.37,2.07,10,3.28,14.13.8,40.4,7.39,39.21-15.63-1.61-6.58-2.37-26.68,5.75-29.11,7.41-1,9.51,7.28,10.74,12.88,4.69,16.35-11.82,29,12.59,18,4.53-11.51,1.53-25.5,2.34-37.85-.09-6.42.48-13.11-.89-19.27-2.2-24.88-31-14.88-15.59-38.53,12.93-22.06,19.41-50.26,26-75.51,1.52-11.18,5.63-21.91,4.79-33.24-1.29-7.83-1.52-15.9-2.51-23.73-1.14-14.22-8.29-29.66.54-42.67,12.39-18.48,26.69-36.2,32.17-58.18,2.2-8.9,6.16-18.63,4.41-27.84C179.5,365.06,161.55,359.35,142.92,354.11Z"/><path class="cls-2" d="M140.54,735.13c-13.44,3.86-27.55,8.08-32,23.54-4.27,6.23,1,16.74,7.76,18.78,6.46,2,16.47,1.57,20.14-2.44,8.43-9,16.2-20.53,11.14-33.24C146.19,737.76,142.74,734.41,140.54,735.13Zm-11,27.39c-12.14-4.86-3.91-10.36,4.62-11.57C135.45,755.56,136.3,762.1,129.52,762.52Z"/><path class="cls-1" d="M225.06,352.36c7-6.54,11.86-16.28,21.75-18.86,3.35-.61,4.41-3.73,3-7-3.88-9-8.22-17.65-9.36-27.76s-3.19-19.85-2.74-29.89c.08-12.32,8.07-22.36,16.51-30.42,9.89-10.65,15.89-23.89,21.07-37.2,3.34-5.24-9.74-4.18-13.16-8.06-2.59-1.6-2.05-2-3.2.91-3.27,8.29-6,16.81-10,24.72-3.42,6.62-8.06,12.93-16.8,13.77-4.8,2.81-3.73,10.88-5,15.82-2.82,19.62-4,38-4.64,58.18C223,320.34,226,334.26,225,348c-4.64-4.49-2.35-11.48-3.34-17.26-1-16.89-3.58-33.7-.76-50.5.53-6.24.76-12.55,1.59-18.79-.22-8.9,7.08-25,1.6-31.79-10.95-12.47-4.64-30.73-6.31-45.79,0-.22-1.07-.68-1.37-.53-4.72,4.26-14.15-.3-16.66,3C195.85,208,193.8,233,208.63,251c10.88,11.79,8.82,23.66,4.64,37.88-2.66,14.15-12.24,24.87-21.68,35-4.71,6.92,25.86,20.53,30.28,28.44C222.4,352.81,224.53,353,225.06,352.36Z"/><path class="cls-4" d="M190.61,182.22c-9.05-.76-17.65-3.8-26.4-6.08-2.58-.16.92,8.13.31,10.26.68,11,1.29,22.14,1.52,33.16-.61,18.41-42.52,21.91-52.93,43.58-3.43,5.1-4.42,11.79-6.24,17.88-1,3,2,2.58,3.5,3,23.12,4.26,42.82,18.78,62.52,30.8,4.48,1.9,10.87,10.35,15.51,8.06,12.7-11.71,21.9-26.39,24.87-43.58,5.93-25.32-23-32.4-18.25-64C190.91,198.27,203.46,182.22,190.61,182.22Z"/><path class="cls-5" d="M114.17,151.72c3.57-2.51,8.82-3.57,10.72-7.83,6.62-25.86,20-41.68,48.07-42.29,16-1.6,32.48,9.81,47.84,4.56,10-5.78,8.9-20.84-1-26.62a31.6,31.6,0,0,1-12.7-15.05,37.15,37.15,0,0,1,9.81-40.85c5.4-5.85,13.24-5.78,19.17-9.88-24-13.69-35.29-.92-51.64,15.74-32.33,27.23-45.11,78-91,87.31-13,4.64-29.43-7.91-34.37-.61-3.81,5.33-2.51,14.68,2.51,18.94,5.85,6.39,12.32.08,18.25-3,.53,4-1.07,7.83-1.14,11.79,2.2,12.85,14.3-2.82,19.54-5.55,3,3.87-2.43,11.94,3.27,13.91C105.73,152.86,110.06,154.23,114.17,151.72Z"/><path class="cls-1" d="M131.36,156.29c18.1-1.22,36-4.42,53.85-7.53,10.19-1.75,20.3-4.19,30.72-3.81,3.58.08,4.41-1,3.2-4.33-2.21-3.81-2.74-12.48-7.84-12.93-25.48,8.59-51,17.72-77.12,24.49,15.29-8.9,34.68-12.25,51.72-18.18,8.21-3.5,18.94-3.73,25.86-9.13-6.39-6.54-11.41-4.33-19.17-4.48-14.68-1.83-26.39,9.66-39.24,15-15.52,9.89-33.39,15.9-48.83,25.63,8.44,1.52,16.73-4.71,25-6.46C130.14,154.54,130.9,156.29,131.36,156.29Zm53.16-13.47c10.8-1.21,22.06-6.23,32.48-3.65-4.49,2.59-10.12,1.6-15,2.74-9.65.84-19.69,4.64-29,4C176.16,143.66,180.64,144.19,184.52,142.82Zm-16.2,4a18.26,18.26,0,0,1-3.19,1.75l.07.07c-2.51.31-5.24,2.36-7.15.76C160.41,147.69,165.13,146.25,168.32,146.78Zm16.35-23.12c.23-.08.69.15,1,.15a3.36,3.36,0,0,1-.83.61c-4.87,1.75-9.66,3.57-14.68,5.32C174.86,127.69,179.73,125.71,184.67,123.66Z"/><path class="cls-1" d="M189.24,178.27c11.25,1.06,19.39-4.8,25.48-13.85,2.2-3.88,7.83-13.08,3.27-16.35-18.18-1.52-36,4.18-53.93,6.16-13.08,2.82-26.62,2-39.24,6.39-2.89.85-6.16,1.5-9.31,2.25,5.42-.65,12.9.42,16,2.54C150.52,170.51,169.61,176.21,189.24,178.27Zm11.86-17.35c4,.23,7.53.46,11.11.84.6.08,1.21.91,1.82,1.45-10.95,2-22.74.3-34,.68-8,.91-24.94-3.12-30.65.61,11.56,3.88,24.42,4.18,36.66,5,5.1,1.14,11.79-.61,15.82,2.89-3,2.81-7.38.61-11,.68-20.53-1.44-40.23-6.69-60.23-10.49C153.64,158.49,177.45,163.28,201.1,160.92Z"/><path class="cls-1" d="M65.31,759.21c-.53,1.84-1.09,6.6,2,4.48C68.13,761.29,69.36,759,65.31,759.21Z"/><path class="cls-3" d="M31.73,289.69c4.41-1.45-3.58-4.11-4.42-5.71-3.8-4.26-7.15-2.28-5.7,3.58C23.82,292.35,26,291.28,31.73,289.69Z"/><path class="cls-3" d="M98.81,263.45c-1.68-3-.08-6,2.35-8.22,24-18.33,43.81-41.52,59.48-66.93-.53-4.71,2.05-13.61-4.41-14.52-9.2-1.07-25.18-9-33.24-5.86-20.46,39.93-39.55,80.39-66.39,116.6-3.5,3.57-9.44,3.87-14,5.62-5.93,1.68-12.24,2.29-17.57,5.33-6.84.38-18.78,2.81-22.74,8.52,7,.68,13-6.09,20.08-4.19C18,305.89,5.49,303.23,4.5,312.28c8.74.07,16-5.4,25.1-7.61,2,0,4.1.08,6.16.08C35.91,314.1,22,314.18,21,322.7c7.68.07,15.06-5.4,22.21-8.22,10.88-4.26,22.51-17,34.22-15.13.61,6.31-2.28,12-3,18.17C92,307.1,106.26,284.06,98.81,263.45Z"/><path class="cls-1" d="M320.89,141.15c17.42,0,34.83-3.42,52.1-2.66-4-2.06-8.06-3.88-12.7-3.42-8.45.68-16.51-1.45-24.65-3-20.53-2.81-49.81-13.53-61.37,10.42C289.78,140.24,305.37,143.13,320.89,141.15Zm-27-7.61c14.22.76,28.14,1.53,42,2.36a21.85,21.85,0,0,1,4.34,1.14c-17.34.84-35.52.69-52.4-2.81C289.63,133,291.46,133.7,293.89,133.54Z"/><path class="cls-1" d="M362.64,150.35c-13.76,3.65-27.83,5-41.67,8.29-16.2,2.89-32.86,9.51-49.14,9.28,5.71-5.32,15.9-3.65,23.28-5.63,18.25-4,35.21-8.9,53.92-12,7.53-1.07,14.91-3.2,22.44-4.49,4.79-1.37,10.57,0,14.37-3.58-4.18-2.2-9,.39-13.31-.45-3.5-.53-7.15,1.22-10.65-1.22-1.44-1.06-4-1-6-.84-16.58,1.75-33.16,4.26-49.82,5.18-9.2.07-18.41-.46-27.53-.69-7.61-1.75-8.14,7.15-8.9,12.63-1.07,13.54,7.45,33.31,23.8,28.59,6.47-2.66,13.09-5.17,19.7-7.53,28.75-11.18,59.63-19.62,86.48-34.6-10.5-.38-20.46,5.78-30.58,8.29C366.9,151.8,364.62,150,362.64,150.35Zm-91.41,2.74c8.82-3.88,21.59-2.43,31.48-4.33,17.5-1.22,35.29-4.34,52.71-4.11-19.32,3.12-38.79,4.94-58.26,7.15-8.67.3-17.42,3.5-25.86,1.37Zm4.56,25.1C291.68,170,310,165.72,326.9,159.48a1.72,1.72,0,0,1-.31,1.44C309.41,166.55,293.43,175.76,275.79,178.19ZM334.58,164c-16.88,5.48-33.54,14.45-50.5,18.64,21.83-13.31,47.91-19.17,72.18-27.84,3.27-.91,6.23-1.83,9.12-2.66.23-.08.53.07.76.07C358.16,159.63,344.47,159.33,334.58,164Z"/><path class="cls-3" d="M352.38,204.05c-.38-6.39-1.3-12.63-2-18.94-.3-5.7,1.29-11.18-.76-16.73-5.78,3-35,8.36-33.85,14.22-6,27.47,5.68,58.69,6.27,86.13,3.68,9.75,2,21.62,4.69,31.83,2.73,18.86-18.64,31.11-14.53,50.43,4,1.06,6.54-5.63,9.2-8.06,9.2-11.41,7.46,28.21,7.38,32.55,0,7.76-.53,16.5,4.64,22.74,4-4.79,1.44-12.55,5.4-17.49,2.66,2.73.46,6.23.76,9.5.68,3.27.23,7.76,2.59,10.27,5.47-7.68,2.81-19,7.52-26.54,3.2,5.47,2.06,12.77,5.48,18.1,4.41-6.92,3-17,1.9-25-.23-1.14.61-2.51,1-3.73,5,5.78,1.07,13.31,8.22,18.94,2.12-15.9,7.37-34.53-1.22-49.29-4.87-2-10.19-1.29-10.65-8.44-2.43-26.39.15-52.93-.53-79.4C353.14,231.35,351,217.74,352.38,204.05Z"/><path class="cls-5" d="M419.61,105.48c-6.46,4.11-13,4.11-19.47,1.44a173,173,0,0,1-61.07-38.78Q316.93,46.69,296.7,23.42C289.33,13.91,282.1.83,268,2.73c-10.34.3-22.13,2.36-28.52,11.33.61.23,1.37.69,1.83.53,5.32-2.13,10.72-1.9,16.35-1.37,28.37,4.19,32.32,40.54,18.41,61-3.27,6.31-8.22,11.26-13.08,16.2-8.14,6.77-.16,18.1,9,18,7.61.3,14.37-3,21.37-5.33,15.59-8.67,27.69-3.57,41.68,5.1,10.57,3,5.93,18.1,13.46,23.65,8.67,1.6,17.72,1.9,26.32,4,9,2,17.87,5.09,27.23,3.65,7.83-1.45,11.78-8.22,4.63-14.07,7.31-2,24.19,2.66,27.16-5.56C435.66,110.42,430.26,98.1,419.61,105.48Z"/><path class="cls-2" d="M279.36,131.57c-15.13,4.86-22.66,20.68-25,35.82.31,7.3,3.12,14.53,6.54,20.76,4.79,7.68,24.19,9,29.21.61-18.26.38-27-21.67-22.36-38.48C269.63,142.75,274.88,137.5,279.36,131.57Z"/><path class="cls-4" d="M311.53,180.78c-5.55,3.65-13.53,4.86-18.48,9.12-3.57,5.1-11.25,4.34-14.22,9-.84,7.37-4.79,13.53-7.91,19.92-6.54,19-30,28.83-30.12,49,.84,18,1.07,35.45,9,52.48,2,3,1.9,9.66,6,10.19,14-3.5,27.07-12.62,42-9.88a2.6,2.6,0,0,0,2.06-1.15c5.09-15.89,10.42-31.71,15.67-47.53,3.42-10.95-13.16-12-20-15.82-11.86-1.67-21-7.76-12.39-20.69,11.94-17.19,31.56-30.88,29.73-53.84C312.9,180.55,313.36,179.56,311.53,180.78Z"/><path class="cls-3" d="M298.15,323.76c-14.07-2.51-27.76,6.46-41,10.34-9.27,2.89-17.56,7-23.88,14.76-3.65,4.41-8.44,7.76-8.06,14.75-.61,9.66-3.12,19.32-1.29,29.13.76,3.35-.61,11.41,1.75,13.16,18.94-10.65,53.16-15.9,73.09-6.24,4.87,4.95,3.12-21.06,4.26-24.64-.69-13.69-1.45-27.3-2.29-41C300.2,330.83,301.12,325.89,298.15,323.76Z"/><path class="cls-2" d="M246.73,739.48c-14.07,14.46-8.15,41.23,15.56,34.27,19.19-3.22,25-23,16.6-37.54C273.93,720.18,255.34,732.58,246.73,739.48Zm17.32,19.22c-5.12,3.7-13.24-2.64-11-8.21,1.73-5.44,1.8-5.36,8-5,2.38-.14,2.69-3.7,4.41.14h.08C269.63,751.52,268.22,755.55,264.05,758.7Z"/><path class="cls-3" d="M336.25,111.87c-4.41.07-5.93-3.73-8.9-5.4-23.34-18-48.14,18.33-67.76-1.52-10-11,7.3-20.69,12.24-29.66,21.53-29.82,4.64-70-35.74-57.2C218.9,19.92,207,35.81,207.87,52.85c-1.06,15.89,12.93,22.06,21.22,32.55,4.49,8.9-1.9,24-12.24,25.1-27.69-1.37-51.11-15.59-76.36,6.54-2.67,2.28-19.09,32.86-9.21,25.86,8.37-4.56,16.66-9.36,25.18-13.54,5.55-3.27-2.36-11-1.07-15.89,5.48,2.58,5.63,9.5,5,14.67a1.62,1.62,0,0,1,.83-.68c14.07-10.8,30.65-10.65,47.61-11.48,13.54-2.29,23.05,10.64,26.09,22.58,9.58,32.33-16.05,36-14,47.84-.08,4.49,6.54-2.73,8.29-3.42,6-5.4,12.7-10.34,12.24-19.77,1.29-7.38,3.5-14.68,1.6-22.36-.23-2.74-1.07-6.62,1.22-8.83,2.43,4,.83,9.28,2.13,13.69,4.63-4.33,2.89-12.32,7.45-16.58,1.14,7.23-4.26,14.23-6.24,21-5.17,16.74-4.79,31,8.29,43.51,6-4.64-6.46-17.42-4.41-25.71.38-15,10-30.8,23.58-37.8,11-3.34,23-8.59,34.68-5,5.48,1.68,3.65-8.67,9.66-10.57-4.18,16.5-6.16,7.76,20.15,16,7.23.84-.15-9.73-.6-13.16C338.15,115.37,337.09,111.87,336.25,111.87Zm-99.4-45.8h-.76c-1.22-.38-2.51-.68-3.73-1.06,3.19-2.29,19.24-5.56,21.22-1.45C248.56,65.92,242.63,65,236.85,66.07Z"/><path class="cls-2" d="M219,737.33c-6.07.82-11.4.69-17.6,1.12-31.56,2.4-31.73,45.07.83,41.44,8-1.37,14.82-5.11,21-10.42C233.31,762.52,233,739,219,737.33Zm-9.67,22.83-.07-.08c-4,9-17.89,5.37-15.4-3.38C198,748,213.4,747.78,209.3,760.16Z"/><path class="cls-1" d="M264,749.93c-1.58-1.4-4.57-1.14-6.9-1.68a32.37,32.37,0,0,0-.61,4.69c.06,3.66,3.07,3,5.82,2.9C264.05,754.12,266.47,752.08,264,749.93Z"/><path class="cls-4" d="M259.59,398.29c-11.56.16-22,6.47-32.78,9.89-2.36,3.35.68,8.37.91,12.1,2.21,14.52,5.78,29.05,6.69,43.57-1.36,33.47-1.21,66.93.16,100.4-.69,25.48,8.88,70.72,1.32,88.38-3.92,5-8.3,10.19-10.14,16-3,9.71-4.15,20-6.11,30-.19,16.68-30.3,29.32-15.45,35.26,4,1.11,9.59,2.47,13.59.75,1.93-1.47,3.34-1,5.35-.18,17.94,2.95,6.15-31.76,17-40.64,11.18-11,18,12,15.86,20.57.43,2.77-3.83,16.43,0,13.94,4.33-2,8.52-4.31,13.59-3.82,5-2.33,5.35-22,7.48-28.69,9.45-51.59-21.56-33.53-14.07-49.88,13.84-17.75,13.77-42.24,15.9-64.52q6.27-39.93,11.26-80.09c1.37-13.39,3.72-26.62,5.24-40-1.9-18.71,3-37.2,5.33-55.75C295.49,394.57,270.31,399.13,259.59,398.29Z"/><path class="cls-4" d="M248.64,189.83c-2.44-5.25-6.09-10-6.54-15.9-.08-.53-.76-1-1.22-1.45-4.64,12.33-19.85,15.67-20,23.35-.69,11.94-1.45,44.27,18,30.88,8.6-7.37,11.26-18.71,15.59-28.75C256.17,193.63,251.07,192.79,248.64,189.83Z"/><path id="Main_character-2" data-name="Main character" d="M326.9,159.48c-16.89,6.24-35.22,10.5-51.11,18.71,17.64-2.43,33.62-11.64,50.8-17.27A1.72,1.72,0,0,0,326.9,159.48Zm38.48-7.3c-2.89.83-5.85,1.75-9.12,2.66-24.27,8.67-50.35,14.53-72.18,27.84,17-4.19,33.62-13.16,50.5-18.64,9.89-4.71,23.58-4.41,31.56-11.79C365.91,152.25,365.61,152.1,365.38,152.18ZM340.21,137a21.85,21.85,0,0,0-4.34-1.14c-13.84-.83-27.76-1.6-42-2.36-2.43.16-4.26-.53-6.08.69C304.69,137.73,322.87,137.88,340.21,137ZM232.36,65c1.22.38,2.51.68,3.73,1.06h.76c5.78-1.06,11.71-.15,16.73-2.51C251.6,59.45,235.55,62.72,232.36,65Zm188,37.43c-5.78,3.27-11.94,5.32-18.18,2.74-17.26-6.93-34-14.68-48.06-27.08-17.8-13.23-31.64-30.8-47.39-46.24-7.75-7-11-17.5-19.39-23.88C274-4.27,252.59-1.53,239.66,10.18c-1.9,1.83-3.72,2-6.08.46-24.87-18.71-44,12.24-60.85,27-21.67,22-32.93,53.85-60.92,69.67-27.76,17.34-38.48-.16-52.63,5-12.7,10.12,1,38.34,16.81,24.27,1.06,4.71-1.75,10.42,2.59,13.91,7,5.25,12.16-3.27,17.11-7.07.68,9.66.76,11.41,11.1,11.87-2.05,3-5.78,3.42-8.36,5.78,2.73,3,8.29,2.28,12.24,3.11l.45-.13h0c2.51,2.36,11.9-.41,8.78,4.61-4.71,8-8.82,16.35-13.08,24.64-9.2,18.41-42.36,87.47-59.93,92.79-9.35,3.42-12.7.53-19.62-5.85-7.08-6.09-11.94,3.95-8.14,9,5,4.49-.76,3.27-2,4-5.4,2.28-12.17,2-16,7.22-3.57,5.86,3.05,4.79,1.53,7.53-6.39,18.25,23.88-3.27,31-1.52-3.58,4.56-9.66,6.92-13.54,11.1-1.83,3.35-2.89,8.52,3.27,7.53,18.86-4.56,34.3-17.41,52-24.11.68,5.78-4.26,9.89-3.58,15.82,2.36,11.72,17.49-11.63,21.9-12.7-13.69,41.22-20.45,85.11-17.18,128.61,3.34,19,6.61,38,7.53,57.42,3.49,22.52,2,45,3,67.69,3.12,18.18,4.1,36.74,8.36,54.76,5.56,20.39,15.59,40.91,7.46,60.22-3.85,13.47-4.15,28.3-13.23,39.82-8.7,12.51-25.9,13.52-26.1,30.52-11.92.73-18.91,10.82-18.35,22.33-1,12.48,8.51,19.83,20.15,21.68,16.37,2.18,26.46-15,26.57-30.05a65.11,65.11,0,0,0-3.77-8.88c1.86-1,3.77-.45,5.71,0,13,3.7,29.06-9.76,24.81-23.65-1.81-6.77-.67-13.6,2-20.09,5.58-8.56,10.07,9,9.32,13.11-.72,5.74.9,13.64-2.66,18.37-53.08,25.35-3.17,72.17,20.79,29.42,6.63-12.08,5-19.06-.71-31,3.59-17.06,3.39-34.44,3.1-51.76.11-11.85-2.5-22.61-11.59-31.06-.8-.75-10.3-5.82-9.53-7.34,4.95-9.91,9-19.16,13.7-28.89a409.52,409.52,0,0,0,22.13-84.27c.61-19.17-11.94-51.65-4.41-67,11.49-19.24,26.62-36.73,32.25-58.87A390.45,390.45,0,0,0,205,345.36c0-.23.84-.53,1-.38,4.87,4.26,9.73,8.44,14.37,12.85,2.51,2.44,1.83,5.63,1.37,8.75-2.2,11.18-1.52,22.51,0,33.84,3.73,25.48,10.5,50.73,10.5,76.67-5.16,52.43.24,104.64,3.95,155.76-.22,13.08-7.34,21.82-12.66,33.06-4.45,8.39-3.43,18.29-5.86,27.28-.38,21.85-30.24,29.54-17.51,42-24.28,1.82-37.65,33.25-12.72,45.73,24.3,11.67,62.06-20.73,39-43.75,17.18-.46,7-28.27,15-40.16,3.67-8.22,9.37,1.3,10.59,5.88,3.05,9-.74,17.94-1,26.92-2.57,3.1-6.44,6.2-8.87,9.62-29.95,51.44,54.86,50.68,42.27,1.59-1.49-5.13-3-11.32-9.21-13.87a2.19,2.19,0,0,1-.88-1.81c1.83-12.54,6.21-24.59,6.22-37.32,2-14.2,2.59-28.86-13.57-35.43-6.05-2.46,4.22-14.86,5.36-19.19,7.61-16,7.85-37.56,10.13-55.74,5.17-25.55,6.54-51.72,10.65-77.5,3-18.48,5.48-37,4.64-55.75,6.77-37,10-74.46,5.25-112-2.36-10.95,3.57-21.37,6.08-31.87,2.74-9.05,5.93-18,8.75-27.15,2.13-6.77,1.06-8.9-4.72-13.08-7.22-5.25-15.74-6.77-24-8.9C272,245.35,296,225.8,300.89,218.12c3.65-4.64,6.69-9.81,10.19-14.6,3,8.89,1.75,19.24,3.42,28.59,2,10.68,2.19,26.34,6.91,36.54-2.58,19.1,9.67,40.38-5.16,56.48-11,12.47-10.19,46.39,7.53,18.33,3,7.38,1.06,16.35,2.05,24.34,1.52,10.64-2.51,23.8,5.86,32.17,3.12,3.27,3.95-1.29,5.1-3.2,8.21,14.15,10.64-2.43,12.54-10,3.12,1.75,2.59,8.67,6.47,8,3.95-2.06,4.33-9.51,5.17-13.85,1.22,1.14,2.59,2.13,3.73,3.35.53,1.75,2,4.64,3.65,2.13,2.89-16.66,6.84-34.53,1.37-51-1.07-2.89-2.44-5.78-6.92-5.86-11.56.84-4.57-45.25-5.78-54.61.38-14.52.45-29.05-2.21-43.35.61-21-1.82-41.91-1.52-62.9.46-3.34,4.94-4.18,7.53-5.4a215.31,215.31,0,0,0,39.62-17.34c5.25-4.18,15-7.53,12.17-16.12-.15-.38.23-1.52.46-1.52,8.06-1.22,22.44,1.44,23.73-9C438.78,110.73,430.49,94.45,420.37,102.44ZM290.09,188.76c-5,8.44-24.42,7.07-29.21-.61-3.42-6.23-6.23-13.46-6.54-20.76,2.36-15.14,9.89-31,25-35.82-4.48,5.93-9.73,11.18-11.63,18.71C263.09,167.09,271.83,189.14,290.09,188.76ZM335.64,132c8.14,1.6,16.2,3.73,24.65,3,4.64-.46,8.67,1.36,12.7,3.42-17.27-.76-34.68,2.66-52.1,2.66-15.52,2-31.11-.91-46.62,1.29C285.83,118.49,315.11,129.21,335.64,132Zm3.88-1.52c-26.31-8.21-24.33.53-20.15-16-6,1.9-4.18,12.25-9.66,10.57-11.64-3.57-23.65,1.68-34.68,5-13.54,7-23.2,22.82-23.58,37.8-2,8.29,10.42,21.07,4.41,25.71-13.08-12.47-13.46-26.77-8.29-43.51,2-6.76,7.38-13.76,6.24-21-4.56,4.26-2.82,12.25-7.46,16.58-1.29-4.41.31-9.73-2.12-13.69-2.29,2.21-1.45,6.09-1.22,8.83,1.9,7.68-.31,15-1.6,22.36.46,9.43-6.24,14.37-12.24,19.77-1.75.69-8.37,7.91-8.29,3.42-2.06-11.86,23.57-15.51,14-47.84-3-11.94-12.55-24.87-26.09-22.58-17,.83-33.54.68-47.61,11.48a1.62,1.62,0,0,0-.83.68c.68-5.17.53-12.09-5-14.67-1.29,4.94,6.62,12.62,1.07,15.89-8.52,4.18-16.81,9-25.18,13.54-9.88,7,6.54-23.58,9.21-25.86,25.25-22.13,48.67-7.91,76.36-6.54,10.34-1.07,16.73-16.2,12.24-25.1-8.29-10.49-22.28-16.66-21.22-32.55-.84-17,11-32.93,28.22-34.76,40.38-12.78,57.27,27.38,35.74,57.2-4.94,9-22.2,18.63-12.24,29.66,19.62,19.85,44.42-16.43,67.76,1.52,3,1.67,4.49,5.47,8.9,5.4.84,0,1.9,3.5,2.67,5.47C339.37,120.77,346.75,131.34,339.52,130.5Zm-85,67.46c-4.33,10-7,21.38-15.59,28.75-19.47,13.39-18.71-18.94-18-30.88.15-7.68,15.36-11,20-23.35.46.46,1.14.92,1.22,1.45.45,5.86,4.1,10.65,6.54,15.9C251.07,192.79,256.17,193.63,254.49,198Zm-56.43-17.11c9.13-3.12,15.21-9,19.77-17.19,10-14.22,3.2-35-9.88-44.95,16.27-2.73,23.27,14.07,26,27C237.38,164.27,217.68,190.51,198.06,180.85Zm-96.52-28.6c-5.7-2-.22-10-3.27-13.91-5.24,2.73-17.34,18.4-19.54,5.55.07-4,1.67-7.84,1.14-11.79-5.93,3.12-12.4,9.43-18.25,3-5-4.26-6.32-13.61-2.51-18.94,4.94-7.3,21.37,5.25,34.37.61,45.86-9.28,58.64-60.08,91-87.31C200.8,12.84,212.13.07,236.09,13.76c-5.93,4.1-13.77,4-19.17,9.88a37.15,37.15,0,0,0-9.81,40.85,31.6,31.6,0,0,0,12.7,15.05c9.89,5.78,10.95,20.84,1,26.62-15.36,5.25-31.87-6.16-47.84-4.56-28.06.61-41.45,16.43-48.07,42.29-1.9,4.26-7.15,5.32-10.72,7.83C110.06,154.23,105.73,152.86,101.54,152.25Zm3,8.75c15.44-9.73,33.31-15.74,48.83-25.63,12.85-5.32,24.56-16.81,39.24-15,7.76.15,12.78-2.06,19.17,4.48-6.92,5.4-17.65,5.63-25.86,9.13-17,5.93-36.43,9.28-51.72,18.18,26.09-6.77,51.64-15.9,77.12-24.49,5.1.45,5.63,9.12,7.84,12.93,1.21,3.34.38,4.41-3.2,4.33-10.42-.38-20.53,2.06-30.72,3.81-17.88,3.11-35.75,6.31-53.85,7.53-.46,0-1.22-1.75-1.83-1.75C121.24,156.29,113,162.52,104.51,161Zm11,1.87c3.15-.75,6.42-1.4,9.31-2.25,12.62-4.41,26.16-3.57,39.24-6.39,17.95-2,35.75-7.68,53.93-6.16,4.56,3.27-1.07,12.47-3.27,16.35-6.09,9.05-14.23,14.91-25.48,13.85-19.63-2.06-38.72-7.76-57.73-12.86C128.41,163.29,120.93,162.22,115.51,162.87ZM195,215.3c-4.79,31.64,24.18,38.72,18.25,64-3,17.19-12.17,31.87-24.87,43.58-4.64,2.29-11-6.16-15.51-8.06-19.7-12-39.4-26.54-62.52-30.8-1.45-.46-4.49,0-3.5-3,1.82-6.09,2.81-12.78,6.23-17.88C123.52,241.47,165.43,238,166,219.56c-.23-11-.84-22.13-1.52-33.16.61-2.13-2.89-10.42-.31-10.26,8.75,2.28,17.35,5.32,26.4,6.08C203.46,182.22,190.91,198.27,195,215.3Zm-92.87,49.14c-3-8.45,10-12.55,14.23-18.49,6.54-6.23,12.85-12.85,19.31-19.24,12-10.11,17.5-23.73,25.25-36.12,2.82,6.54,2.29,14.14,2.82,21.14,0,9.51-.76,15.06-10.88,20-12.09,7.08-26.62,11.64-36,22.21-11.1,7.61-8.59,22.51-15,32.48C100.25,279.27,106.34,271.66,102.15,264.44ZM27.31,284c.84,1.6,8.83,4.26,4.42,5.71-5.78,1.59-7.91,2.66-10.12-2.13C20.16,281.7,23.51,279.72,27.31,284Zm47.08,33.54c.76-6.16,3.65-11.86,3-18.17-11.71-1.91-23.34,10.87-34.22,15.13-7.15,2.82-14.53,8.29-22.21,8.22,1-8.52,14.91-8.6,14.76-17.95-2.06,0-4.11-.08-6.16-.08-9.06,2.21-16.36,7.68-25.1,7.61,1-9,13.54-6.39,17.87-12.48C15.3,297.9,9.29,304.67,2.29,304c4-5.71,15.9-8.14,22.74-8.52,5.33-3,11.64-3.65,17.57-5.33,4.56-1.75,10.5-2.05,14-5.62,26.84-36.21,45.93-76.67,66.39-116.6,8.06-3.12,24,4.79,33.24,5.86,6.46.91,3.88,9.81,4.41,14.52-15.67,25.41-35.52,48.6-59.48,66.93-2.43,2.21-4,5.25-2.35,8.22C106.26,284.06,92,307.1,74.39,317.52Zm5.27,461.64C65.27,794.82,38,772.34,51.55,753.84c5.57-9.4,14.74-6.58,23.42-6.83C94.31,745.2,89.83,770.36,79.66,779.16Zm68-37.39c5.06,12.71-2.71,24.22-11.14,33.24-3.67,4-13.68,4.43-20.14,2.44-6.75-2-12-12.55-7.76-18.79,4.42-15.45,18.53-19.67,32-23.53C142.74,734.41,146.19,737.76,147.61,741.77ZM191.9,400.88c-5.48,22-19.78,39.7-32.17,58.18-8.83,13-1.68,28.45-.54,42.67,1,7.83,1.22,15.9,2.51,23.73.84,11.33-3.27,22.06-4.79,33.24-6.61,25.25-13.09,53.45-26,75.51-15.37,23.65,13.39,13.65,15.59,38.53,1.37,6.16.8,12.85.89,19.27-.81,12.35,2.19,26.34-2.34,37.85-24.41,11-7.9-1.62-12.59-18-1.23-5.6-3.33-13.89-10.74-12.88-8.12,2.43-7.36,22.53-5.75,29.11,1.19,23-25.08,16.43-39.21,15.63-2.65-1.21-11.38,1.67-10-3.28,1.63-7.51,7.3-11,12.93-14.74C99.44,715.14,101.17,692.6,106,673c2.32-8.4,2.12-16,2.88-24.38-3.8-18.25-13.37-45.09-15.73-67.3-3.8-19.62-2.74-39.62-3.12-59.55-1.82-24.11-5-48.22-8.21-72.25-5.7-30.5-1.83-61.23.61-91.8-.84-4,11.71-4.79,14.83-5.86,15.44-2.2,30.65-1.9,45.71,2.21,18.63,5.24,36.58,10.95,53.39,18.93C198.06,382.25,194.1,392,191.9,400.88Zm5.4-32.7c-.15,1.67-.08,1.59-1.07,1.21-6.69-2.58-13.23-5.32-20-7.75-19.93-7.38-40.76-14.23-62.21-14.23-9.13.38-18.33.92-27.15,4.11-2.51,1-3,.38-2.13-3,4-11.26,10.42-66.4,26-61.38,33.77,8,62.52,31.11,89.44,52.18C203.84,341.86,198.59,363.46,197.3,368.18Zm24.56-15.9c-4.41-7.91-35-21.52-30.27-28.44,9.44-10.12,19-20.84,21.68-35,4.18-14.22,6.24-26.09-4.64-37.88-14.83-18-12.78-43-8.9-64.64,2.51-3.27,11.94,1.29,16.66-3,.3-.15,1.37.31,1.37.53,1.67,15.06-4.64,33.32,6.31,45.79,5.48,6.77-1.82,22.89-1.6,31.79-.83,6.24-1.06,12.55-1.59,18.79-2.82,16.8-.23,33.61.76,50.5,1,5.78-1.3,12.77,3.34,17.26,1-13.76-2-27.68-2.58-41.45.68-20.15,1.82-38.56,4.64-58.18,1.29-4.94.22-13,5-15.82,8.74-.84,13.38-7.15,16.8-13.77,4-7.91,6.77-16.43,10-24.72,1.15-3,.61-2.51,3.2-.91,3.42,3.88,16.5,2.82,13.16,8.06-5.18,13.31-11.18,26.55-21.07,37.2-8.44,8.06-16.43,18.1-16.51,30.42-.45,10,1.6,19.92,2.74,29.89s5.48,18.78,9.36,27.76c1.44,3.27.38,6.39-3,7-9.89,2.58-14.75,12.32-21.75,18.86C224.53,353,222.4,352.81,221.86,352.28Zm1.3,417.19c-6.14,5.31-12.95,9-21,10.42-32.56,3.63-32.39-39-.83-41.44,6.2-.43,11.53-.3,17.6-1.12C233,739,233.31,762.52,223.16,769.47Zm55.73-33.26c8.41,14.51,2.59,34.32-16.6,37.54-23.71,7-29.63-19.81-15.56-34.27C255.34,732.58,273.93,720.18,278.89,736.21Zm16.44-274.86c-1.52,13.38-3.87,26.61-5.24,40q-5,40.15-11.26,80.09c-2.13,22.28-2.06,46.77-15.9,64.52-7.49,16.35,23.52-1.71,14.07,49.88-2.13,6.71-2.44,26.36-7.48,28.69-5.07-.49-9.26,1.83-13.59,3.82-3.82,2.49.44-11.17,0-13.94,2.17-8.55-4.68-31.57-15.86-20.57-10.8,8.88,1,43.59-17,40.64-2-.82-3.42-1.29-5.35.18-4,1.72-9.55.36-13.59-.75-14.85-5.94,15.26-18.58,15.45-35.26,2-10,3.1-20.29,6.11-30,1.84-5.83,6.22-11,10.14-16,7.56-17.66-2-62.9-1.32-88.38-1.37-33.47-1.52-66.93-.16-100.39-.91-14.53-4.48-29.06-6.69-43.58-.23-3.73-3.27-8.75-.91-12.1,10.8-3.42,21.22-9.73,32.78-9.89,10.72.84,35.9-3.72,41.07,7.31C298.3,424.15,293.43,442.64,295.33,461.35ZM303,375c-1.14,3.58.61,29.59-4.26,24.64-19.93-9.66-54.15-4.41-73.09,6.24-2.36-1.75-1-9.81-1.75-13.16-1.83-9.81.68-19.47,1.29-29.13-.38-7,4.41-10.34,8.06-14.75,6.32-7.76,14.61-11.87,23.88-14.76,13.24-3.88,26.93-12.85,41-10.34,3,2.13,2.05,7.07,2.58,10.27C301.57,347.72,302.33,361.33,303,375ZM283.17,235.38c-8.6,12.93.53,19,12.39,20.69,6.85,3.8,23.43,4.87,20,15.82-5.25,15.82-10.58,31.64-15.67,47.53a2.6,2.6,0,0,1-2.06,1.15c-15-2.74-28.06,6.38-42,9.88-4.11-.53-4-7.15-6-10.19-7.91-17-8.14-34.45-9-52.48.15-20.15,23.58-30,30.12-49,3.12-6.39,7.07-12.55,7.91-19.92,3-4.64,10.65-3.88,14.22-9,4.95-4.26,12.93-5.47,18.48-9.12,1.83-1.22,1.37-.23,1.37.76C314.73,204.5,295.11,218.19,283.17,235.38Zm70.73,9.74c.68,26.47-1.9,53,.53,79.4.46,7.15,5.78,6.39,10.65,8.44,8.59,14.76,3.34,33.39,1.22,49.29-7.15-5.63-3.2-13.16-8.22-18.94-.38,1.22-1.22,2.59-1,3.73,1.07,8,2.51,18.1-1.9,25-3.42-5.33-2.28-12.63-5.48-18.1-4.71,7.53-2,18.86-7.52,26.54-2.36-2.51-1.91-7-2.59-10.27-.3-3.27,1.9-6.77-.76-9.5-4,4.94-1.37,12.7-5.4,17.49-5.17-6.24-4.64-15-4.64-22.74.08-4.34,1.82-44-7.38-32.55-2.66,2.43-5.17,9.12-9.2,8.06-4.11-19.32,17.26-31.57,14.53-50.43-2.7-10.21-1-22.08-4.69-31.83-.59-27.44-12.25-58.66-6.27-86.13-1.14-5.86,28.07-11.26,33.85-14.22,2.05,5.55.46,11,.76,16.73.68,6.31,1.6,12.55,2,18.94C351,217.74,353.14,231.35,353.9,245.12Zm-40.77-67.24c-6.61,2.36-13.23,4.87-19.7,7.53-16.35,4.72-24.87-15-23.8-28.59.76-5.48,1.29-14.38,8.9-12.63,9.12.23,18.33.76,27.53.69,16.66-.92,33.24-3.43,49.82-5.18,2-.15,4.56-.22,6,.84,3.5,2.44,7.15.69,10.65,1.22,4.34.84,9.13-1.75,13.31.45-3.8,3.58-9.58,2.21-14.37,3.58-7.53,1.29-14.91,3.42-22.44,4.49-18.71,3.11-35.67,8-53.92,12-7.38,2-17.57.31-23.28,5.63,16.28.23,32.94-6.39,49.14-9.28,13.84-3.27,27.91-4.64,41.67-8.29,2-.38,4.26,1.45,6.39,1.22,10.12-2.51,20.08-8.67,30.58-8.29C372.76,158.26,341.88,166.7,313.13,177.88Zm120.63-58c-3,8.22-19.85,3.58-27.16,5.56,7.15,5.85,3.2,12.62-4.63,14.07-9.36,1.44-18.26-1.6-27.23-3.65-8.6-2.06-17.65-2.36-26.32-4-7.53-5.55-2.89-20.61-13.46-23.65-14-8.67-26.09-13.77-41.68-5.1-7,2.36-13.76,5.63-21.37,5.33-9.13.07-17.11-11.26-9-18,4.86-4.94,9.81-9.89,13.08-16.2,13.91-20.46,10-56.81-18.41-61-5.63-.53-11-.76-16.35,1.37-.46.16-1.22-.3-1.83-.53,6.39-9,18.18-11,28.52-11.33C282.1.83,289.33,13.91,296.7,23.42q20.21,23.27,42.37,44.72a173,173,0,0,0,61.07,38.78c6.46,2.67,13,2.67,19.47-1.44C430.26,98.1,435.66,110.42,433.76,119.85ZM265.45,745.6c-1.72-3.84-2-.28-4.41-.14-6.23-.33-6.3-.41-8,5-2.2,5.57,5.92,11.91,11,8.21,4.17-3.15,5.58-7.18,1.48-13.09Zm-3.12,10.24c-2.75.12-5.76.76-5.82-2.9a32.37,32.37,0,0,1,.61-4.69c2.33.54,5.32.28,6.9,1.68C266.47,752.08,264.05,754.12,262.33,755.84ZM201.86,172.41c-4-3.5-10.72-1.75-15.82-2.89-12.24-.84-25.1-1.14-36.66-5,5.71-3.73,22.67.3,30.65-.61,11.26-.38,23.05,1.29,34-.68-.61-.54-1.22-1.37-1.82-1.45-3.58-.38-7.15-.61-11.11-.84-23.65,2.36-47.46-2.43-70.5,1.68,20,3.8,39.7,9.05,60.23,10.49C194.48,173,198.9,175.22,201.86,172.41ZM129.52,762.52c6.78-.42,5.93-7,4.62-11.57C125.61,752.16,117.38,757.66,129.52,762.52Zm1.32-3.33-3.64-1.29c.35-1.18.53-1.77.86-1.94,1.09-.52,2.3-.85,3.39-1.37C131.27,756.18,131,757.68,130.84,759.19ZM202,141.91c4.87-1.14,10.5-.15,15-2.74-10.42-2.58-21.68,2.44-32.48,3.65-3.88,1.37-8.36.84-11.56,3.05C182.32,146.55,192.36,142.75,202,141.91ZM193.83,756.7c-2.49,8.75,11.44,12.42,15.4,3.38l.07.08C213.4,747.78,198,748,193.83,756.7Zm7.29-3c2.42.31,4,.64,5.65.9C206.26,768.12,189.57,759.92,201.12,753.68ZM61.69,759.22v-.07c-3.37,7.77,8.37,11.79,10,3.28C72.13,753.4,66,754.23,61.69,759.22Zm5.58,4.47c-3,2.12-2.49-2.64-2-4.48C69.36,759,68.13,761.29,67.27,763.69ZM165.2,148.6l-.07-.07a18.26,18.26,0,0,0,3.19-1.75c-3.19-.53-7.91.91-10.27,2.58C160,151,162.69,148.91,165.2,148.6Zm132,3.2c19.47-2.21,38.94-4,58.26-7.15-17.42-.23-35.21,2.89-52.71,4.11-9.89,1.9-22.66.45-31.48,4.33l.07.08C279.74,155.3,288.49,152.1,297.16,151.8Zm-111.5-28c-.3,0-.76-.23-1-.15-4.94,2-9.81,4-14.52,6.08,5-1.75,9.81-3.57,14.68-5.32A3.36,3.36,0,0,0,185.66,123.81Z"/></g></g></g></svg>