<svg xmlns="http://www.w3.org/2000/svg" viewBox="0 0 408.14 755.23"><defs><style>.cls-1{fill:#999;}.cls-2{fill:#1b1464;}.cls-3{fill:#2e3192;}.cls-4{fill:#29abe2;}.cls-5{fill:#fcee21;}.cls-6{fill:#f15a24;}</style></defs><g id="Layer_2" data-name="Layer 2"><g id="Layer_2-2" data-name="Layer 2"><g id="P4T_-_85" data-name="P4T - 85"><path class="cls-1" d="M175,174.18c-.08-.63-.15-1.33-.23-2-1.25.47-2.42.94-3.67,1.33a16.82,16.82,0,0,0,2,1A2.84,2.84,0,0,0,175,174.18Z"/><path class="cls-2" d="M34.28,299.86c1.17-3.05-2.89-.78-3.67-2.5H29.44a48.58,48.58,0,0,0-5.7-3.05c-.94-.31-2.18.24-3.28.39C20.77,300.56,30.85,303.14,34.28,299.86Z"/><path class="cls-1" d="M164.81,121.56c3.67-2.19,1.57-4.45,1.1-7.73,1,.39,2.34.47,2.89,1.09,4.37,4.76,9.44-5,14.67-3.43-4.13,5.07-11.94,6.24-16.24,11.24,1.8,2.5,4.22,1.64,6.64,2,8.9,2,16.79,6.4,24.9,10.23-2.88-14.45-12.64-28-10.46-43.64.16-1.25.32-2.27-1.79-1.33C181.68,91,175.9,88.14,171,88.85c-7.57.93-15,2.73-22.87,4.52-18.58,2.74-25.22,25.61-31.54,40.91-.94,3-.47,3.83,2.89,3.67,16.94-1.64,27.71,11.56,39.58,21a3.9,3.9,0,0,0-.86-4C149.59,141.78,154.27,130.53,164.81,121.56Z"/><path class="cls-2" d="M154.43,158.87c-10.07-9.13-20.22-19-34.9-17.87-5.07.15-6.48,1.48-7.73,6.48-2,7.33-3.74,14.83-6.32,21.93C95.57,195.88,84.4,221.88,73.86,248,67.38,261.93,63.32,277,53,288.7c-14.76,13.35-32.17,22.8-48.48,34-2,1.32-1.72,1.56.15,1.95,8.75-.32,16.4-7.89,25.14-8.12-3.2,7.34-19.28,6.63-21.78,14.6,8.51,2.73,18-9.45,26.54-6.8,6.17,2.74-6.16,9.76-6.16,14.76,8.35-.08,12.25-9,18.65-13.12,7.11-4.52,13.28-13.27,22.41-12.25.39,6.32-3,12.25-2.73,18.42,7.41-4.21,14.21-10.69,16.39-19.28.32-7.18,7.58-22.49-2.26-25-3.44-1.25-4.37-3.13-2.27-6.25,12.18-12.41,24.52-23.26,34.75-37.94,13.35-16.71,4.29-39.74,21.23-53.25,8.82-7.57,13.74-18.19,20.53-27.32C156.62,160.9,156.15,160.28,154.43,158.87Z"/><path class="cls-1" d="M147.79,235.93c9.3,7.49,19.21,15.15,30.22,19.67a221.38,221.38,0,0,0-10.62-37.47c-2.58-2.34-5.85,3.67-9.13,4.84-3.28,2.26-6.64,4.53-10,6.87C144.13,232.81,144.2,232.73,147.79,235.93Z"/><path class="cls-3" d="M207.52,163.79c5.78-.39,10.07-3.51,14.36-7.57,3.52-4.76-4.13-5.07-6.71-7.57-15.22-9.76-30.53-19.75-48.79-22.41-18.74,8.51-6.72,40.29,10.93,44C190.11,174.1,196.67,167.93,207.52,163.79Z"/><path class="cls-4" d="M109.62,721.53c-8.72-.54-20.08-.55-27-6.79-3.44,8.08-.91,17.78-2.86,26.39-1,7.51.83,6.52,6.48,6.48,13.43-.87,26.86-2.14,40.35-2.44,3.83-.06,4-1.78,4.21-4.2.19-11,2-22.42.6-33.26C126,716.85,119.88,721.49,109.62,721.53Z"/><path class="cls-1" d="M134.84,340.7c6.63-3.2,3.59-13.74,5.93-19.83,2.89-17.8,9.68-34.35,15.93-51.14.46-1.56,0-4.91-.94-5.3-7.26-3.21-14.76-5.94-22.17-8.59-1-.31-2.5-.86-3.2,1.79-3,12.1-6.56,24-10,36.77-5.46,14.13-7.8,29.44-9.21,44.5C112.59,344.37,129.76,340.15,134.84,340.7Z"/><path class="cls-4" d="M144.52,719.34c.92,5.65-5.12,29.06,3.29,27.08,3.83-.94,9.51-1.13,9.4-6.4,0-8.42.32-16.78.88-25.18.1-.42.18-.83.27-1.25C154,717.25,144.15,711.51,144.52,719.34Z"/><path class="cls-1" d="M140.69,523.54c4.76-12.33,2.89-26.93,5.54-40,4-28.89,21.47-52.7,31-79.63,4.92-16.94,12-33.26,13.35-51.06-2.48-4.89-13.06-5.44-18.44-7.84.31,11.38-8,22.77-11.07,33.68-4.3,11.71-7.73,23.66-8.67,36.22-1.72,8.36-.94,32.79-5.93,37.48-2.11-27.33-9.29-55.28-11.87-83-2.26-7.65,4.14-23.27,1-26.08-3-1.09-7.19,1-7.34,3.28a327.16,327.16,0,0,0-1.56,45.44c2,18.58,7,36.69,9.83,55.2C143,472.4,139.13,498.17,140.69,523.54Z"/><path class="cls-5" d="M146.16,377.55c3.12-3.75,2.57-8.43,3.9-13.66,3.51-6.56,7-13.2,10.38-19.83-1.17-3.13-7.41-1.1-9.83-.63-1.25.39-.55,4.61-1.72,6.09C148.34,358.81,144.75,368.49,146.16,377.55Z"/><path class="cls-2" d="M140.14,345.46c-6.16,28.5,1.18,59,7.5,86.74,3.36-5.23.47-11.71,1.79-17.41a254.29,254.29,0,0,1,6-28.73c2.26-8,6-15.46,8.9-23.19,2.91-5.38,2.73-14.23,7.56-17.94l-.38-.17c-5.31-1.72-7.26-1.33-10,3a92.24,92.24,0,0,0-13,34c-.79,4.14.15,8.67-2.81,12.1-2.11-4.45-1.25-9-2.35-14.05-1.09-11.09,1.1-22.09,3-32.94C148.73,340.93,141.71,342.42,140.14,345.46Z"/><path class="cls-3" d="M219.78,366.31c-8.28-4.3-16.32-9.45-24.75-13.74-2.5-.55-1.8,7.18-2.81,8.9-2.19,12.33-6.4,24.12-10.07,36.06-4.77,19.52-15.31,36.85-23.19,55.2-13,26.08-11.32,55.43-15.85,83.54-1.4,6,1.25,13.5-2.58,18.5-.46-.55-1.32-1.09-1.32-1.64-.24-11.71-.39-23.5-1.33-35.29-1.95-18.81,1.48-38-1.56-56.83-4.45-24.91-11.32-49.73-12.8-75.11.31-13.35-.79-26.78,2.26-40,.16-.86-.31-2.26-2.26-2-3.75,1.17-10.15-1-12.42,2.73-1.95,18.51-3,37.16-4,55.75-9.91,56.05,1.09,113.28,6,169.72,4.06,27.4,13.45,43.78,15,68-6,22.61-23.12,35.75-37.2,53.42a28.19,28.19,0,0,0-7.53,17.09c1.26,5.08,17.23,5.89,22,8,14.22,2.14,26.26-9.4,27.77-23.66,1-9.42-3.9-20,2.19-28.27a6.68,6.68,0,0,1,12.5,2,127.6,127.6,0,0,1-1.7,41.63c-1.42,4.23,8.2-1,12.46,2.05,3-13.5,5.46-27.09,7.74-40.65,3.78-12.39,11.36-43.09-7-46.42-7.12-8.1,7.32-57.68,11.85-69.47,13.89-35.83,28.65-71.59,39.66-108.44,4.84-24.51,8-49.34,11.71-74C222.9,370.68,223.52,367.87,219.78,366.31Z"/><path class="cls-5" d="M287.46,109.38c0-4.84,2.81-10.46.63-14.91-1.95-2.27-8.59-.86-9.14,2.1-2.89,19.91-4.53,41.23-17,57.54C277.08,143.88,285,127.72,287.46,109.38Z"/><path class="cls-1" d="M247.59,155.83c.08.47.24.94.31,1.48,5.47-3.12,19.6-9.29,17-16.94-5.07-3-11.16-4.21-15.77-7.73,2.35-4.14,13.67,3.91,16.87,5.7,4.13,4.22,8.27-38.1,9.6-42.55-1.64-3.74-9.92-4-12.88-2.1-3.2,4.45-8.2,6.08-12.73,8-6.95,3.35-.54,16-1.72,22.4.08,7.81-.39,15.69-.7,24.28Z"/><path class="cls-1" d="M228.21,126.55c.31-6.55,1.17-13.11,1.4-19.67.16-3.44,1.64-7.57-3.74-9.37-3.36-1.4-5.94-7.65-9.45-8.59-4.22.16-11.24.08-13.12,4.61-2.89,12.18-.86,23.34-.15,36.15,1.25,15,6.55,3.27,19.28,2.88C228.13,131.94,228,132.41,228.21,126.55Z"/><path class="cls-3" d="M247.72,99.93c1.88-2,14.45-6.09,11.09-8.82-4.06-3.12-8.43.47-11.94,3.43C247.18,96.18,246.09,99.07,247.72,99.93Z"/><path class="cls-1" d="M263.26,74.25c14.76-12.81,3.67-41.54-11.94-50.13-8.2-6.79-18.51-7.41-28.66-4.91-15.92,2.18-21.15,21.15-18.65,35,1.48,15.54,16.94,25.06,28.8,33.18,2.74,1.49,8.36-.47,10.7,1,3.67,4.06,7.42-.63,10.93-2C258.81,83.07,257.87,77.84,263.26,74.25Zm-47.62-22c-.7-.23-1-1.25-1.56-1.95a27.26,27.26,0,0,1,4.52-.39,22.39,22.39,0,0,1,.63,2.81A13.81,13.81,0,0,1,215.64,52.23ZM225,67.61c6.63-4.14,14.05-4.22,21.23-5.39.86-.15,1.95.94,3,1.49C243,66.28,231.49,70,225,67.61Zm22.64-20.38c-.55-.07-1-1.17-1.56-1.71,1.17-.47,2.34-.86,3.9-1.33a6.31,6.31,0,0,1,1.17,2.42A13.93,13.93,0,0,1,247.65,47.23Z"/><path class="cls-1" d="M222.43,134.83c-4.76,1.64-10.54,2-14.6,5.07,4.69,3.91,10.7,6.25,15.93,9.45.15.16.86-.62,1.25-1.72C225,143.65,230.08,132.49,222.43,134.83Z"/><path class="cls-6" d="M161.3,87.21c4.06-.63,8.12-.63,11.24-4.06,2.19-2.35,5.7-2.19,6.8.15,3.2,7.34,6.08-.08,11.24,1a3.12,3.12,0,0,1-.31,2c-.63.23-1.25.39-2,.62.32.47.71,1,1,1.56a7.28,7.28,0,0,1,1.72-2.18c8,4.13,8.27-5.55,13.81-3,2.58,1.64,4.84,3,7.58.08,1.56-1.25,6.95,4.68,7.18,0,1.4-4.53-13.35-10.46-15.54-18.11-7.26-15.3-4.76-39.51,12.34-47.16,2.34-.93,1.87-2.65,1.33-4.21C211.5-1.56,190,16.16,186.21,26.31c-10.47,19.05,4.45,35.05-6.56,33.41-13.66-1.24-30.14-10.14-41.15,2.5a10.44,10.44,0,0,1-6.08,3c-8.36.78-15.31,3.36-18.27,12.1-2.27,5.62-10.23,4.06-14.06,8-8.58,5.94-5.85,21.78-11.32,19.83-7.41-1.48-13.11-11.08-10.93-18.81.47-1.64.94-4.14-1.56-3.75-1.25,2.58-2.89,5.15-3.35,8-2.89,6,9.13,13.66,1,16.24-6.09,2-13.43,9.45-10.23,16.08a17.16,17.16,0,0,1,8.59-7.65C75,122.42,66.76,136.39,72,141a33.44,33.44,0,0,1,2.42-5.7c1.09-1.72,2.81-3,4.21-4.45,5.31,4.45,2.89,10.54,3.91,16.39a14.38,14.38,0,0,0,5.54-14.05,8.44,8.44,0,0,1,.08-3.12c3.82,1.4,3.28,6.55,7,7.73.78-6.33-2.42-12.65-.63-18.9,4.76.94,12.1,5.23,14.91-.78-4.84-1.33-16,.39-12.49-8C100.72,100,110.32,98,118.67,94.23c4.85.08,11.56,2.27,16.09.39C143.11,90.72,152.25,89,161.3,87.21Z"/><path class="cls-5" d="M200.65,89.7c-3.9,2.35-9.6-1.32-9.21,2.58-1.33,12.65,5,23.73,7.1,35.68.08.54,1.09.86,1.64,1.33-.23-2.89-.08-4.77-.16-8.2-3-9.92-1.64-19.83.16-29.82A11.69,11.69,0,0,1,200.65,89.7Z"/><path class="cls-3" d="M234.06,90.33a1.6,1.6,0,0,1-.86.7c-3.2-2-6.4-3.9-9.68-5.78a7,7,0,0,0-2-.54c-1.64,3.35,1.8,5.93,3.59,8.35C231,99.62,232,98.14,234.06,90.33Z"/><path class="cls-4" d="M286.6,184.72c-6.09-1.8-12.41-4.92-18.11-7.89-3.82-2.26-6.32-6.56-11.4-7.34a19.32,19.32,0,0,1-7.65-3c-9.52-8-3-35.06-4.92-47.63-1-4.52,2.58-35.83-6.79-26.62-1.72,2.66-3.59,5.55-4,8.43-2.34,17.41-2.42,35.29-6.48,52.39-3.75,14.21-21.16,13.66-31.62,20.61-7.18,2.11-15.77.23-22.17,4.37,6.64,4.61,25.76,1.48,33.18-2.42,4.06-1.4,7,2.89,4.22,6.25-9.53,7.8-23.11,5.54-34.2,9.52,5,5.62,13,.94,19.6,1.17,5.93-.47,12.18,1.25,17.8-2.26.7-.39,2.1.31,3.12.47-8.82,10.22-24.28,8.74-35.83,14,17.17,11.71,38.09-17.49,37.55,3.75,0,6.87-2.11,14.29,3,20.61-.86,7.34,1.33,14.29,3.28,21.23,1.1,4.3,5.94,5.55,8,1,3.67-5.39.24-11.09,1.57-16.55.07-9.06,1.09-8.36,6.63-15.3,11.79-31.62,7.18-2.5,35.91-9.76-4.29-8.59-20.69-4.22-23.26-14.6,4.68.39,8.59,4,13.11,4.6,4.69.08,11.56,1.72,14.06-3.51-6.87-2.26-30-4.53-24.75-15.61,5.62-3.67,17.56,9.6,28.65,8.51C288.87,189.24,293.47,179.09,286.6,184.72Zm-52.3,29.12c-7.58,8.66-10.93-12.57-.08-14.06C238.28,204.15,235.86,209.07,234.3,213.84Z"/><path class="cls-1" d="M231.64,204.23c.31,2.35-2.73,8.36.39,8.51.24-3.51,3.83-7.88,1.1-10.77A14.08,14.08,0,0,1,231.64,204.23Z"/><path class="cls-1" d="M258.89,182.53c.16,2.42.39,3.51,2.81,4.92,6.64,2.5,13.27,5.07,20,7.34.85.31,2.26-.94,3.43-1.41-7.57-4-16.55-4.68-23.65-10A7.09,7.09,0,0,0,258.89,182.53Z"/><path class="cls-1" d="M277.31,204.47c.16-.55.24-1.17.39-1.8a6.37,6.37,0,0,0-3.51,1.17C275.28,204.08,276.3,204.31,277.31,204.47Z"/><path class="cls-1" d="M182.38,200.33c7-1.41,15.69-.94,21.55-5.08-4.53-.93-9.06.32-14.06.79-2.49.31-5.07.7-7.57.93a13.22,13.22,0,0,1-2.5-.23C180.35,198.38,179.73,201.11,182.38,200.33Z"/><path class="cls-1" d="M252.8,208.92c-6-5.86-5.54,15.14-13.66,17.56-3.83,9.45,2.5,22.17-6.17,29.36-13.12,8-11.55-15.85-14.21-23.89,0-.78.31-1.8,0-2.27-4.92-7-2.65-15.45-3-23.34,1.79-9.52-21.94,11.87-34.67,1.25-5.07-1.64-10.07,6.79-8.19,11,6,12.88,4.52,29.12,12.1,40.91,11.63,9.52,25.45,16.31,37.39,25.37,3.75,3.43,7.5,4,12.1,3.67,5.78,3.36,9.06-3.28,11.4-7.18a51.62,51.62,0,0,1,19.83-21.08c2.34-1.33,4.37-4.3,5.31-6.87,3.83-10.54,5.23-21.86,10.93-31.78,3-11.63-14.76-7.1-21.39-9C257.87,212.27,255.22,210.48,252.8,208.92Z"/><path class="cls-6" d="M385.52,110.47c-.39.08-1.64-1.25-1.56-1.4,3.59-5.63,7.73-14.6-.31-18.43-.71,8.74-1.25,13.19-10.23,17.18-10.23,5.77-6.48-13-17.33-11.4-8-4.61-2.5-23.66-20.3-25.77-11.71-3.2-2.66-11.08-22.49-10.93-9.91-3.74-7.49-16.86-24.74-10-11.71,6.09.15-10.46-4.69-20.53-5.23-16.63-23.19-23.89-39.74-25.61C239,.86,222.27,4.84,220.24,10.77c1.41,1.41.08,4.85,3.83,4.61,27.4-6,52.93,23.27,48.48,49,0,10.54-10.23,11-12.33,19.28,11.32-7.18,11.24,6,19.75,1,6.63-3,2.5,5.23,13,6.4,30,7.49,26.85,22.8,37.24,15.38,8.27-4.84,7.33,11.16,9.83,7.57,11.17-9.44,29.28,8.51,6.17,17.72,4.14,3.67,9.6,5.62,14.36,8.28-.54-4.45-2.65-8.74.24-13,1.17-1.87,2.65-3.67,4.76-1.87,3.12,3.12,6.64,6.48,7.5,11.08,3.82-2.49,6.16-14.67,10.69-7.88,2.58,2.89,13.2,7,13.66,1.25-4.76-.63-5.54-5.78-9.21-7.73-.39-.24-.55-1-.86-1.56,7.42-.94,14.21,7.49,18-3.83C399.1,113.75,392.7,109.14,385.52,110.47Z"/><path class="cls-1" d="M177.23,187.6c4.37-.31,8.74-1.32,13.82-2.1,6.63-1.49,16.62-.39,19-8.36-10.85,5.47-23.74,3.91-35.52,6.64C175.43,185.11,176.45,187.68,177.23,187.6Z"/><path class="cls-1" d="M294.8,95c-1.4-.54-2.65-.39-2.73,2.19a88.54,88.54,0,0,1-12.26,43.48c2.81.32,4.69-2.1,7.18-2.73,8.36-2.81,16.79-2.5,25.46-2-2-5.31-8.44-11.55,1.71-13.11.32,2.49-1.87,6.32-.93,8.19,9.21,12.73,10.38,30.68-.55,42.55,40.13-20.77,43.95,8.51,25.92-37.24C329.46,117.65,316.19,99.7,294.8,95Zm8.75,30.29a12,12,0,0,1-2.58-2,20.36,20.36,0,0,1,3.9-.39c1.1,1.33,2,2.5,2.89,3.67A25.47,25.47,0,0,1,303.55,125.3Z"/><path class="cls-2" d="M307.45,179.87c-3.28,1.41-3.2,3.67-2.58,6.17,9.53,34.74,31.31,64.33,48.56,95.4,13.66,19.6-25.84,49.19-19.75,66.21,7.65-4.22,9.84-14.44,20.92-10.15,16.24,5.07,2.27,34.58,12,44.73,5-3,2.18-9.29,3.9-14,3.75,1.33,1.72,6.24,2.34,9.37-.54,2-.23,3.28,1.56,4.53,3.59-5.08,1.17-12.18,5-17.1,2.81,3.59.62,8,3,11.71,6.16-6.95.78-18.19,5.07-25.76,2.6,5.07,1.09,12.15.19,18.5,5.93-14.54,10.45-46.22-5-54.34-7.11-6.09-5.23-25.06-7.73-34.43.08-38.1-10.31-75.73-23.58-111.33C337.27,162.23,321,175.19,307.45,179.87Z"/><path class="cls-1" d="M188.24,288.08c-3.28-3.83-21.94-21.94-25.53-18.66-8.44,21.39-13.74,43.72-18,66.21-.62,2.73,1.49,5.15,4,4.37,16.95-3.13,33.42,5.54,49.11,10.93,28.18,11.4,25.45,23.26,28,.47,3.35-6.48,5.85-14.53.39-20.54C212.91,317.12,199.71,303.38,188.24,288.08Z"/><path class="cls-3" d="M317.13,146.46c.7-11.94-15.38-7.18-22.8-6.87-10.3,2.34-19.28,5.86-26.78,13.9-4.29,1.79-8.58,3.59-13,5.46l-6.09,2.81c6.48,6.72,17.41,4.06,22.32,12.88,11.71,5.63,22.8,9.53,34,1.33C314.79,169.65,318.77,157.86,317.13,146.46Z"/><path class="cls-1" d="M275.05,252.25a4.68,4.68,0,0,0,.16,1.79c41.45-30.29,23.26-15.3,12.25-31.46-6.32,6.48-8.74,15.46-10.54,24.59C276.3,248.89,275.6,250.53,275.05,252.25Z"/><path class="cls-1" d="M272.63,289.8c-2.5-1.88-8,7.34-10.93,9.29-10.31,11.16-15.46,25.45-24.59,37.39-6,8-2.11,18.74-2,27.95.23,6.8.15,6.72,6.24,3.44A170.72,170.72,0,0,1,275.05,354c2-.62,6.25-.08,5.46-5C276.92,329.38,278.09,308.93,272.63,289.8Z"/><path class="cls-5" d="M272.94,358a6.26,6.26,0,0,0-6.4,6c1,2.89,1.33,17.57,5.31,15.46-.47-5.93-1.72-11.94.62-17.8A17.7,17.7,0,0,0,272.94,358Z"/><path class="cls-4" d="M238.48,718.62c-1.48-1-2.24-.35-2.27,1.48C238.2,744.39,225,757,257.88,750c10.14-1.1,20.21-2.21,30.33-3.23,2.92-.32,3.18-2.49,3.34-4.61.48-8.81,2.32-17.67,1.78-26.52C280.1,732.56,255,727.4,238.48,718.62Z"/><path class="cls-2" d="M274.89,388.63c.16,1.18-.7,2.5-1.09,3.75-.94-.93-2.58-1.87-2.58-2.73.16-4.14-2.18-7-3.82-10.46-2.5-5.47-3-12.18-4.53-18-1.17-.78-6.25,3.28-5.78,4.69,3.91,15.45,10,30.13,16.63,44.57,2.66,6.87,1.72,15,4.84,21.71,2.81-7.57-1.71-16.32-1.09-24.36-.47-14.13,1.64-26.54,3.75-40.83a48.78,48.78,0,0,0,.7-7.5c-.08-1.24-1.17-2.49-1.8-3.82C271.22,360.3,274.35,379.81,274.89,388.63Z"/><path class="cls-4" d="M232.35,291.75c-6.56,1.17-10-3.67-14.68-7.1-7.18-4.69-14.37-9.3-21.47-14.06-14.52-10.85-30.29-17.88-45.36-28.49-11.94-12.88-10.62-2-17.8,8.43-.23.47,1,2.57,1.87,2.81a68,68,0,0,1,20.3,7.73c1.88,1.09,5.23-.39,7.18.7s1.88,4.37,4.77,5.93c5.31,2.81,10.61,6.09,14.75,10.39C198.85,296.36,215.48,315,232,333.6c1.49,1.79,2,1.48,2.81.07,9.61-15.38,18.66-31.46,32-43.95,3-2.81,5.86-4.06,2.89-8.59s5-7.41,5.23-1.4c-1.17,10.15,27.25-23.89,41.85-20.15.31.08.93-.85.86-1.24a43,43,0,0,0-11-21.16c-2.81-5.7-15.93,11.32-20.46,13.11C242.73,271.37,251.47,297,232.35,291.75Z"/><path class="cls-4" d="M308,725.38c1.78,5.66-.7,25.85,8,22.89,3.76-2.23,9.56.7,8.71-5.26-.09-10.35-.63-20.63-3.67-31C318.31,718.08,305.46,716.92,308,725.38Z"/><path class="cls-1" d="M279.34,448.59c-2.57-8.9-3.12-18.42-6.63-27.24-1.49-8-2.5-15.07-7.11-22.33-4.06-4.3-9.83-36.38-14.36-33-2.19,1.41-6.4,1.41-5.86,5.47,1.1,7.42,3.05,14.75,3.75,22.17,4.29,29.51,25.76,53.09,25.84,83.77,1.25,9.29-.15,19.28,2.73,28.11,4.14-15.85,2.81-33.34,6-49.66,5.93-34.89,15-69.4,18.5-104.61-24.59,2.58-15.46,1.4-18.11,20.92C275.44,397.07,286.84,424.31,279.34,448.59Z"/><path class="cls-1" d="M278,283.94c-2.81,7.26,2.18,19.44,2.42,28.42,8,58.32-4.38,29.75,43.25,34.74,3-22.4,1-45.05-2.58-67.3-1.72-5.38,1.25-16.08-6.24-17C300.81,265.36,289.57,276.14,278,283.94Z"/><path class="cls-3" d="M305.65,351.86C299.1,402,284.57,450.31,282,501.29c-2.81,17.72-.31,35.21,2.34,52.78.08,3.2,2,6.87-.78,9.29-5.08-11.25-3.67-25.85-6.25-38.18-.78-12.26-3.74-24.28-5.31-36.38-.85-16.4-1.87-32.87-8.58-48-10.78-21.47-18.9-43.88-20.3-68.08-.31-2.89-1.25-1.64-2.42-1.09-3.67,2.34-6.56.39-6.25,6.09.16,9.91.39,19.82.78,29.74,1.33,29.67,6.61,58.65,13.14,88.21,1.74,7.87,3.77,13.72,4.69,21.08,1.32,10.65,1.77,20.54,2.55,31,2.49,25.89,22.61,61.08,29.1,88,.24.17.72,1.3,1.58,3.95,1.37,4.47.21,7.67-3.69,10.66C267.72,658.37,266,676.57,258.29,690c-8,21.05-39.56,22.13.42,32.1,8,1.44,16.17,1.88,24.05-1.55,27.55-9.47,1.54-47.47,20.31-50.9,2.94,1.67,2,6.66,2,9.6-1.41,12.85,2.3,25.55,3.57,38.11a7,7,0,0,0,1.28-.87,14,14,0,0,1,11-4.78c-.11-.38-.22-.77-.34-1.15.3-17.9,9.64-39.49-4.65-54.2a13.71,13.71,0,0,1-4-7.91c-1.42-8.45.64-15.3,2.78-23.24,0,0,0-6.25.06-6.46.72-2.12-5.55-77.84-10.78-116.56-3.9-16.48-2.81-31.7-.31-48.09,1.17-21,11.63-40.05,11.79-61.13,1-14.52,6.09-28.11,7.89-42.47C323.53,347,306,349.91,305.65,351.86Z"/><path id="P4T_-_85-2" data-name="P4T - 85" d="M407.69,118.59c3.28-5.47-12.33-8.82-16-10.93-4.84-1.48,1.09-6.48.31-9.6-.7-6-9.21-13.82-15.54-10.54C378,89,381.07,92,381,93.69c-1.4,4.29-3,8.51-7.88,10.85-3.05,1.4-4.14,1.17-5.23-1.8-4.69-13.35-11-3.67-14.76-18.58-1.72-7-5.47-12.41-12.26-14.91-11.71-3-9.91-13.35-23.81-11.87-10.69-1.64-7.73-14.91-25.84-11.79-1.64.63-2.81.94-4.29,1.57,6.87-26.7-14.45-41.23-38.1-46.14-10.39-2.11-19.68-1.1-28.65,4.52-1.17.78-3.13.63-4.69.55-25.06-5-42.23,26.86-34.82,48.48,3.2,6.72-26.54-5.23-31-1.72-5.08,1.57-11,1.88-14,7.58C125.39,65.27,117.19,62.3,111,76.12,99,83,92.13,84.55,89.4,100.24c-.94,5.31-3.2,1.41-3.67.78-9.14-9.29-1.72-14.52-7-21.31-8.9,0-11.55,13.43-6.87,20.14,1.41,2.5,3,5-2,5.55-9,4.52-11.79,15.77-8.82,24.67,4.37-1.88,4.06-7.58,8-10.15-1.64,10.3-4.29,22.48,5.47,29.66,1.32-5.46-.32-11.86,4-16.39,2.73,4.45.08,10.15-.31,15.07-1.17,6.48,12.64-1.88,11.63-7.34,0-4.69,5.39-.78,7.81-3.52.23-5,.54-10.14-.24-15.06,10.15,5.85,14.37-.16,16.71-9.92-10.46,4-21.94,4-9.14-8,7.26-5.93,15.54-8.35,24.83-5.46.47.15.94,1.56.78,1.79-12.33,15-17,33.81-23.34,51.68-3.75,15.77-10.93,30.37-16.32,45.52-7.26,22.87-18.34,44.19-27.4,66.36-3.2,9.76-20.69,41.3-32.79,29.59-14-8.75-20.53,4.06-5.39,9.37,7.42,1.17-23.42,14-24.51,19.83-2,3,.39,3.67,1.33,3.59,3.2-.32,2.88,1.48,2.73,3.51.08,12.57,22.33-3.59,27.95-3.9-.71,3.28-4.76,4.52-6.09,7.41-3.05,5.39-1.09,9.45,5.54,8.12,13.35-5.54,20.3-20.92,34.12-26.46.08,4.53-2.42,8.66-2.81,13-.32,11.32,9.21,3.91,13.43-.62,10.07-7.57,10.93-20,11.47-31.46,3.2-11.4-12.26-9.45-5.23-15.38,20.14-19.44,43.41-40.29,43.49-70.5.62-12.49,13.35-19.44,19.51-29.35,4.3-5.62,8-11.56,12-17.34,1.17-1.71,2.81-.93,4.68.47,9.29,9,7.5,24.2,14.13,35.13,2.81,4.14-3.67,11.64-8,10.54-7.42-1.56.08,4.69-4.22,6.56-19.36,8-34.35,23.74-38.8,44.42-6.48,23.19-13.89,46.3-17.17,70.19-2.66,23.58-3.36,47.39-4.84,71-5.7,29-3.83,58.71-2.27,88,1.25,27.09,6.9,54.79,7.68,80.55.78,13.28,7,33.69,10.15,43.72,5.46,17.18,7.66,15,3.9,31.23-9.8,26.51-40.35,39.8-44.72,68.29-4.27,51.8-9.51,34.19,49.37,34.64,9.84-1.23,5.1-13.49,6.73-20.41,1.34-10-1.73-20.2,1-30,5-10.41-7.42-26.2,6.47-32,7.59,16.54,1.26,36.08-1.07,53.36-1.14,7.25-.16,14.67-1.07,22-.89,7.62,2.51,8.1,9,7.82,7.59-1.89,11.49-1.07,11.22-13a129.36,129.36,0,0,1,3.14-29.53c.83-26.14,19.33-55,4.84-79.49-5.1-5.81-6.66-3.47-8.23-4.25-2.57-14.94.78-21.08,4.69-38.25,14-42.94,33.08-88.52,47.6-132.09,9.68-34.81,8.43-72.6,18.5-106.95,2.65,13.58-.47,28,.39,41.92,1.95,26.86,1.48,54.57,7.26,80.88,4.22,18,9,36.61,13,53.4.31,30.68,6.89,60.49,20.94,87.82,7.34,19.52,3.65,10.22,10.37,30.09,1.15,3.55.46,6.76-3.52,8.87-12.63,7.93-17.37,23.32-22.85,36.26-17.4,35.56-25.41,9.09-24.2,61.76.15,7.18,3,9.24,10.16,8.45,15.81-1.69,31.66-3.53,47.5-5.37,7.3-.36,4.54-8.43,5.09-13.41.36-5.26.8-10.5,1.33-15.8-.09-9.16,4.64-17.32,2.88-26.48-.13-7.25-1.85-15,1.87-21.57.84,14.86,2.35,29.92,3.59,44.7.25,6.65-.93,37.57,9.79,34.28,18.44-.47,13.11-8.79,12.81-21.88-2.81-14-2.86-28.44-1.35-42.69,5.45-28.29-11-26.4-10.34-43.92-.74-7,1.37-18.46,1.37-18.46a45.08,45.08,0,0,0,.84-6.93c-.05-1.66-3.18-37.57-5.52-57.08-1.56-13.28-2.52-28.18-3.07-42.07-2.42-18.19-7.34-36.23-3.28-54.5-.47-12.41,2.74-24.28,5.86-36,7.18-31,11.71-62.76,16-94.3-.54-26.39-2.5-53.64-8.43-79.32-5.62-25.85-30-26.16-31.3-34.67,1.48-6-2.89-2.18-5.24-4.84-2-4.29-4-9.91.08-15.07,5.7-5.77,8.2-15.77,16.4-17.95,1.4.23,2.65,2.73,2.5,4.45,6.63,22.87,17.72,44.65,30.83,64.48,6,10.23,11.71,20.69,17.73,30.92,6,7.81,1.32,15.07-2.11,22.88-3.67,15.22-20.07,24.82-18,41.76.55,6.48,7.19,3.91,9.45.08,3.59-7.65,18-9.76,19.52.08,1.79,6.56-2.66,45.75,10,37.24.78-.47,2.11-1.09,2.65-.78,7.81,4.76,4.3-6.72,9.45-4.61,3.28,1.64,5.47-1.09,5.78-3.43a38.75,38.75,0,0,1,.35-4.14c9.1-1.34,10-32.35,9.17-39.9-1.4-16.47-12.72-13.35-14.83-23.42-4.06-40.91-6.71-82.28-21.31-121.24-9.68-23.81-14.45-50-31.47-70-2.18-2.81-2.65-3.28.63-5.54s4.06-1.48,5.46,1.33c3,6.32,3,6.32,9.37,3.35,5.62-3.82,14.68,5.62,7.65,9.76-2.34,1.41-5,2.27-7.49,3.59-.94.47-3.12-.23-1.25,2.66,4.76,7.34,12.41,10,20.3,12,0-7.26-2.34-25.37,5.7-8.2,2.81,7.26,7.34,2.11,10.22-2.26,3.28-6.87,12.49,11.24,24.91-3.75-4.37-.78-8.67.39-10.93-4.76C401.84,125.3,403.24,127.26,407.69,118.59Zm-159.4,5.54c1.18-6.4-5.23-19,1.72-22.4,4.53-2,9.53-3.59,12.73-8,3-1.88,11.24-1.64,12.88,2.1-1.33,4.45-5.47,46.77-9.6,42.55-3.2-1.79-14.52-9.84-16.87-5.7,4.61,3.52,10.7,4.76,15.77,7.73,2.58,7.65-11.55,13.82-17,16.94-.07-.54-.23-1-.31-1.48v-7.42C247.9,139.82,248.37,131.94,248.29,124.13Zm-1.42-29.59c3.51-3,7.88-6.55,11.94-3.43,3.36,2.73-9.21,6.87-11.09,8.82C246.09,99.07,247.18,96.18,246.87,94.54Zm32.08,2c.55-3,7.19-4.37,9.14-2.1,2.18,4.45-.63,10.07-.63,14.91-2.42,18.34-10.38,34.5-25.53,44.73C274.42,137.8,276.06,116.48,279,96.57ZM273.57,91c-4.77-1.25-10.93-.08-14.21-4.29.86-.16,1.95,0,2.57-.39,4.53-3.28,8-.71,11.48,2,2.73.15,5.15-.39,7.49-.24,1.18.08,2.27,1.41,3.44,2.19C281.22,92.9,277.24,91.27,273.57,91Zm-19.13-4.68c-3.51,1.4-7.26,6.09-10.93,2-2.34-1.49-8,.47-10.7-1C221,79.24,205.49,69.72,204,54.18c-2.5-13.82,2.73-32.79,18.65-35,10.15-2.5,20.46-1.88,28.66,4.91,15.61,8.59,26.7,37.32,11.94,50.13C257.87,77.84,258.81,83.07,254.44,86.35Zm-32,46.21c-12.73.39-18,12.11-19.28-2.88-.71-12.81-2.74-24,.15-36.15,1.88-4.53,8.9-4.45,13.12-4.61,3.51.94,6.09,7.19,9.45,8.59,5.38,1.8,3.9,5.93,3.74,9.37-.23,6.56-1.09,13.12-1.4,19.67C228,132.41,228.13,131.94,222.43,132.56ZM225,147.63c-.39,1.1-1.1,1.88-1.25,1.72-5.23-3.2-11.24-5.54-15.93-9.45,4.06-3,9.84-3.43,14.6-5.07C230.08,132.49,225,143.65,225,147.63Zm-23.89-59c.15-.86.31-1.79.47-2.65a2.33,2.33,0,0,1,1.56-.39c1.09.15,2.1.39,3.12.62-.16.55-.16,1.56-.47,1.64A43.92,43.92,0,0,1,201.12,88.61Zm24,4.45c-1.79-2.42-5.23-5-3.59-8.35a7,7,0,0,1,2,.54c3.28,1.88,6.48,3.83,9.68,5.78a1.6,1.6,0,0,0,.86-.7C232,98.14,231,99.62,225.16,93.06ZM118.67,94.23c-8.35,3.75-18,5.78-21.7,15.93-3.51,8.35,7.65,6.63,12.49,8-2.81,6-10.15,1.72-14.91.78-1.79,6.25,1.41,12.57.63,18.9-3.75-1.18-3.21-6.33-7-7.73a8.44,8.44,0,0,0-.08,3.12,14.38,14.38,0,0,1-5.54,14.05c-1-5.85,1.4-11.94-3.91-16.39-1.4,1.48-3.12,2.73-4.21,4.45A33.44,33.44,0,0,0,72,141c-5.23-4.61,3-18.58.31-25.77a17.16,17.16,0,0,0-8.59,7.65c-3.2-6.63,4.14-14,10.23-16.08,8.12-2.58-3.9-10.23-1-16.24.46-2.81,2.1-5.38,3.35-8,2.5-.39,2,2.11,1.56,3.75-2.18,7.73,3.52,17.33,10.93,18.81,5.47,2,2.74-13.89,11.32-19.83,3.83-4,11.79-2.42,14.06-8,3-8.74,9.91-11.32,18.27-12.1a10.44,10.44,0,0,0,6.08-3c11-12.64,27.49-3.74,41.15-2.5,11,1.64-3.91-14.36,6.56-33.41C190,16.16,211.5-1.56,217.75,13.9c.54,1.56,1,3.28-1.33,4.21-17.1,7.65-19.6,31.86-12.34,47.16,2.19,7.65,16.94,13.58,15.54,18.11-.23,4.68-5.62-1.25-7.18,0-2.74,3-5,1.56-7.58-.08-5.54-2.5-5.85,7.18-13.81,3a7.28,7.28,0,0,0-1.72,2.18c-.31-.54-.7-1.09-1-1.56.71-.23,1.33-.39,2-.62a3.12,3.12,0,0,0,.31-2c-5.16-1.1-8,6.32-11.24-1-1.1-2.34-4.61-2.5-6.8-.15-3.12,3.43-7.18,3.43-11.24,4.06-9.05,1.79-18.19,3.51-26.54,7.41C130.23,96.5,123.52,94.31,118.67,94.23ZM200,121.09c.08,3.43-.07,5.31.16,8.2-.55-.47-1.56-.79-1.64-1.33-2.11-11.95-8.43-23-7.1-35.68-.39-3.9,5.31-.23,9.21-2.58a11.69,11.69,0,0,0-.47,1.57C198.38,101.26,197.06,111.17,200,121.09ZM178.16,85.41c-.54.55-1.09,1.64-1.56,1.64a10.91,10.91,0,0,1-2.89-1.33,3.53,3.53,0,0,0,.55-.54C175.74,84.32,176.76,85.25,178.16,85.41ZM20.46,294.7c1.1-.15,2.34-.7,3.28-.39a48.58,48.58,0,0,1,5.7,3.05h1.17c.78,1.72,4.84-.55,3.67,2.5C30.85,303.14,20.77,300.56,20.46,294.7ZM155.13,163.09c-6.79,9.13-11.71,19.75-20.53,27.32-16.94,13.51-7.88,36.54-21.23,53.25-10.23,14.68-22.57,25.53-34.75,37.94-2.1,3.12-1.17,5,2.27,6.25,9.84,2.49,2.58,17.8,2.26,25-2.18,8.59-9,15.07-16.39,19.28-.31-6.17,3.12-12.1,2.73-18.42-9.13-1-15.3,7.73-22.41,12.25-6.4,4.14-10.3,13-18.65,13.12,0-5,12.33-12,6.16-14.76-8.58-2.65-18,9.53-26.54,6.8,2.5-8,18.58-7.26,21.78-14.6-8.74.23-16.39,7.8-25.14,8.12-1.87-.39-2.11-.63-.15-1.95,16.31-11.17,33.72-20.62,48.48-34C63.32,277,67.38,261.93,73.86,248c10.54-26.15,21.71-52.15,31.62-78.62,2.58-7.1,4.37-14.6,6.32-21.93,1.25-5,2.66-6.33,7.73-6.48,14.68-1.1,24.83,8.74,34.9,17.87C156.15,160.28,156.62,160.9,155.13,163.09ZM159,159c-11.87-9.44-22.64-22.64-39.58-21-3.36.16-3.83-.7-2.89-3.67,6.32-15.3,13-38.17,31.54-40.91,7.88-1.79,15.3-3.59,22.87-4.52,4.92-.71,10.7,2.18,15.54,1.09,2.11-.94,1.95.08,1.79,1.33-2.18,15.61,7.58,29.19,10.46,43.64-8.11-3.83-16-8.2-24.9-10.23-2.42-.31-4.84.55-6.64-2,4.3-5,12.11-6.17,16.24-11.24-5.23-1.57-10.3,8.19-14.67,3.43-.55-.62-1.88-.7-2.89-1.09.47,3.28,2.57,5.54-1.1,7.73-10.54,9-15.22,20.22-6.63,33.41A3.9,3.9,0,0,1,159,159Zm7.34-32.71c18.26,2.66,33.57,12.65,48.79,22.41,2.58,2.5,10.23,2.81,6.71,7.57-4.29,4.06-8.58,7.18-14.36,7.57-10.85,4.14-17.41,10.31-30.21,6.48C159.66,166.53,147.64,134.75,166.38,126.24Zm4.76,47.31c1.25-.39,2.42-.86,3.67-1.33.08.63.15,1.33.23,2a2.84,2.84,0,0,1-1.95.39A16.82,16.82,0,0,1,171.14,173.55Zm-22.88,56.29c3.36-2.34,6.72-4.61,10-6.87,3.28-1.17,6.55-7.18,9.13-4.84A221.38,221.38,0,0,1,178,255.6c-11-4.52-20.92-12.18-30.21-19.67C144.2,232.73,144.13,232.81,148.26,229.84ZM120.39,294.4c3.44-12.8,7-24.67,10-36.77.7-2.65,2.18-2.1,3.2-1.79,7.41,2.65,14.91,5.38,22.17,8.59.93.39,1.4,3.74.93,5.3-6.24,16.79-13,33.34-15.92,51.14-2.34,6.09.7,16.63-5.93,19.83-5.08-.55-22.25,3.67-23.66-1.8C112.59,323.84,114.93,308.53,120.39,294.4Zm26,52.55c-1.87,10.85-4.06,21.86-3,32.94,1.1,5.08.24,9.6,2.35,14.05,3-3.43,2-8,2.81-12.1a92.24,92.24,0,0,1,13-34c2.73-4.37,4.68-4.76,10-3l.38.17c-4.83,3.71-4.65,12.56-7.56,17.94-2.89,7.73-6.64,15.23-8.9,23.19a254.29,254.29,0,0,0-6,28.73c-1.32,5.7,1.57,12.18-1.79,17.41-6.32-27.79-13.66-58.24-7.5-86.74C141.71,342.42,148.73,340.93,146.39,347Zm2.5,2.57c1.17-1.48.47-5.7,1.72-6.09,2.42-.47,8.66-2.5,9.83.63-3.35,6.63-6.87,13.27-10.38,19.83-1.33,5.23-.78,9.91-3.9,13.66C144.75,368.49,148.34,358.81,148.89,349.52Zm-12.34,97.75c-2.81-18.51-7.8-36.62-9.83-55.2a327.16,327.16,0,0,1,1.56-45.44c.15-2.26,4.37-4.37,7.34-3.28,3.12,2.81-3.28,18.43-1,26.08,2.58,27.71,9.76,55.66,11.87,83,5-4.69,4.21-29.12,5.93-37.48.94-12.56,4.37-24.51,8.67-36.22,3.09-10.91,11.38-22.3,11.07-33.68,5.38,2.4,16,2.95,18.44,7.84-1.33,17.8-8.43,34.12-13.35,51.06-9.53,26.93-27,50.74-31,79.63-2.65,13-.78,27.64-5.54,40C139.13,498.17,143,472.4,136.55,447.27ZM130.8,741c-.22,2.42-.38,4.14-4.21,4.2-13.49.3-26.92,1.57-40.35,2.44-5.65,0-7.51,1-6.48-6.48,1.95-8.61-.58-18.31,2.86-26.39,6.92,6.24,18.28,6.25,27,6.79,10.26,0,16.38-4.68,21.78-13.82C132.83,718.55,131,730,130.8,741Zm27.29-26.13c-.56,8.4-.87,16.76-.88,25.18.11,5.27-5.57,5.46-9.4,6.4-8.41,2-2.37-21.43-3.29-27.08-.37-7.83,9.49-2.09,13.84-5.75C158.27,714,158.19,714.42,158.09,714.84Zm64.5-341.51c-3.75,24.67-6.87,49.5-11.71,74-11,36.85-25.77,72.61-39.66,108.44-4.53,11.79-19,61.37-11.85,69.47,18.36,3.33,10.78,34,7,46.42-2.28,13.56-4.79,27.15-7.74,40.65-4.26-3-13.88,2.18-12.46-2.05a127.6,127.6,0,0,0,1.7-41.63,6.68,6.68,0,0,0-12.5-2c-6.09,8.22-1.19,18.85-2.19,28.27-1.51,14.26-13.55,25.8-27.77,23.66-4.77-2.1-20.74-2.91-22-8a28.19,28.19,0,0,1,7.53-17.09c14.08-17.67,31.16-30.81,37.2-53.42-1.56-24.21-10.95-40.59-15-68-4.92-56.44-15.92-113.67-6-169.72.94-18.59,2-37.24,4-55.75,2.27-3.74,8.67-1.56,12.42-2.73,2-.23,2.42,1.17,2.26,2-3,13.19-2,26.62-2.26,40,1.48,25.38,8.35,50.2,12.8,75.11,3,18.81-.39,38,1.56,56.83.94,11.79,1.09,23.58,1.33,35.29,0,.55.86,1.09,1.32,1.64,3.83-5,1.18-12.49,2.58-18.5,4.53-28.11,2.81-57.46,15.85-83.54,7.88-18.35,18.42-35.68,23.19-55.2,3.67-11.94,7.88-23.73,10.07-36.06,1-1.72.31-9.45,2.81-8.9,8.43,4.29,16.47,9.44,24.75,13.74C223.52,367.87,222.9,370.68,222.59,373.33Zm3.2-21.93c-2.58,22.79.15,10.93-28-.47-15.69-5.39-32.16-14.06-49.11-10.93-2.49.78-4.6-1.64-4-4.37,4.3-22.49,9.6-44.82,18-66.21,3.59-3.28,22.25,14.83,25.53,18.66,11.47,15.3,24.67,29,37.94,42.78C231.64,336.87,229.14,344.92,225.79,351.4Zm76.43-.16c-3.52,35.21-12.57,69.72-18.5,104.61-3.21,16.32-1.88,33.81-6,49.66-2.88-8.83-1.48-18.82-2.73-28.11-.08-30.68-21.55-54.26-25.84-83.77-.7-7.42-2.65-14.75-3.75-22.17-.54-4.06,3.67-4.06,5.86-5.47,4.53-3.35,10.3,28.73,14.36,33,4.61,7.26,5.62,14.29,7.11,22.33,3.51,8.82,4.06,18.34,6.63,27.24,7.5-24.28-3.9-51.52,4.77-76.43C286.76,352.64,277.63,353.82,302.22,351.24Zm-21,15.77c-2.11,14.29-4.22,26.7-3.75,40.83-.62,8,3.9,16.79,1.09,24.36-3.12-6.72-2.18-14.84-4.84-21.71-6.63-14.44-12.72-29.12-16.63-44.57-.47-1.41,4.61-5.47,5.78-4.69,1.48,5.78,2,12.49,4.53,18,1.64,3.43,4,6.32,3.82,10.46,0,.86,1.64,1.8,2.58,2.73.39-1.25,1.25-2.57,1.09-3.75-.54-8.82-3.67-28.33,5.23-32.94.63,1.33,1.72,2.58,1.8,3.82A48.78,48.78,0,0,1,281.22,367Zm-9.37,12.49c-4,2.11-4.3-12.57-5.31-15.46a6.26,6.26,0,0,1,6.4-6,17.7,17.7,0,0,1-.47,3.67C270.13,367.56,271.38,373.57,271.85,379.5Zm3.2-25.53a170.72,170.72,0,0,0-33.65,13.9c-6.09,3.28-6,3.36-6.24-3.44-.16-9.21-4.06-19.9,2-27.95,9.13-11.94,14.28-26.23,24.59-37.39,2.89-1.95,8.43-11.17,10.93-9.29,5.46,19.13,4.29,39.58,7.88,59.18C281.3,353.89,277.08,353.35,275.05,354Zm16.5,388.15c-.16,2.12-.42,4.29-3.34,4.61-10.12,1-20.19,2.13-30.33,3.23-32.88,7-19.68-5.57-21.67-29.86,0-1.82.79-2.48,2.27-1.48,16.53,8.78,41.62,13.94,54.85-3C293.87,724.45,292,733.31,291.55,742.12ZM316,748.27c-8.67,3-6.18-17.23-8-22.89-2.54-8.46,10.31-7.3,13-13.34,3,10.34,3.58,20.62,3.67,31C325.53,749,319.73,746,316,748.27ZM315.49,393c-.16,21.08-10.62,40.12-11.79,61.13-2.5,16.39-3.59,31.61.31,48.09,5.23,38.72,11.5,114.44,10.78,116.56-.08.21-.06,6.46-.06,6.46-2.14,7.94-4.2,14.79-2.78,23.24a13.71,13.71,0,0,0,4,7.91c14.29,14.71,4.95,36.3,4.65,54.2.12.38.23.77.34,1.15a14,14,0,0,0-11,4.78,7,7,0,0,1-1.28.87c-1.27-12.56-5-25.26-3.57-38.11,0-2.94.94-7.93-2-9.6-18.77,3.43,7.24,41.43-20.31,50.9-7.88,3.43-16.06,3-24.05,1.55-40-10-8.39-11-.42-32.1,7.72-13.47,9.43-31.67,24.31-39.73,3.9-3,5.06-6.19,3.69-10.66-.86-2.65-1.34-3.78-1.58-3.95-6.49-26.88-26.61-62.07-29.1-88-.78-10.46-1.23-20.35-2.55-31-.92-7.36-2.95-13.21-4.69-21.08-6.53-29.56-11.81-58.54-13.14-88.21-.39-9.92-.62-19.83-.78-29.74-.31-5.7,2.58-3.75,6.25-6.09,1.17-.55,2.11-1.8,2.42,1.09,1.4,24.2,9.52,46.61,20.3,68.08,6.71,15.14,7.73,31.61,8.58,48,1.57,12.1,4.53,24.12,5.31,36.38,2.58,12.33,1.17,26.93,6.25,38.18,2.81-2.42.86-6.09.78-9.29-2.65-17.57-5.15-35.06-2.34-52.78,2.57-51,17.1-99.31,23.65-149.43.32-1.95,17.88-4.91,17.72-1.32C321.58,364.9,316.5,378.49,315.49,393Zm5.62-113.21c3.59,22.25,5.54,44.9,2.58,67.3-47.63-5-35.21,23.58-43.25-34.74-.24-9-5.23-21.16-2.42-28.42,11.55-7.8,22.79-18.58,36.85-21.15C322.36,263.72,319.39,274.42,321.11,279.8Zm-14.44-42.62a43,43,0,0,1,11,21.16c.07.39-.55,1.32-.86,1.24-14.6-3.74-43,30.3-41.85,20.15-.23-6-8.2-3.2-5.23,1.4s.08,5.78-2.89,8.59c-13.35,12.49-22.4,28.57-32,43.95-.78,1.41-1.32,1.72-2.81-.07-16.55-18.59-33.18-37.24-50.12-55.51-4.14-4.3-9.44-7.58-14.75-10.39-2.89-1.56-2.74-4.84-4.77-5.93s-5.3.39-7.18-.7a68,68,0,0,0-20.3-7.73c-.86-.24-2.1-2.34-1.87-2.81,7.18-10.46,5.85-21.31,17.8-8.43,15.07,10.61,30.84,17.64,45.36,28.49,7.1,4.76,14.29,9.37,21.47,14.06,4.68,3.43,8.12,8.27,14.68,7.1,19.12,5.23,10.38-20.38,53.86-41.46C290.74,248.5,303.86,231.48,306.67,237.18Zm-19.21-14.6c11,16.16,29.2,1.17-12.25,31.46a4.68,4.68,0,0,1-.16-1.79c.55-1.72,1.25-3.36,1.87-5.08C278.72,238,281.14,229.06,287.46,222.58Zm-5.54-.94c-5.7,9.92-7.1,21.24-10.93,31.78-.94,2.57-3,5.54-5.31,6.87a51.62,51.62,0,0,0-19.83,21.08c-2.34,3.9-5.62,10.54-11.4,7.18-4.6.31-8.35-.24-12.1-3.67C210.41,275.82,196.59,269,185,259.51c-7.58-11.79-6.09-28-12.1-40.91-1.88-4.22,3.12-12.65,8.19-11,12.73,10.62,36.46-10.77,34.67-1.25.39,7.89-1.88,16.32,3,23.34.31.47,0,1.49,0,2.27,2.66,8,1.09,31.93,14.21,23.89,8.67-7.19,2.34-19.91,6.17-29.36,8.12-2.42,7.65-23.42,13.66-17.56,2.42,1.56,5.07,3.35,7.73,3.74C267.16,214.54,284.89,210,281.92,221.64ZM179.8,196.74a13.22,13.22,0,0,0,2.5.23c2.5-.23,5.08-.62,7.57-.93,5-.47,9.53-1.72,14.06-.79-5.86,4.14-14.52,3.67-21.55,5.08C179.73,201.11,180.35,198.38,179.8,196.74Zm97.51,7.73c-1-.16-2-.39-3.12-.63a6.37,6.37,0,0,1,3.51-1.17C277.55,203.3,277.47,203.92,277.31,204.47Zm4.38-9.68c-6.72-2.27-13.35-4.84-20-7.34-2.42-1.41-2.65-2.5-2.81-4.92a7.09,7.09,0,0,1,2.58.86c7.1,5.31,16.08,6,23.65,10C284,193.85,282.54,195.1,281.69,194.79Zm3.43-5.7c-11.09,1.09-23-12.18-28.65-8.51-5.23,11.08,17.88,13.35,24.75,15.61-2.5,5.23-9.37,3.59-14.06,3.51-4.52-.62-8.43-4.21-13.11-4.6,2.57,10.38,19,6,23.26,14.6-28.73,7.26-24.12-21.86-35.91,9.76-5.54,6.94-6.56,6.24-6.63,15.3-1.33,5.46,2.1,11.16-1.57,16.55-2.1,4.53-6.94,3.28-8-1-1.95-6.94-4.14-13.89-3.28-21.23-5.07-6.32-3-13.74-3-20.61.54-21.24-20.38,8-37.55-3.75,11.55-5.23,27-3.75,35.83-14-1-.16-2.42-.86-3.12-.47-5.62,3.51-11.87,1.79-17.8,2.26-6.56-.23-14.6,4.45-19.6-1.17,11.09-4,24.67-1.72,34.2-9.52,2.81-3.36-.16-7.65-4.22-6.25-7.42,3.9-26.54,7-33.18,2.42,6.4-4.14,15-2.26,22.17-4.37,10.46-6.95,27.87-6.4,31.62-20.61,4.06-17.1,4.14-35,6.48-52.39.39-2.88,2.26-5.77,4-8.43,9.37-9.21,5.78,22.1,6.79,26.62,1.88,12.57-4.6,39.66,4.92,47.63a19.32,19.32,0,0,0,7.65,3c5.08.78,7.58,5.08,11.4,7.34,5.7,3,12,6.09,18.11,7.89C293.47,179.09,288.87,189.24,285.12,189.09ZM174.5,183.78c11.78-2.73,24.67-1.17,35.52-6.64-2.35,8-12.34,6.87-19,8.36-5.08.78-9.45,1.79-13.82,2.1C176.45,187.68,175.43,185.11,174.5,183.78Zm96.33-9.14c-4.91-8.82-15.84-6.16-22.32-12.88L254.6,159c4.37-1.87,8.66-3.67,13-5.46,7.5-8,16.48-11.56,26.78-13.9,7.42-.31,23.5-5.07,22.8,6.87,1.64,11.4-2.34,23.19-12.26,29.51C293.63,184.17,282.54,180.27,270.83,174.64ZM375,280.74c2.5,9.37.62,28.34,7.73,34.43,15.4,8.12,10.88,39.8,5,54.34.9-6.35,2.41-13.43-.19-18.5-4.29,7.57,1.09,18.81-5.07,25.76-2.35-3.67-.16-8.12-3-11.71-3.83,4.92-1.41,12-5,17.1-1.79-1.25-2.1-2.5-1.56-4.53-.62-3.13,1.41-8-2.34-9.37-1.72,4.68,1.09,11-3.9,14-9.76-10.15,4.21-39.66-12-44.73-11.08-4.29-13.27,5.93-20.92,10.15-6.09-17,33.41-46.61,19.75-66.21-17.25-31.07-39-60.66-48.56-95.4-.62-2.5-.7-4.76,2.58-6.17,13.5-4.68,29.82-17.64,43.95-10.46C364.67,205,375.06,242.64,375,280.74ZM338.6,136.31c18,45.75,14.21,16.47-25.92,37.24,10.93-11.87,9.76-29.82.55-42.55-.94-1.87,1.25-5.7.93-8.19-10.15,1.56-3.67,7.8-1.71,13.11-8.67-.47-17.1-.78-25.46,2-2.49.63-4.37,3.05-7.18,2.73A88.54,88.54,0,0,0,292.07,97.2c.08-2.58,1.33-2.73,2.73-2.19C316.19,99.7,329.46,117.65,338.6,136.31Zm48.79-16c.31.54.47,1.32.86,1.56,3.67,1.95,4.45,7.1,9.21,7.73-.46,5.7-11.08,1.64-13.66-1.25-4.53-6.79-6.87,5.39-10.69,7.88-.86-4.6-4.38-8-7.5-11.08-2.11-1.8-3.59,0-4.76,1.87-2.89,4.3-.78,8.59-.24,13-4.76-2.66-10.22-4.61-14.36-8.28,23.11-9.21,5-27.16-6.17-17.72-2.5,3.59-1.56-12.41-9.83-7.57C319.86,113.91,323,98.6,293,91.11c-10.54-1.17-6.41-9.45-13-6.4-8.51,5-8.43-8.2-19.75-1,2.1-8.27,12.33-8.74,12.33-19.28,4.45-25.76-21.08-55-48.48-49-3.75.24-2.42-3.2-3.83-4.61,2-5.93,18.74-9.91,23.89-7.18,16.55,1.72,34.51,9,39.74,25.61,4.84,10.07-7,26.62,4.69,20.53,17.25-6.87,14.83,6.25,24.74,10,19.83-.15,10.78,7.73,22.49,10.93,17.8,2.11,12.33,21.16,20.3,25.77,10.85-1.56,7.1,17.17,17.33,11.4,9-4,9.52-8.44,10.23-17.18,8,3.83,3.9,12.8.31,18.43-.08.15,1.17,1.48,1.56,1.4,7.18-1.33,13.58,3.28,19.83,6C401.6,127.8,394.81,119.37,387.39,120.31ZM246.24,62.22c-7.18,1.17-14.6,1.25-21.23,5.39,6.48,2.34,18-1.33,24.2-3.9C248.19,63.16,247.1,62.07,246.24,62.22ZM301,123.27a12,12,0,0,0,2.58,2,25.47,25.47,0,0,0,4.21,1.25c-.86-1.17-1.79-2.34-2.89-3.67A20.36,20.36,0,0,0,301,123.27ZM234.3,213.84c1.56-4.77,4-9.69-.08-14.06C223.37,201.27,226.72,222.5,234.3,213.84Zm-2.27-1.1c-3.12-.15-.08-6.16-.39-8.51a14.08,14.08,0,0,0,1.49-2.26C235.86,204.86,232.27,209.23,232,212.74ZM214.08,50.28c.54.7.86,1.72,1.56,1.95a13.81,13.81,0,0,0,3.59.47,22.39,22.39,0,0,0-.63-2.81A27.26,27.26,0,0,0,214.08,50.28Zm32-4.76c.54.54,1,1.64,1.56,1.71a13.93,13.93,0,0,0,3.51-.62A6.31,6.31,0,0,0,250,44.19C248.43,44.66,247.26,45.05,246.09,45.52Z"/></g></g></g></svg>