<svg xmlns="http://www.w3.org/2000/svg" viewBox="0 0 595.99 439.4"><defs><style>.cls-1{fill:#c1272d;}.cls-2{fill:red;}.cls-3{fill:#fff;}</style></defs><g id="Layer_2" data-name="Layer 2"><g id="Layer_2-2" data-name="Layer 2"><g id="Tea_Key" data-name="Tea Key"><path d="M406.63,87.73a1,1,0,0,0,.2.8C406.83,88.23,406.83,87.73,406.63,87.73Zm3.5,101c.2,0,.7,0,.7-.2-.3-.5-.6-.6-1-.5C409.83,188.23,409.83,188.73,410.13,188.73Zm-5.7-99.9c-.2.3-.4.6-.3.9A1.61,1.61,0,0,0,404.43,88.83Zm-26.7,54.1c-4.3-2.6-9.1-4.3-13.9-6.2-15.1-6.3,19.6-17.1,17-28.5-12.9-3.8-28.5,20.3-40.7,15-4.6-3.3-13.2-7.4-10.8-14.3,4.2-10.2,17.9-23.2,16.5-34.1-5.5-16.3-23.7,36-33.9,27.4-8.6-9.7-48.1-10.2-44.7-23.4,2.3-4.6,5-9.1,6.5-13.9s5.1-9.7,2.1-15.2c-1.6-3.4-4.4-3.5-5.9-.2-5.5,7.8-9.2,33.8-20,32.2-55.6-6.2-27.5,4.3-41.5-39.8-2.4-4.6-6.3-2.7-7.5,1.2-5.6,18.9,7.7,33.7-.3,33.5-8.9,1.9-17.9,3.6-26.9,5-7.7,1.7-9.8-6.7-12.8-11.9-2.3-7-3.9-13.1-12-15-.7,1.9-2.3,4-1.9,5.7,12.6,45.3,4.5,21.8-31.8,46.5-11.3,4.7-18.7-19.8-32.1-16-.7,7.5,6.9,10.6,10.9,15.8,2.8,3.2,8.8,3.1,8.8,9a1.89,1.89,0,0,1,1,.8,3.24,3.24,0,0,0,.9.8,3.18,3.18,0,0,1-.9-.3c-.3-.5-.6-.6-1.2-1-10.4-.5-17.8,12.7-25.9,18.4-4.6,4.3-5.5,4.6-10.7,1-7.5-4.7-12.1-14.2-21.8-14.6-2.3,11.7,23.5,20.9,17.3,28.8a24.85,24.85,0,0,0-5.7,11.6c8.7,1.8,11.4-8.7,19.9-8.2-.3,6.1-4.7,8.5-8.9,11.7-9.7,8.6,23.8,14.1,30.2,25.5,2.7,3.1,1.5,5.1-1.1,6.3-7.8,2.8-16.7-5.5-24.1-1.2,2,2.3,4.1,4,7.2,4.4,5.9,2.8,6.3,4.7,2.5,9.9-2.6,3.5-3.3,10.3,3,7.9,7.7-1.4,12.1-12.4,20.6-7.2,5.1,4.8,29.5,7.5,23.1,16.6-3.7,4.5-18,23-3.1,19.7,3.9-3.1,7.9-6.4,10.5-10.4,8.7-18.1,22,7.9,39.4,9.2,12.5,4.3-3.3,22.2,4.1,31,8.8-1.4,9.6-11.7,12.5-18.6,2.5-12.3,13.3-6.9,21.8-7.1,19.4-1.6,3.2,33.9,16.6,32,8.9-1.2.1-25.5,5.3-30.9,7.3-.8,14.7-1.4,22.1-2.1,6.1-.3,13.5-5.6,17,2,2,4.3,4.6,9.9,10.2,8.4,7.2-1.6-8.1-17.8-.6-18.5,12.4.1,41.4-24.4,49.3-16.8,3.5,2.1,5.8,9.4,10.7,6.2,2.8-1.8.8-3.8,0-5.5-1.7-3.5-6.8-7.1-2.1-10.5,4-4.6,11.3-8,10.9-14.8-12.2-.6-12.7,8.6-23.7,6.3.1-3.4-5.3-6.9-.3-10.2,6.1-4.1,12.4-7.8,18.7-11.6,9.8-7.1,12.1,9.6,21.5,8.9,4.2.1,4.5-3.3,2.3-5.8-26.4-17.2-5.2-14.4-18.7-33.9-21.7-33.6,12.8-7.7,25.3-.8C388.13,155.43,382,145.73,377.73,142.93Zm-294.4-1.2c1.2-1.5,2.3-3,3.5-4.5.3-1.6.4-2.6.7-2.6,10.6-1.8,15-15.9,26.1-13.6-3.6,8.7-13.4,12.4-19.9,18.7-4.2,3.6-7.5,9-13.5,5.8C81.23,144.33,82.33,143,83.33,141.73Zm24.9,62.1c1.7,0,3.4-.1,5.1-.1,7.1,1.2,10.6,4.9,14.3,9.7C122,213.73,112.53,207.63,108.23,203.83Zm29.1,11.9c-1.8.3-3.4,1.2-4.4.8s-1.4-2.2-2-3.4c1.8.9,3.6,1.7,5.4,2.6a2.1,2.1,0,0,0,1.1-.9C137.43,215.13,137.33,215.43,137.33,215.73ZM73,167.13c7-4.5,14.7-8.2,21.8-12.3,3.7-1.5,7.9-2.1,5.2-7.8-.3-.6,1.3-2.4,2.4-3.3,19.2-19.9,42.7-31.8,67-44.3,2-5.5,6-7.7,11.9-7.7,5.2-.9,9.7-4.1,14.4-3.6-7.8,8.9-4.3,2.5-13.4,3.6-.1,1.8.6,3.5.4,5.2-.1,1.3-1.4,2.4-2.2,3.6-2.2-1.6-5-5.8-6.2-1.6-2.1,7.2-11.2,10.6-15.1,17-10.3,16.1-24.3,34.9-20,54.9,4.6,13.7,10.4,31.7,24.9,38,.6.1,1.1,1.6,1.6,2.5C129.73,214.73,104.13,179.63,73,167.13Zm113.4-74.3c0,.3-.1.6-.1.9a16.48,16.48,0,0,0-2.4.6c0-.4.1-.9.1-1.3.4.2.9.5,1.3.7A2.1,2.1,0,0,0,186.43,92.83Zm-24.6,138.4c-5.7-4.4-13.7-5-14-12.9,10.4,1.1,21,6.8,32.4,7.4,4.9.7,4.9,4.2,4.6,7.8C181.83,244.13,168.43,232.43,161.83,231.23Zm23.1,28.1a2.09,2.09,0,0,0,.4-.6C185.53,259.23,185.23,259.33,184.93,259.33Zm.7-2.8c-.3-.1-.7-.2-.7-.2.1-.5.3-1.1.4-1.6A3.32,3.32,0,0,1,185.63,256.53Zm3.7-4.8a2.36,2.36,0,0,0-1,1,18.14,18.14,0,0,1-2.5.5c-.2-.1-.4-.9-.6-1.3a19.73,19.73,0,0,1,2.6-.7.49.49,0,0,0,.5.5,2.1,2.1,0,0,0,1.1-.9C189.43,251.13,189.33,251.43,189.33,251.73Zm2-12A10.58,10.58,0,0,1,188,237l4.3-.3C192,237.73,191.63,238.73,191.33,239.73Zm8.5,2.5c-2.6-4.7.3-8.2,1.2-12,4.7-3.4,13.1.5,18.2,1.8,1.7.7,1.9,4.9,2.6,7.6C224.23,248.23,204.73,241.13,199.83,242.23Zm16.5-22.5c.9.3.7.7.5,1A4.67,4.67,0,0,0,216.33,219.73Zm-2.8-4.1c-9.1,4.6-18.3.8-27.6-.1-13.5-1.4-18.5-12.4-26.1-20.6-9.3-11-16.1-27.3-10-41.2,12.6-22.4,22.5-53,52.8-54.1,6.4-1.8,9.3-7.4,17-5.8,11.2,1.9,27.5-2.3,33.7,9.9,46.2,31.7,37.3,78.9-11.1,101.4C233.53,211.53,222.73,211.13,213.53,215.63Zm26,28.1c-10.2,2.1-13.3-14.2-1.7-15.5,8.9-.5,17.3-.6,25.7-.4,1.5,0,4.2,1.4,4.1,2C272.63,245.53,248.93,241.23,239.53,243.73Zm41.4-4.4a2.09,2.09,0,0,0,.4-.6C281.53,239.23,281.23,239.33,280.93,239.33Zm4.4-6.6c-3.3,1.8-6.8,1.1-6.9-1.3-.2-2.7-2.4-6.6,2.8-8.9,9.1-1.9,29.4-22.2,36-12.7S292.23,230,285.33,232.73Zm40-22a2.1,2.1,0,0,0-1.1.9,2.77,2.77,0,0,0,.1-.9,2.1,2.1,0,0,0,1.1-.9C325.43,210.13,325.33,210.43,325.33,210.73Zm20.1-41c-12.2,8.5-21,24.1-37.1,25.1-1.3-.1-2.8,1.3-4.1,2-35.6,22.5-36.8,25.3-78.9,21.9a2.1,2.1,0,0,0-1.1.9,2.77,2.77,0,0,0,.1-.9,34.52,34.52,0,0,1,13.9-3.8c15.6-2.1,33.4-16.8,42.2-29.4,20.2-28.9,8.9-65.5-18.6-84.3,13.9-4.9,26.9,5.3,39.7,8.9,14.1,4.4,25.3,12.9,31.4,27C338.73,144.63,355.83,160.63,345.43,169.73Zm142.2-158.9c-3.2.4-7.1.5-9.4,2.4-10,7.9-22.8,6.2-33.8,10.3-13.7,3.2-26.6,8.4-39.4,14.1-7.2,2.4-7.9,1.3-10.2-6.2-4.6-19-22.3-21.2-38.5-23.9-34-10.1-69.7-7.3-104.6-6.8-31.1.3-62-2.5-92.7,2.9-50.1,1.2-100.2,6.4-147.2,24.1-7.5,2-5.7,8.9-5,14.8C4.93,52,1.93,61.43,1.13,71c-6,35.1,13.9,67.2,13.2,101.9,3,49,25.7,75.4,56.1,110.8,28.2,37.9,63.4,27.2,78.4,55.6,5.4,11.9,22.4,44.4-1.1,46-7.2-1.2-15.1-.5-22.4-.6-11.4,3.4-82.9,8.4-68,28,3.6,6.9,5.6,15.8,14,17.8,9.7,2.7,19.7,5.9,29.5,5.8,25.3.1,50.5,4.3,75.6,2.7,27.5-2.7,54.7-7.9,82.6-8.3,11.5,1.5,22.3-3.3,33.4-.9,8.2,1.4,16.1-3.2,24.5-1.1,15.7,3.9,31.6.1,47.4-1.1,1.2-.1,3.2-2.4,3.1-2.6-3.9-8.4,14.9-6.9,18.1-38.5,2.5-23.1-20.4-22.5-35.9-25.6-17.1-4.4-34.2-6.9-51.9-5.4-3.4-1.3-6.7-4.9-1.2-7.7,9.4-3.8,17.8-8.9,24.5-16.7,16.2-9.5,38-7.4,53-20.5,9-6.5,18.3-13,22.9-24,2.6-7.1,11-4.4,16.8-3.9,20.2,1.2,39.2-5.6,58.2-11.6,23.6-4.7,79.7-51.6,90.9-72.7,24.5-31.7,25.2-39.8,33-78.7C598.63,49.13,564.23-4.77,487.63,10.83Zm-119.3,394.9c-.2-.5.1-.6.4-.6A2.09,2.09,0,0,1,368.33,405.73Zm4.5-34.5c-.5.2-.5-.1-.6-.4C372.43,370.93,372.63,371.13,372.83,371.23Zm1.8,7.8c.7,1.6,1.8,3.2,2.1,5,.3,1.5-.2,3.1-.4,4.7-.8.9-1.2,1.2-1.5,1.6-.5.7-.9,1.5-1.4,2.3C375.33,386.53,366.13,382.13,374.63,379Zm-6.3,22.7a2.1,2.1,0,0,0,1.1-.9c0,.3-.1.6-.1.9a2.51,2.51,0,0,0,.1,1.9c-.8,0-1.5-.1-2.3-.1Zm31.6-170.4a2.09,2.09,0,0,0,.4-.6C400.53,231.23,400.23,231.33,399.93,231.33Zm-.5-164.7c-.2-.1-.4-.3-.6-.4C399.43,66,399.43,66.33,399.43,66.63Zm-115.1,347.1c0-.6.6-.8,1.1-.9a3.93,3.93,0,0,0,.2.6Zm4-2a2.1,2.1,0,0,0-1.1.9,2.77,2.77,0,0,0,.1-.9,2.1,2.1,0,0,0,1.1-.9C288.43,411.13,288.33,411.43,288.33,411.73Zm.9,1.1c.2.1.4.3.6.4C289.33,413.43,289.33,413.13,289.23,412.83Zm.7-1.7a2.85,2.85,0,0,1,.8-.4,14.31,14.31,0,0,1,1.1,1.5A2.65,2.65,0,0,1,289.93,411.13Zm5.5.6c.1-.4.1-.9.2-1.3.6.1,1.2.2,1.7.3C297.33,411,296.43,411.43,295.43,411.73Zm5.5-1.4a2.09,2.09,0,0,0,.4-.6C301.53,410.23,301.23,410.33,300.93,410.33Zm12.4-3.6a2.1,2.1,0,0,0-1.1.9,2.77,2.77,0,0,0,.1-.9,2.1,2.1,0,0,0,1.1-.9C313.43,406.13,313.33,406.43,313.33,406.73Zm5.5,16a4.67,4.67,0,0,0-.5-1C319.23,422,319,422.43,318.83,422.73Zm28.5-9c-.2-.5.1-.6.4-.6A2.09,2.09,0,0,1,347.33,413.73Zm8.5,1.5c.6-.2.6.1.6.4C356.23,415.53,356,415.33,355.83,415.23Zm-55-79.2c-7.5-.9-11.7,12.8-16,1.3,1.5.1,3.4-.4,4.3.3,3.2,2.9,3.1-.7,4.2-1.9,2.9-5,10.5-3.2,15.4-5.6C308.83,334,303.63,335.83,300.83,336Zm-15.6-8.4a2.77,2.77,0,0,0,.1-.9,1.58,1.58,0,0,0,1-1,4.11,4.11,0,0,0,1.5-.5.49.49,0,0,0,.5.5c1.3-1.3,2.4-3.9,2.9-3.8a75.44,75.44,0,0,1,9.2,2.9c-3.4,2.9-10.2-1.1-13.6,2.4a.49.49,0,0,0-.5-.5A2.1,2.1,0,0,0,285.23,327.63Zm60.3-9.9c-1.4.3-2.9.5-4.4.8.4-.9.7-2.5,1.2-2.6a13.86,13.86,0,0,1,4.5.3C346.43,317.43,346,317.63,345.53,317.73Zm12.3-9.5c-1.5.8-4.2,2.5-4.6,4.4a15.93,15.93,0,0,0-1.3-1.3c.5-.2,1-.4,1.4-.6-1.6-5.1,1.9-3.8,4.5-3.5a2.1,2.1,0,0,0,.9,1.1A2.77,2.77,0,0,0,357.83,308.23Zm13.5-2.5a6.4,6.4,0,0,0-1.5.5.49.49,0,0,0-.5-.5,3.77,3.77,0,0,0-1.1,1.9,12.1,12.1,0,0,0,.1-1.9,4.11,4.11,0,0,0,1.5-.5.49.49,0,0,0,.5.5,2.1,2.1,0,0,0,1.1-.9C371.43,305.13,371.33,305.43,371.33,305.73Zm-4.61,2.45-.49.41c-5.68-2.14-.93-8.42,2-11.06,1.1-.9,3.9.4,5.9.7C366.25,300.28,365.39,301.49,366.72,308.18Zm5.11-16.95c.6-.2.6.1.6.4C372.23,291.53,372,291.33,371.83,291.23Zm10.5,3.5c-1.8,0-8.8-2.3-5.6.6a2.77,2.77,0,0,0-.9-.1,1.62,1.62,0,0,0-1-1,3.2,3.2,0,0,0-.5-1.5c3.4.1,6.3.2,9.3.2A20.28,20.28,0,0,0,382.33,294.73Zm2.9-9.9c.2.1.4.3.6.4C385.33,285.43,385.33,285.13,385.23,284.83Zm5.1-4.1a15.7,15.7,0,0,1-3.9,1.1c0-.4-.2-1-.1-1l5.4-1.8Zm2.4-55.5c-4.2,16.2-3.6,35.2-15.3,48.2-21.1,24-51.3,46.9-84.9,42.3-18.5.9-20.5,25.7-13.4,38.2,3.1,7.7,9.8,11.6,18.9,12,12.2.5,24.2,3.2,36.4,3.5,12.7.5,33.2,1.4,27.9,19.3-3,26.2-42.1,4.8-53.7,12.8a178.46,178.46,0,0,0-32.3,7.2c-12.3,2.7-25.1,3.7-37.2,7.3-17.7,6.1-36.7,4.7-55.2,6.7-22.3,2.1-44.5,6-67,4-11.7-.4-23.5-.7-34.8-4.1-8-2.7-17.7-12-5.5-17a197.21,197.21,0,0,1,58.9-10.9c8.2-1.5,18.5.3,25.5-3.9,3.8-7.5,10-14.7,7.3-24-6.2-20.5-16.1-39.8-34.5-51.5a18.53,18.53,0,0,0-8-3.5c-13.5-1.9-24.6-8.2-34.2-17.7-9.5-5.7-13.7-15.6-22.5-21.9-1.8-1.1-2.2-4.4-3.7-6.3-13.5-16.9-29.6-31.8-35.7-53.2-4.3-13.8-4.5-28.3-9.4-42.1-.3-1.1-.7-2.7-.1-3.6,3.9-7.1.8-14.3,0-21.2-5.7-30-15.5-59.9-8.4-90.7,1.4-17.4,1.1-21.7,19.3-26.1,64-16.8,130.5-22.1,196.5-22.3,30,.5,59.8-1,89.7.2,18.7,2.8,37.8,5.6,56.3,9.3,5.5,1.5,5.5,7.3,7.2,11.8,11,23,12.6,48.8,13,73.9,0,4.3-.3,8.4,3.9,11.5,5.4,11.5-1.2,26.5,2.1,38.9C399.13,176.73,397.53,201.13,392.73,225.23Zm191.2-87.3c.3,19.3-12.8,35.9-23.5,50.5-23.8,35.9-67.2,68.1-108,81.2-11.7,1.5-58.5,15.8-54.5-6.5,2.3-7.4,1-18.5,7.9-23.3,12.9-4.7,26.8-6.1,40-9.7,17.3-6.8,36.8-10.6,52-21.5,23.8-19.4,39.9-45.6,54.6-72,3.8-9.3,9.4-18.1,11.4-28,3.7-25.3-18-51.8-42.5-55.7-20.2-.9-40.9-1.1-60.3,5.7-8.8,2.8-18.5,2.4-27.7,3.1-5.6-.3-10.2-.9-14.7-.9-6.2-.6-18.1,4.8-17.8-5.4-.1-8.1,1.6-10.7,9.2-13.4,14.4-4.4,28.3-11.9,43.1-14.2,9.9.4,18.3-3.8,26.9-7.7a176.71,176.71,0,0,1,39.1-4.2c43.6-1.3,70.6,41.8,67.7,82.1C586.63,111.33,588.53,125.23,583.93,137.93Zm-176.5-52.1c0,.3-.1.6-.1.9a.49.49,0,0,0-.5.5,12.43,12.43,0,0,0,.5,1.5c-.2,1.2-4.2,2.4-.5,3.5-.6,1-1.3,2-2,3a9.36,9.36,0,0,0,2,2,8.44,8.44,0,0,0,1.9,1.9,22.68,22.68,0,0,1-2.5.6c-.4,0-.7-.5-1.1-.8.6-.2,1.2-.5,1.7-.7a7.11,7.11,0,0,0-3-1,9.43,9.43,0,0,0,1-1C404.13,86.73,400.43,90,407.43,85.83Zm.3-3.7a2.09,2.09,0,0,1-.4.6C407.13,82.23,407.43,82.13,407.73,82.13Zm1.6,105.6a75.22,75.22,0,0,1,2-25,2.1,2.1,0,0,0,1.1-.9c-1.1,8.9,3.3,18.5-1.1,26.9a7.54,7.54,0,0,0-2,2,2.1,2.1,0,0,0-1.1.9,2.77,2.77,0,0,0,.1-.9,3.54,3.54,0,0,0,1.5-1.5A3.2,3.2,0,0,0,409.33,187.73Zm3.3-41.7a8.58,8.58,0,0,1-.3,1.7c-1.5,2.9-1.5,5.5,1.5,7.5a14.38,14.38,0,0,1-3.8,4.2C411.83,155.33,409.33,148.73,412.63,146Zm.9-8.5c-.9-.1-1.7-.1-2.6-.2.5-.5.9-1.1,1.4-1.6a2.1,2.1,0,0,0,1.1-.9c0,.3-.1.6-.1.9C413,136.33,413.33,136.93,413.53,137.53Zm-2.1,1.3c.5.5,1.4,1,1.3,1.4a23.38,23.38,0,0,1-.7,4.5l-1.2-1.5C411,141.13,411.23,140,411.43,138.83Zm-1,22.8c-.2-.1-.4-.3-.6-.4C410.43,161,410.43,161.33,410.43,161.63Zm2.4,29.6c-.5.2-.5-.1-.6-.4C412.43,190.93,412.63,191.13,412.83,191.23Zm-4.5,3.6c.3.9.7,1.9,1,2.9a7.47,7.47,0,0,0,1.1-2.9c0,.9-.1,1.9-.1,2.9a1.84,1.84,0,0,0-.5,1.5,12.43,12.43,0,0,0,.5,1.5c-1.6,3.1.4,9.6-3.3,10.6C401.33,206.93,408.63,200.43,408.33,194.83Zm0,33.9c4.2-7.1,7.6-15.1,7-23.6,6.3-36.1,1-74,.3-110.5-.7-7.6-3.4-15.1-6-22.4-1.2-3.3-.8-3.5,2.2-3.5,19.1.5,38,.7,56.6-4.1,36.1-7,84.6-12.6,88.4,36.6-2.1,27.5-35.9,75.4-56.7,93.6-14.2,16.6-35.9,21.1-55.7,27.8-9.3,2.5-18.5,5.2-28.3,4.2-2,.1-5.6.1-6.8,1.9a2.1,2.1,0,0,0-1.1.9A2.77,2.77,0,0,0,408.33,228.73Zm1.5-118.9c-1.5,0-3-.1-4.5-.1.3-1.3,1.6-2.5,2.8-3.8C408.73,107.23,409.33,108.53,409.83,109.83Zm-1.1-6.8c-.3.4-.6,1.1-.8,1a9,9,0,0,1-2.1-.8,3.2,3.2,0,0,0-.5-1.5,8.67,8.67,0,0,0,2.1-.9c.1.2.1.4.2.6l-1.3.3a.49.49,0,0,0-.5.5A6.34,6.34,0,0,0,408.73,103ZM228.83,217a1.35,1.35,0,0,0,1,.5C229.53,217,229.23,216.93,228.83,217Zm180.8-17.3a1,1,0,0,0,.2.8C409.83,200.23,409.83,199.73,409.63,199.73ZM293.83,336a3.18,3.18,0,0,0,.9.3C294.43,336.13,294.13,335.93,293.83,336Zm-6.7-9.3a1,1,0,0,0,.5-1c-.3,0-.8,0-.8.3S286.83,326.73,287.13,326.73Zm93.8-32.6a1.8,1.8,0,0,0,.9.4A1.8,1.8,0,0,0,380.93,294.13Zm-193.3-42.4a1,1,0,0,0,.2.8C187.83,252.23,187.83,251.73,187.63,251.73Zm187.5,42c.2,0,.7,0,.7-.2-.3-.5-.6-.6-1-.5C374.83,293.23,374.83,293.73,375.13,293.73Zm-172.3-157c-4.7,2.5-8.8,4.9-9.3,10.7-1.7,3.9-5.1,8-5.6,12.6-1.7,16.8,20.4,28.3,34.6,22.6C251.63,175.63,227.43,126.33,202.83,136.73Zm-3,13.5c2.1-4.4,20-9.9,16.2-2-.7,1.1-1.1,3,2.2,1.9,3.6-1.1,9.2,5.8,9.6,10.6C227.93,187.83,184.33,176.83,199.83,150.23Z"/><path class="cls-1" d="M371.83,291.23c.2.1.4.3.6.4C372.43,291.33,372.43,291,371.83,291.23Z"/><path class="cls-1" d="M374.83,294.23a1.62,1.62,0,0,1,1,1,2.77,2.77,0,0,1,.9.1c-3.2-2.9,3.8-.6,5.6-.6a20.28,20.28,0,0,1,1.3-1.8c-3,0-5.9-.1-9.3-.2A3.2,3.2,0,0,1,374.83,294.23Zm7,.3a1.8,1.8,0,0,1-.9-.4A1.8,1.8,0,0,1,381.83,294.53Zm-6-1c0,.2-.5.2-.7.2s-.3-.5-.3-.7C375.23,292.93,375.53,293,375.83,293.53Z"/><path class="cls-1" d="M368.23,297.53c-2.93,2.64-7.68,8.92-2,11.06l.49-.41c-1.33-6.69-.47-7.9,7.41-9.95C372.13,297.93,369.33,296.63,368.23,297.53Z"/><path class="cls-1" d="M286.33,326.73a.49.49,0,0,1,.5.5c3.4-3.5,10.2.5,13.6-2.4a75.44,75.44,0,0,0-9.2-2.9c-.5-.1-1.6,2.5-2.9,3.8a.49.49,0,0,1-.5-.5,4.11,4.11,0,0,1-1.5.5,1.58,1.58,0,0,1-1,1,2.77,2.77,0,0,1-.1.9A2.1,2.1,0,0,1,286.33,326.73Zm1.3-1a1,1,0,0,1-.5,1c-.3,0-.3-.5-.3-.7S287.33,325.73,287.63,325.73Z"/><path class="cls-1" d="M385.83,285.23c-.2-.1-.4-.3-.6-.4C385.33,285.13,385.33,285.43,385.83,285.23Z"/><path class="cls-1" d="M342.33,315.93c-.5.1-.8,1.7-1.2,2.6,1.5-.3,3-.5,4.4-.8.5-.1.9-.3,1.3-1.5A13.86,13.86,0,0,0,342.33,315.93Z"/><path class="cls-1" d="M370.33,305.73a.49.49,0,0,1-.5-.5,4.11,4.11,0,0,1-1.5.5,12.1,12.1,0,0,1-.1,1.9,3.77,3.77,0,0,1,1.1-1.9.49.49,0,0,1,.5.5,6.4,6.4,0,0,1,1.5-.5c0-.3.1-.6.1-.9A2.1,2.1,0,0,1,370.33,305.73Z"/><path class="cls-1" d="M357.83,307.23c-2.6-.3-6.1-1.6-4.5,3.5-.4.2-.9.4-1.4.6a15.93,15.93,0,0,1,1.3,1.3c.4-1.9,3.1-3.6,4.6-4.4a2.77,2.77,0,0,1,.9.1A2.1,2.1,0,0,1,357.83,307.23Z"/><path class="cls-1" d="M136.33,215.73c-1.8-.9-3.6-1.7-5.4-2.6.6,1.2,1,3,2,3.4s2.6-.5,4.4-.8c0-.3.1-.6.1-.9A2.1,2.1,0,0,1,136.33,215.73Z"/><path class="cls-2" d="M165.73,211.33c-.5-.9-1-2.4-1.6-2.5-14.5-6.3-20.3-24.3-24.9-38-4.3-20,9.7-38.8,20-54.9,3.9-6.4,13-9.8,15.1-17,1.2-4.2,4,0,6.2,1.6.8-1.2,2.1-2.3,2.2-3.6.2-1.7-.5-3.4-.4-5.2,9.1-1.1,5.6,5.3,13.4-3.6-4.7-.5-9.2,2.7-14.4,3.6-5.9,0-9.9,2.2-11.9,7.7-24.3,12.5-47.8,24.4-67,44.3-1.1.9-2.7,2.7-2.4,3.3,2.7,5.7-1.5,6.3-5.2,7.8-7.1,4.1-14.8,7.8-21.8,12.3C104.13,179.63,129.73,214.73,165.73,211.33Z"/><path class="cls-1" d="M184,93c0,.4-.1.9-.1,1.3a16.48,16.48,0,0,1,2.4-.6c0-.3.1-.6.1-.9a2.1,2.1,0,0,1-1.1.9C184.93,93.53,184.43,93.23,184,93Z"/><path class="cls-1" d="M180.23,225.73c-11.4-.6-22-6.3-32.4-7.4.3,7.9,8.3,8.5,14,12.9,6.6,1.2,20,12.9,23,2.3C185.13,229.93,185.13,226.43,180.23,225.73Z"/><path class="cls-1" d="M184.93,259.33c.3,0,.6-.1.4-.6A2.09,2.09,0,0,1,184.93,259.33Z"/><path class="cls-1" d="M113.33,203.73c-1.7,0-3.4.1-5.1.1,4.3,3.8,13.8,9.9,19.4,9.6C123.93,208.63,120.43,204.93,113.33,203.73Z"/><path class="cls-1" d="M93.73,139.73c6.5-6.3,16.3-10,19.9-18.7-11.1-2.3-15.5,11.8-26.1,13.6-.3,0-.4,1-.7,2.6-1.2,1.5-2.3,3-3.5,4.5-1,1.3-2.1,2.6-3.1,3.8C86.23,148.73,89.53,143.33,93.73,139.73Z"/><path class="cls-1" d="M293.33,335.73c-1.1,1.2-1,4.8-4.2,1.9-.9-.7-2.8-.2-4.3-.3,4.3,11.5,8.5-2.2,16-1.3,2.8-.2,8-2,7.9-5.9C303.83,332.53,296.23,330.73,293.33,335.73Zm.5.3c.3-.1.6.1.9.3A3.18,3.18,0,0,1,293.83,336Z"/><path class="cls-1" d="M386.43,281.83a15.7,15.7,0,0,0,3.9-1.1l1.4-1.7-5.4,1.8C386.23,280.83,386.43,281.43,386.43,281.83Z"/><path class="cls-1" d="M355.83,415.23c.2.1.4.3.6.4C356.43,415.33,356.43,415,355.83,415.23Z"/><path class="cls-1" d="M400.33,230.73a2.09,2.09,0,0,1-.4.6C400.23,231.33,400.53,231.23,400.33,230.73Z"/><path class="cls-1" d="M287.33,411.73a2.77,2.77,0,0,1-.1.9,2.1,2.1,0,0,1,1.1-.9c0-.3.1-.6.1-.9A2.1,2.1,0,0,1,287.33,411.73Z"/><path class="cls-1" d="M369.33,401.73c0-.3.1-.6.1-.9a2.1,2.1,0,0,1-1.1.9l-1.2,1.8c.8,0,1.5.1,2.3.1A2.51,2.51,0,0,1,369.33,401.73Z"/><path class="cls-1" d="M284.33,413.73l1.3-.3a3.93,3.93,0,0,1-.2-.6C284.93,412.93,284.33,413.13,284.33,413.73Z"/><path class="cls-1" d="M398.83,66.23c.2.1.4.3.6.4C399.43,66.33,399.43,66,398.83,66.23Z"/><path class="cls-1" d="M373.43,392.63c.5-.8.9-1.6,1.4-2.3.3-.4.7-.7,1.5-1.6.2-1.6.7-3.2.4-4.7-.3-1.8-1.4-3.4-2.1-5C366.13,382.13,375.33,386.53,373.43,392.63Z"/><path class="cls-1" d="M368.33,405.73a2.09,2.09,0,0,0,.4-.6C368.43,405.13,368.13,405.23,368.33,405.73Z"/><path class="cls-1" d="M372.83,371.23c-.2-.1-.4-.3-.6-.4C372.33,371.13,372.33,371.43,372.83,371.23Z"/><path class="cls-1" d="M295.43,411.73c1-.3,1.9-.7,1.9-1-.5-.1-1.1-.2-1.7-.3C295.53,410.83,295.53,411.33,295.43,411.73Z"/><path class="cls-1" d="M318.33,421.73a4.67,4.67,0,0,1,.5,1C319,422.43,319.23,422,318.33,421.73Z"/><path class="cls-1" d="M289.83,413.23c-.2-.1-.4-.3-.6-.4C289.33,413.13,289.33,413.43,289.83,413.23Z"/><path class="cls-1" d="M312.33,406.73a2.77,2.77,0,0,1-.1.9,2.1,2.1,0,0,1,1.1-.9c0-.3.1-.6.1-.9A2.1,2.1,0,0,1,312.33,406.73Z"/><path class="cls-1" d="M347.33,413.73a2.09,2.09,0,0,0,.4-.6C347.43,413.13,347.13,413.23,347.33,413.73Z"/><path class="cls-1" d="M289.93,411.13a2.65,2.65,0,0,0,1.9,1.1,14.31,14.31,0,0,0-1.1-1.5A2.85,2.85,0,0,0,289.93,411.13Z"/><path class="cls-1" d="M300.93,410.33c.3,0,.6-.1.4-.6A2.09,2.09,0,0,1,300.93,410.33Z"/><path class="cls-1" d="M184.93,256.33s.4.1.7.2a3.32,3.32,0,0,0-.3-1.8C185.23,255.23,185,255.83,184.93,256.33Z"/><path class="cls-1" d="M407,211.33c3.7-1,1.7-7.5,3.3-10.6a12.43,12.43,0,0,1-.5-1.5,1.84,1.84,0,0,1,.5-1.5c0-1,.1-2,.1-2.9a7.47,7.47,0,0,1-1.1,2.9c-.3-1-.7-2-1-2.9C408.63,200.43,401.33,206.93,407,211.33Zm2.6-11.6c.2,0,.2.5.2.8A1,1,0,0,1,409.63,199.73Z"/><path class="cls-1" d="M413.43,134.83a2.1,2.1,0,0,1-1.1.9c-.5.5-.9,1.1-1.4,1.6.9.1,1.7.1,2.6.2-.2-.6-.5-1.2-.2-1.8C413.33,135.43,413.43,135.13,413.43,134.83Z"/><path class="cls-1" d="M407.33,82.73a2.09,2.09,0,0,0,.4-.6C407.43,82.13,407.13,82.23,407.33,82.73Z"/><path class="cls-1" d="M413.83,155.23c-3-2-3-4.6-1.5-7.5a8.58,8.58,0,0,0,.3-1.7c-3.3,2.7-.8,9.3-2.6,13.4A14.38,14.38,0,0,0,413.83,155.23Z"/><path class="cls-1" d="M408.33,190.73a2.77,2.77,0,0,1-.1.9,2.1,2.1,0,0,1,1.1-.9,7.54,7.54,0,0,1,2-2c4.4-8.4,0-18,1.1-26.9a2.1,2.1,0,0,1-1.1.9,75.22,75.22,0,0,0-2,25,3.2,3.2,0,0,1,.5,1.5A3.54,3.54,0,0,1,408.33,190.73Zm2.5-2.2c0,.2-.5.2-.7.2s-.3-.5-.3-.7C410.23,187.93,410.53,188,410.83,188.53Z"/><path class="cls-1" d="M397.73,113.43c-4.2-3.1-3.9-7.2-3.9-11.5-.4-25.1-2-50.9-13-73.9-1.7-4.5-1.7-10.3-7.2-11.8-18.5-3.7-37.6-6.5-56.3-9.3-29.9-1.2-59.7.3-89.7-.2-66,.2-132.5,5.5-196.5,22.3-18.2,4.4-17.9,8.7-19.3,26.1-7.1,30.8,2.7,60.7,8.4,90.7.8,6.9,3.9,14.1,0,21.2-.6.9-.2,2.5.1,3.6,4.9,13.8,5.1,28.3,9.4,42.1,6.1,21.4,22.2,36.3,35.7,53.2,1.5,1.9,1.9,5.2,3.7,6.3,8.8,6.3,13,16.2,22.5,21.9,9.6,9.5,20.7,15.8,34.2,17.7a18.53,18.53,0,0,1,8,3.5c18.4,11.7,28.3,31,34.5,51.5,2.7,9.3-3.5,16.5-7.3,24-7,4.2-17.3,2.4-25.5,3.9a197.21,197.21,0,0,0-58.9,10.9c-12.2,5-2.5,14.3,5.5,17,11.3,3.4,23.1,3.7,34.8,4.1,22.5,2,44.7-1.9,67-4,18.5-2,37.5-.6,55.2-6.7,12.1-3.6,24.9-4.6,37.2-7.3a178.46,178.46,0,0,1,32.3-7.2c11.6-8,50.7,13.4,53.7-12.8,5.3-17.9-15.2-18.8-27.9-19.3-12.2-.3-24.2-3-36.4-3.5-9.1-.4-15.8-4.3-18.9-12-7.1-12.5-5.1-37.3,13.4-38.2,33.6,4.6,63.8-18.3,84.9-42.3,11.7-13,11.1-32,15.3-48.2,4.8-24.1,6.4-48.5,7.1-72.9C396.53,139.93,403.13,124.93,397.73,113.43Zm-19.8,39.7c-12.5-6.9-47-32.8-25.3.8,13.5,19.5-7.7,16.7,18.7,33.9,2.2,2.5,1.9,5.9-2.3,5.8-9.4.7-11.7-16-21.5-8.9-6.3,3.8-12.6,7.5-18.7,11.6-5,3.3.4,6.8.3,10.2,11,2.3,11.5-6.9,23.7-6.3.4,6.8-6.9,10.2-10.9,14.8-4.7,3.4.4,7,2.1,10.5.8,1.7,2.8,3.7,0,5.5-4.9,3.2-7.2-4.1-10.7-6.2-7.9-7.6-36.9,16.9-49.3,16.8-7.5.7,7.8,16.9.6,18.5-5.6,1.5-8.2-4.1-10.2-8.4-3.5-7.6-10.9-2.3-17-2-7.4.7-14.8,1.3-22.1,2.1-5.2,5.4,3.6,29.7-5.3,30.9-13.4,1.9,2.8-33.6-16.6-32-8.5.2-19.3-5.2-21.8,7.1-2.9,6.9-3.7,17.2-12.5,18.6-7.4-8.8,8.4-26.7-4.1-31-17.4-1.3-30.7-27.3-39.4-9.2-2.6,4-6.6,7.3-10.5,10.4-14.9,3.3-.6-15.2,3.1-19.7,6.4-9.1-18-11.8-23.1-16.6-8.5-5.2-12.9,5.8-20.6,7.2-6.3,2.4-5.6-4.4-3-7.9,3.8-5.2,3.4-7.1-2.5-9.9-3.1-.4-5.2-2.1-7.2-4.4,7.4-4.3,16.3,4,24.1,1.2,2.6-1.2,3.8-3.2,1.1-6.3-6.4-11.4-39.9-16.9-30.2-25.5,4.2-3.2,8.6-5.6,8.9-11.7-8.5-.5-11.2,10-19.9,8.2a24.85,24.85,0,0,1,5.7-11.6c6.2-7.9-19.6-17.1-17.3-28.8,9.7.4,14.3,9.9,21.8,14.6,5.2,3.6,6.1,3.3,10.7-1,8.1-5.7,15.5-18.9,25.9-18.4.6.4.9.5,1.2,1a3.18,3.18,0,0,0,.9.3,3.24,3.24,0,0,1-.9-.8,1.89,1.89,0,0,0-1-.8c0-5.9-6-5.8-8.8-9-4-5.2-11.6-8.3-10.9-15.8,13.4-3.8,20.8,20.7,32.1,16,36.3-24.7,44.4-1.2,31.8-46.5-.4-1.7,1.2-3.8,1.9-5.7,8.1,1.9,9.7,8,12,15,3,5.2,5.1,13.6,12.8,11.9,9-1.4,18-3.1,26.9-5,8,.2-5.3-14.6.3-33.5,1.2-3.9,5.1-5.8,7.5-1.2,14,44.1-14.1,33.6,41.5,39.8,10.8,1.6,14.5-24.4,20-32.2,1.5-3.3,4.3-3.2,5.9.2,3,5.5-.6,10.4-2.1,15.2s-4.2,9.3-6.5,13.9c-3.4,13.2,36.1,13.7,44.7,23.4,10.2,8.6,28.4-43.7,33.9-27.4,1.4,10.9-12.3,23.9-16.5,34.1-2.4,6.9,6.2,11,10.8,14.3,12.2,5.3,27.8-18.8,40.7-15,2.6,11.4-32.1,22.2-17,28.5,4.8,1.9,9.6,3.6,13.9,6.2C382,145.73,388.13,155.43,377.93,153.13Z"/><path class="cls-1" d="M404.83,96.23a9.43,9.43,0,0,1-1,1,7.11,7.11,0,0,1,3,1c-.5.2-1.1.5-1.7.7.4.3.7.8,1.1.8a22.68,22.68,0,0,0,2.5-.6,8.44,8.44,0,0,1-1.9-1.9,9.36,9.36,0,0,1-2-2c.7-1,1.4-2,2-3-3.7-1.1.3-2.3.5-3.5a12.43,12.43,0,0,1-.5-1.5.49.49,0,0,1,.5-.5c0-.3.1-.6.1-.9C400.43,90,404.13,86.73,404.83,96.23Zm1.8-8.5c.2,0,.2.5.2.8A1,1,0,0,1,406.63,87.73Zm-2.2,1.1a1.61,1.61,0,0,1-.3.9C404,89.43,404.23,89.13,404.43,88.83Z"/><path class="cls-2" d="M301.53,110.13c-12.8-3.6-25.8-13.8-39.7-8.9,27.5,18.8,38.8,55.4,18.6,84.3-8.8,12.6-26.6,27.3-42.2,29.4a34.52,34.52,0,0,0-13.9,3.8,2.77,2.77,0,0,1-.1.9,2.1,2.1,0,0,1,1.1-.9c42.1,3.4,43.3.6,78.9-21.9,1.3-.7,2.8-2.1,4.1-2,16.1-1,24.9-16.6,37.1-25.1,10.4-9.1-6.7-25.1-12.5-32.6C326.83,123,315.63,114.53,301.53,110.13ZM228.83,217c.4-.1.7,0,1,.5A1.35,1.35,0,0,1,228.83,217Z"/><path class="cls-1" d="M519.13,15.93a176.71,176.71,0,0,0-39.1,4.2c-8.6,3.9-17,8.1-26.9,7.7-14.8,2.3-28.7,9.8-43.1,14.2-7.6,2.7-9.3,5.3-9.2,13.4-.3,10.2,11.6,4.8,17.8,5.4,4.5,0,9.1.6,14.7.9,9.2-.7,18.9-.3,27.7-3.1,19.4-6.8,40.1-6.6,60.3-5.7,24.5,3.9,46.2,30.4,42.5,55.7-2,9.9-7.6,18.7-11.4,28-14.7,26.4-30.8,52.6-54.6,72-15.2,10.9-34.7,14.7-52,21.5-13.2,3.6-27.1,5-40,9.7-6.9,4.8-5.6,15.9-7.9,23.3-4,22.3,42.8,8,54.5,6.5,40.8-13.1,84.2-45.3,108-81.2,10.7-14.6,23.8-31.2,23.5-50.5,4.6-12.7,2.7-26.6,2.9-39.9C589.73,57.73,562.73,14.63,519.13,15.93Z"/><path class="cls-1" d="M406.33,101.73l1.3-.3c-.1-.2-.1-.4-.2-.6a8.67,8.67,0,0,1-2.1.9,3.2,3.2,0,0,1,.5,1.5,9,9,0,0,0,2.1.8c.2.1.5-.6.8-1a6.34,6.34,0,0,1-2.9-.8A.49.49,0,0,1,406.33,101.73Z"/><path class="cls-1" d="M405.33,109.73c1.5,0,3,.1,4.5.1-.5-1.3-1.1-2.6-1.7-3.9C406.93,107.23,405.63,108.43,405.33,109.73Z"/><path class="cls-1" d="M412,144.73a23.38,23.38,0,0,0,.7-4.5c.1-.4-.8-.9-1.3-1.4-.2,1.2-.4,2.3-.6,4.4Z"/><path class="cls-1" d="M410.43,161.63c0-.3,0-.6-.6-.4C410,161.33,410.23,161.53,410.43,161.63Z"/><path class="cls-1" d="M412.83,191.23c-.2-.1-.4-.3-.6-.4C412.33,191.13,412.33,191.43,412.83,191.23Z"/><path class="cls-3" d="M253.33,103.73c-6.2-12.2-22.5-8-33.7-9.9-7.7-1.6-10.6,4-17,5.8-30.3,1.1-40.2,31.7-52.8,54.1-6.1,13.9.7,30.2,10,41.2,7.6,8.2,12.6,19.2,26.1,20.6,9.3.9,18.5,4.7,27.6.1s20-4.1,28.7-10.5C290.63,182.63,299.53,135.43,253.33,103.73Zm-30.8,78.9c-14.2,5.7-36.3-5.8-34.6-22.6.5-4.6,3.9-8.7,5.6-12.6.5-5.8,4.6-8.2,9.3-10.7C227.43,126.33,251.63,175.63,222.53,182.63Z"/><path class="cls-2" d="M218.23,150.13c-3.3,1.1-2.9-.8-2.2-1.9,3.8-7.9-14.1-2.4-16.2,2-15.5,26.6,28.1,37.6,28,10.5C227.43,155.93,221.83,149,218.23,150.13Z"/><path class="cls-1" d="M216.33,219.73a4.67,4.67,0,0,1,.5,1C217,220.43,217.23,220,216.33,219.73Z"/><path class="cls-1" d="M281.23,222.53c-5.2,2.3-3,6.2-2.8,8.9.1,2.4,3.6,3.1,6.9,1.3,6.9-2.7,38.6-13.3,31.9-22.9S290.33,220.63,281.23,222.53Z"/><path class="cls-1" d="M280.93,239.33c.3,0,.6-.1.4-.6A2.09,2.09,0,0,1,280.93,239.33Z"/><path class="cls-1" d="M188.33,251.73a.49.49,0,0,1-.5-.5,19.73,19.73,0,0,0-2.6.7c.2.4.4,1.2.6,1.3a18.14,18.14,0,0,0,2.5-.5,2.36,2.36,0,0,1,1-1c0-.3.1-.6.1-.9A2.1,2.1,0,0,1,188.33,251.73Zm-.7,0c.2,0,.2.5.2.8A1,1,0,0,1,187.63,251.73Z"/><path class="cls-1" d="M219.23,232c-5.1-1.3-13.5-5.2-18.2-1.8-.9,3.8-3.8,7.3-1.2,12,4.9-1.1,24.4,6,22-2.6C221.13,236.93,220.93,232.73,219.23,232Z"/><path class="cls-1" d="M191.33,239.73c.3-1,.7-2,1-3l-4.3.3A10.58,10.58,0,0,0,191.33,239.73Z"/><path class="cls-1" d="M263.53,227.83c-8.4-.2-16.8-.1-25.7.4-11.6,1.3-8.5,17.6,1.7,15.5,9.4-2.5,33.1,1.8,28.1-13.9C267.73,229.23,265,227.83,263.53,227.83Z"/><path class="cls-1" d="M324.33,210.73a2.77,2.77,0,0,1-.1.9,2.1,2.1,0,0,1,1.1-.9c0-.3.1-.6.1-.9A2.1,2.1,0,0,1,324.33,210.73Z"/></g></g></g></svg>