<svg xmlns="http://www.w3.org/2000/svg" viewBox="0 0 418.17 479.56"><defs><style>.cls-1{fill:#ed1e79;}.cls-2{fill:#fbb03b;}</style></defs><g id="Layer_2" data-name="Layer 2"><g id="Layer_2-2" data-name="Layer 2"><g id="Teddy_Key" data-name="Teddy Key"><path d="M263.22,55.68c3.4-4.8,7.7-8.9,9.4-13.8,3.7-14.8-22.9-22.5-30.8-9.6C225.42,46.08,247.52,67.48,263.22,55.68Zm-1.8-24.3c13.9,5.4,2.4,24.2-9.7,23.2C229.52,51.48,246,25.28,261.42,31.38Zm131.7,255.3c-9.3-13.3-19.2-25.9-30.9-37.5-5.56-6-15.26-18.6-24-19.7C361,225.8,373.75,193,374.92,172c.4-7.6.2-8.3,7.8-7.4,44.3,1.3,43.2-78.2,1.3-80.7-15.7-1.6-29.6,4.3-38.1,19.1-.2.3-1.7.5-1.9.2-13.7-17.8-30.8-34.3-55.1-33.3,6.3-9.1,9.5-19,5.9-29.6-5.6-13.7-10.1-31.1-24.7-37.9-28.6-11-69.3,18-53.9,49.1,3.6,5.1,6,11.1,9,16.7,1.2,2,1.4,2.7-1.5,3.4-5.4,1.1-10.6,3.3-16,4.8-29.3,8.5-25.2,45.4-19,68.7-29.9-4.7-59.6-16.9-85.6-32.8-16.9-10.1-20.8,11.2-25.7,22.4-8.4,18.6,2.9,41.2,22.8,45.6,13.3,3.8,28,4.6,40.7,9.9-28.3,27.5-43.9,69.1-44,108.7-1.1,8.8-1.5,29.5-6.6,35.5-21.8,14-75.9-13.7-85.3.9a33.28,33.28,0,0,0-4.3,24.5c.9,8.2-1.3,22.3,7.6,26.4,27.3,2.3,54.8,4.2,82.1.3,18.2-.6,36.5-.4,54-6.2,11.3-3.9,18.7,8.1,27.5,13.1-17.5,12.9-35.2,25.7-51.6,40.1-7.3,7.2-26.1,13.4-23,25.7,5.8,13.5,21.9,15.7,34.4,20.1,14.5,2.5,25.1-12.1,37.1-18.2,18.3-14.6,45.2-13.2,61.4-30.3,9.7-15,23.9-25.3,37.5-36.5,15.9-15.2,30.9-31.6,46.5-47,4.48-7.46,22.6-28.39,22.27-38,8.34,11,20.83,18.7,30.43,28.69,8.5,11.1,36.2,1.2,45.6-5.8C430.52,317.78,400.32,299.78,393.12,286.68Zm5.9,47.7c-8.3.9-18.2,6.6-26.1,2.3-10.63-7.71-23.64-27.3-36.71-29,0-.09,0-.2-.09-.29l-.18.26c-.24,0-.48-.06-.72-.07.13.18.27.35.39.53C325,322.74,315,342.57,301.12,354.68c-16.8,14-28.8,32.8-47.4,44.7-17.2,9.5-22.6,31.8-41.8,38.1a211.59,211.59,0,0,0-57.8,26.9c-15.5,14.5-23,10.6-41.1,4.1-10.5-5.5-14.9-12.7-4.1-20.4,14.6-11.9,29.1-23.9,43.7-35.7,18.2-15.8,37.4-12.4,8.9-32.9-11.6-11.5-27.7,2.1-41.5,1.7a757.51,757.51,0,0,1-103.3,2.2c-7.4-.1-11.1-3.3-10.8-11.3,1.7-12-6.9-38,12.8-36.7,26.3,1.5,53,15.8,78,.8,6-33.4,3-66.9,17.9-98.4,7.3-15.6,15.2-30.4,27.8-42.5,6.5-6.3,15.2-.3,22.5-2.6-10-10-27.8-5.6-40.2-12.8-12-2.7-24.9-.6-35.1-9.4-15.7-13.2-9.6-36.7.5-51.4,1.5-2.9,4.3-6.3,8.6-4.3,13.5,5.1,23.2,16.5,37.2,20.2,14.3,3.6,27.3,11.4,42.3,12.6a23.54,23.54,0,0,1,11.9,4.8c13.7,11.3,26.2,31.3,45.8,30.5-3.5-6.5-11.8-6.6-16.8-11.1-25.8-20.2-31.4-34.1-29.2-66.8,7.1-43.9,58.9-12.7,33.7-50.3-18-20.3,5.8-49.4,29.1-50,18.9-5.5,29.2,14,36.1,28.5,7.4,15.1,1.6,33.5-12.9,42.2,2.7.2,5.5,1.7,8.1.5,23.6-7.2,46,14.8,58.7,32.6,2.6,3.7,3.5,3,5.2.2,5.6-12.9,20.4-21.6,34.5-21.1,39.8,3.6,37.5,72,1.8,72.8-4.3.3-11.4-4.2-14.1.2,2.4,21.4-6,45.5-22.6,59.7-3.9,3-9,4.3-10.6,9.4l.4-.06c22.77,26.14,51.76,55.24,72.5,83.36C419.32,321.58,408.92,332.48,399,334.38Zm-17-195c22.5-4.8,10.8-41.6-11.3-27.2C356.42,121.58,369.42,139.38,382,139.38Zm-8.6-23c9.5-9.2,22.5,5.9,13.6,14.5C378.22,142.78,361.42,124.08,373.42,116.38Zm-72-10.6c-2.1-1.1-4.9-.6-7.5-.8,0,2.1-.6,4.3.2,6.1,1.5,3.6,4.6,2.3,7.6,1.1C301.82,109.78,302.42,106.28,301.42,105.78Zm-62.2,3.8c-.2,1.7,2.2,4.6,4.1,5.4,4,1.8,5-2.6,7.4-4.8C253.52,98.88,239.92,100.38,239.22,109.58Zm29.8,94c-13.9-4.8-29-12.7-43.9-9.2-11.6,2.5-25.2,2.3-35.8,7.5-33,21-48.3,66.9-34.7,103.4,23.5,43.1,80.9,37.9,112.1,5.9C296.72,281.88,315,227.08,269,203.58Zm4.3,93.1c-22.6,29.1-66.3,49-99.2,24.8-31.6-24.5-21.4-74.3,1.8-101.4,2.9-4,6.5-6.3,11.9-7.4,29.2-12.3,65.7-20,91.6,3.7C302.52,238.38,290.42,274.68,273.32,296.68ZM311,146.08c-7.3-1.2-7.3,4.5-7.8,9.9,5,3.7,12.1-.9,9.5-8.3C312,147,311.52,146.08,311,146.08Zm-42.4-5.5c-5.5,13.3-2.5,26.6,14,26.7,1.4.1,2.9-1.2,4.3-1.9-11-4.4-20-4.7-14.9-19.6,1.1-5.5,5.6-10.6,4.5-16.3-.9.6-1.8,1-2.7,1.6-3.2,2.1-6.3,4.2-9.6,6.6-11.9,7.9-24-.2-36.2-2.9.7,5.3,7.8,5.8,11.9,8C249.72,147.18,258.92,145.58,268.62,140.58Z"/><path class="cls-1" d="M251.72,54.58c12.1,1,23.6-17.8,9.7-23.2C246,25.28,229.52,51.48,251.72,54.58Z"/><path class="cls-1" d="M387,130.88c8.9-8.6-4.1-23.7-13.6-14.5C361.42,124.08,378.22,142.78,387,130.88Z"/><path class="cls-1" d="M187.82,212.68c-5.4,1.1-9,3.4-11.9,7.4-23.2,27.1-33.4,76.9-1.8,101.4,32.9,24.2,76.6,4.3,99.2-24.8,17.1-22,29.2-58.3,6.1-80.3C253.52,192.68,217,200.38,187.82,212.68Z"/><path class="cls-2" d="M336.92,229.68c1.6-5.1,6.7-6.4,10.6-9.4,16.6-14.2,25-38.3,22.6-59.7,2.7-4.4,9.8.1,14.1-.2,35.7-.8,38-69.2-1.8-72.8-14.1-.5-28.9,8.2-34.5,21.1-1.7,2.8-2.6,3.5-5.2-.2-12.7-17.8-35.1-39.8-58.7-32.6-2.6,1.2-5.4-.3-8.1-.5,14.5-8.7,20.3-27.1,12.9-42.2-6.9-14.5-17.2-34-36.1-28.5-23.3.6-47.1,29.7-29.1,50,25.2,37.6-26.6,6.4-33.7,50.3-2.2,32.7,3.4,46.6,29.2,66.8,5,4.5,13.3,4.6,16.8,11.1-19.6.8-32.1-19.2-45.8-30.5a23.54,23.54,0,0,0-11.9-4.8c-15-1.2-28-9-42.3-12.6-14-3.7-23.7-15.1-37.2-20.2-4.3-2-7.1,1.4-8.6,4.3-10.1,14.7-16.2,38.2-.5,51.4,10.2,8.8,23.1,6.7,35.1,9.4,12.4,7.2,30.2,2.8,40.2,12.8-7.3,2.3-16-3.7-22.5,2.6-12.6,12.1-20.5,26.9-27.8,42.5-14.9,31.5-11.9,65-17.9,98.4-25,15-51.7.7-78-.8-19.7-1.3-11.1,24.7-12.8,36.7-.3,8,3.4,11.2,10.8,11.3a757.51,757.51,0,0,0,103.3-2.2c13.8.4,29.9-13.2,41.5-1.7,28.5,20.5,9.3,17.1-8.9,32.9-14.6,11.8-29.1,23.8-43.7,35.7-10.8,7.7-6.4,14.9,4.1,20.4,18.1,6.5,25.6,10.4,41.1-4.1a211.59,211.59,0,0,1,57.8-26.9c19.2-6.3,24.6-28.6,41.8-38.1,18.6-11.9,30.6-30.7,47.4-44.7C315,342.57,325,322.74,335.61,308.11c-.12-.18-.26-.35-.39-.53.24,0,.48.05.72.07l.18-.26c0,.09.06.2.09.29,13.07,1.7,26.08,21.29,36.71,29,7.9,4.3,17.8-1.4,26.1-2.3,9.9-1.9,20.3-12.8,10.8-21.4-20.74-28.12-49.73-57.22-72.5-83.36Zm33.8-117.5c22.1-14.4,33.8,22.4,11.3,27.2C369.42,139.38,356.42,121.58,370.72,112.18Zm-128.9-79.9c7.9-12.9,34.5-5.2,30.8,9.6-1.7,4.9-6,9-9.4,13.8C247.52,67.48,225.42,46.08,241.82,32.28Zm8.9,77.9c-2.4,2.2-3.4,6.6-7.4,4.8-1.9-.8-4.3-3.7-4.1-5.4C239.92,100.38,253.52,98.88,250.72,110.18ZM228,134.78c12.2,2.7,24.3,10.8,36.2,2.9,3.3-2.4,6.4-4.5,9.6-6.6.9-.6,1.8-1,2.7-1.6,1.1,5.7-3.4,10.8-4.5,16.3-5.1,14.9,3.9,15.2,14.9,19.6-1.4.7-2.9,2-4.3,1.9-16.5-.1-19.5-13.4-14-26.7-9.7,5-18.9,6.6-28.7,2.2C235.82,140.58,228.72,140.08,228,134.78Zm38.7,176.4c-31.2,32-88.6,37.2-112.1-5.9-13.6-36.5,1.7-82.4,34.7-103.4,10.6-5.2,24.2-5,35.8-7.5,14.9-3.5,30,4.4,43.9,9.2C315,227.08,296.72,281.88,266.72,311.18Zm35-199c-3,1.2-6.1,2.5-7.6-1.1-.8-1.8-.2-4-.2-6.1,2.6.2,5.4-.3,7.5.8C302.42,106.28,301.82,109.78,301.72,112.18Zm1.5,43.8c.5-5.4.5-11.1,7.8-9.9.5,0,1,.9,1.7,1.6C315.32,155.08,308.22,159.68,303.22,156Z"/></g></g></g></svg>